  0
SECTION
  2
HEADER
  9
$ACADVER
  1
AC1012
  9
$DWGCODEPAGE
  3
ansi_1252
  9
$INSBASE
 10
0.0
 20
0.0
 30
0.0
  9
$EXTMIN
 10
1.000000000000000E+20
 20
1.000000000000000E+20
 30
1.000000000000000E+20
  9
$EXTMAX
 10
-1.000000000000000E+20
 20
-1.000000000000000E+20
 30
-1.000000000000000E+20
  9
$LIMMIN
 10
0.0
 20
0.0
  9
$LIMMAX
 10
12.0
 20
9.0
  9
$ORTHOMODE
 70
     0
  9
$REGENMODE
 70
     1
  9
$FILLMODE
 70
     1
  9
$QTEXTMODE
 70
     0
  9
$MIRRTEXT
 70
     1
  9
$DRAGMODE
 70
     2
  9
$LTSCALE
 40
1.0
  9
$OSMODE
 70
    37
  9
$ATTMODE
 70
     1
  9
$TEXTSIZE
 40
0.2
  9
$TRACEWID
 40
0.05
  9
$TEXTSTYLE
  7
STANDARD
  9
$CLAYER
  8
0
  9
$CELTYPE
  6
BYLAYER
  9
$CECOLOR
 62
   256
  9
$CELTSCALE
 40
1.0
  9
$DELOBJ
 70
     1
  9
$DISPSILH
 70
     0
  9
$DIMSCALE
 40
1.0
  9
$DIMASZ
 40
0.18
  9
$DIMEXO
 40
0.0625
  9
$DIMDLI
 40
0.38
  9
$DIMRND
 40
0.0
  9
$DIMDLE
 40
0.0
  9
$DIMEXE
 40
0.18
  9
$DIMTP
 40
0.0
  9
$DIMTM
 40
0.0
  9
$DIMTXT
 40
0.18
  9
$DIMCEN
 40
0.09
  9
$DIMTSZ
 40
0.0
  9
$DIMTOL
 70
     0
  9
$DIMLIM
 70
     0
  9
$DIMTIH
 70
     1
  9
$DIMTOH
 70
     1
  9
$DIMSE1
 70
     0
  9
$DIMSE2
 70
     0
  9
$DIMTAD
 70
     0
  9
$DIMZIN
 70
     0
  9
$DIMBLK
  1

  9
$DIMASO
 70
     1
  9
$DIMSHO
 70
     1
  9
$DIMPOST
  1

  9
$DIMAPOST
  1

  9
$DIMALT
 70
     0
  9
$DIMALTD
 70
     2
  9
$DIMALTF
 40
25.4
  9
$DIMLFAC
 40
1.0
  9
$DIMTOFL
 70
     0
  9
$DIMTVP
 40
0.0
  9
$DIMTIX
 70
     0
  9
$DIMSOXD
 70
     0
  9
$DIMSAH
 70
     0
  9
$DIMBLK1
  1

  9
$DIMBLK2
  1

  9
$DIMSTYLE
  2
STANDARD_ACAD
  9
$DIMCLRD
 70
     0
  9
$DIMCLRE
 70
     0
  9
$DIMCLRT
 70
     0
  9
$DIMTFAC
 40
1.0
  9
$DIMGAP
 40
0.09
  9
$DIMJUST
 70
     0
  9
$DIMSD1
 70
     0
  9
$DIMSD2
 70
     0
  9
$DIMTOLJ
 70
     1
  9
$DIMTZIN
 70
     0
  9
$DIMALTZ
 70
     0
  9
$DIMALTTZ
 70
     0
  9
$DIMFIT
 70
     5
  9
$DIMUPT
 70
     0
  9
$DIMUNIT
 70
     2
  9
$DIMDEC
 70
     4
  9
$DIMTDEC
 70
     4
  9
$DIMALTU
 70
     2
  9
$DIMALTTD
 70
     2
  9
$DIMTXSTY
  7
STANDARD
  9
$DIMAUNIT
 70
     0
  9
$LUNITS
 70
     4
  9
$LUPREC
 70
     3
  9
$SKETCHINC
 40
0.1
  9
$FILLETRAD
 40
0.5
  9
$AUNITS
 70
     0
  9
$AUPREC
 70
     0
  9
$MENU
  1
.
  9
$ELEVATION
 40
0.0
  9
$PELEVATION
 40
0.0
  9
$THICKNESS
 40
0.0
  9
$LIMCHECK
 70
     0
  9
$CHAMFERA
 40
0.0
  9
$CHAMFERB
 40
0.0
  9
$CHAMFERC
 40
0.0
  9
$CHAMFERD
 40
0.0
  9
$SKPOLY
 70
     0
  9
$TDCREATE
 40
2458927.80244382
  9
$TDUPDATE
 40
2459257.519527049
  9
$TDINDWG
 40
0.0000000116
  9
$TDUSRTIMER
 40
0.0000000116
  9
$USRTIMER
 70
     1
  9
$ANGBASE
 50
0.0
  9
$ANGDIR
 70
     0
  9
$PDMODE
 70
     0
  9
$PDSIZE
 40
0.0
  9
$PLINEWID
 40
0.0
  9
$COORDS
 70
     1
  9
$SPLFRAME
 70
     0
  9
$SPLINETYPE
 70
     6
  9
$SPLINESEGS
 70
     8
  9
$ATTDIA
 70
     0
  9
$ATTREQ
 70
     1
  9
$HANDLING
 70
     1
  9
$HANDSEED
  5
147
  9
$SURFTAB1
 70
     6
  9
$SURFTAB2
 70
     6
  9
$SURFTYPE
 70
     6
  9
$SURFU
 70
     6
  9
$SURFV
 70
     6
  9
$UCSNAME
  2

  9
$UCSORG
 10
0.0
 20
0.0
 30
0.0
  9
$UCSXDIR
 10
1.0
 20
0.0
 30
0.0
  9
$UCSYDIR
 10
0.0
 20
1.0
 30
0.0
  9
$PUCSNAME
  2

  9
$PUCSORG
 10
0.0
 20
0.0
 30
0.0
  9
$PUCSXDIR
 10
1.0
 20
0.0
 30
0.0
  9
$PUCSYDIR
 10
0.0
 20
1.0
 30
0.0
  9
$USERI1
 70
     0
  9
$USERI2
 70
     0
  9
$USERI3
 70
     0
  9
$USERI4
 70
     0
  9
$USERI5
 70
     0
  9
$USERR1
 40
0.0
  9
$USERR2
 40
0.0
  9
$USERR3
 40
0.0
  9
$USERR4
 40
0.0
  9
$USERR5
 40
0.0
  9
$WORLDVIEW
 70
     1
  9
$SHADEDGE
 70
     3
  9
$SHADEDIF
 70
    70
  9
$TILEMODE
 70
     1
  9
$MAXACTVP
 70
    64
  9
$PINSBASE
 10
0.0
 20
0.0
 30
0.0
  9
$PLIMCHECK
 70
     0
  9
$PEXTMIN
 10
1.000000000000000E+20
 20
1.000000000000000E+20
 30
1.000000000000000E+20
  9
$PEXTMAX
 10
-1.000000000000000E+20
 20
-1.000000000000000E+20
 30
-1.000000000000000E+20
  9
$PLIMMIN
 10
0.0
 20
0.0
  9
$PLIMMAX
 10
12.0
 20
9.0
  9
$UNITMODE
 70
     0
  9
$VISRETAIN
 70
     1
  9
$PLINEGEN
 70
     0
  9
$PSLTSCALE
 70
     1
  9
$TREEDEPTH
 70
  3020
  9
$PICKSTYLE
 70
     1
  9
$CMLSTYLE
  2
STANDARD
  9
$CMLJUST
 70
     0
  9
$CMLSCALE
 40
1.0
  9
$SAVEIMAGES
 70
     1
  0
ENDSEC
  0
SECTION
  2
CLASSES
  0
CLASS
  1
ACDBDICTIONARYWDFLT
  2
AcDbDictionaryWithDefault
  3
ObjectDBX Classes
 90
    32768
280
     0
281
     0
  0
CLASS
  1
VISUALSTYLE
  2
AcDbVisualStyle
  3
ObjectDBX Classes
 90
     4095
280
     0
281
     0
  0
CLASS
  1
MATERIAL
  2
AcDbMaterial
  3
ObjectDBX Classes
 90
     1153
280
     0
281
     0
  0
CLASS
  1
SCALE
  2
AcDbScale
  3
ObjectDBX Classes
 90
     1153
280
     0
281
     0
  0
CLASS
  1
TABLESTYLE
  2
AcDbTableStyle
  3
ObjectDBX Classes
 90
     4095
280
     0
281
     0
  0
CLASS
  1
MLEADERSTYLE
  2
AcDbMLeaderStyle
  3
ACDB_MLEADERSTYLE_CLASS
 90
     4095
280
     0
281
     0
  0
CLASS
  1
SUN
  2
AcDbSun
  3
SCENEOE
 90
     1153
280
     0
281
     0
  0
CLASS
  1
DICTIONARYVAR
  2
AcDbDictionaryVar
  3
ObjectDBX Classes
 90
        0
280
     0
281
     0
  0
CLASS
  1
CELLSTYLEMAP
  2
AcDbCellStyleMap
  3
ObjectDBX Classes
 90
     1152
280
     0
281
     0
  0
CLASS
  1
XRECORD
  2
AcDbXrecord
  3
ObjectDBX Classes
 90
    32768
280
     0
281
     0
  0
CLASS
  1
LWPOLYLINE
  2
AcDbPolyline
  3
ObjectDBX Classes
 90
    32768
280
     0
281
     1
  0
CLASS
  1
HATCH
  2
AcDbHatch
  3
ObjectDBX Classes
 90
    32768
280
     0
281
     1
  0
CLASS
  1
ACDBPLACEHOLDER
  2
AcDbPlaceHolder
  3
ObjectDBX Classes
 90
        0
280
     0
281
     0
  0
CLASS
  1
LAYOUT
  2
AcDbLayout
  3
ObjectDBX Classes
 90
        0
280
     0
281
     0
  0
ENDSEC
  0
SECTION
  2
TABLES
  0
TABLE
  2
VPORT
  5
8
330
0
100
AcDbSymbolTable
 70
     1
  0
VPORT
  5
29
330
8
100
AcDbSymbolTableRecord
100
AcDbViewportTableRecord
  2
*ACTIVE
 70
     0
 10
0.0
 20
0.0
 11
1.0
 21
1.0
 12
10.42990654205607
 22
4.5
 13
0.0
 23
0.0
 14
0.5
 24
0.5
 15
0.5
 25
0.5
 16
0.0
 26
0.0
 36
1.0
 17
0.0
 27
0.0
 37
0.0
 40
9.0
 41
1.972972972850329
 42
50.0
 43
0.0
 44
0.0
 50
0.0
 51
0.0
 71
     0
 72
   100
 73
     1
 74
     3
 75
     0
 76
     0
 77
     0
 78
     0
  0
ENDTAB
  0
TABLE
  2
LTYPE
  5
5
330
0
100
AcDbSymbolTable
 70
     1
  0
LTYPE
  5
14
330
5
100
AcDbSymbolTableRecord
100
AcDbLinetypeTableRecord
  2
BYBLOCK
 70
     0
  3

 72
    65
 73
     0
 40
0.0
  0
LTYPE
  5
15
330
5
100
AcDbSymbolTableRecord
100
AcDbLinetypeTableRecord
  2
BYLAYER
 70
     0
  3

 72
    65
 73
     0
 40
0.0
  0
LTYPE
  5
16
330
5
100
AcDbSymbolTableRecord
100
AcDbLinetypeTableRecord
  2
CONTINUOUS
 70
     0
  3
Solid line
 72
    65
 73
     0
 40
0.0
  0
ENDTAB
  0
TABLE
  2
LAYER
  5
2
330
0
100
AcDbSymbolTable
 70
     7
  0
LAYER
  5
10
330
2
100
AcDbSymbolTableRecord
100
AcDbLayerTableRecord
  2
0
 70
     0
 62
     7
  6
CONTINUOUS
  0
LAYER
  5
6E
330
2
100
AcDbSymbolTableRecord
100
AcDbLayerTableRecord
  2
X-DIMENSIONS_GUIDE
 70
     0
 62
   216
  6
CONTINUOUS
  0
LAYER
  5
9B
330
2
100
AcDbSymbolTableRecord
100
AcDbLayerTableRecord
  2
N-SYMB
 70
     0
 62
   236
  6
CONTINUOUS
  0
LAYER
  5
C5
330
2
100
AcDbSymbolTableRecord
100
AcDbLayerTableRecord
  2
AG-DIGITAL
 70
     0
 62
   151
  6
CONTINUOUS
  0
LAYER
  5
DF
330
2
100
AcDbSymbolTableRecord
100
AcDbLayerTableRecord
  2
AG-DETAILS
 70
     0
 62
   131
  6
CONTINUOUS
  0
LAYER
  5
ED
330
2
100
AcDbSymbolTableRecord
100
AcDbLayerTableRecord
  2
X-VPRT
 70
     0
 62
     6
  6
CONTINUOUS
  0
LAYER
  5
F5
330
2
100
AcDbSymbolTableRecord
100
AcDbLayerTableRecord
  2
AG-DETAIL-DIAGRAM
 70
     0
 62
    71
  6
CONTINUOUS
  0
ENDTAB
  0
TABLE
  2
STYLE
  5
3
330
0
100
AcDbSymbolTable
 70
     1
  0
STYLE
  5
11
330
3
100
AcDbSymbolTableRecord
100
AcDbTextStyleTableRecord
  2
STANDARD
 70
     0
 40
0.0
 41
1.0
 50
0.0
 71
     0
 42
0.2
  3
txt
  4

  0
ENDTAB
  0
TABLE
  2
VIEW
  5
6
330
0
100
AcDbSymbolTable
 70
     0
  0
ENDTAB
  0
TABLE
  2
UCS
  5
7
330
0
100
AcDbSymbolTable
 70
     0
  0
ENDTAB
  0
TABLE
  2
APPID
  5
9
330
0
100
AcDbSymbolTable
 70
     2
  0
APPID
  5
12
330
9
100
AcDbSymbolTableRecord
100
AcDbRegAppTableRecord
  2
ACAD
 70
     0
  0
APPID
  5
136
330
9
100
AcDbSymbolTableRecord
100
AcDbRegAppTableRecord
  2
ACAD_MLEADERVER
 70
     0
  0
ENDTAB
  0
TABLE
  2
DIMSTYLE
  5
A
330
0
100
AcDbSymbolTable
 70
     1
  0
DIMSTYLE
105
27
330
A
100
AcDbSymbolTableRecord
100
AcDbDimStyleTableRecord
  2
STANDARD_ACAD
 70
     0
  3

  4

  5

  6

  7

 40
1.0
 41
0.18
 42
0.0625
 43
0.38
 44
0.18
 45
0.0
 46
0.0
 47
0.0
 48
0.0
140
0.18
141
0.09
142
0.0
143
25.4
144
1.0
145
0.0
146
1.0
147
0.09
 71
     0
 72
     0
 73
     1
 74
     1
 75
     0
 76
     0
 77
     0
 78
     0
170
     0
171
     2
172
     0
173
     0
174
     0
175
     0
176
     0
177
     0
178
     0
270
     2
271
     4
272
     4
273
     2
274
     2
340
11
275
     0
280
     0
281
     0
282
     0
283
     1
284
     0
285
     0
286
     0
287
     3
288
     0
  0
ENDTAB
  0
TABLE
  2
BLOCK_RECORD
  5
1
330
0
100
AcDbSymbolTable
 70
     0
  0
BLOCK_RECORD
  5
1F
330
1
100
AcDbSymbolTableRecord
100
AcDbBlockTableRecord
  2
*MODEL_SPACE
  0
BLOCK_RECORD
  5
1B
330
1
100
AcDbSymbolTableRecord
100
AcDbBlockTableRecord
  2
*PAPER_SPACE
  0
ENDTAB
  0
ENDSEC
  0
SECTION
  2
BLOCKS
  0
BLOCK
  5
20
330
1F
100
AcDbEntity
  8
0
100
AcDbBlockBegin
  2
*MODEL_SPACE
 70
     0
 10
0.0
 20
0.0
 30
0.0
  3
*MODEL_SPACE
  1

  0
ENDBLK
  5
21
330
1F
100
AcDbEntity
  8
0
100
AcDbBlockEnd
  0
BLOCK
  5
1C
330
1B
100
AcDbEntity
 67
     1
  8
0
100
AcDbBlockBegin
  2
*PAPER_SPACE
 70
     0
 10
0.0
 20
0.0
 30
0.0
  3
*PAPER_SPACE
  1

  0
ENDBLK
  5
1D
330
1B
100
AcDbEntity
 67
     1
  8
0
100
AcDbBlockEnd
  0
ENDSEC
  0
SECTION
  2
ENTITIES
  0
SPLINE
  5
6F
330
1F
100
AcDbEntity
  8
X-DIMENSIONS_GUIDE
100
AcDbSpline
210
0.0
220
0.0
230
1.0
 70
    11
 71
     3
 72
    32
 73
    28
 74
     0
 42
0.000000001
 43
0.0000000001
 40
0.0
 40
0.0
 40
0.0
 40
0.0
 40
1.0
 40
1.0
 40
1.0
 40
2.0
 40
2.0
 40
2.0
 40
3.0
 40
3.0
 40
3.0
 40
4.0
 40
4.0
 40
4.0
 40
5.0
 40
5.0
 40
5.0
 40
6.0
 40
6.0
 40
6.0
 40
7.0
 40
7.0
 40
7.0
 40
8.0
 40
8.0
 40
8.0
 40
9.0
 40
9.0
 40
9.0
 40
9.0
 10
0.0523401231643892
 20
-0.5626023884416875
 30
0.0
 10
0.0523401231643892
 20
-0.5683778503081016
 30
0.0
 10
0.0508962576977854
 20
-0.5737923458078645
 30
0.0
 10
0.0483694931312294
 20
-0.5781239422076753
 30
0.0
 10
0.0462036949313242
 20
-0.5828165049741366
 30
0.0
 10
0.0425940312648151
 20
-0.5860652022739944
 30
0.0
 10
0.037901468498354
 20
-0.5885919668405507
 30
0.0
 10
0.0332089057318928
 20
-0.5911187314071069
 30
0.0
 10
0.0277944102321303
 20
-0.5922016305070598
 30
0.0
 10
0.0212970156324135
 20
-0.5922016305070598
 30
0.0
 10
0.014198010421613
 20
-0.5922016305070598
 30
0.0
 10
0.0070990052108124
 20
-0.5922016305070598
 30
0.0
 10
0.0000000000000119
 20
-0.5922016305070598
 30
0.0
 10
0.0000000000000119
 20
-0.5724688024634785
 30
0.0
 10
0.0000000000000119
 20
-0.5527359744198973
 30
0.0
 10
0.0000000000000119
 20
-0.533003146376316
 30
0.0
 10
0.0070990052108124
 20
-0.533003146376316
 30
0.0
 10
0.014198010421613
 20
-0.533003146376316
 30
0.0
 10
0.0212970156324135
 20
-0.533003146376316
 30
0.0
 10
0.0277944102321303
 20
-0.533003146376316
 30
0.0
 10
0.0332089057318928
 20
-0.5344470118429193
 30
0.0
 10
0.037901468498354
 20
-0.5369737764094756
 30
0.0
 10
0.0425940312648151
 20
-0.5391395746093806
 30
0.0
 10
0.0462036949313242
 20
-0.5427492382758897
 30
0.0
 10
0.0483694931312294
 20
-0.5470808346757006
 30
0.0
 10
0.0508962576977854
 20
-0.5514124310755104
 30
0.0
 10
0.0523401231643892
 20
-0.5568269265752733
 30
0.0
 10
0.0523401231643892
 20
-0.5626023884416875
 30
0.0
  0
SPLINE
  5
70
330
1F
100
AcDbEntity
  8
X-DIMENSIONS_GUIDE
100
AcDbSpline
210
0.0
220
0.0
230
1.0
 70
    11
 71
     3
 72
    26
 73
    22
 74
     0
 42
0.000000001
 43
0.0000000001
 40
0.0
 40
0.0
 40
0.0
 40
0.0
 40
1.0
 40
1.0
 40
1.0
 40
2.0
 40
2.0
 40
2.0
 40
3.0
 40
3.0
 40
3.0
 40
4.0
 40
4.0
 40
4.0
 40
5.0
 40
5.0
 40
5.0
 40
6.0
 40
6.0
 40
6.0
 40
7.0
 40
7.0
 40
7.0
 40
7.0
 10
0.0202141165324614
 20
-0.5817336058741845
 30
0.0
 10
0.0267115111321771
 20
-0.5817336058741845
 30
0.0
 10
0.0314040738986383
 20
-0.5802897404075803
 30
0.0
 10
0.0350137375651474
 20
-0.576680076741072
 30
0.0
 10
0.0386234012316553
 20
-0.5734313794412141
 30
0.0
 10
0.0400672666982592
 20
-0.5687388166747529
 30
0.0
 10
0.0400672666982592
 20
-0.5626023884416875
 30
0.0
 10
0.0400672666982592
 20
-0.5564659602086229
 30
0.0
 10
0.0386234012316553
 20
-0.5517733974421618
 30
0.0
 10
0.0350137375651474
 20
-0.5485247001423039
 30
0.0
 10
0.0314040738986383
 20
-0.5452760028424459
 30
0.0
 10
0.0267115111321771
 20
-0.5434711710091913
 30
0.0
 10
0.0202141165324614
 20
-0.5434711710091913
 30
0.0
 10
0.0174467077214714
 20
-0.5434711710091913
 30
0.0
 10
0.0146792989104813
 20
-0.5434711710091913
 30
0.0
 10
0.0119118900994912
 20
-0.5434711710091913
 30
0.0
 10
0.0119118900994912
 20
-0.5562253159641891
 30
0.0
 10
0.0119118900994912
 20
-0.5689794609191868
 30
0.0
 10
0.0119118900994912
 20
-0.5817336058741845
 30
0.0
 10
0.0146792989104813
 20
-0.5817336058741845
 30
0.0
 10
0.0174467077214714
 20
-0.5817336058741845
 30
0.0
 10
0.0202141165324614
 20
-0.5817336058741845
 30
0.0
  0
SPLINE
  5
71
330
1F
100
AcDbEntity
  8
X-DIMENSIONS_GUIDE
100
AcDbSpline
210
0.0
220
0.0
230
1.0
 70
    11
 71
     3
 72
    29
 73
    25
 74
     0
 42
0.000000001
 43
0.0000000001
 40
0.0
 40
0.0
 40
0.0
 40
0.0
 40
1.0
 40
1.0
 40
1.0
 40
2.0
 40
2.0
 40
2.0
 40
3.0
 40
3.0
 40
3.0
 40
4.0
 40
4.0
 40
4.0
 40
5.0
 40
5.0
 40
5.0
 40
6.0
 40
6.0
 40
6.0
 40
7.0
 40
7.0
 40
7.0
 40
8.0
 40
8.0
 40
8.0
 40
8.0
 10
0.059920416864058
 20
-0.5326421800096648
 30
0.0
 10
0.059920416864058
 20
-0.530837348176411
 30
0.0
 10
0.0602813832307087
 20
-0.5290325163431564
 30
0.0
 10
0.0617252486973126
 20
-0.5279496172432036
 30
0.0
 10
0.0631691141639153
 20
-0.5268667181432506
 30
0.0
 10
0.0649739459971699
 20
-0.5261447854099489
 30
0.0
 10
0.0671397441970751
 20
-0.5261447854099489
 30
0.0
 10
0.0693055423969803
 20
-0.5261447854099489
 30
0.0
 10
0.0711103742302349
 20
-0.5268667181432506
 30
0.0
 10
0.0721932733301869
 20
-0.5279496172432036
 30
0.0
 10
0.0736371387967908
 20
-0.5290325163431564
 30
0.0
 10
0.0743590715300922
 20
-0.530837348176411
 30
0.0
 10
0.0743590715300922
 20
-0.5326421800096648
 30
0.0
 10
0.0743590715300922
 20
-0.5344470118429193
 30
0.0
 10
0.0736371387967908
 20
-0.5358908773095226
 30
0.0
 10
0.0721932733301869
 20
-0.5369737764094756
 30
0.0
 10
0.0711103742302349
 20
-0.5384176418760789
 30
0.0
 10
0.0693055423969803
 20
-0.5387786082427302
 30
0.0
 10
0.0671397441970751
 20
-0.5387786082427302
 30
0.0
 10
0.0649739459971699
 20
-0.5387786082427302
 30
0.0
 10
0.0631691141639153
 20
-0.5384176418760789
 30
0.0
 10
0.0617252486973126
 20
-0.5369737764094756
 30
0.0
 10
0.0602813832307087
 20
-0.5358908773095226
 30
0.0
 10
0.059920416864058
 20
-0.5344470118429193
 30
0.0
 10
0.059920416864058
 20
-0.5326421800096648
 30
0.0
  0
POLYLINE
  5
72
330
1F
100
AcDbEntity
  8
X-DIMENSIONS_GUIDE
100
AcDb2dPolyline
 66
     1
 10
0.0
 20
0.0
 30
0.0
 70
     1
  0
VERTEX
  5
73
330
72
100
AcDbEntity
  8
X-DIMENSIONS_GUIDE
100
AcDbVertex
100
AcDb2dVertex
 10
0.0729152060634894
 20
-0.5459979355757476
 30
0.0
  0
VERTEX
  5
74
330
72
100
AcDbEntity
  8
X-DIMENSIONS_GUIDE
100
AcDbVertex
100
AcDb2dVertex
 10
0.0729152060634894
 20
-0.5922016305070598
 30
0.0
  0
VERTEX
  5
75
330
72
100
AcDbEntity
  8
X-DIMENSIONS_GUIDE
100
AcDbVertex
100
AcDb2dVertex
 10
0.0610033159640101
 20
-0.5922016305070598
 30
0.0
  0
VERTEX
  5
76
330
72
100
AcDbEntity
  8
X-DIMENSIONS_GUIDE
100
AcDbVertex
100
AcDb2dVertex
 10
0.0610033159640101
 20
-0.5459979355757476
 30
0.0
  0
SEQEND
  5
77
330
72
100
AcDbEntity
  8
X-DIMENSIONS_GUIDE
  0
SPLINE
  5
78
330
1F
100
AcDbEntity
  8
X-DIMENSIONS_GUIDE
100
AcDbSpline
210
0.0
220
0.0
230
1.0
 70
    11
 71
     3
 72
    86
 73
    82
 74
     0
 42
0.000000001
 43
0.0000000001
 40
0.0
 40
0.0
 40
0.0
 40
0.0
 40
1.0
 40
1.0
 40
1.0
 40
2.0
 40
2.0
 40
2.0
 40
3.0
 40
3.0
 40
3.0
 40
4.0
 40
4.0
 40
4.0
 40
5.0
 40
5.0
 40
5.0
 40
6.0
 40
6.0
 40
6.0
 40
7.0
 40
7.0
 40
7.0
 40
8.0
 40
8.0
 40
8.0
 40
9.0
 40
9.0
 40
9.0
 40
10.0
 40
10.0
 40
10.0
 40
11.0
 40
11.0
 40
11.0
 40
12.0
 40
12.0
 40
12.0
 40
13.0
 40
13.0
 40
13.0
 40
14.0
 40
14.0
 40
14.0
 40
15.0
 40
15.0
 40
15.0
 40
16.0
 40
16.0
 40
16.0
 40
17.0
 40
17.0
 40
17.0
 40
18.0
 40
18.0
 40
18.0
 40
19.0
 40
19.0
 40
19.0
 40
20.0
 40
20.0
 40
20.0
 40
21.0
 40
21.0
 40
21.0
 40
22.0
 40
22.0
 40
22.0
 40
23.0
 40
23.0
 40
23.0
 40
24.0
 40
24.0
 40
24.0
 40
25.0
 40
25.0
 40
25.0
 40
26.0
 40
26.0
 40
26.0
 40
27.0
 40
27.0
 40
27.0
 40
27.0
 10
0.1429426811937581
 20
-0.5452760028424459
 30
0.0
 10
0.1483571766935229
 20
-0.5452760028424459
 30
0.0
 10
0.153049739459984
 20
-0.5470808346757006
 30
0.0
 10
0.1562984367598413
 20
-0.5503295319755576
 30
0.0
 10
0.1595471340596997
 20
-0.5539391956420667
 30
0.0
 10
0.1609909995263024
 20
-0.5589927247751791
 30
0.0
 10
0.1609909995263024
 20
-0.565490119374895
 30
0.0
 10
0.1609909995263024
 20
-0.57439395641895
 30
0.0
 10
0.1609909995263024
 20
-0.5832977934630049
 30
0.0
 10
0.1609909995263024
 20
-0.5922016305070598
 30
0.0
 10
0.1571406916153599
 20
-0.5922016305070598
 30
0.0
 10
0.1532903837044174
 20
-0.5922016305070598
 30
0.0
 10
0.1494400757934749
 20
-0.5922016305070598
 30
0.0
 10
0.1494400757934749
 20
-0.5836587598296555
 30
0.0
 10
0.1494400757934749
 20
-0.5751158891522513
 30
0.0
 10
0.1494400757934749
 20
-0.5665730184748471
 30
0.0
 10
0.1494400757934749
 20
-0.5629633548083388
 30
0.0
 10
0.1483571766935229
 20
-0.5604365902417825
 30
0.0
 10
0.1465523448602683
 20
-0.5582707920418776
 30
0.0
 10
0.1447475130270138
 20
-0.5564659602086229
 30
0.0
 10
0.1422207484604568
 20
-0.5553830611086701
 30
0.0
 10
0.1389720511605995
 20
-0.5553830611086701
 30
0.0
 10
0.1357233538607411
 20
-0.5553830611086701
 30
0.0
 10
0.1331965892941852
 20
-0.5564659602086229
 30
0.0
 10
0.1313917574609317
 20
-0.558631758408528
 30
0.0
 10
0.1292259592610254
 20
-0.5607975566084338
 30
0.0
 10
0.1281430601610733
 20
-0.5636852875416405
 30
0.0
 10
0.1281430601610733
 20
-0.5676559175747999
 30
0.0
 10
0.1281430601610733
 20
-0.5758378218855532
 30
0.0
 10
0.1281430601610733
 20
-0.5840197261963064
 30
0.0
 10
0.1281430601610733
 20
-0.5922016305070598
 30
0.0
 10
0.1242927522501304
 20
-0.5922016305070598
 30
0.0
 10
0.1204424443391876
 20
-0.5922016305070598
 30
0.0
 10
0.1165921364282447
 20
-0.5922016305070598
 30
0.0
 10
0.1165921364282447
 20
-0.5836587598296555
 30
0.0
 10
0.1165921364282447
 20
-0.5751158891522513
 30
0.0
 10
0.1165921364282447
 20
-0.5665730184748471
 30
0.0
 10
0.1165921364282447
 20
-0.5629633548083388
 30
0.0
 10
0.1155092373282926
 20
-0.5604365902417825
 30
0.0
 10
0.1137044054950381
 20
-0.5582707920418776
 30
0.0
 10
0.1118995736617836
 20
-0.5564659602086229
 30
0.0
 10
0.1093728090952276
 20
-0.5553830611086701
 30
0.0
 10
0.1064850781620199
 20
-0.5553830611086701
 30
0.0
 10
0.1028754144955119
 20
-0.5553830611086701
 30
0.0
 10
0.100348649928956
 20
-0.5564659602086229
 30
0.0
 10
0.0985438180957015
 20
-0.558631758408528
 30
0.0
 10
0.0963780198957963
 20
-0.5607975566084338
 30
0.0
 10
0.0956560871624949
 20
-0.5636852875416405
 30
0.0
 10
0.0956560871624949
 20
-0.5676559175747999
 30
0.0
 10
0.0956560871624949
 20
-0.5758378218855532
 30
0.0
 10
0.0956560871624949
 20
-0.5840197261963064
 30
0.0
 10
0.0956560871624949
 20
-0.5922016305070598
 30
0.0
 10
0.0916854571293351
 20
-0.5922016305070598
 30
0.0
 10
0.0877148270961754
 20
-0.5922016305070598
 30
0.0
 10
0.0837441970630156
 20
-0.5922016305070598
 30
0.0
 10
0.0837441970630156
 20
-0.576800398863289
 30
0.0
 10
0.0837441970630156
 20
-0.5613991672195183
 30
0.0
 10
0.0837441970630156
 20
-0.5459979355757476
 30
0.0
 10
0.0877148270961754
 20
-0.5459979355757476
 30
0.0
 10
0.0916854571293351
 20
-0.5459979355757476
 30
0.0
 10
0.0956560871624949
 20
-0.5459979355757476
 30
0.0
 10
0.0956560871624949
 20
-0.5488856665089545
 30
0.0
 10
0.0956560871624949
 20
-0.5517733974421614
 30
0.0
 10
0.0956560871624949
 20
-0.5546611283753684
 30
0.0
 10
0.096738986262447
 20
-0.5517733974421618
 30
0.0
 10
0.0985438180957015
 20
-0.5492466328756055
 30
0.0
 10
0.1014315490289081
 20
-0.5478027674090021
 30
0.0
 10
0.1039583135954651
 20
-0.5459979355757476
 30
0.0
 10
0.1072070108953224
 20
-0.5452760028424459
 30
0.0
 10
0.1104557081951808
 20
-0.5452760028424459
 30
0.0
 10
0.1144263382283406
 20
-0.5452760028424459
 30
0.0
 10
0.1176750355281979
 20
-0.5459979355757476
 30
0.0
 10
0.1205627664614045
 20
-0.5478027674090021
 30
0.0
 10
0.1230895310279604
 20
-0.5496075992422559
 30
0.0
 10
0.1252553292278656
 20
-0.5521343638088121
 30
0.0
 10
0.1266991946944695
 20
-0.5557440274753214
 30
0.0
 10
0.1281430601610733
 20
-0.5524953301754634
 30
0.0
 10
0.1303088583609786
 20
-0.5499685656089072
 30
0.0
 10
0.1331965892941852
 20
-0.5481637337756526
 30
0.0
 10
0.1360843202273929
 20
-0.5459979355757476
 30
0.0
 10
0.1393330175272502
 20
-0.5452760028424459
 30
0.0
 10
0.1429426811937581
 20
-0.5452760028424459
 30
0.0
  0
SPLINE
  5
79
330
1F
100
AcDbEntity
  8
X-DIMENSIONS_GUIDE
100
AcDbSpline
210
0.0
220
0.0
230
1.0
 70
    11
 71
     3
 72
    62
 73
    58
 74
     0
 42
0.000000001
 43
0.0000000001
 40
0.0
 40
0.0
 40
0.0
 40
0.0
 40
1.0
 40
1.0
 40
1.0
 40
2.0
 40
2.0
 40
2.0
 40
3.0
 40
3.0
 40
3.0
 40
4.0
 40
4.0
 40
4.0
 40
5.0
 40
5.0
 40
5.0
 40
6.0
 40
6.0
 40
6.0
 40
7.0
 40
7.0
 40
7.0
 40
8.0
 40
8.0
 40
8.0
 40
9.0
 40
9.0
 40
9.0
 40
10.0
 40
10.0
 40
10.0
 40
11.0
 40
11.0
 40
11.0
 40
12.0
 40
12.0
 40
12.0
 40
13.0
 40
13.0
 40
13.0
 40
14.0
 40
14.0
 40
14.0
 40
15.0
 40
15.0
 40
15.0
 40
16.0
 40
16.0
 40
16.0
 40
17.0
 40
17.0
 40
17.0
 40
18.0
 40
18.0
 40
18.0
 40
19.0
 40
19.0
 40
19.0
 40
19.0
 10
0.2151359545239343
 20
-0.5672949512081497
 30
0.0
 10
0.2151359545239343
 20
-0.5683778503081016
 30
0.0
 10
0.2151359545239343
 20
-0.5698217157747049
 30
0.0
 10
0.2147749881572836
 20
-0.5712655812413092
 30
0.0
 10
0.2034647086688895
 20
-0.5712655812413092
 30
0.0
 10
0.1921544291804954
 20
-0.5712655812413092
 30
0.0
 10
0.1808441496921013
 20
-0.5712655812413092
 30
0.0
 10
0.1808441496921013
 20
-0.5755971776411191
 30
0.0
 10
0.1819270487920534
 20
-0.5784849085743267
 30
0.0
 10
0.1840928469919586
 20
-0.5806507067742316
 30
0.0
 10
0.1862586451918638
 20
-0.5824555386074861
 30
0.0
 10
0.1887854097584208
 20
-0.5835384377074382
 30
0.0
 10
0.1916731406916274
 20
-0.5835384377074382
 30
0.0
 10
0.1945608716248351
 20
-0.5835384377074382
 30
0.0
 10
0.1967266698247393
 20
-0.5828165049741366
 30
0.0
 10
0.1985315016579938
 20
-0.5813726395075333
 30
0.0
 10
0.2003363334912484
 20
-0.5802897404075803
 30
0.0
 10
0.2017801989578522
 20
-0.5784849085743267
 30
0.0
 10
0.2021411653245029
 20
-0.5759581440077703
 30
0.0
 10
0.2063524396020965
 20
-0.5759581440077703
 30
0.0
 10
0.2105637138796901
 20
-0.5759581440077703
 30
0.0
 10
0.2147749881572836
 20
-0.5759581440077703
 30
0.0
 10
0.2140530554239811
 20
-0.5792068413076283
 30
0.0
 10
0.2126091899573783
 20
-0.5820945722408349
 30
0.0
 10
0.2108043581241227
 20
-0.584621336807391
 30
0.0
 10
0.2086385599242186
 20
-0.5871481013739474
 30
0.0
 10
0.2061117953576616
 20
-0.5893138995738523
 30
0.0
 10
0.2028630980578043
 20
-0.5907577650404556
 30
0.0
 10
0.1996144007579459
 20
-0.5922016305070598
 30
0.0
 10
0.1963657034580886
 20
-0.5925625968737103
 30
0.0
 10
0.1923950734249288
 20
-0.5925625968737103
 30
0.0
 10
0.1877025106584677
 20
-0.5925625968737103
 30
0.0
 10
0.1837318806253079
 20
-0.5918406641404086
 30
0.0
 10
0.1804831833254506
 20
-0.5900358323071541
 30
0.0
 10
0.1768735196589404
 20
-0.5882310004739003
 30
0.0
 10
0.1739857887257338
 20
-0.5853432695406928
 30
0.0
 10
0.1721809568924793
 20
-0.5817336058741845
 30
0.0
 10
0.1700151586925751
 20
-0.5781239422076753
 30
0.0
 10
0.1692932259592727
 20
-0.5741533121745158
 30
0.0
 10
0.1692932259592727
 20
-0.5690997830414033
 30
0.0
 10
0.1692932259592727
 20
-0.5644072202749422
 30
0.0
 10
0.1700151586925751
 20
-0.5600756238751312
 30
0.0
 10
0.1721809568924793
 20
-0.5564659602086229
 30
0.0
 10
0.1739857887257338
 20
-0.5528562965421138
 30
0.0
 10
0.1768735196589404
 20
-0.5499685656089072
 30
0.0
 10
0.1804831833254506
 20
-0.5481637337756526
 30
0.0
 10
0.1837318806253079
 20
-0.546358901942398
 30
0.0
 10
0.1877025106584677
 20
-0.5452760028424459
 30
0.0
 10
0.1923950734249288
 20
-0.5452760028424459
 30
0.0
 10
0.19708763619139
 20
-0.5452760028424459
 30
0.0
 10
0.2010582662245497
 20
-0.546358901942398
 30
0.0
 10
0.2043069635244081
 20
-0.5481637337756526
 30
0.0
 10
0.2079166271909161
 20
-0.5499685656089072
 30
0.0
 10
0.2104433917574731
 20
-0.5528562965421138
 30
0.0
 10
0.2122482235907277
 20
-0.5561049938419717
 30
0.0
 10
0.2144140217906329
 20
-0.5593536911418295
 30
0.0
 10
0.2151359545239343
 20
-0.5629633548083388
 30
0.0
 10
0.2151359545239343
 20
-0.5672949512081497
 30
0.0
  0
SPLINE
  5
7A
330
1F
100
AcDbEntity
  8
X-DIMENSIONS_GUIDE
100
AcDbSpline
210
0.0
220
0.0
230
1.0
 70
    11
 71
     3
 72
    20
 73
    16
 74
     0
 42
0.000000001
 43
0.0000000001
 40
0.0
 40
0.0
 40
0.0
 40
0.0
 40
1.0
 40
1.0
 40
1.0
 40
2.0
 40
2.0
 40
2.0
 40
3.0
 40
3.0
 40
3.0
 40
4.0
 40
4.0
 40
4.0
 40
5.0
 40
5.0
 40
5.0
 40
5.0
 10
0.203224064424455
 20
-0.5662120521081966
 30
0.0
 10
0.2035850307911057
 20
-0.5622414220750371
 30
0.0
 10
0.2025021316911536
 20
-0.5593536911418295
 30
0.0
 10
0.2003363334912484
 20
-0.5575488593085759
 30
0.0
 10
0.1981705352913432
 20
-0.5557440274753214
 30
0.0
 10
0.1956437707247872
 20
-0.5546611283753684
 30
0.0
 10
0.1923950734249288
 20
-0.5546611283753684
 30
0.0
 10
0.1891463761250704
 20
-0.5546611283753684
 30
0.0
 10
0.1866196115585145
 20
-0.5557440274753214
 30
0.0
 10
0.1844538133586093
 20
-0.5575488593085759
 30
0.0
 10
0.1822880151587051
 20
-0.5593536911418295
 30
0.0
 10
0.1808441496921013
 20
-0.5622414220750371
 30
0.0
 10
0.1808441496921013
 20
-0.5662120521081966
 30
0.0
 10
0.1883041212695525
 20
-0.5662120521081966
 30
0.0
 10
0.1957640928470038
 20
-0.5662120521081966
 30
0.0
 10
0.203224064424455
 20
-0.5662120521081966
 30
0.0
  0
SPLINE
  5
7B
330
1F
100
AcDbEntity
  8
X-DIMENSIONS_GUIDE
100
AcDbSpline
210
0.0
220
0.0
230
1.0
 70
    11
 71
     3
 72
    53
 73
    49
 74
     0
 42
0.000000001
 43
0.0000000001
 40
0.0
 40
0.0
 40
0.0
 40
0.0
 40
1.0
 40
1.0
 40
1.0
 40
2.0
 40
2.0
 40
2.0
 40
3.0
 40
3.0
 40
3.0
 40
4.0
 40
4.0
 40
4.0
 40
5.0
 40
5.0
 40
5.0
 40
6.0
 40
6.0
 40
6.0
 40
7.0
 40
7.0
 40
7.0
 40
8.0
 40
8.0
 40
8.0
 40
9.0
 40
9.0
 40
9.0
 40
10.0
 40
10.0
 40
10.0
 40
11.0
 40
11.0
 40
11.0
 40
12.0
 40
12.0
 40
12.0
 40
13.0
 40
13.0
 40
13.0
 40
14.0
 40
14.0
 40
14.0
 40
15.0
 40
15.0
 40
15.0
 40
16.0
 40
16.0
 40
16.0
 40
16.0
 10
0.2512325911890218
 20
-0.5452760028424459
 30
0.0
 10
0.2566470866887854
 20
-0.5452760028424459
 30
0.0
 10
0.2609786830885948
 20
-0.5470808346757006
 30
0.0
 10
0.2642273803884543
 20
-0.5506904983422088
 30
0.0
 10
0.2674760776883105
 20
-0.5539391956420667
 30
0.0
 10
0.2689199431549154
 20
-0.5589927247751791
 30
0.0
 10
0.2689199431549154
 20
-0.565490119374895
 30
0.0
 10
0.2689199431549154
 20
-0.57439395641895
 30
0.0
 10
0.2689199431549154
 20
-0.5832977934630049
 30
0.0
 10
0.2689199431549154
 20
-0.5922016305070598
 30
0.0
 10
0.2649493131217553
 20
-0.5922016305070598
 30
0.0
 10
0.2609786830885952
 20
-0.5922016305070598
 30
0.0
 10
0.257008053055435
 20
-0.5922016305070598
 30
0.0
 10
0.257008053055435
 20
-0.5836587598296555
 30
0.0
 10
0.257008053055435
 20
-0.5751158891522513
 30
0.0
 10
0.257008053055435
 20
-0.5665730184748471
 30
0.0
 10
0.257008053055435
 20
-0.5629633548083388
 30
0.0
 10
0.2562861203221337
 20
-0.5600756238751312
 30
0.0
 10
0.2544812884888802
 20
-0.5582707920418776
 30
0.0
 10
0.2523154902889739
 20
-0.5561049938419717
 30
0.0
 10
0.2497887257224179
 20
-0.5550220947420197
 30
0.0
 10
0.2465400284225606
 20
-0.5550220947420197
 30
0.0
 10
0.2432913311227023
 20
-0.5550220947420197
 30
0.0
 10
0.2404036001894956
 20
-0.5561049938419717
 30
0.0
 10
0.2385987683562411
 20
-0.5582707920418776
 30
0.0
 10
0.2364329701563359
 20
-0.5604365902417825
 30
0.0
 10
0.2353500710563827
 20
-0.5636852875416405
 30
0.0
 10
0.2353500710563827
 20
-0.5676559175747999
 30
0.0
 10
0.2353500710563827
 20
-0.5758378218855532
 30
0.0
 10
0.2353500710563827
 20
-0.5840197261963064
 30
0.0
 10
0.2353500710563827
 20
-0.5922016305070598
 30
0.0
 10
0.2313794410232233
 20
-0.5922016305070598
 30
0.0
 10
0.2274088109900639
 20
-0.5922016305070598
 30
0.0
 10
0.2234381809569045
 20
-0.5922016305070598
 30
0.0
 10
0.2234381809569045
 20
-0.576800398863289
 30
0.0
 10
0.2234381809569045
 20
-0.5613991672195183
 30
0.0
 10
0.2234381809569045
 20
-0.5459979355757476
 30
0.0
 10
0.2274088109900639
 20
-0.5459979355757476
 30
0.0
 10
0.2313794410232233
 20
-0.5459979355757476
 30
0.0
 10
0.2353500710563827
 20
-0.5459979355757476
 30
0.0
 10
0.2353500710563827
 20
-0.5491263107533885
 30
0.0
 10
0.2353500710563827
 20
-0.5522546859310292
 30
0.0
 10
0.2353500710563827
 20
-0.5553830611086701
 30
0.0
 10
0.2367939365229866
 20
-0.5521343638088121
 30
0.0
 10
0.2385987683562411
 20
-0.5496075992422559
 30
0.0
 10
0.2414864992894488
 20
-0.5478027674090021
 30
0.0
 10
0.2443742302226554
 20
-0.5459979355757476
 30
0.0
 10
0.2476229275225127
 20
-0.5452760028424459
 30
0.0
 10
0.2512325911890218
 20
-0.5452760028424459
 30
0.0
  0
SPLINE
  5
7C
330
1F
100
AcDbEntity
  8
X-DIMENSIONS_GUIDE
100
AcDbSpline
210
0.0
220
0.0
230
1.0
 70
    11
 71
     3
 72
    95
 73
    91
 74
     0
 42
0.000000001
 43
0.0000000001
 40
0.0
 40
0.0
 40
0.0
 40
0.0
 40
1.0
 40
1.0
 40
1.0
 40
2.0
 40
2.0
 40
2.0
 40
3.0
 40
3.0
 40
3.0
 40
4.0
 40
4.0
 40
4.0
 40
5.0
 40
5.0
 40
5.0
 40
6.0
 40
6.0
 40
6.0
 40
7.0
 40
7.0
 40
7.0
 40
8.0
 40
8.0
 40
8.0
 40
9.0
 40
9.0
 40
9.0
 40
10.0
 40
10.0
 40
10.0
 40
11.0
 40
11.0
 40
11.0
 40
12.0
 40
12.0
 40
12.0
 40
13.0
 40
13.0
 40
13.0
 40
14.0
 40
14.0
 40
14.0
 40
15.0
 40
15.0
 40
15.0
 40
16.0
 40
16.0
 40
16.0
 40
17.0
 40
17.0
 40
17.0
 40
18.0
 40
18.0
 40
18.0
 40
19.0
 40
19.0
 40
19.0
 40
20.0
 40
20.0
 40
20.0
 40
21.0
 40
21.0
 40
21.0
 40
22.0
 40
22.0
 40
22.0
 40
23.0
 40
23.0
 40
23.0
 40
24.0
 40
24.0
 40
24.0
 40
25.0
 40
25.0
 40
25.0
 40
26.0
 40
26.0
 40
26.0
 40
27.0
 40
27.0
 40
27.0
 40
28.0
 40
28.0
 40
28.0
 40
29.0
 40
29.0
 40
29.0
 40
30.0
 40
30.0
 40
30.0
 40
30.0
 10
0.2952704879204289
 20
-0.5452760028424459
 30
0.0
 10
0.3010459497868432
 20
-0.5452760028424459
 30
0.0
 10
0.3053775461866536
 20
-0.5467198683090493
 30
0.0
 10
0.3089872098531616
 20
-0.5496075992422559
 30
0.0
 10
0.31223590715302
 20
-0.5524953301754634
 30
0.0
 10
0.3144017053529253
 20
-0.5561049938419717
 30
0.0
 10
0.3154846044528773
 20
-0.5611585229750842
 30
0.0
 10
0.3117546186641517
 20
-0.5611585229750842
 30
0.0
 10
0.308024632875426
 20
-0.5611585229750842
 30
0.0
 10
0.3042946470867005
 20
-0.5611585229750842
 30
0.0
 10
0.3039336807200498
 20
-0.558631758408528
 30
0.0
 10
0.3028507816200977
 20
-0.5568269265752733
 30
0.0
 10
0.3010459497868432
 20
-0.5557440274753214
 30
0.0
 10
0.2996020843202393
 20
-0.554300162008718
 30
0.0
 10
0.2974362861203341
 20
-0.5535782292754154
 30
0.0
 10
0.2949095215537781
 20
-0.5535782292754154
 30
0.0
 10
0.2931046897205236
 20
-0.5535782292754154
 30
0.0
 10
0.2916608242539209
 20
-0.5539391956420667
 30
0.0
 10
0.2902169587873159
 20
-0.5550220947420197
 30
0.0
 10
0.2891340596873638
 20
-0.5561049938419717
 30
0.0
 10
0.2887730933207132
 20
-0.5571878929419246
 30
0.0
 10
0.2887730933207132
 20
-0.5589927247751791
 30
0.0
 10
0.2887730933207132
 20
-0.5600756238751312
 30
0.0
 10
0.2891340596873638
 20
-0.5611585229750842
 30
0.0
 10
0.2902169587873159
 20
-0.5618804557083857
 30
0.0
 10
0.2909388915206173
 20
-0.5629633548083388
 30
0.0
 10
0.2920217906205705
 20
-0.5633243211749891
 30
0.0
 10
0.2934656560871743
 20
-0.5636852875416405
 30
0.0
 10
0.2949095215537781
 20
-0.5644072202749422
 30
0.0
 10
0.2967143533870316
 20
-0.5647681866415933
 30
0.0
 10
0.2992411179535886
 20
-0.565490119374895
 30
0.0
 10
0.3028507816200977
 20
-0.5662120521081966
 30
0.0
 10
0.3057385125533044
 20
-0.5669339848414984
 30
0.0
 10
0.3079043107532095
 20
-0.5680168839414512
 30
0.0
 10
0.3100701089531148
 20
-0.5687388166747529
 30
0.0
 10
0.3118749407863693
 20
-0.5701826821413563
 30
0.0
 10
0.3136797726196228
 20
-0.5719875139746108
 30
0.0
 10
0.3151236380862277
 20
-0.5737923458078645
 30
0.0
 10
0.3158455708195291
 20
-0.5763191103744207
 30
0.0
 10
0.3158455708195291
 20
-0.5795678076742786
 30
0.0
 10
0.3158455708195291
 20
-0.5835384377074382
 30
0.0
 10
0.3144017053529253
 20
-0.5867871350072961
 30
0.0
 10
0.3111530080530679
 20
-0.5893138995738523
 30
0.0
 10
0.3082652771198602
 20
-0.5918406641404086
 30
0.0
 10
0.3039336807200498
 20
-0.5925625968737103
 30
0.0
 10
0.2985191852202861
 20
-0.5925625968737103
 30
0.0
 10
0.2927437233538718
 20
-0.5925625968737103
 30
0.0
 10
0.2876901942207611
 20
-0.5914796977737582
 30
0.0
 10
0.284080530554252
 20
-0.588952933207202
 30
0.0
 10
0.280470866887743
 20
-0.5860652022739944
 30
0.0
 10
0.2783050686878377
 20
-0.5824555386074861
 30
0.0
 10
0.2775831359545363
 20
-0.5774020094743736
 30
0.0
 10
0.281313121743262
 20
-0.5774020094743736
 30
0.0
 10
0.2850431075319876
 20
-0.5774020094743736
 30
0.0
 10
0.2887730933207132
 20
-0.5774020094743736
 30
0.0
 10
0.2891340596873638
 20
-0.5795678076742786
 30
0.0
 10
0.2902169587873159
 20
-0.5813726395075333
 30
0.0
 10
0.2920217906205705
 20
-0.5828165049741366
 30
0.0
 10
0.2934656560871743
 20
-0.5838994040740895
 30
0.0
 10
0.2959924206537303
 20
-0.584621336807391
 30
0.0
 10
0.2985191852202861
 20
-0.584621336807391
 30
0.0
 10
0.3006849834201914
 20
-0.584621336807391
 30
0.0
 10
0.3021288488867953
 20
-0.5842603704407408
 30
0.0
 10
0.3032117479867473
 20
-0.5831774713407878
 30
0.0
 10
0.3042946470867005
 20
-0.5820945722408349
 30
0.0
 10
0.3050165798200018
 20
-0.581011673140882
 30
0.0
 10
0.3050165798200018
 20
-0.5792068413076283
 30
0.0
 10
0.3050165798200018
 20
-0.5781239422076753
 30
0.0
 10
0.3042946470867005
 20
-0.5770410431077224
 30
0.0
 10
0.3035727143533991
 20
-0.5759581440077703
 30
0.0
 10
0.3024898152534459
 20
-0.5752362112744687
 30
0.0
 10
0.3014069161534939
 20
-0.574514278541167
 30
0.0
 10
0.29996305068689
 20
-0.5741533121745158
 30
0.0
 10
0.2988801515869379
 20
-0.5737923458078645
 30
0.0
 10
0.2967143533870316
 20
-0.5730704130745629
 30
0.0
 10
0.2941875888204768
 20
-0.5727094467079125
 30
0.0
 10
0.2909388915206173
 20
-0.5716265476079595
 30
0.0
 10
0.2880511605874107
 20
-0.5709046148746578
 30
0.0
 10
0.2858853623875066
 20
-0.5701826821413563
 30
0.0
 10
0.2837195641876002
 20
-0.5694607494080546
 30
0.0
 10
0.2819147323543468
 20
-0.5680168839414512
 30
0.0
 10
0.2801099005210922
 20
-0.5662120521081966
 30
0.0
 10
0.2786660350544884
 20
-0.5644072202749422
 30
0.0
 10
0.277944102321187
 20
-0.5618804557083857
 30
0.0
 10
0.277944102321187
 20
-0.5589927247751791
 30
0.0
 10
0.277944102321187
 20
-0.5550220947420197
 30
0.0
 10
0.2793879677877908
 20
-0.5517733974421618
 30
0.0
 10
0.2826366650876482
 20
-0.5492466328756055
 30
0.0
 10
0.2855243960208548
 20
-0.5467198683090493
 30
0.0
 10
0.2898559924206652
 20
-0.5452760028424459
 30
0.0
 10
0.2952704879204289
 20
-0.5452760028424459
 30
0.0
  0
SPLINE
  5
7D
330
1F
100
AcDbEntity
  8
X-DIMENSIONS_GUIDE
100
AcDbSpline
210
0.0
220
0.0
230
1.0
 70
    11
 71
     3
 72
    29
 73
    25
 74
     0
 42
0.000000001
 43
0.0000000001
 40
0.0
 40
0.0
 40
0.0
 40
0.0
 40
1.0
 40
1.0
 40
1.0
 40
2.0
 40
2.0
 40
2.0
 40
3.0
 40
3.0
 40
3.0
 40
4.0
 40
4.0
 40
4.0
 40
5.0
 40
5.0
 40
5.0
 40
6.0
 40
6.0
 40
6.0
 40
7.0
 40
7.0
 40
7.0
 40
8.0
 40
8.0
 40
8.0
 40
8.0
 10
0.3234258645191968
 20
-0.5326421800096648
 30
0.0
 10
0.3234258645191968
 20
-0.530837348176411
 30
0.0
 10
0.3241477972524993
 20
-0.5290325163431564
 30
0.0
 10
0.3252306963524514
 20
-0.5279496172432036
 30
0.0
 10
0.3266745618190541
 20
-0.5268667181432506
 30
0.0
 10
0.3284793936523098
 20
-0.5261447854099489
 30
0.0
 10
0.3306451918522139
 20
-0.5261447854099489
 30
0.0
 10
0.3328109900521203
 20
-0.5261447854099489
 30
0.0
 10
0.3346158218853748
 20
-0.5268667181432506
 30
0.0
 10
0.3360596873519776
 20
-0.5279496172432036
 30
0.0
 10
0.3371425864519296
 20
-0.5290325163431564
 30
0.0
 10
0.337864519185232
 20
-0.530837348176411
 30
0.0
 10
0.337864519185232
 20
-0.5326421800096648
 30
0.0
 10
0.337864519185232
 20
-0.5344470118429193
 30
0.0
 10
0.3371425864519296
 20
-0.5358908773095226
 30
0.0
 10
0.3360596873519776
 20
-0.5369737764094756
 30
0.0
 10
0.3346158218853748
 20
-0.5384176418760789
 30
0.0
 10
0.3328109900521203
 20
-0.5387786082427302
 30
0.0
 10
0.3306451918522139
 20
-0.5387786082427302
 30
0.0
 10
0.3284793936523098
 20
-0.5387786082427302
 30
0.0
 10
0.3266745618190541
 20
-0.5384176418760789
 30
0.0
 10
0.3252306963524514
 20
-0.5369737764094756
 30
0.0
 10
0.3241477972524993
 20
-0.5358908773095226
 30
0.0
 10
0.3234258645191968
 20
-0.5344470118429193
 30
0.0
 10
0.3234258645191968
 20
-0.5326421800096648
 30
0.0
  0
POLYLINE
  5
7E
330
1F
100
AcDbEntity
  8
X-DIMENSIONS_GUIDE
100
AcDb2dPolyline
 66
     1
 10
0.0
 20
0.0
 30
0.0
 70
     1
  0
VERTEX
  5
7F
330
7E
100
AcDbEntity
  8
X-DIMENSIONS_GUIDE
100
AcDbVertex
100
AcDb2dVertex
 10
0.3364206537186282
 20
-0.5459979355757476
 30
0.0
  0
VERTEX
  5
80
330
7E
100
AcDbEntity
  8
X-DIMENSIONS_GUIDE
100
AcDbVertex
100
AcDb2dVertex
 10
0.3364206537186282
 20
-0.5922016305070598
 30
0.0
  0
VERTEX
  5
81
330
7E
100
AcDbEntity
  8
X-DIMENSIONS_GUIDE
100
AcDbVertex
100
AcDb2dVertex
 10
0.3248697299858007
 20
-0.5922016305070598
 30
0.0
  0
VERTEX
  5
82
330
7E
100
AcDbEntity
  8
X-DIMENSIONS_GUIDE
100
AcDbVertex
100
AcDb2dVertex
 10
0.3248697299858007
 20
-0.5459979355757476
 30
0.0
  0
SEQEND
  5
83
330
7E
100
AcDbEntity
  8
X-DIMENSIONS_GUIDE
  0
SPLINE
  5
84
330
1F
100
AcDbEntity
  8
X-DIMENSIONS_GUIDE
100
AcDbSpline
210
0.0
220
0.0
230
1.0
 70
    11
 71
     3
 72
    41
 73
    37
 74
     0
 42
0.000000001
 43
0.0000000001
 40
0.0
 40
0.0
 40
0.0
 40
0.0
 40
1.0
 40
1.0
 40
1.0
 40
2.0
 40
2.0
 40
2.0
 40
3.0
 40
3.0
 40
3.0
 40
4.0
 40
4.0
 40
4.0
 40
5.0
 40
5.0
 40
5.0
 40
6.0
 40
6.0
 40
6.0
 40
7.0
 40
7.0
 40
7.0
 40
8.0
 40
8.0
 40
8.0
 40
9.0
 40
9.0
 40
9.0
 40
10.0
 40
10.0
 40
10.0
 40
11.0
 40
11.0
 40
11.0
 40
12.0
 40
12.0
 40
12.0
 40
12.0
 10
0.3689076267172077
 20
-0.5452760028424459
 30
0.0
 10
0.3732392231170182
 20
-0.5452760028424459
 30
0.0
 10
0.377209853150178
 20
-0.546358901942398
 30
0.0
 10
0.380819516816686
 20
-0.5481637337756526
 30
0.0
 10
0.3844291804831951
 20
-0.5499685656089072
 30
0.0
 10
0.3873169114164016
 20
-0.5528562965421138
 30
0.0
 10
0.3894827096163079
 20
-0.5564659602086229
 30
0.0
 10
0.3916485078162121
 20
-0.5600756238751312
 30
0.0
 10
0.3927314069161653
 20
-0.5644072202749422
 30
0.0
 10
0.3927314069161653
 20
-0.5690997830414033
 30
0.0
 10
0.3927314069161653
 20
-0.5741533121745158
 30
0.0
 10
0.3916485078162121
 20
-0.5781239422076753
 30
0.0
 10
0.3894827096163079
 20
-0.5817336058741845
 30
0.0
 10
0.3873169114164016
 20
-0.5853432695406928
 30
0.0
 10
0.3844291804831951
 20
-0.5882310004739003
 30
0.0
 10
0.380819516816686
 20
-0.5900358323071541
 30
0.0
 10
0.377209853150178
 20
-0.5918406641404086
 30
0.0
 10
0.3732392231170182
 20
-0.5925625968737103
 30
0.0
 10
0.3689076267172077
 20
-0.5925625968737103
 30
0.0
 10
0.3642150639507466
 20
-0.5925625968737103
 30
0.0
 10
0.3602444339175869
 20
-0.5918406641404086
 30
0.0
 10
0.3566347702510777
 20
-0.5900358323071541
 30
0.0
 10
0.3530251065845686
 20
-0.5882310004739003
 30
0.0
 10
0.350137375651362
 20
-0.5853432695406928
 30
0.0
 10
0.3479715774514568
 20
-0.5817336058741845
 30
0.0
 10
0.3458057792515516
 20
-0.5781239422076753
 30
0.0
 10
0.3450838465182502
 20
-0.5741533121745158
 30
0.0
 10
0.3450838465182502
 20
-0.5690997830414033
 30
0.0
 10
0.3450838465182502
 20
-0.5644072202749422
 30
0.0
 10
0.3458057792515516
 20
-0.5600756238751312
 30
0.0
 10
0.3479715774514568
 20
-0.5564659602086229
 30
0.0
 10
0.350137375651362
 20
-0.5528562965421138
 30
0.0
 10
0.3530251065845686
 20
-0.5499685656089072
 30
0.0
 10
0.3566347702510777
 20
-0.5481637337756526
 30
0.0
 10
0.3602444339175869
 20
-0.546358901942398
 30
0.0
 10
0.3642150639507466
 20
-0.5452760028424459
 30
0.0
 10
0.3689076267172077
 20
-0.5452760028424459
 30
0.0
  0
SPLINE
  5
85
330
1F
100
AcDbEntity
  8
X-DIMENSIONS_GUIDE
100
AcDbSpline
210
0.0
220
0.0
230
1.0
 70
    11
 71
     3
 72
    29
 73
    25
 74
     0
 42
0.000000001
 43
0.0000000001
 40
0.0
 40
0.0
 40
0.0
 40
0.0
 40
1.0
 40
1.0
 40
1.0
 40
2.0
 40
2.0
 40
2.0
 40
3.0
 40
3.0
 40
3.0
 40
4.0
 40
4.0
 40
4.0
 40
5.0
 40
5.0
 40
5.0
 40
6.0
 40
6.0
 40
6.0
 40
7.0
 40
7.0
 40
7.0
 40
8.0
 40
8.0
 40
8.0
 40
8.0
 10
0.3689076267172077
 20
-0.5553830611086701
 30
0.0
 10
0.3652979630506987
 20
-0.5553830611086701
 30
0.0
 10
0.3627711984841427
 20
-0.5568269265752733
 30
0.0
 10
0.3602444339175869
 20
-0.5589927247751791
 30
0.0
 10
0.3580786357176816
 20
-0.5615194893417355
 30
0.0
 10
0.3569957366177284
 20
-0.5647681866415933
 30
0.0
 10
0.3569957366177284
 20
-0.5690997830414033
 30
0.0
 10
0.3569957366177284
 20
-0.5734313794412141
 30
0.0
 10
0.3580786357176816
 20
-0.5770410431077224
 30
0.0
 10
0.3602444339175869
 20
-0.5792068413076283
 30
0.0
 10
0.3627711984841427
 20
-0.5817336058741845
 30
0.0
 10
0.3652979630506987
 20
-0.5828165049741366
 30
0.0
 10
0.3689076267172077
 20
-0.5828165049741366
 30
0.0
 10
0.372156324017065
 20
-0.5828165049741366
 30
0.0
 10
0.3746830885836209
 20
-0.5817336058741845
 30
0.0
 10
0.377209853150178
 20
-0.5792068413076283
 30
0.0
 10
0.3793756513500832
 20
-0.5770410431077224
 30
0.0
 10
0.3804585504500352
 20
-0.5734313794412141
 30
0.0
 10
0.3804585504500352
 20
-0.5690997830414033
 30
0.0
 10
0.3804585504500352
 20
-0.5647681866415933
 30
0.0
 10
0.3793756513500832
 20
-0.5615194893417355
 30
0.0
 10
0.377209853150178
 20
-0.5589927247751791
 30
0.0
 10
0.3746830885836209
 20
-0.5568269265752733
 30
0.0
 10
0.372156324017065
 20
-0.5553830611086701
 30
0.0
 10
0.3689076267172077
 20
-0.5553830611086701
 30
0.0
  0
SPLINE
  5
86
330
1F
100
AcDbEntity
  8
X-DIMENSIONS_GUIDE
100
AcDbSpline
210
0.0
220
0.0
230
1.0
 70
    11
 71
     3
 72
    53
 73
    49
 74
     0
 42
0.000000001
 43
0.0000000001
 40
0.0
 40
0.0
 40
0.0
 40
0.0
 40
1.0
 40
1.0
 40
1.0
 40
2.0
 40
2.0
 40
2.0
 40
3.0
 40
3.0
 40
3.0
 40
4.0
 40
4.0
 40
4.0
 40
5.0
 40
5.0
 40
5.0
 40
6.0
 40
6.0
 40
6.0
 40
7.0
 40
7.0
 40
7.0
 40
8.0
 40
8.0
 40
8.0
 40
9.0
 40
9.0
 40
9.0
 40
10.0
 40
10.0
 40
10.0
 40
11.0
 40
11.0
 40
11.0
 40
12.0
 40
12.0
 40
12.0
 40
13.0
 40
13.0
 40
13.0
 40
14.0
 40
14.0
 40
14.0
 40
15.0
 40
15.0
 40
15.0
 40
16.0
 40
16.0
 40
16.0
 40
16.0
 10
0.4284670772146021
 20
-0.5452760028424459
 30
0.0
 10
0.4338815727143657
 20
-0.5452760028424459
 30
0.0
 10
0.4382131691141751
 20
-0.5470808346757006
 30
0.0
 10
0.4414618664140346
 20
-0.5506904983422088
 30
0.0
 10
0.4447105637138908
 20
-0.5539391956420667
 30
0.0
 10
0.4461544291804957
 20
-0.5589927247751791
 30
0.0
 10
0.4461544291804957
 20
-0.565490119374895
 30
0.0
 10
0.4461544291804957
 20
-0.57439395641895
 30
0.0
 10
0.4461544291804957
 20
-0.5832977934630049
 30
0.0
 10
0.4461544291804957
 20
-0.5922016305070598
 30
0.0
 10
0.4423041212695533
 20
-0.5922016305070598
 30
0.0
 10
0.4384538133586107
 20
-0.5922016305070598
 30
0.0
 10
0.4346035054476682
 20
-0.5922016305070598
 30
0.0
 10
0.4346035054476682
 20
-0.5836587598296555
 30
0.0
 10
0.4346035054476682
 20
-0.5751158891522513
 30
0.0
 10
0.4346035054476682
 20
-0.5665730184748471
 30
0.0
 10
0.4346035054476682
 20
-0.5629633548083388
 30
0.0
 10
0.4335206063477151
 20
-0.5600756238751312
 30
0.0
 10
0.4317157745144616
 20
-0.5582707920418776
 30
0.0
 10
0.429910942681206
 20
-0.5561049938419717
 30
0.0
 10
0.4270232117479993
 20
-0.5550220947420197
 30
0.0
 10
0.4237745144481398
 20
-0.5550220947420197
 30
0.0
 10
0.4205258171482837
 20
-0.5550220947420197
 30
0.0
 10
0.4176380862150771
 20
-0.5561049938419717
 30
0.0
 10
0.4158332543818214
 20
-0.5582707920418776
 30
0.0
 10
0.4136674561819162
 20
-0.5604365902417825
 30
0.0
 10
0.4129455234486148
 20
-0.5636852875416405
 30
0.0
 10
0.4129455234486148
 20
-0.5676559175747999
 30
0.0
 10
0.4129455234486148
 20
-0.5758378218855532
 30
0.0
 10
0.4129455234486148
 20
-0.5840197261963064
 30
0.0
 10
0.4129455234486148
 20
-0.5922016305070598
 30
0.0
 10
0.4089748934154551
 20
-0.5922016305070598
 30
0.0
 10
0.4050042633822953
 20
-0.5922016305070598
 30
0.0
 10
0.4010336333491355
 20
-0.5922016305070598
 30
0.0
 10
0.4010336333491355
 20
-0.576800398863289
 30
0.0
 10
0.4010336333491355
 20
-0.5613991672195183
 30
0.0
 10
0.4010336333491355
 20
-0.5459979355757476
 30
0.0
 10
0.4050042633822953
 20
-0.5459979355757476
 30
0.0
 10
0.4089748934154551
 20
-0.5459979355757476
 30
0.0
 10
0.4129455234486148
 20
-0.5459979355757476
 30
0.0
 10
0.4129455234486148
 20
-0.5491263107533885
 30
0.0
 10
0.4129455234486148
 20
-0.5522546859310292
 30
0.0
 10
0.4129455234486148
 20
-0.5553830611086701
 30
0.0
 10
0.4140284225485669
 20
-0.5521343638088121
 30
0.0
 10
0.4161942207484732
 20
-0.5496075992422559
 30
0.0
 10
0.4187209853150302
 20
-0.5478027674090021
 30
0.0
 10
0.4216087162482368
 20
-0.5459979355757476
 30
0.0
 10
0.424857413548093
 20
-0.5452760028424459
 30
0.0
 10
0.4284670772146021
 20
-0.5452760028424459
 30
0.0
  0
SPLINE
  5
87
330
1F
100
AcDbEntity
  8
X-DIMENSIONS_GUIDE
100
AcDbSpline
210
0.0
220
0.0
230
1.0
 70
    11
 71
     3
 72
    95
 73
    91
 74
     0
 42
0.000000001
 43
0.0000000001
 40
0.0
 40
0.0
 40
0.0
 40
0.0
 40
1.0
 40
1.0
 40
1.0
 40
2.0
 40
2.0
 40
2.0
 40
3.0
 40
3.0
 40
3.0
 40
4.0
 40
4.0
 40
4.0
 40
5.0
 40
5.0
 40
5.0
 40
6.0
 40
6.0
 40
6.0
 40
7.0
 40
7.0
 40
7.0
 40
8.0
 40
8.0
 40
8.0
 40
9.0
 40
9.0
 40
9.0
 40
10.0
 40
10.0
 40
10.0
 40
11.0
 40
11.0
 40
11.0
 40
12.0
 40
12.0
 40
12.0
 40
13.0
 40
13.0
 40
13.0
 40
14.0
 40
14.0
 40
14.0
 40
15.0
 40
15.0
 40
15.0
 40
16.0
 40
16.0
 40
16.0
 40
17.0
 40
17.0
 40
17.0
 40
18.0
 40
18.0
 40
18.0
 40
19.0
 40
19.0
 40
19.0
 40
20.0
 40
20.0
 40
20.0
 40
21.0
 40
21.0
 40
21.0
 40
22.0
 40
22.0
 40
22.0
 40
23.0
 40
23.0
 40
23.0
 40
24.0
 40
24.0
 40
24.0
 40
25.0
 40
25.0
 40
25.0
 40
26.0
 40
26.0
 40
26.0
 40
27.0
 40
27.0
 40
27.0
 40
28.0
 40
28.0
 40
28.0
 40
29.0
 40
29.0
 40
29.0
 40
30.0
 40
30.0
 40
30.0
 40
30.0
 10
0.4725049739460103
 20
-0.5452760028424459
 30
0.0
 10
0.4782804358124235
 20
-0.5452760028424459
 30
0.0
 10
0.4829729985788846
 20
-0.5467198683090493
 30
0.0
 10
0.4862216958787419
 20
-0.5496075992422559
 30
0.0
 10
0.489831359545251
 20
-0.5524953301754634
 30
0.0
 10
0.4916361913785045
 20
-0.5561049938419717
 30
0.0
 10
0.4927190904784576
 20
-0.5611585229750842
 30
0.0
 10
0.4889891046897323
 20
-0.5611585229750842
 30
0.0
 10
0.4852591189010071
 20
-0.5611585229750842
 30
0.0
 10
0.4815291331122819
 20
-0.5611585229750842
 30
0.0
 10
0.4811681667456301
 20
-0.558631758408528
 30
0.0
 10
0.480085267645678
 20
-0.5568269265752733
 30
0.0
 10
0.478641402179073
 20
-0.5557440274753214
 30
0.0
 10
0.4768365703458196
 20
-0.554300162008718
 30
0.0
 10
0.4750317385125662
 20
-0.5535782292754154
 30
0.0
 10
0.4725049739460103
 20
-0.5535782292754154
 30
0.0
 10
0.470339175746104
 20
-0.5535782292754154
 30
0.0
 10
0.4688953102795
 20
-0.5539391956420667
 30
0.0
 10
0.467812411179548
 20
-0.5550220947420197
 30
0.0
 10
0.4667295120795949
 20
-0.5561049938419717
 30
0.0
 10
0.4660075793462934
 20
-0.5571878929419246
 30
0.0
 10
0.4660075793462934
 20
-0.5589927247751791
 30
0.0
 10
0.4660075793462934
 20
-0.5600756238751312
 30
0.0
 10
0.4663685457129441
 20
-0.5611585229750842
 30
0.0
 10
0.4674514448128974
 20
-0.5618804557083857
 30
0.0
 10
0.4681733775461976
 20
-0.5629633548083388
 30
0.0
 10
0.4692562766461508
 20
-0.5633243211749891
 30
0.0
 10
0.4707001421127546
 20
-0.5636852875416405
 30
0.0
 10
0.4721440075793596
 20
-0.5644072202749422
 30
0.0
 10
0.473948839412613
 20
-0.5647681866415933
 30
0.0
 10
0.4764756039791689
 20
-0.565490119374895
 30
0.0
 10
0.480085267645678
 20
-0.5662120521081966
 30
0.0
 10
0.4829729985788846
 20
-0.5669339848414984
 30
0.0
 10
0.4851387967787887
 20
-0.5680168839414512
 30
0.0
 10
0.487304594978695
 20
-0.5687388166747529
 30
0.0
 10
0.4891094268119507
 20
-0.5701826821413563
 30
0.0
 10
0.4909142586452042
 20
-0.5719875139746108
 30
0.0
 10
0.492358124111808
 20
-0.5737923458078645
 30
0.0
 10
0.4930800568451105
 20
-0.5763191103744207
 30
0.0
 10
0.4930800568451105
 20
-0.5795678076742786
 30
0.0
 10
0.4930800568451105
 20
-0.5835384377074382
 30
0.0
 10
0.4916361913785045
 20
-0.5867871350072961
 30
0.0
 10
0.4887484604452978
 20
-0.5893138995738523
 30
0.0
 10
0.4854997631454416
 20
-0.5918406641404086
 30
0.0
 10
0.4811681667456301
 20
-0.5925625968737103
 30
0.0
 10
0.4761146376125193
 20
-0.5925625968737103
 30
0.0
 10
0.4699782093794533
 20
-0.5925625968737103
 30
0.0
 10
0.465285646612991
 20
-0.5914796977737582
 30
0.0
 10
0.4616759829464841
 20
-0.588952933207202
 30
0.0
 10
0.458066319279975
 20
-0.5860652022739944
 30
0.0
 10
0.4555395547134191
 20
-0.5824555386074861
 30
0.0
 10
0.4548176219801155
 20
-0.5774020094743736
 30
0.0
 10
0.4586679298910584
 20
-0.5774020094743736
 30
0.0
 10
0.4625182378020012
 20
-0.5774020094743736
 30
0.0
 10
0.4663685457129441
 20
-0.5774020094743736
 30
0.0
 10
0.4663685457129441
 20
-0.5795678076742786
 30
0.0
 10
0.4674514448128974
 20
-0.5813726395075333
 30
0.0
 10
0.4692562766461508
 20
-0.5828165049741366
 30
0.0
 10
0.4710611084794064
 20
-0.5838994040740895
 30
0.0
 10
0.4732269066793106
 20
-0.584621336807391
 30
0.0
 10
0.4761146376125193
 20
-0.584621336807391
 30
0.0
 10
0.4779194694457727
 20
-0.584621336807391
 30
0.0
 10
0.4797243012790263
 20
-0.5842603704407408
 30
0.0
 10
0.4808072003789794
 20
-0.5831774713407878
 30
0.0
 10
0.4818900994789326
 20
-0.5820945722408349
 30
0.0
 10
0.4822510658455822
 20
-0.581011673140882
 30
0.0
 10
0.4822510658455822
 20
-0.5792068413076283
 30
0.0
 10
0.4822510658455822
 20
-0.5781239422076753
 30
0.0
 10
0.4818900994789326
 20
-0.5770410431077224
 30
0.0
 10
0.4808072003789794
 20
-0.5759581440077703
 30
0.0
 10
0.480085267645678
 20
-0.5752362112744687
 30
0.0
 10
0.478641402179073
 20
-0.574514278541167
 30
0.0
 10
0.4775585030791221
 20
-0.5741533121745158
 30
0.0
 10
0.4761146376125193
 20
-0.5737923458078645
 30
0.0
 10
0.473948839412613
 20
-0.5730704130745629
 30
0.0
 10
0.4714220748460571
 20
-0.5727094467079125
 30
0.0
 10
0.4681733775461976
 20
-0.5716265476079595
 30
0.0
 10
0.465285646612991
 20
-0.5709046148746578
 30
0.0
 10
0.4631198484130869
 20
-0.5701826821413563
 30
0.0
 10
0.4609540502131816
 20
-0.5694607494080546
 30
0.0
 10
0.4591492183799282
 20
-0.5680168839414512
 30
0.0
 10
0.4577053529133221
 20
-0.5662120521081966
 30
0.0
 10
0.4562614874467194
 20
-0.5644072202749422
 30
0.0
 10
0.4551785883467684
 20
-0.5618804557083857
 30
0.0
 10
0.4551785883467684
 20
-0.5589927247751791
 30
0.0
 10
0.4551785883467684
 20
-0.5550220947420197
 30
0.0
 10
0.4569834201800219
 20
-0.5517733974421618
 30
0.0
 10
0.4598711511132285
 20
-0.5492466328756055
 30
0.0
 10
0.4631198484130869
 20
-0.5467198683090493
 30
0.0
 10
0.4670904784462466
 20
-0.5452760028424459
 30
0.0
 10
0.4725049739460103
 20
-0.5452760028424459
 30
0.0
  0
POLYLINE
  5
88
330
1F
100
AcDbEntity
  8
X-DIMENSIONS_GUIDE
100
AcDb2dPolyline
 66
     1
 10
0.0
 20
0.0
 30
0.0
 70
     1
  0
VERTEX
  5
89
330
88
100
AcDbEntity
  8
X-DIMENSIONS_GUIDE
100
AcDbVertex
100
AcDb2dVertex
 10
0.5118503079109551
 20
-0.5799287740409299
 30
0.0
  0
VERTEX
  5
8A
330
88
100
AcDbEntity
  8
X-DIMENSIONS_GUIDE
100
AcDbVertex
100
AcDb2dVertex
 10
0.5118503079109551
 20
-0.5922016305070598
 30
0.0
  0
VERTEX
  5
8B
330
88
100
AcDbEntity
  8
X-DIMENSIONS_GUIDE
100
AcDbVertex
100
AcDb2dVertex
 10
0.4992164850781733
 20
-0.5922016305070598
 30
0.0
  0
VERTEX
  5
8C
330
88
100
AcDbEntity
  8
X-DIMENSIONS_GUIDE
100
AcDbVertex
100
AcDb2dVertex
 10
0.4992164850781733
 20
-0.5799287740409299
 30
0.0
  0
SEQEND
  5
8D
330
88
100
AcDbEntity
  8
X-DIMENSIONS_GUIDE
  0
SPLINE
  5
8E
330
1F
100
AcDbEntity
  8
X-DIMENSIONS_GUIDE
100
AcDbSpline
210
0.0
220
0.0
230
1.0
 70
    11
 71
     3
 72
    80
 73
    76
 74
     0
 42
0.000000001
 43
0.0000000001
 40
0.0
 40
0.0
 40
0.0
 40
0.0
 40
1.0
 40
1.0
 40
1.0
 40
2.0
 40
2.0
 40
2.0
 40
3.0
 40
3.0
 40
3.0
 40
4.0
 40
4.0
 40
4.0
 40
5.0
 40
5.0
 40
5.0
 40
6.0
 40
6.0
 40
6.0
 40
7.0
 40
7.0
 40
7.0
 40
8.0
 40
8.0
 40
8.0
 40
9.0
 40
9.0
 40
9.0
 40
10.0
 40
10.0
 40
10.0
 40
11.0
 40
11.0
 40
11.0
 40
12.0
 40
12.0
 40
12.0
 40
13.0
 40
13.0
 40
13.0
 40
14.0
 40
14.0
 40
14.0
 40
15.0
 40
15.0
 40
15.0
 40
16.0
 40
16.0
 40
16.0
 40
17.0
 40
17.0
 40
17.0
 40
18.0
 40
18.0
 40
18.0
 40
19.0
 40
19.0
 40
19.0
 40
20.0
 40
20.0
 40
20.0
 40
21.0
 40
21.0
 40
21.0
 40
22.0
 40
22.0
 40
22.0
 40
23.0
 40
23.0
 40
23.0
 40
24.0
 40
24.0
 40
24.0
 40
25.0
 40
25.0
 40
25.0
 40
25.0
 10
0.5472250118427401
 20
-0.5326421800096648
 30
0.0
 10
0.5544443391757594
 20
-0.5326421800096648
 30
0.0
 10
0.5602198010421725
 20
-0.5344470118429193
 30
0.0
 10
0.5652733301752845
 20
-0.5380566755094285
 30
0.0
 10
0.5699658929417467
 20
-0.5413053728092864
 30
0.0
 10
0.5728536238749533
 20
-0.546358901942398
 30
0.0
 10
0.5742974893415571
 20
-0.5521343638088121
 30
0.0
 10
0.5702065371861801
 20
-0.5521343638088121
 30
0.0
 10
0.566115585030803
 20
-0.5521343638088121
 30
0.0
 10
0.562024632875426
 20
-0.5521343638088121
 30
0.0
 10
0.5605807674088221
 20
-0.5496075992422559
 30
0.0
 10
0.5587759355755687
 20
-0.547441801042351
 30
0.0
 10
0.5562491710090128
 20
-0.5459979355757476
 30
0.0
 10
0.5537224064424559
 20
-0.544193103742493
 30
0.0
 10
0.5508346755092491
 20
-0.5434711710091913
 30
0.0
 10
0.5472250118427401
 20
-0.5434711710091913
 30
0.0
 10
0.5439763145428839
 20
-0.5434711710091913
 30
0.0
 10
0.5407276172430244
 20
-0.544193103742493
 30
0.0
 10
0.5382008526764686
 20
-0.5459979355757476
 30
0.0
 10
0.5356740881099126
 20
-0.547441801042351
 30
0.0
 10
0.5335082899100084
 20
-0.5496075992422559
 30
0.0
 10
0.5320644244434046
 20
-0.5524953301754634
 30
0.0
 10
0.5306205589767997
 20
-0.5553830611086701
 30
0.0
 10
0.5298986262434994
 20
-0.5589927247751791
 30
0.0
 10
0.5298986262434994
 20
-0.5626023884416875
 30
0.0
 10
0.5298986262434994
 20
-0.5690997830414033
 30
0.0
 10
0.5317034580767528
 20
-0.5737923458078645
 30
0.0
 10
0.5349521553766112
 20
-0.5774020094743736
 30
0.0
 10
0.5382008526764686
 20
-0.5806507067742316
 30
0.0
 10
0.5428934154429308
 20
-0.5824555386074861
 30
0.0
 10
0.548668877309344
 20
-0.5824555386074861
 30
0.0
 10
0.5526395073425038
 20
-0.5824555386074861
 30
0.0
 10
0.5562491710090128
 20
-0.5813726395075333
 30
0.0
 10
0.5594978683088712
 20
-0.578845874940977
 30
0.0
 10
0.5623855992420778
 20
-0.5763191103744207
 30
0.0
 10
0.564551397441982
 20
-0.5727094467079125
 30
0.0
 10
0.5652733301752845
 20
-0.5683778503081016
 30
0.0
 10
0.5586556134533519
 20
-0.5683778503081016
 30
0.0
 10
0.5520378967314193
 20
-0.5683778503081016
 30
0.0
 10
0.5454201800094867
 20
-0.5683778503081016
 30
0.0
 10
0.5454201800094867
 20
-0.5654901193748947
 30
0.0
 10
0.5454201800094867
 20
-0.5626023884416878
 30
0.0
 10
0.5454201800094867
 20
-0.5597146575084808
 30
0.0
 10
0.5554069161534941
 20
-0.5597146575084808
 30
0.0
 10
0.5653936522975016
 20
-0.5597146575084808
 30
0.0
 10
0.5753803884415092
 20
-0.5597146575084808
 30
0.0
 10
0.5753803884415092
 20
-0.5635649654194236
 30
0.0
 10
0.5753803884415092
 20
-0.5674152733303663
 30
0.0
 10
0.5753803884415092
 20
-0.5712655812413092
 30
0.0
 10
0.5742974893415571
 20
-0.5752362112744687
 30
0.0
 10
0.5728536238749533
 20
-0.578845874940977
 30
0.0
 10
0.5703268593083973
 20
-0.5820945722408349
 30
0.0
 10
0.5678000947418403
 20
-0.5853432695406928
 30
0.0
 10
0.5649123638086337
 20
-0.587870034107249
 30
0.0
 10
0.5609417337754751
 20
-0.5900358323071541
 30
0.0
 10
0.5569711037423153
 20
-0.5918406641404086
 30
0.0
 10
0.552278540975853
 20
-0.5925625968737103
 30
0.0
 10
0.5472250118427401
 20
-0.5925625968737103
 30
0.0
 10
0.5414495499763269
 20
-0.5925625968737103
 30
0.0
 10
0.5363960208432151
 20
-0.5914796977737582
 30
0.0
 10
0.5317034580767528
 20
-0.588952933207202
 30
0.0
 10
0.5273718616769424
 20
-0.5864261686406457
 30
0.0
 10
0.524123164377084
 20
-0.5828165049741366
 30
0.0
 10
0.5215963998105281
 20
-0.5784849085743267
 30
0.0
 10
0.5190696352439732
 20
-0.5737923458078645
 30
0.0
 10
0.5179867361440201
 20
-0.5687388166747529
 30
0.0
 10
0.5179867361440201
 20
-0.5626023884416875
 30
0.0
 10
0.5179867361440201
 20
-0.5568269265752733
 30
0.0
 10
0.5190696352439732
 20
-0.5517733974421618
 30
0.0
 10
0.5215963998105281
 20
-0.5470808346757006
 30
0.0
 10
0.524123164377084
 20
-0.5423882719092384
 30
0.0
 10
0.5273718616769424
 20
-0.5391395746093806
 30
0.0
 10
0.5317034580767528
 20
-0.536251843676174
 30
0.0
 10
0.5363960208432151
 20
-0.5337250791096176
 30
0.0
 10
0.5414495499763269
 20
-0.5326421800096648
 30
0.0
 10
0.5472250118427401
 20
-0.5326421800096648
 30
0.0
  0
SPLINE
  5
8F
330
1F
100
AcDbEntity
  8
X-DIMENSIONS_GUIDE
100
AcDbSpline
210
0.0
220
0.0
230
1.0
 70
    11
 71
     3
 72
    53
 73
    49
 74
     0
 42
0.000000001
 43
0.0000000001
 40
0.0
 40
0.0
 40
0.0
 40
0.0
 40
1.0
 40
1.0
 40
1.0
 40
2.0
 40
2.0
 40
2.0
 40
3.0
 40
3.0
 40
3.0
 40
4.0
 40
4.0
 40
4.0
 40
5.0
 40
5.0
 40
5.0
 40
6.0
 40
6.0
 40
6.0
 40
7.0
 40
7.0
 40
7.0
 40
8.0
 40
8.0
 40
8.0
 40
9.0
 40
9.0
 40
9.0
 40
10.0
 40
10.0
 40
10.0
 40
11.0
 40
11.0
 40
11.0
 40
12.0
 40
12.0
 40
12.0
 40
13.0
 40
13.0
 40
13.0
 40
14.0
 40
14.0
 40
14.0
 40
15.0
 40
15.0
 40
15.0
 40
16.0
 40
16.0
 40
16.0
 40
16.0
 10
0.6288034107058397
 20
-0.5459979355757476
 30
0.0
 10
0.6288034107058397
 20
-0.5613991672195183
 30
0.0
 10
0.6288034107058397
 20
-0.576800398863289
 30
0.0
 10
0.6288034107058397
 20
-0.5922016305070598
 30
0.0
 10
0.6248327806726799
 20
-0.5922016305070598
 30
0.0
 10
0.6208621506395201
 20
-0.5922016305070598
 30
0.0
 10
0.6168915206063603
 20
-0.5922016305070598
 30
0.0
 10
0.6168915206063603
 20
-0.5890732553294188
 30
0.0
 10
0.6168915206063603
 20
-0.5859448801517777
 30
0.0
 10
0.6168915206063603
 20
-0.5828165049741366
 30
0.0
 10
0.6154476551397554
 20
-0.5860652022739944
 30
0.0
 10
0.613642823306502
 20
-0.5885919668405507
 30
0.0
 10
0.6107550923732954
 20
-0.5903967986738052
 30
0.0
 10
0.6078673614400887
 20
-0.5922016305070598
 30
0.0
 10
0.6046186641402292
 20
-0.5925625968737103
 30
0.0
 10
0.6010090004737202
 20
-0.5925625968737103
 30
0.0
 10
0.5955945049739576
 20
-0.5925625968737103
 30
0.0
 10
0.5912629085741483
 20
-0.5911187314071069
 30
0.0
 10
0.5880142112742888
 20
-0.5875090677405986
 30
0.0
 10
0.5847655139744314
 20
-0.5842603704407408
 30
0.0
 10
0.5833216485078287
 20
-0.5792068413076283
 30
0.0
 10
0.5833216485078287
 20
-0.5730704130745629
 30
0.0
 10
0.5833216485078287
 20
-0.5640462539082911
 30
0.0
 10
0.5833216485078287
 20
-0.5550220947420194
 30
0.0
 10
0.5833216485078287
 20
-0.5459979355757476
 30
0.0
 10
0.5872922785409881
 20
-0.5459979355757476
 30
0.0
 10
0.5912629085741475
 20
-0.5459979355757476
 30
0.0
 10
0.595233538607307
 20
-0.5459979355757476
 30
0.0
 10
0.595233538607307
 20
-0.5545408062531515
 30
0.0
 10
0.595233538607307
 20
-0.5630836769305555
 30
0.0
 10
0.595233538607307
 20
-0.5716265476079595
 30
0.0
 10
0.595233538607307
 20
-0.5752362112744687
 30
0.0
 10
0.5959554713406083
 20
-0.5781239422076753
 30
0.0
 10
0.597760303173864
 20
-0.5802897404075803
 30
0.0
 10
0.5999261013737692
 20
-0.5820945722408349
 30
0.0
 10
0.602452865940324
 20
-0.5831774713407878
 30
0.0
 10
0.6057015632401824
 20
-0.5831774713407878
 30
0.0
 10
0.6089502605400396
 20
-0.5831774713407878
 30
0.0
 10
0.6118379914732485
 20
-0.5820945722408349
 30
0.0
 10
0.613642823306502
 20
-0.5799287740409299
 30
0.0
 10
0.6158086215064071
 20
-0.5777629758410249
 30
0.0
 10
0.6168915206063603
 20
-0.574514278541167
 30
0.0
 10
0.6168915206063603
 20
-0.5705436485080075
 30
0.0
 10
0.6168915206063603
 20
-0.5623617441972543
 30
0.0
 10
0.6168915206063603
 20
-0.5541798398865009
 30
0.0
 10
0.6168915206063603
 20
-0.5459979355757476
 30
0.0
 10
0.6208621506395201
 20
-0.5459979355757476
 30
0.0
 10
0.6248327806726799
 20
-0.5459979355757476
 30
0.0
 10
0.6288034107058397
 20
-0.5459979355757476
 30
0.0
  0
SPLINE
  5
90
330
1F
100
AcDbEntity
  8
X-DIMENSIONS_GUIDE
100
AcDbSpline
210
0.0
220
0.0
230
1.0
 70
    11
 71
     3
 72
    29
 73
    25
 74
     0
 42
0.000000001
 43
0.0000000001
 40
0.0
 40
0.0
 40
0.0
 40
0.0
 40
1.0
 40
1.0
 40
1.0
 40
2.0
 40
2.0
 40
2.0
 40
3.0
 40
3.0
 40
3.0
 40
4.0
 40
4.0
 40
4.0
 40
5.0
 40
5.0
 40
5.0
 40
6.0
 40
6.0
 40
6.0
 40
7.0
 40
7.0
 40
7.0
 40
8.0
 40
8.0
 40
8.0
 40
8.0
 10
0.6381885362387619
 20
-0.5326421800096648
 30
0.0
 10
0.6381885362387619
 20
-0.530837348176411
 30
0.0
 10
0.6385495026054115
 20
-0.5290325163431564
 30
0.0
 10
0.6399933680720155
 20
-0.5279496172432036
 30
0.0
 10
0.6414372335386181
 20
-0.5268667181432506
 30
0.0
 10
0.6432420653718738
 20
-0.5261447854099489
 30
0.0
 10
0.6454078635717779
 20
-0.5261447854099489
 30
0.0
 10
0.6475736617716843
 20
-0.5261447854099489
 30
0.0
 10
0.6493784936049398
 20
-0.5268667181432506
 30
0.0
 10
0.6504613927048909
 20
-0.5279496172432036
 30
0.0
 10
0.6519052581714936
 20
-0.5290325163431564
 30
0.0
 10
0.652627190904796
 20
-0.530837348176411
 30
0.0
 10
0.652627190904796
 20
-0.5326421800096648
 30
0.0
 10
0.652627190904796
 20
-0.5344470118429193
 30
0.0
 10
0.6519052581714936
 20
-0.5358908773095226
 30
0.0
 10
0.6504613927048909
 20
-0.5369737764094756
 30
0.0
 10
0.6493784936049398
 20
-0.5384176418760789
 30
0.0
 10
0.6475736617716843
 20
-0.5387786082427302
 30
0.0
 10
0.6454078635717779
 20
-0.5387786082427302
 30
0.0
 10
0.6432420653718738
 20
-0.5387786082427302
 30
0.0
 10
0.6414372335386181
 20
-0.5384176418760789
 30
0.0
 10
0.6399933680720155
 20
-0.5369737764094756
 30
0.0
 10
0.6385495026054115
 20
-0.5358908773095226
 30
0.0
 10
0.6381885362387619
 20
-0.5344470118429193
 30
0.0
 10
0.6381885362387619
 20
-0.5326421800096648
 30
0.0
  0
POLYLINE
  5
91
330
1F
100
AcDbEntity
  8
X-DIMENSIONS_GUIDE
100
AcDb2dPolyline
 66
     1
 10
0.0
 20
0.0
 30
0.0
 70
     1
  0
VERTEX
  5
92
330
91
100
AcDbEntity
  8
X-DIMENSIONS_GUIDE
100
AcDbVertex
100
AcDb2dVertex
 10
0.6511833254381932
 20
-0.5459979355757476
 30
0.0
  0
VERTEX
  5
93
330
91
100
AcDbEntity
  8
X-DIMENSIONS_GUIDE
100
AcDbVertex
100
AcDb2dVertex
 10
0.6511833254381932
 20
-0.5922016305070598
 30
0.0
  0
VERTEX
  5
94
330
91
100
AcDbEntity
  8
X-DIMENSIONS_GUIDE
100
AcDbVertex
100
AcDb2dVertex
 10
0.6392714353387151
 20
-0.5922016305070598
 30
0.0
  0
VERTEX
  5
95
330
91
100
AcDbEntity
  8
X-DIMENSIONS_GUIDE
100
AcDbVertex
100
AcDb2dVertex
 10
0.6392714353387151
 20
-0.5459979355757476
 30
0.0
  0
SEQEND
  5
96
330
91
100
AcDbEntity
  8
X-DIMENSIONS_GUIDE
  0
SPLINE
  5
97
330
1F
100
AcDbEntity
  8
X-DIMENSIONS_GUIDE
100
AcDbSpline
210
0.0
220
0.0
230
1.0
 70
    11
 71
     3
 72
    50
 73
    46
 74
     0
 42
0.000000001
 43
0.0000000001
 40
0.0
 40
0.0
 40
0.0
 40
0.0
 40
1.0
 40
1.0
 40
1.0
 40
2.0
 40
2.0
 40
2.0
 40
3.0
 40
3.0
 40
3.0
 40
4.0
 40
4.0
 40
4.0
 40
5.0
 40
5.0
 40
5.0
 40
6.0
 40
6.0
 40
6.0
 40
7.0
 40
7.0
 40
7.0
 40
8.0
 40
8.0
 40
8.0
 40
9.0
 40
9.0
 40
9.0
 40
10.0
 40
10.0
 40
10.0
 40
11.0
 40
11.0
 40
11.0
 40
12.0
 40
12.0
 40
12.0
 40
13.0
 40
13.0
 40
13.0
 40
14.0
 40
14.0
 40
14.0
 40
15.0
 40
15.0
 40
15.0
 40
15.0
 10
0.6800606347702627
 20
-0.5452760028424459
 30
0.0
 10
0.6840312648034225
 20
-0.5452760028424459
 30
0.0
 10
0.6872799621032819
 20
-0.546358901942398
 30
0.0
 10
0.6901676930364886
 20
-0.5481637337756526
 30
0.0
 10
0.6930554239696951
 20
-0.5499685656089072
 30
0.0
 10
0.6948602558029486
 20
-0.5524953301754634
 30
0.0
 10
0.6963041212695535
 20
-0.5553830611086701
 30
0.0
 10
0.6963041212695535
 20
-0.5470808346757
 30
0.0
 10
0.6963041212695535
 20
-0.5387786082427298
 30
0.0
 10
0.6963041212695535
 20
-0.5304763818097598
 30
0.0
 10
0.7001544291804956
 20
-0.5304763818097598
 30
0.0
 10
0.7040047370914378
 20
-0.5304763818097598
 30
0.0
 10
0.70785504500238
 20
-0.5304763818097598
 30
0.0
 10
0.70785504500238
 20
-0.5510514647088598
 30
0.0
 10
0.70785504500238
 20
-0.5716265476079598
 30
0.0
 10
0.70785504500238
 20
-0.5922016305070598
 30
0.0
 10
0.7040047370914378
 20
-0.5922016305070598
 30
0.0
 10
0.7001544291804956
 20
-0.5922016305070598
 30
0.0
 10
0.6963041212695535
 20
-0.5922016305070598
 30
0.0
 10
0.6963041212695535
 20
-0.5890732553294188
 30
0.0
 10
0.6963041212695535
 20
-0.5859448801517777
 30
0.0
 10
0.6963041212695535
 20
-0.5828165049741366
 30
0.0
 10
0.6948602558029486
 20
-0.5857042359073441
 30
0.0
 10
0.6930554239696951
 20
-0.5882310004739003
 30
0.0
 10
0.6901676930364886
 20
-0.5900358323071541
 30
0.0
 10
0.6872799621032819
 20
-0.5922016305070598
 30
0.0
 10
0.6840312648034225
 20
-0.5925625968737103
 30
0.0
 10
0.6800606347702627
 20
-0.5925625968737103
 30
0.0
 10
0.676090004737104
 20
-0.5925625968737103
 30
0.0
 10
0.6728413074372467
 20
-0.5918406641404086
 30
0.0
 10
0.6695926101373872
 20
-0.5900358323071541
 30
0.0
 10
0.666343912837531
 20
-0.5882310004739003
 30
0.0
 10
0.663817148270974
 20
-0.5853432695406928
 30
0.0
 10
0.662373282804369
 20
-0.5817336058741845
 30
0.0
 10
0.6605684509711156
 20
-0.5781239422076753
 30
0.0
 10
0.6594855518711624
 20
-0.5741533121745158
 30
0.0
 10
0.6594855518711624
 20
-0.5690997830414033
 30
0.0
 10
0.6594855518711624
 20
-0.5644072202749422
 30
0.0
 10
0.6605684509711156
 20
-0.5600756238751312
 30
0.0
 10
0.662373282804369
 20
-0.5564659602086229
 30
0.0
 10
0.663817148270974
 20
-0.5528562965421138
 30
0.0
 10
0.666343912837531
 20
-0.5499685656089072
 30
0.0
 10
0.6695926101373872
 20
-0.5481637337756526
 30
0.0
 10
0.6728413074372467
 20
-0.546358901942398
 30
0.0
 10
0.676090004737104
 20
-0.5452760028424459
 30
0.0
 10
0.6800606347702627
 20
-0.5452760028424459
 30
0.0
  0
SPLINE
  5
98
330
1F
100
AcDbEntity
  8
X-DIMENSIONS_GUIDE
100
AcDbSpline
210
0.0
220
0.0
230
1.0
 70
    11
 71
     3
 72
    29
 73
    25
 74
     0
 42
0.000000001
 43
0.0000000001
 40
0.0
 40
0.0
 40
0.0
 40
0.0
 40
1.0
 40
1.0
 40
1.0
 40
2.0
 40
2.0
 40
2.0
 40
3.0
 40
3.0
 40
3.0
 40
4.0
 40
4.0
 40
4.0
 40
5.0
 40
5.0
 40
5.0
 40
6.0
 40
6.0
 40
6.0
 40
7.0
 40
7.0
 40
7.0
 40
8.0
 40
8.0
 40
8.0
 40
8.0
 10
0.6836702984367717
 20
-0.5557440274753214
 30
0.0
 10
0.6800606347702627
 20
-0.5557440274753214
 30
0.0
 10
0.677172903837056
 20
-0.5568269265752733
 30
0.0
 10
0.6750071056371508
 20
-0.5593536911418295
 30
0.0
 10
0.6728413074372467
 20
-0.5615194893417355
 30
0.0
 10
0.6717584083372935
 20
-0.5651291530082437
 30
0.0
 10
0.6717584083372935
 20
-0.5690997830414033
 30
0.0
 10
0.6717584083372935
 20
-0.5734313794412141
 30
0.0
 10
0.6728413074372467
 20
-0.576680076741072
 30
0.0
 10
0.6750071056371508
 20
-0.578845874940977
 30
0.0
 10
0.677172903837056
 20
-0.5813726395075333
 30
0.0
 10
0.6800606347702627
 20
-0.5824555386074861
 30
0.0
 10
0.6836702984367717
 20
-0.5824555386074861
 30
0.0
 10
0.6872799621032819
 20
-0.5824555386074861
 30
0.0
 10
0.6905286594031381
 20
-0.5813726395075333
 30
0.0
 10
0.6926944576030445
 20
-0.578845874940977
 30
0.0
 10
0.6948602558029486
 20
-0.5763191103744207
 30
0.0
 10
0.6963041212695535
 20
-0.5730704130745629
 30
0.0
 10
0.6963041212695535
 20
-0.5690997830414033
 30
0.0
 10
0.6963041212695535
 20
-0.5651291530082437
 30
0.0
 10
0.6948602558029486
 20
-0.5618804557083857
 30
0.0
 10
0.6926944576030445
 20
-0.5593536911418295
 30
0.0
 10
0.6905286594031381
 20
-0.5568269265752733
 30
0.0
 10
0.6872799621032819
 20
-0.5557440274753214
 30
0.0
 10
0.6836702984367717
 20
-0.5557440274753214
 30
0.0
  0
SPLINE
  5
99
330
1F
100
AcDbEntity
  8
X-DIMENSIONS_GUIDE
100
AcDbSpline
210
0.0
220
0.0
230
1.0
 70
    11
 71
     3
 72
    62
 73
    58
 74
     0
 42
0.000000001
 43
0.0000000001
 40
0.0
 40
0.0
 40
0.0
 40
0.0
 40
1.0
 40
1.0
 40
1.0
 40
2.0
 40
2.0
 40
2.0
 40
3.0
 40
3.0
 40
3.0
 40
4.0
 40
4.0
 40
4.0
 40
5.0
 40
5.0
 40
5.0
 40
6.0
 40
6.0
 40
6.0
 40
7.0
 40
7.0
 40
7.0
 40
8.0
 40
8.0
 40
8.0
 40
9.0
 40
9.0
 40
9.0
 40
10.0
 40
10.0
 40
10.0
 40
11.0
 40
11.0
 40
11.0
 40
12.0
 40
12.0
 40
12.0
 40
13.0
 40
13.0
 40
13.0
 40
14.0
 40
14.0
 40
14.0
 40
15.0
 40
15.0
 40
15.0
 40
16.0
 40
16.0
 40
16.0
 40
17.0
 40
17.0
 40
17.0
 40
18.0
 40
18.0
 40
18.0
 40
19.0
 40
19.0
 40
19.0
 40
19.0
 10
0.7623609663666624
 20
-0.5672949512081497
 30
0.0
 10
0.7623609663666624
 20
-0.5683778503081016
 30
0.0
 10
0.7623609663666624
 20
-0.5698217157747049
 30
0.0
 10
0.7620000000000118
 20
-0.5712655812413092
 30
0.0
 10
0.7505693983894011
 20
-0.5712655812413092
 30
0.0
 10
0.7391387967787905
 20
-0.5712655812413092
 30
0.0
 10
0.72770819516818
 20
-0.5712655812413092
 30
0.0
 10
0.7280691615348295
 20
-0.5755971776411191
 30
0.0
 10
0.7291520606347827
 20
-0.5784849085743267
 30
0.0
 10
0.7313178588346868
 20
-0.5806507067742316
 30
0.0
 10
0.7331226906679424
 20
-0.5824555386074861
 30
0.0
 10
0.736010421601149
 20
-0.5835384377074382
 30
0.0
 10
0.7388981525343556
 20
-0.5835384377074382
 30
0.0
 10
0.7417858834675621
 20
-0.5835384377074382
 30
0.0
 10
0.7439516816674686
 20
-0.5828165049741366
 30
0.0
 10
0.745756513500722
 20
-0.5813726395075333
 30
0.0
 10
0.7475613453339777
 20
-0.5802897404075803
 30
0.0
 10
0.7486442444339297
 20
-0.5784849085743267
 30
0.0
 10
0.7493661771672311
 20
-0.5759581440077703
 30
0.0
 10
0.7534571293226081
 20
-0.5759581440077703
 30
0.0
 10
0.7575480814779851
 20
-0.5759581440077703
 30
0.0
 10
0.7616390336333622
 20
-0.5759581440077703
 30
0.0
 10
0.7612780672667093
 20
-0.5792068413076283
 30
0.0
 10
0.7598342018001066
 20
-0.5820945722408349
 30
0.0
 10
0.7576684036002024
 20
-0.584621336807391
 30
0.0
 10
0.7558635717669467
 20
-0.5871481013739474
 30
0.0
 10
0.7533368072003909
 20
-0.5893138995738523
 30
0.0
 10
0.7500881099005335
 20
-0.5907577650404556
 30
0.0
 10
0.7468394126006751
 20
-0.5922016305070598
 30
0.0
 10
0.7432297489341673
 20
-0.5925625968737103
 30
0.0
 10
0.7396200852676581
 20
-0.5925625968737103
 30
0.0
 10
0.7349275225011959
 20
-0.5925625968737103
 30
0.0
 10
0.7309568924680362
 20
-0.5918406641404086
 30
0.0
 10
0.727347228801527
 20
-0.5900358323071541
 30
0.0
 10
0.7240985315016708
 20
-0.5882310004739003
 30
0.0
 10
0.7212108005684642
 20
-0.5853432695406928
 30
0.0
 10
0.7194059687352086
 20
-0.5817336058741845
 30
0.0
 10
0.7172401705353045
 20
-0.5781239422076753
 30
0.0
 10
0.7161572714353514
 20
-0.5741533121745158
 30
0.0
 10
0.7161572714353514
 20
-0.5690997830414033
 30
0.0
 10
0.7161572714353514
 20
-0.5644072202749422
 30
0.0
 10
0.7172401705353045
 20
-0.5600756238751312
 30
0.0
 10
0.7194059687352086
 20
-0.5564659602086229
 30
0.0
 10
0.7212108005684642
 20
-0.5528562965421138
 30
0.0
 10
0.7240985315016708
 20
-0.5499685656089072
 30
0.0
 10
0.727347228801527
 20
-0.5481637337756526
 30
0.0
 10
0.7309568924680362
 20
-0.546358901942398
 30
0.0
 10
0.7349275225011959
 20
-0.5452760028424459
 30
0.0
 10
0.7396200852676581
 20
-0.5452760028424459
 30
0.0
 10
0.7439516816674686
 20
-0.5452760028424459
 30
0.0
 10
0.748283278067278
 20
-0.546358901942398
 30
0.0
 10
0.7515319753671363
 20
-0.5481637337756526
 30
0.0
 10
0.7551416390336465
 20
-0.5499685656089072
 30
0.0
 10
0.7576684036002024
 20
-0.5528562965421138
 30
0.0
 10
0.7594732354334559
 20
-0.5561049938419717
 30
0.0
 10
0.7612780672667093
 20
-0.5593536911418295
 30
0.0
 10
0.7623609663666624
 20
-0.5629633548083388
 30
0.0
 10
0.7623609663666624
 20
-0.5672949512081497
 30
0.0
  0
SPLINE
  5
9A
330
1F
100
AcDbEntity
  8
X-DIMENSIONS_GUIDE
100
AcDbSpline
210
0.0
220
0.0
230
1.0
 70
    11
 71
     3
 72
    20
 73
    16
 74
     0
 42
0.000000001
 43
0.0000000001
 40
0.0
 40
0.0
 40
0.0
 40
0.0
 40
1.0
 40
1.0
 40
1.0
 40
2.0
 40
2.0
 40
2.0
 40
3.0
 40
3.0
 40
3.0
 40
4.0
 40
4.0
 40
4.0
 40
5.0
 40
5.0
 40
5.0
 40
5.0
 10
0.7504490762671843
 20
-0.5662120521081966
 30
0.0
 10
0.7504490762671843
 20
-0.5622414220750371
 30
0.0
 10
0.7497271435338818
 20
-0.5593536911418295
 30
0.0
 10
0.7475613453339777
 20
-0.5575488593085759
 30
0.0
 10
0.7453955471340713
 20
-0.5557440274753214
 30
0.0
 10
0.7425078162008648
 20
-0.5546611283753684
 30
0.0
 10
0.7396200852676581
 20
-0.5546611283753684
 30
0.0
 10
0.7363713879677997
 20
-0.5546611283753684
 30
0.0
 10
0.7334836570345932
 20
-0.5557440274753214
 30
0.0
 10
0.7313178588346868
 20
-0.5575488593085759
 30
0.0
 10
0.7291520606347827
 20
-0.5593536911418295
 30
0.0
 10
0.7280691615348295
 20
-0.5622414220750371
 30
0.0
 10
0.72770819516818
 20
-0.5662120521081966
 30
0.0
 10
0.7352884888678481
 20
-0.5662120521081966
 30
0.0
 10
0.7428687825675162
 20
-0.5662120521081966
 30
0.0
 10
0.7504490762671843
 20
-0.5662120521081966
 30
0.0
  0
POLYLINE
  5
9C
330
1F
100
AcDbEntity
  8
N-SYMB
100
AcDb2dPolyline
 66
     1
 10
0.0
 20
0.0
 30
0.0
 70
     1
  0
VERTEX
  5
9D
330
9C
100
AcDbEntity
  8
N-SYMB
100
AcDbVertex
100
AcDb2dVertex
 10
0.0000000000000119
 20
-0.4436174959477411
 30
0.0
  0
VERTEX
  5
9E
330
9C
100
AcDbEntity
  8
N-SYMB
100
AcDbVertex
100
AcDb2dVertex
 10
0.0000000000000119
 20
-0.4055174959477412
 30
0.0
  0
VERTEX
  5
9F
330
9C
100
AcDbEntity
  8
N-SYMB
100
AcDbVertex
100
AcDb2dVertex
 10
0.2500000000000124
 20
-0.4055174959477412
 30
0.0
  0
VERTEX
  5
A0
330
9C
100
AcDbEntity
  8
N-SYMB
100
AcDbVertex
100
AcDb2dVertex
 10
0.2500000000000124
 20
-0.4436174959477411
 30
0.0
  0
SEQEND
  5
A1
330
9C
100
AcDbEntity
  8
N-SYMB
  0
POLYLINE
  5
A2
330
1F
100
AcDbEntity
  8
N-SYMB
100
AcDb2dPolyline
 66
     1
 10
0.0
 20
0.0
 30
0.0
 70
     1
  0
VERTEX
  5
A3
330
A2
100
AcDbEntity
  8
N-SYMB
100
AcDbVertex
100
AcDb2dVertex
 10
0.2500000000000124
 20
-0.4436174959477411
 30
0.0
  0
VERTEX
  5
A4
330
A2
100
AcDbEntity
  8
N-SYMB
100
AcDbVertex
100
AcDb2dVertex
 10
0.2500000000000124
 20
-0.4055174959477412
 30
0.0
  0
VERTEX
  5
A5
330
A2
100
AcDbEntity
  8
N-SYMB
100
AcDbVertex
100
AcDb2dVertex
 10
0.5000000000000119
 20
-0.4055174959477412
 30
0.0
  0
VERTEX
  5
A6
330
A2
100
AcDbEntity
  8
N-SYMB
100
AcDbVertex
100
AcDb2dVertex
 10
0.5000000000000119
 20
-0.4436174959477411
 30
0.0
  0
SEQEND
  5
A7
330
A2
100
AcDbEntity
  8
N-SYMB
  0
POLYLINE
  5
A8
330
1F
100
AcDbEntity
  8
N-SYMB
100
AcDb2dPolyline
 66
     1
 10
0.0
 20
0.0
 30
0.0
 70
     1
  0
VERTEX
  5
A9
330
A8
100
AcDbEntity
  8
N-SYMB
100
AcDbVertex
100
AcDb2dVertex
 10
0.0000000000000119
 20
-0.2666999999999983
 30
0.0
  0
VERTEX
  5
AA
330
A8
100
AcDbEntity
  8
N-SYMB
100
AcDbVertex
100
AcDb2dVertex
 10
0.0000000000000119
 20
-0.2285999999999983
 30
0.0
  0
VERTEX
  5
AB
330
A8
100
AcDbEntity
  8
N-SYMB
100
AcDbVertex
100
AcDb2dVertex
 10
0.3048000000000119
 20
-0.2285999999999983
 30
0.0
  0
VERTEX
  5
AC
330
A8
100
AcDbEntity
  8
N-SYMB
100
AcDbVertex
100
AcDb2dVertex
 10
0.3048000000000119
 20
-0.2666999999999983
 30
0.0
  0
SEQEND
  5
AD
330
A8
100
AcDbEntity
  8
N-SYMB
  0
POLYLINE
  5
AE
330
1F
100
AcDbEntity
  8
N-SYMB
100
AcDb2dPolyline
 66
     1
 10
0.0
 20
0.0
 30
0.0
 70
     1
  0
VERTEX
  5
AF
330
AE
100
AcDbEntity
  8
N-SYMB
100
AcDbVertex
100
AcDb2dVertex
 10
0.3048000000000119
 20
-0.2666999999999983
 30
0.0
  0
VERTEX
  5
B0
330
AE
100
AcDbEntity
  8
N-SYMB
100
AcDbVertex
100
AcDb2dVertex
 10
0.3048000000000119
 20
-0.2285999999999983
 30
0.0
  0
VERTEX
  5
B1
330
AE
100
AcDbEntity
  8
N-SYMB
100
AcDbVertex
100
AcDb2dVertex
 10
0.6096000000000118
 20
-0.2285999999999983
 30
0.0
  0
VERTEX
  5
B2
330
AE
100
AcDbEntity
  8
N-SYMB
100
AcDbVertex
100
AcDb2dVertex
 10
0.6096000000000118
 20
-0.2666999999999983
 30
0.0
  0
SEQEND
  5
B3
330
AE
100
AcDbEntity
  8
N-SYMB
  0
SPLINE
  5
B4
330
1F
100
AcDbEntity
  8
N-SYMB
100
AcDbSpline
210
0.0
220
0.0
230
1.0
 70
    11
 71
     3
 72
    41
 73
    37
 74
     0
 42
0.000000001
 43
0.0000000001
 40
0.0
 40
0.0
 40
0.0
 40
0.0
 40
1.0
 40
1.0
 40
1.0
 40
2.0
 40
2.0
 40
2.0
 40
3.0
 40
3.0
 40
3.0
 40
4.0
 40
4.0
 40
4.0
 40
5.0
 40
5.0
 40
5.0
 40
6.0
 40
6.0
 40
6.0
 40
7.0
 40
7.0
 40
7.0
 40
8.0
 40
8.0
 40
8.0
 40
9.0
 40
9.0
 40
9.0
 40
10.0
 40
10.0
 40
10.0
 40
11.0
 40
11.0
 40
11.0
 40
12.0
 40
12.0
 40
12.0
 40
12.0
 10
0.0038296041308254
 20
-0.1806656461545719
 30
0.0
 10
0.0038296041308254
 20
-0.1749427545883068
 30
0.0
 10
0.0044320137693796
 20
-0.1701234774798731
 30
0.0
 10
0.005636833046488
 20
-0.1665090196485478
 30
0.0
 10
0.0068416523235965
 20
-0.1628945618172225
 30
0.0
 10
0.0086488812392591
 20
-0.1601837184437285
 30
0.0
 10
0.011058519793476
 20
-0.1580752847087888
 30
0.0
 10
0.0134681583476928
 20
-0.1562680557931261
 30
0.0
 10
0.0164802065404639
 20
-0.1550632365160177
 30
0.0
 10
0.0200946643717892
 20
-0.1550632365160177
 30
0.0
 10
0.0228055077452832
 20
-0.1550632365160177
 30
0.0
 10
0.0252151462995001
 20
-0.1556656461545719
 30
0.0
 10
0.0273235800344398
 20
-0.1568704654316803
 30
0.0
 10
0.0294320137693796
 20
-0.1577740798895117
 30
0.0
 10
0.0309380378657651
 20
-0.1595813088051743
 30
0.0
 10
0.0324440619621507
 20
-0.1613885377208369
 30
0.0
 10
0.0336488812392591
 20
-0.1634969714557767
 30
0.0
 10
0.0345524956970904
 20
-0.1659066100099936
 30
0.0
 10
0.0354561101549218
 20
-0.1689186582027647
 30
0.0
 10
0.036058519793476
 20
-0.1719307063955358
 30
0.0
 10
0.0366609294320302
 20
-0.1758463690461382
 30
0.0
 10
0.0366609294320302
 20
-0.1806656461545719
 30
0.0
 10
0.0366609294320302
 20
-0.1866897425401141
 30
0.0
 10
0.036058519793476
 20
-0.1915090196485478
 30
0.0
 10
0.0348537005163675
 20
-0.1951234774798731
 30
0.0
 10
0.0336488812392591
 20
-0.1987379353111984
 30
0.0
 10
0.0318416523235965
 20
-0.2014487786846924
 30
0.0
 10
0.0294320137693796
 20
-0.2035572124196321
 30
0.0
 10
0.0270223752151627
 20
-0.2053644413352948
 30
0.0
 10
0.0240103270223916
 20
-0.205966850973849
 30
0.0
 10
0.0200946643717892
 20
-0.205966850973849
 30
0.0
 10
0.0152753872633555
 20
-0.205966850973849
 30
0.0
 10
0.0116609294320302
 20
-0.2047620316967406
 30
0.0
 10
0.0089500860585362
 20
-0.2011475738654153
 30
0.0
 10
0.005636833046488
 20
-0.1969307063955358
 30
0.0
 10
0.0038296041308254
 20
-0.1903042003714394
 30
0.0
 10
0.0038296041308254
 20
-0.1806656461545719
 30
0.0
  0
SPLINE
  5
B5
330
1F
100
AcDbEntity
  8
N-SYMB
100
AcDbSpline
210
0.0
220
0.0
230
1.0
 70
    11
 71
     3
 72
    29
 73
    25
 74
     0
 42
0.000000001
 43
0.0000000001
 40
0.0
 40
0.0
 40
0.0
 40
0.0
 40
1.0
 40
1.0
 40
1.0
 40
2.0
 40
2.0
 40
2.0
 40
3.0
 40
3.0
 40
3.0
 40
4.0
 40
4.0
 40
4.0
 40
5.0
 40
5.0
 40
5.0
 40
6.0
 40
6.0
 40
6.0
 40
7.0
 40
7.0
 40
7.0
 40
8.0
 40
8.0
 40
8.0
 40
8.0
 10
0.0101549053356446
 20
-0.1806656461545719
 30
0.0
 10
0.0101549053356446
 20
-0.1890993810943309
 30
0.0
 10
0.011058519793476
 20
-0.1945210678413189
 30
0.0
 10
0.0131669535284157
 20
-0.1972319112148129
 30
0.0
 10
0.0149741824440784
 20
-0.1999427545883068
 30
0.0
 10
0.0173838209982953
 20
-0.2014487786846924
 30
0.0
 10
0.0200946643717892
 20
-0.2014487786846924
 30
0.0
 10
0.0231067125645603
 20
-0.2014487786846924
 30
0.0
 10
0.0255163511187772
 20
-0.1999427545883068
 30
0.0
 10
0.0273235800344398
 20
-0.1972319112148129
 30
0.0
 10
0.0291308089501025
 20
-0.1945210678413189
 30
0.0
 10
0.0303356282272109
 20
-0.1890993810943309
 30
0.0
 10
0.0303356282272109
 20
-0.1806656461545719
 30
0.0
 10
0.0303356282272109
 20
-0.17253311603409
 30
0.0
 10
0.0291308089501025
 20
-0.167111429287102
 30
0.0
 10
0.0273235800344398
 20
-0.164400585913608
 30
0.0
 10
0.0255163511187772
 20
-0.1616897425401141
 30
0.0
 10
0.0231067125645603
 20
-0.1601837184437285
 30
0.0
 10
0.0200946643717892
 20
-0.1601837184437285
 30
0.0
 10
0.0173838209982953
 20
-0.1601837184437285
 30
0.0
 10
0.0149741824440784
 20
-0.1613885377208369
 30
0.0
 10
0.0134681583476928
 20
-0.1637981762750538
 30
0.0
 10
0.0113597246127531
 20
-0.1668102244678249
 30
0.0
 10
0.0101549053356446
 20
-0.17253311603409
 30
0.0
 10
0.0101549053356446
 20
-0.1806656461545719
 30
0.0
  0
SPLINE
  5
B6
330
1F
100
AcDbEntity
  8
N-SYMB
100
AcDbSpline
210
0.0
220
0.0
230
1.0
 70
    11
 71
     3
 72
    32
 73
    28
 74
     0
 42
0.000000001
 43
0.0000000001
 40
0.0
 40
0.0
 40
0.0
 40
0.0
 40
1.0
 40
1.0
 40
1.0
 40
2.0
 40
2.0
 40
2.0
 40
3.0
 40
3.0
 40
3.0
 40
4.0
 40
4.0
 40
4.0
 40
5.0
 40
5.0
 40
5.0
 40
6.0
 40
6.0
 40
6.0
 40
7.0
 40
7.0
 40
7.0
 40
8.0
 40
8.0
 40
8.0
 40
9.0
 40
9.0
 40
9.0
 40
9.0
 10
0.0441910499139579
 20
-0.1619909473593912
 30
0.0
 10
0.0441910499139579
 20
-0.1595813088051743
 30
0.0
 10
0.0441910499139579
 20
-0.1571716702509574
 30
0.0
 10
0.0441910499139579
 20
-0.1547620316967406
 30
0.0
 10
0.0463998852553234
 20
-0.1547620316967406
 30
0.0
 10
0.0486087205966888
 20
-0.1547620316967406
 30
0.0
 10
0.0508175559380543
 20
-0.1547620316967406
 30
0.0
 10
0.0508175559380543
 20
-0.1566696622188289
 30
0.0
 10
0.0508175559380543
 20
-0.1585772927409173
 30
0.0
 10
0.0508175559380543
 20
-0.1604849232630056
 30
0.0
 10
0.0508175559380543
 20
-0.1634969714557767
 30
0.0
 10
0.0505163511187772
 20
-0.1659066100099936
 30
0.0
 10
0.0496127366609459
 20
-0.167111429287102
 30
0.0
 10
0.0487091222031145
 20
-0.1689186582027647
 30
0.0
 10
0.047203098106729
 20
-0.1704246822991502
 30
0.0
 10
0.0450946643717892
 20
-0.1713282967569816
 30
0.0
 10
0.0445926563396607
 20
-0.1705250839055759
 30
0.0
 10
0.0440906483075322
 20
-0.1697218710541703
 30
0.0
 10
0.0435886402754037
 20
-0.1689186582027647
 30
0.0
 10
0.0447934595525121
 20
-0.1683162485642105
 30
0.0
 10
0.0456970740103434
 20
-0.1677138389256563
 30
0.0
 10
0.0462994836488977
 20
-0.1665090196485478
 30
0.0
 10
0.0469018932874519
 20
-0.1653042003714394
 30
0.0
 10
0.047203098106729
 20
-0.1637981762750538
 30
0.0
 10
0.047203098106729
 20
-0.1619909473593912
 30
0.0
 10
0.046199082042472
 20
-0.1619909473593912
 30
0.0
 10
0.0451950659782149
 20
-0.1619909473593912
 30
0.0
 10
0.0441910499139579
 20
-0.1619909473593912
 30
0.0
  0
SPLINE
  5
B7
330
1F
100
AcDbEntity
  8
N-SYMB
100
AcDbSpline
210
0.0
220
0.0
230
1.0
 70
    11
 71
     3
 72
    71
 73
    67
 74
     0
 42
0.000000001
 43
0.0000000001
 40
0.0
 40
0.0
 40
0.0
 40
0.0
 40
1.0
 40
1.0
 40
1.0
 40
2.0
 40
2.0
 40
2.0
 40
3.0
 40
3.0
 40
3.0
 40
4.0
 40
4.0
 40
4.0
 40
5.0
 40
5.0
 40
5.0
 40
6.0
 40
6.0
 40
6.0
 40
7.0
 40
7.0
 40
7.0
 40
8.0
 40
8.0
 40
8.0
 40
9.0
 40
9.0
 40
9.0
 40
10.0
 40
10.0
 40
10.0
 40
11.0
 40
11.0
 40
11.0
 40
12.0
 40
12.0
 40
12.0
 40
13.0
 40
13.0
 40
13.0
 40
14.0
 40
14.0
 40
14.0
 40
15.0
 40
15.0
 40
15.0
 40
16.0
 40
16.0
 40
16.0
 40
17.0
 40
17.0
 40
17.0
 40
18.0
 40
18.0
 40
18.0
 40
19.0
 40
19.0
 40
19.0
 40
20.0
 40
20.0
 40
20.0
 40
21.0
 40
21.0
 40
21.0
 40
22.0
 40
22.0
 40
22.0
 40
22.0
 10
0.6198409638554336
 20
-0.1996415497690298
 30
0.0
 10
0.6198409638554336
 20
-0.2015491802911181
 30
0.0
 10
0.6198409638554336
 20
-0.2034568108132064
 30
0.0
 10
0.6198409638554336
 20
-0.2053644413352948
 30
0.0
 10
0.608897188755032
 20
-0.2053644413352948
 30
0.0
 10
0.5979534136546304
 20
-0.2053644413352948
 30
0.0
 10
0.5870096385542287
 20
-0.2053644413352948
 30
0.0
 10
0.5867084337349516
 20
-0.2041596220581864
 30
0.0
 10
0.5870096385542287
 20
-0.2026535979618008
 30
0.0
 10
0.5876120481927829
 20
-0.2011475738654153
 30
0.0
 10
0.5885156626506142
 20
-0.1990391401304756
 30
0.0
 10
0.5897204819277228
 20
-0.1966295015762587
 30
0.0
 10
0.5915277108433853
 20
-0.1945210678413189
 30
0.0
 10
0.5936361445783251
 20
-0.1924126341063792
 30
0.0
 10
0.596045783132542
 20
-0.1900029955521623
 30
0.0
 10
0.5996602409638673
 20
-0.1869909473593912
 30
0.0
 10
0.6050819277108552
 20
-0.1824728750702345
 30
0.0
 10
0.6086963855421805
 20
-0.1788584172389093
 30
0.0
 10
0.6108048192771203
 20
-0.1764487786846924
 30
0.0
 10
0.6126120481927829
 20
-0.1737379353111984
 30
0.0
 10
0.6135156626506142
 20
-0.1713282967569816
 30
0.0
 10
0.6135156626506142
 20
-0.1689186582027647
 30
0.0
 10
0.6135156626506142
 20
-0.1665090196485478
 30
0.0
 10
0.6126120481927829
 20
-0.164400585913608
 30
0.0
 10
0.6111060240963974
 20
-0.1628945618172225
 30
0.0
 10
0.6092987951807347
 20
-0.1610873329015599
 30
0.0
 10
0.6068891566265179
 20
-0.1601837184437285
 30
0.0
 10
0.6041783132530238
 20
-0.1601837184437285
 30
0.0
 10
0.6011662650602528
 20
-0.1601837184437285
 30
0.0
 10
0.5987566265060359
 20
-0.1610873329015599
 30
0.0
 10
0.5969493975903734
 20
-0.1628945618172225
 30
0.0
 10
0.5951421686747106
 20
-0.1647017907328852
 30
0.0
 10
0.5942385542168793
 20
-0.167111429287102
 30
0.0
 10
0.5942385542168793
 20
-0.1704246822991502
 30
0.0
 10
0.5921301204819396
 20
-0.1702238790862988
 30
0.0
 10
0.5900216867469997
 20
-0.1700230758734474
 30
0.0
 10
0.58791325301206
 20
-0.169822272660596
 30
0.0
 10
0.5885156626506142
 20
-0.1650029955521623
 30
0.0
 10
0.5900216867469997
 20
-0.1613885377208369
 30
0.0
 10
0.5930337349397709
 20
-0.1589788991666201
 30
0.0
 10
0.5957445783132648
 20
-0.1565692606124032
 30
0.0
 10
0.5996602409638673
 20
-0.1550632365160177
 30
0.0
 10
0.6041783132530238
 20
-0.1550632365160177
 30
0.0
 10
0.6089975903614576
 20
-0.1550632365160177
 30
0.0
 10
0.61291325301206
 20
-0.1565692606124032
 30
0.0
 10
0.615624096385554
 20
-0.1592801039858972
 30
0.0
 10
0.618636144578325
 20
-0.1619909473593912
 30
0.0
 10
0.6198409638554336
 20
-0.1653042003714394
 30
0.0
 10
0.6198409638554336
 20
-0.1692198630220418
 30
0.0
 10
0.6198409638554336
 20
-0.1710270919377045
 30
0.0
 10
0.6195397590361564
 20
-0.1731355256726442
 30
0.0
 10
0.618636144578325
 20
-0.1749427545883068
 30
0.0
 10
0.6177325301204938
 20
-0.1770511883232466
 30
0.0
 10
0.6165277108433853
 20
-0.1788584172389093
 30
0.0
 10
0.6147204819277227
 20
-0.1812680557931261
 30
0.0
 10
0.6126120481927829
 20
-0.1833764895280659
 30
0.0
 10
0.6096000000000118
 20
-0.1860873329015598
 30
0.0
 10
0.6050819277108552
 20
-0.1900029955521623
 30
0.0
 10
0.6014674698795299
 20
-0.1930150437449334
 30
0.0
 10
0.599057831325313
 20
-0.1951234774798731
 30
0.0
 10
0.5981542168674817
 20
-0.1963282967569815
 30
0.0
 10
0.5969493975903734
 20
-0.1972319112148129
 30
0.0
 10
0.596045783132542
 20
-0.1984367304919213
 30
0.0
 10
0.5954433734939878
 20
-0.1996415497690298
 30
0.0
 10
0.6035759036144697
 20
-0.1996415497690297
 30
0.0
 10
0.6117084337349517
 20
-0.1996415497690297
 30
0.0
 10
0.6198409638554336
 20
-0.1996415497690298
 30
0.0
  0
SPLINE
  5
B8
330
1F
100
AcDbEntity
  8
N-SYMB
100
AcDbSpline
210
0.0
220
0.0
230
1.0
 70
    11
 71
     3
 72
    32
 73
    28
 74
     0
 42
0.000000001
 43
0.0000000001
 40
0.0
 40
0.0
 40
0.0
 40
0.0
 40
1.0
 40
1.0
 40
1.0
 40
2.0
 40
2.0
 40
2.0
 40
3.0
 40
3.0
 40
3.0
 40
4.0
 40
4.0
 40
4.0
 40
5.0
 40
5.0
 40
5.0
 40
6.0
 40
6.0
 40
6.0
 40
7.0
 40
7.0
 40
7.0
 40
8.0
 40
8.0
 40
8.0
 40
9.0
 40
9.0
 40
9.0
 40
9.0
 10
0.6279734939759154
 20
-0.1619909473593912
 30
0.0
 10
0.6279734939759154
 20
-0.1595813088051743
 30
0.0
 10
0.6279734939759154
 20
-0.1571716702509574
 30
0.0
 10
0.6279734939759154
 20
-0.1547620316967406
 30
0.0
 10
0.6301823293172809
 20
-0.1547620316967406
 30
0.0
 10
0.6323911646586464
 20
-0.1547620316967406
 30
0.0
 10
0.6346000000000118
 20
-0.1547620316967406
 30
0.0
 10
0.6346000000000118
 20
-0.1566696622188289
 30
0.0
 10
0.6346000000000118
 20
-0.1585772927409173
 30
0.0
 10
0.6346000000000118
 20
-0.1604849232630056
 30
0.0
 10
0.6346000000000118
 20
-0.1634969714557767
 30
0.0
 10
0.6342987951807347
 20
-0.1659066100099936
 30
0.0
 10
0.6333951807229034
 20
-0.167111429287102
 30
0.0
 10
0.6324915662650721
 20
-0.1689186582027647
 30
0.0
 10
0.6309855421686865
 20
-0.1704246822991502
 30
0.0
 10
0.6288771084337467
 20
-0.1713282967569816
 30
0.0
 10
0.6283751004016181
 20
-0.1705250839055759
 30
0.0
 10
0.6278730923694896
 20
-0.1697218710541703
 30
0.0
 10
0.6273710843373612
 20
-0.1689186582027647
 30
0.0
 10
0.6285759036144697
 20
-0.1683162485642105
 30
0.0
 10
0.629479518072301
 20
-0.1677138389256563
 30
0.0
 10
0.6300819277108552
 20
-0.1665090196485478
 30
0.0
 10
0.6306843373494094
 20
-0.1653042003714394
 30
0.0
 10
0.6309855421686865
 20
-0.1637981762750538
 30
0.0
 10
0.6309855421686865
 20
-0.1619909473593912
 30
0.0
 10
0.6299815261044295
 20
-0.1619909473593912
 30
0.0
 10
0.6289775100401724
 20
-0.1619909473593912
 30
0.0
 10
0.6279734939759154
 20
-0.1619909473593912
 30
0.0
  0
SPLINE
  5
B9
330
1F
100
AcDbEntity
  8
N-SYMB
100
AcDbSpline
210
0.0
220
0.0
230
1.0
 70
    11
 71
     3
 72
    32
 73
    28
 74
     0
 42
0.000000001
 43
0.0000000001
 40
0.0
 40
0.0
 40
0.0
 40
0.0
 40
1.0
 40
1.0
 40
1.0
 40
2.0
 40
2.0
 40
2.0
 40
3.0
 40
3.0
 40
3.0
 40
4.0
 40
4.0
 40
4.0
 40
5.0
 40
5.0
 40
5.0
 40
6.0
 40
6.0
 40
6.0
 40
7.0
 40
7.0
 40
7.0
 40
8.0
 40
8.0
 40
8.0
 40
9.0
 40
9.0
 40
9.0
 40
9.0
 10
0.3060048192771203
 20
-0.2053644413352948
 30
0.0
 10
0.3039967871486063
 20
-0.2053644413352948
 30
0.0
 10
0.3019887550200922
 20
-0.2053644413352948
 30
0.0
 10
0.2999807228915782
 20
-0.2053644413352948
 30
0.0
 10
0.2999807228915782
 20
-0.1923122324999534
 30
0.0
 10
0.2999807228915782
 20
-0.179260023664612
 30
0.0
 10
0.2999807228915782
 20
-0.1662078148292707
 30
0.0
 10
0.2984746987951926
 20
-0.1677138389256563
 30
0.0
 10
0.2963662650602528
 20
-0.1692198630220418
 30
0.0
 10
0.293956626506036
 20
-0.1704246822991502
 30
0.0
 10
0.2915469879518191
 20
-0.1719307063955358
 30
0.0
 10
0.2894385542168794
 20
-0.1731355256726442
 30
0.0
 10
0.2876313253012167
 20
-0.1737379353111984
 30
0.0
 10
0.2876313253012167
 20
-0.1717299031826844
 30
0.0
 10
0.2876313253012167
 20
-0.1697218710541703
 30
0.0
 10
0.2876313253012167
 20
-0.1677138389256563
 30
0.0
 10
0.2909445783132649
 20
-0.1662078148292707
 30
0.0
 10
0.293956626506036
 20
-0.1640993810943309
 30
0.0
 10
0.29666746987953
 20
-0.1619909473593912
 30
0.0
 10
0.2990771084337468
 20
-0.1595813088051743
 30
0.0
 10
0.3008843373494094
 20
-0.1574728750702346
 30
0.0
 10
0.3020891566265179
 20
-0.1550632365160177
 30
0.0
 10
0.303394377510052
 20
-0.1550632365160177
 30
0.0
 10
0.3046995983935861
 20
-0.1550632365160177
 30
0.0
 10
0.3060048192771203
 20
-0.1550632365160177
 30
0.0
 10
0.3060048192771203
 20
-0.1718303047891101
 30
0.0
 10
0.3060048192771203
 20
-0.1885973730622025
 30
0.0
 10
0.3060048192771203
 20
-0.2053644413352948
 30
0.0
  0
SPLINE
  5
BA
330
1F
100
AcDbEntity
  8
N-SYMB
100
AcDbSpline
210
0.0
220
0.0
230
1.0
 70
    11
 71
     3
 72
    32
 73
    28
 74
     0
 42
0.000000001
 43
0.0000000001
 40
0.0
 40
0.0
 40
0.0
 40
0.0
 40
1.0
 40
1.0
 40
1.0
 40
2.0
 40
2.0
 40
2.0
 40
3.0
 40
3.0
 40
3.0
 40
4.0
 40
4.0
 40
4.0
 40
5.0
 40
5.0
 40
5.0
 40
6.0
 40
6.0
 40
6.0
 40
7.0
 40
7.0
 40
7.0
 40
8.0
 40
8.0
 40
8.0
 40
9.0
 40
9.0
 40
9.0
 40
9.0
 10
0.3231734939759155
 20
-0.1619909473593912
 30
0.0
 10
0.3231734939759155
 20
-0.1595813088051743
 30
0.0
 10
0.3231734939759155
 20
-0.1571716702509574
 30
0.0
 10
0.3231734939759155
 20
-0.1547620316967406
 30
0.0
 10
0.3253823293172809
 20
-0.1547620316967406
 30
0.0
 10
0.3275911646586464
 20
-0.1547620316967406
 30
0.0
 10
0.3298000000000119
 20
-0.1547620316967406
 30
0.0
 10
0.3298000000000119
 20
-0.1566696622188289
 30
0.0
 10
0.3298000000000119
 20
-0.1585772927409173
 30
0.0
 10
0.3298000000000119
 20
-0.1604849232630056
 30
0.0
 10
0.3298000000000119
 20
-0.1634969714557767
 30
0.0
 10
0.3294987951807348
 20
-0.1659066100099936
 30
0.0
 10
0.3285951807229034
 20
-0.167111429287102
 30
0.0
 10
0.3276915662650721
 20
-0.1689186582027647
 30
0.0
 10
0.3261855421686866
 20
-0.1704246822991502
 30
0.0
 10
0.3240771084337468
 20
-0.1713282967569816
 30
0.0
 10
0.3235751004016183
 20
-0.1705250839055759
 30
0.0
 10
0.3230730923694898
 20
-0.1697218710541703
 30
0.0
 10
0.3225710843373613
 20
-0.1689186582027647
 30
0.0
 10
0.3237759036144697
 20
-0.1683162485642105
 30
0.0
 10
0.324679518072301
 20
-0.1677138389256563
 30
0.0
 10
0.3252819277108552
 20
-0.1665090196485478
 30
0.0
 10
0.3258843373494095
 20
-0.1653042003714394
 30
0.0
 10
0.3261855421686866
 20
-0.1637981762750538
 30
0.0
 10
0.3261855421686866
 20
-0.1619909473593912
 30
0.0
 10
0.3251815261044295
 20
-0.1619909473593912
 30
0.0
 10
0.3241775100401725
 20
-0.1619909473593912
 30
0.0
 10
0.3231734939759155
 20
-0.1619909473593912
 30
0.0
  0
POLYLINE
  5
BB
330
1F
100
AcDbEntity
  8
N-SYMB
100
AcDb2dPolyline
 66
     1
 10
0.0
 20
0.0
 30
0.0
 70
     1
  0
VERTEX
  5
BC
330
BB
100
AcDbEntity
  8
N-SYMB
100
AcDbVertex
100
AcDb2dVertex
 10
0.4786144578313372
 20
-0.3822819372830377
 30
0.0
  0
VERTEX
  5
BD
330
BB
100
AcDbEntity
  8
N-SYMB
100
AcDbVertex
100
AcDb2dVertex
 10
0.4786144578313372
 20
-0.3753542264396642
 30
0.0
  0
VERTEX
  5
BE
330
BB
100
AcDbEntity
  8
N-SYMB
100
AcDbVertex
100
AcDb2dVertex
 10
0.4855421686747107
 20
-0.3753542264396642
 30
0.0
  0
VERTEX
  5
BF
330
BB
100
AcDbEntity
  8
N-SYMB
100
AcDbVertex
100
AcDb2dVertex
 10
0.4855421686747107
 20
-0.3822819372830377
 30
0.0
  0
SEQEND
  5
C0
330
BB
100
AcDbEntity
  8
N-SYMB
  0
SPLINE
  5
C1
330
1F
100
AcDbEntity
  8
N-SYMB
100
AcDbSpline
210
0.0
220
0.0
230
1.0
 70
    11
 71
     3
 72
    71
 73
    67
 74
     0
 42
0.000000001
 43
0.0000000001
 40
0.0
 40
0.0
 40
0.0
 40
0.0
 40
1.0
 40
1.0
 40
1.0
 40
2.0
 40
2.0
 40
2.0
 40
3.0
 40
3.0
 40
3.0
 40
4.0
 40
4.0
 40
4.0
 40
5.0
 40
5.0
 40
5.0
 40
6.0
 40
6.0
 40
6.0
 40
7.0
 40
7.0
 40
7.0
 40
8.0
 40
8.0
 40
8.0
 40
9.0
 40
9.0
 40
9.0
 40
10.0
 40
10.0
 40
10.0
 40
11.0
 40
11.0
 40
11.0
 40
12.0
 40
12.0
 40
12.0
 40
13.0
 40
13.0
 40
13.0
 40
14.0
 40
14.0
 40
14.0
 40
15.0
 40
15.0
 40
15.0
 40
16.0
 40
16.0
 40
16.0
 40
17.0
 40
17.0
 40
17.0
 40
18.0
 40
18.0
 40
18.0
 40
19.0
 40
19.0
 40
19.0
 40
20.0
 40
20.0
 40
20.0
 40
21.0
 40
21.0
 40
21.0
 40
22.0
 40
22.0
 40
22.0
 40
22.0
 10
0.4945783132530239
 20
-0.369330130054122
 30
0.0
 10
0.4966867469879637
 20
-0.3691293268412706
 30
0.0
 10
0.4987951807229034
 20
-0.3689285236284192
 30
0.0
 10
0.5009036144578431
 20
-0.3687277204155678
 30
0.0
 10
0.5015060240963974
 20
-0.372040973427616
 30
0.0
 10
0.5024096385542287
 20
-0.3741494071625557
 30
0.0
 10
0.5042168674698914
 20
-0.3759566360782184
 30
0.0
 10
0.506024096385554
 20
-0.3774626601746039
 30
0.0
 10
0.5081325301204938
 20
-0.3783662746324353
 30
0.0
 10
0.5105421686747107
 20
-0.3783662746324353
 30
0.0
 10
0.5135542168674817
 20
-0.3783662746324353
 30
0.0
 10
0.5159638554216986
 20
-0.3771614553553268
 30
0.0
 10
0.5180722891566384
 20
-0.3747518168011099
 30
0.0
 10
0.5201807228915781
 20
-0.3726433830661702
 30
0.0
 10
0.5210843373494095
 20
-0.3696313348733991
 30
0.0
 10
0.5210843373494095
 20
-0.3660168770420738
 30
0.0
 10
0.5210843373494095
 20
-0.3624024192107486
 30
0.0
 10
0.5201807228915781
 20
-0.3596915758372545
 30
0.0
 10
0.5183734939759155
 20
-0.3575831421023148
 30
0.0
 10
0.5162650602409757
 20
-0.3557759131866521
 30
0.0
 10
0.5135542168674817
 20
-0.3545710939095437
 30
0.0
 10
0.5105421686747107
 20
-0.3545710939095437
 30
0.0
 10
0.5084337349397708
 20
-0.3545710939095437
 30
0.0
 10
0.5066265060241083
 20
-0.3551735035480978
 30
0.0
 10
0.5051204819277227
 20
-0.3560771180059292
 30
0.0
 10
0.5036144578313372
 20
-0.3569807324637606
 30
0.0
 10
0.5024096385542287
 20
-0.358185551740869
 30
0.0
 10
0.5015060240963974
 20
-0.3593903710179774
 30
0.0
 10
0.4994979919678834
 20
-0.3591895678051261
 30
0.0
 10
0.4974899598393693
 20
-0.3589887645922746
 30
0.0
 10
0.4954819277108553
 20
-0.3587879613794232
 30
0.0
 10
0.4970883534136665
 20
-0.3501534232268128
 30
0.0
 10
0.4986947791164777
 20
-0.3415188850742024
 30
0.0
 10
0.500301204819289
 20
-0.3328843469215919
 30
0.0
 10
0.5086345381526223
 20
-0.3328843469215919
 30
0.0
 10
0.5169678714859557
 20
-0.3328843469215919
 30
0.0
 10
0.525301204819289
 20
-0.3328843469215919
 30
0.0
 10
0.525301204819289
 20
-0.3348923790501059
 30
0.0
 10
0.525301204819289
 20
-0.33690041117862
 30
0.0
 10
0.525301204819289
 20
-0.3389084433071339
 30
0.0
 10
0.5186746987951926
 20
-0.3389084433071339
 30
0.0
 10
0.5120481927710961
 20
-0.3389084433071339
 30
0.0
 10
0.5054216867469998
 20
-0.3389084433071339
 30
0.0
 10
0.5045180722891685
 20
-0.3434265155962906
 30
0.0
 10
0.5036144578313371
 20
-0.3479445878854473
 30
0.0
 10
0.5027108433735058
 20
-0.3524626601746039
 30
0.0
 10
0.5057228915662769
 20
-0.3503542264396642
 30
0.0
 10
0.508734939759048
 20
-0.3491494071625557
 30
0.0
 10
0.5120481927710963
 20
-0.3491494071625557
 30
0.0
 10
0.5165662650602528
 20
-0.3491494071625557
 30
0.0
 10
0.5201807228915781
 20
-0.3506554312589412
 30
0.0
 10
0.5231927710843491
 20
-0.3536674794517123
 30
0.0
 10
0.5262048192771203
 20
-0.3566795276444834
 30
0.0
 10
0.5277108433735058
 20
-0.3605951902950859
 30
0.0
 10
0.5277108433735058
 20
-0.3654144674035196
 30
0.0
 10
0.5277108433735058
 20
-0.3699325396926762
 30
0.0
 10
0.5265060240963974
 20
-0.3738482023432786
 30
0.0
 10
0.5237951807229034
 20
-0.3771614553553268
 30
0.0
 10
0.5204819277108552
 20
-0.3813783228252063
 30
0.0
 10
0.5162650602409757
 20
-0.3828843469215919
 30
0.0
 10
0.5105421686747107
 20
-0.3828843469215919
 30
0.0
 10
0.506024096385554
 20
-0.3828843469215919
 30
0.0
 10
0.5024096385542287
 20
-0.3819807324637605
 30
0.0
 10
0.4993975903614576
 20
-0.3795710939095437
 30
0.0
 10
0.4966867469879637
 20
-0.3768602505360497
 30
0.0
 10
0.494879518072301
 20
-0.3735469975240015
 30
0.0
 10
0.4945783132530239
 20
-0.369330130054122
 30
0.0
  0
SPLINE
  5
C2
330
1F
100
AcDbEntity
  8
N-SYMB
100
AcDbSpline
210
0.0
220
0.0
230
1.0
 70
    11
 71
     3
 72
    41
 73
    37
 74
     0
 42
0.000000001
 43
0.0000000001
 40
0.0
 40
0.0
 40
0.0
 40
0.0
 40
1.0
 40
1.0
 40
1.0
 40
2.0
 40
2.0
 40
2.0
 40
3.0
 40
3.0
 40
3.0
 40
4.0
 40
4.0
 40
4.0
 40
5.0
 40
5.0
 40
5.0
 40
6.0
 40
6.0
 40
6.0
 40
7.0
 40
7.0
 40
7.0
 40
8.0
 40
8.0
 40
8.0
 40
9.0
 40
9.0
 40
9.0
 40
10.0
 40
10.0
 40
10.0
 40
11.0
 40
11.0
 40
11.0
 40
12.0
 40
12.0
 40
12.0
 40
12.0
 10
0.0000000000000117
 20
-0.3564891638060574
 30
0.0
 10
0.0000000000000117
 20
-0.3507662722397923
 30
0.0
 10
0.0006024096385659
 20
-0.3459469951313586
 30
0.0
 10
0.0018072289156744
 20
-0.3423325373000333
 30
0.0
 10
0.0030120481927828
 20
-0.338718079468708
 30
0.0
 10
0.0048192771084455
 20
-0.336007236095214
 30
0.0
 10
0.0072289156626623
 20
-0.3338988023602742
 30
0.0
 10
0.0096385542168792
 20
-0.3320915734446116
 30
0.0
 10
0.0126506024096503
 20
-0.3308867541675032
 30
0.0
 10
0.0162650602409756
 20
-0.3308867541675032
 30
0.0
 10
0.0189759036144695
 20
-0.3308867541675032
 30
0.0
 10
0.0213855421686864
 20
-0.3314891638060574
 30
0.0
 10
0.0234939759036262
 20
-0.3326939830831658
 30
0.0
 10
0.0256024096385659
 20
-0.3335975975409971
 30
0.0
 10
0.0271084337349515
 20
-0.3354048264566598
 30
0.0
 10
0.028614457831337
 20
-0.3372120553723225
 30
0.0
 10
0.0298192771084455
 20
-0.3393204891072622
 30
0.0
 10
0.0307228915662768
 20
-0.3417301276614791
 30
0.0
 10
0.0316265060241081
 20
-0.3447421758542502
 30
0.0
 10
0.0322289156626623
 20
-0.3477542240470213
 30
0.0
 10
0.0328313253012165
 20
-0.3516698866976237
 30
0.0
 10
0.0328313253012165
 20
-0.3564891638060574
 30
0.0
 10
0.0328313253012165
 20
-0.3625132601915996
 30
0.0
 10
0.0322289156626623
 20
-0.3673325373000332
 30
0.0
 10
0.0310240963855539
 20
-0.3709469951313586
 30
0.0
 10
0.0298192771084455
 20
-0.3745614529626838
 30
0.0
 10
0.0280120481927828
 20
-0.3772722963361779
 30
0.0
 10
0.0256024096385659
 20
-0.3793807300711176
 30
0.0
 10
0.0231927710843491
 20
-0.3811879589867803
 30
0.0
 10
0.020180722891578
 20
-0.3817903686253345
 30
0.0
 10
0.0162650602409756
 20
-0.3817903686253345
 30
0.0
 10
0.0114457831325418
 20
-0.3817903686253345
 30
0.0
 10
0.0078313253012165
 20
-0.380585549348226
 30
0.0
 10
0.0051204819277226
 20
-0.3769710915169008
 30
0.0
 10
0.0018072289156744
 20
-0.3727542240470212
 30
0.0
 10
0.0000000000000117
 20
-0.3661277180229248
 30
0.0
 10
0.0000000000000117
 20
-0.3564891638060574
 30
0.0
  0
SPLINE
  5
C3
330
1F
100
AcDbEntity
  8
N-SYMB
100
AcDbSpline
210
0.0
220
0.0
230
1.0
 70
    11
 71
     3
 72
    29
 73
    25
 74
     0
 42
0.000000001
 43
0.0000000001
 40
0.0
 40
0.0
 40
0.0
 40
0.0
 40
1.0
 40
1.0
 40
1.0
 40
2.0
 40
2.0
 40
2.0
 40
3.0
 40
3.0
 40
3.0
 40
4.0
 40
4.0
 40
4.0
 40
5.0
 40
5.0
 40
5.0
 40
6.0
 40
6.0
 40
6.0
 40
7.0
 40
7.0
 40
7.0
 40
8.0
 40
8.0
 40
8.0
 40
8.0
 10
0.006325301204831
 20
-0.3564891638060574
 30
0.0
 10
0.006325301204831
 20
-0.3649228987458164
 30
0.0
 10
0.0072289156626623
 20
-0.3703445854928044
 30
0.0
 10
0.0093373493976021
 20
-0.3730554288662984
 30
0.0
 10
0.0111445783132647
 20
-0.3757662722397924
 30
0.0
 10
0.0135542168674816
 20
-0.3772722963361779
 30
0.0
 10
0.0162650602409756
 20
-0.3772722963361779
 30
0.0
 10
0.0192771084337467
 20
-0.3772722963361779
 30
0.0
 10
0.0216867469879635
 20
-0.3757662722397924
 30
0.0
 10
0.0234939759036262
 20
-0.3730554288662984
 30
0.0
 10
0.0253012048192888
 20
-0.3703445854928044
 30
0.0
 10
0.0265060240963973
 20
-0.3649228987458164
 30
0.0
 10
0.0265060240963973
 20
-0.3564891638060574
 30
0.0
 10
0.0265060240963973
 20
-0.3483566336855755
 30
0.0
 10
0.0253012048192888
 20
-0.3429349469385875
 30
0.0
 10
0.0234939759036262
 20
-0.3402241035650935
 30
0.0
 10
0.0216867469879635
 20
-0.3375132601915996
 30
0.0
 10
0.0192771084337467
 20
-0.336007236095214
 30
0.0
 10
0.0162650602409756
 20
-0.336007236095214
 30
0.0
 10
0.0135542168674816
 20
-0.336007236095214
 30
0.0
 10
0.0111445783132647
 20
-0.3372120553723225
 30
0.0
 10
0.0096385542168792
 20
-0.3396216939265393
 30
0.0
 10
0.0075301204819394
 20
-0.3426337421193104
 30
0.0
 10
0.006325301204831
 20
-0.3483566336855755
 30
0.0
 10
0.006325301204831
 20
-0.3564891638060574
 30
0.0
  0
SPLINE
  5
C4
330
1F
100
AcDbEntity
  8
N-SYMB
100
AcDbSpline
210
0.0
220
0.0
230
1.0
 70
    11
 71
     3
 72
    89
 73
    85
 74
     0
 42
0.000000001
 43
0.0000000001
 40
0.0
 40
0.0
 40
0.0
 40
0.0
 40
1.0
 40
1.0
 40
1.0
 40
2.0
 40
2.0
 40
2.0
 40
3.0
 40
3.0
 40
3.0
 40
4.0
 40
4.0
 40
4.0
 40
5.0
 40
5.0
 40
5.0
 40
6.0
 40
6.0
 40
6.0
 40
7.0
 40
7.0
 40
7.0
 40
8.0
 40
8.0
 40
8.0
 40
9.0
 40
9.0
 40
9.0
 40
10.0
 40
10.0
 40
10.0
 40
11.0
 40
11.0
 40
11.0
 40
12.0
 40
12.0
 40
12.0
 40
13.0
 40
13.0
 40
13.0
 40
14.0
 40
14.0
 40
14.0
 40
15.0
 40
15.0
 40
15.0
 40
16.0
 40
16.0
 40
16.0
 40
17.0
 40
17.0
 40
17.0
 40
18.0
 40
18.0
 40
18.0
 40
19.0
 40
19.0
 40
19.0
 40
20.0
 40
20.0
 40
20.0
 40
21.0
 40
21.0
 40
21.0
 40
22.0
 40
22.0
 40
22.0
 40
23.0
 40
23.0
 40
23.0
 40
24.0
 40
24.0
 40
24.0
 40
25.0
 40
25.0
 40
25.0
 40
26.0
 40
26.0
 40
26.0
 40
27.0
 40
27.0
 40
27.0
 40
28.0
 40
28.0
 40
28.0
 40
28.0
 10
0.0602409638554334
 20
-0.3811879589867803
 30
0.0
 10
0.0602409638554334
 20
-0.3691397662156959
 30
0.0
 10
0.0602409638554334
 20
-0.3570915734446116
 30
0.0
 10
0.0602409638554334
 20
-0.3450433806735272
 30
0.0
 10
0.0620481927710961
 20
-0.3450433806735272
 30
0.0
 10
0.0638554216867587
 20
-0.3450433806735272
 30
0.0
 10
0.0656626506024214
 20
-0.3450433806735272
 30
0.0
 10
0.0656626506024214
 20
-0.3467502079827642
 30
0.0
 10
0.0656626506024214
 20
-0.3484570352920011
 30
0.0
 10
0.0656626506024214
 20
-0.3501638626012381
 30
0.0
 10
0.0668674698795298
 20
-0.3483566336855755
 30
0.0
 10
0.0683734939759153
 20
-0.3468506095891899
 30
0.0
 10
0.070180722891578
 20
-0.3459469951313586
 30
0.0
 10
0.0719879518072406
 20
-0.3447421758542502
 30
0.0
 10
0.0740963855421804
 20
-0.3441397662156959
 30
0.0
 10
0.0765060240963973
 20
-0.3441397662156959
 30
0.0
 10
0.0792168674698912
 20
-0.3441397662156959
 30
0.0
 10
0.0816265060241081
 20
-0.3447421758542502
 30
0.0
 10
0.0831325301204937
 20
-0.3459469951313586
 30
0.0
 10
0.0849397590361563
 20
-0.347151814408467
 30
0.0
 10
0.0861445783132647
 20
-0.3486578385048525
 30
0.0
 10
0.086746987951819
 20
-0.3504650674205153
 30
0.0
 10
0.08975903614459
 20
-0.3462481999506357
 30
0.0
 10
0.0933734939759154
 20
-0.3441397662156959
 30
0.0
 10
0.0981927710843491
 20
-0.3441397662156959
 30
0.0
 10
0.1018072289156744
 20
-0.3441397662156959
 30
0.0
 10
0.1045180722891683
 20
-0.3453445854928043
 30
0.0
 10
0.106325301204831
 20
-0.347151814408467
 30
0.0
 10
0.1084337349397708
 20
-0.3492602481434068
 30
0.0
 10
0.1093373493976021
 20
-0.3522722963361779
 30
0.0
 10
0.1093373493976021
 20
-0.3564891638060574
 30
0.0
 10
0.1093373493976021
 20
-0.364722095532965
 30
0.0
 10
0.1093373493976021
 20
-0.3729550272598726
 30
0.0
 10
0.1093373493976021
 20
-0.3811879589867802
 30
0.0
 10
0.107329317269088
 20
-0.3811879589867802
 30
0.0
 10
0.105321285140574
 20
-0.3811879589867802
 30
0.0
 10
0.1033132530120599
 20
-0.3811879589867802
 30
0.0
 10
0.1033132530120599
 20
-0.3736578385048525
 30
0.0
 10
0.1033132530120599
 20
-0.3661277180229248
 30
0.0
 10
0.1033132530120599
 20
-0.3585975975409971
 30
0.0
 10
0.1033132530120599
 20
-0.3558867541675031
 30
0.0
 10
0.1030120481927828
 20
-0.3543807300711176
 30
0.0
 10
0.1027108433735057
 20
-0.3531759107940092
 30
0.0
 10
0.1021084337349515
 20
-0.3519710915169008
 30
0.0
 10
0.1015060240963973
 20
-0.3510674770590694
 30
0.0
 10
0.1003012048192888
 20
-0.3504650674205153
 30
0.0
 10
0.0993975903614575
 20
-0.349862657781961
 30
0.0
 10
0.0981927710843491
 20
-0.3495614529626839
 30
0.0
 10
0.0966867469879635
 20
-0.3495614529626839
 30
0.0
 10
0.0942771084337467
 20
-0.3495614529626839
 30
0.0
 10
0.0921686746988069
 20
-0.3504650674205153
 30
0.0
 10
0.0903614457831443
 20
-0.3519710915169008
 30
0.0
 10
0.0885542168674816
 20
-0.3537783204325634
 30
0.0
 10
0.0879518072289274
 20
-0.3564891638060574
 30
0.0
 10
0.0879518072289274
 20
-0.3601036216373827
 30
0.0
 10
0.0879518072289274
 20
-0.3671317340871819
 30
0.0
 10
0.0879518072289274
 20
-0.3741598465369811
 30
0.0
 10
0.0879518072289274
 20
-0.3811879589867802
 30
0.0
 10
0.0858433734939876
 20
-0.3811879589867802
 30
0.0
 10
0.0837349397590479
 20
-0.3811879589867802
 30
0.0
 10
0.0816265060241081
 20
-0.3811879589867802
 30
0.0
 10
0.0816265060241081
 20
-0.3733566336855754
 30
0.0
 10
0.0816265060241081
 20
-0.3655253083843706
 30
0.0
 10
0.0816265060241081
 20
-0.3576939830831658
 30
0.0
 10
0.0816265060241081
 20
-0.3549831397096719
 30
0.0
 10
0.081325301204831
 20
-0.3528747059747321
 30
0.0
 10
0.0801204819277226
 20
-0.3516698866976237
 30
0.0
 10
0.0792168674698912
 20
-0.3501638626012381
 30
0.0
 10
0.0774096385542286
 20
-0.3495614529626839
 30
0.0
 10
0.0753012048192888
 20
-0.3495614529626839
 30
0.0
 10
0.0734939759036262
 20
-0.3495614529626839
 30
0.0
 10
0.0719879518072406
 20
-0.349862657781961
 30
0.0
 10
0.0704819277108551
 20
-0.3510674770590694
 30
0.0
 10
0.0689759036144695
 20
-0.3519710915169008
 30
0.0
 10
0.0680722891566382
 20
-0.3531759107940092
 30
0.0
 10
0.0671686746988069
 20
-0.3549831397096719
 30
0.0
 10
0.0665662650602527
 20
-0.3567903686253345
 30
0.0
 10
0.0662650602409756
 20
-0.3592000071795514
 30
0.0
 10
0.0662650602409756
 20
-0.3625132601915996
 30
0.0
 10
0.0662650602409756
 20
-0.3687381597899931
 30
0.0
 10
0.0662650602409756
 20
-0.3749630593883866
 30
0.0
 10
0.0662650602409756
 20
-0.3811879589867802
 30
0.0
 10
0.0642570281124615
 20
-0.3811879589867802
 30
0.0
 10
0.0622489959839475
 20
-0.3811879589867802
 30
0.0
 10
0.0602409638554334
 20
-0.3811879589867803
 30
0.0
  0
ARC
  5
C6
330
1F
100
AcDbEntity
  8
AG-DIGITAL
100
AcDbCircle
 10
0.4079275691383955
 20
0.2838963887073894
 30
0.0
 40
0.0020055353529872
100
AcDbArc
 50
163.9759005474961
 51
16.02409945251047
  0
POLYLINE
  5
C7
330
1F
100
AcDbEntity
  8
AG-DIGITAL
100
AcDb2dPolyline
 66
     1
 10
0.0
 20
0.0
 30
0.0
  0
VERTEX
  5
C8
330
C7
100
AcDbEntity
  8
AG-DIGITAL
100
AcDbVertex
100
AcDb2dVertex
 10
0.4647900776689683
 20
0.2482171926395589
 30
0.0
  0
VERTEX
  5
C9
330
C7
100
AcDbEntity
  8
AG-DIGITAL
100
AcDbVertex
100
AcDb2dVertex
 10
0.4647900776689683
 20
0.2532596439929445
 30
0.0
  0
SEQEND
  5
CA
330
C7
100
AcDbEntity
  8
AG-DIGITAL
  0
POLYLINE
  5
CB
330
1F
100
AcDbEntity
  8
AG-DIGITAL
100
AcDb2dPolyline
 66
     1
 10
0.0
 20
0.0
 30
0.0
  0
VERTEX
  5
CC
330
CB
100
AcDbEntity
  8
AG-DIGITAL
100
AcDbVertex
100
AcDb2dVertex
 10
0.4626058092865875
 20
0.2532596439929445
 30
0.0
  0
VERTEX
  5
CD
330
CB
100
AcDbEntity
  8
AG-DIGITAL
100
AcDbVertex
100
AcDb2dVertex
 10
0.4626058092865875
 20
0.248217192639559
 30
0.0
  0
SEQEND
  5
CE
330
CB
100
AcDbEntity
  8
AG-DIGITAL
  0
SPLINE
  5
CF
330
1F
100
AcDbEntity
  8
AG-DIGITAL
100
AcDbSpline
210
0.0
220
0.0
230
1.0
 70
    15
 71
     2
 72
    16
 73
    13
 74
     0
 42
0.000000001
 43
0.0000000001
 40
0.0
 40
0.0
 40
0.0
 40
0.0675401722791536
 40
0.0675401722791536
 40
0.4000684547587471
 40
0.4000684547587471
 40
0.4676086270379078
 40
0.4676086270379078
 40
0.5351487993169477
 40
0.5351487993169477
 40
0.8676770817965411
 40
0.8676770817965411
 40
0.935217254075581
 40
0.935217254075581
 40
0.935217254075581
 10
0.4636979434777765
 20
0.2521675098017541
 30
0.0
 41
1.0
 10
0.4647900776689683
 20
0.2521675098017527
 30
0.0
 41
0.7071067811860802
 10
0.4647900776689683
 20
0.2532596439929445
 30
0.0
 41
1.0
 10
0.4647900776689683
 20
0.2574827531804353
 30
0.0
 41
1.0
 10
0.4647900776689683
 20
0.261705862367926
 30
0.0
 41
1.0
 10
0.4647900776689686
 20
0.2627979965591181
 30
0.0
 41
0.7071067811860218
 10
0.4636979434777765
 20
0.2627979965591166
 30
0.0
 41
1.0
 10
0.4626058092865875
 20
0.2627979965591151
 30
0.0
 41
0.707106781187015
 10
0.4626058092865875
 20
0.2617058623679261
 30
0.0
 41
1.0
 10
0.4626058092865875
 20
0.2574827531804353
 30
0.0
 41
1.0
 10
0.4626058092865875
 20
0.2532596439929445
 30
0.0
 41
1.0
 10
0.4626058092865875
 20
0.2521675098017555
 30
0.0
 41
0.707106781187015
 10
0.4636979434777765
 20
0.2521675098017541
 30
0.0
 41
1.0
  0
SPLINE
  5
D0
330
1F
100
AcDbEntity
  8
AG-DIGITAL
100
AcDbSpline
210
0.0
220
0.0
230
1.0
 70
    15
 71
     2
 72
    16
 73
    13
 74
     0
 42
0.000000001
 43
0.0000000001
 40
0.0
 40
0.0
 40
0.0
 40
0.0675401722791536
 40
0.0675401722791536
 40
0.4000684547587471
 40
0.4000684547587471
 40
0.4676086270379078
 40
0.4676086270379078
 40
0.5351487993169477
 40
0.5351487993169477
 40
0.8676770817965411
 40
0.8676770817965411
 40
0.935217254075581
 40
0.935217254075581
 40
0.935217254075581
 10
0.4636979434777765
 20
0.238678840073387
 30
0.0
 41
1.0
 10
0.4647900776689683
 20
0.2386788400733855
 30
0.0
 41
0.7071067811860802
 10
0.4647900776689683
 20
0.2397709742645774
 30
0.0
 41
1.0
 10
0.4647900776689683
 20
0.2439940834520682
 30
0.0
 41
1.0
 10
0.4647900776689683
 20
0.2482171926395589
 30
0.0
 41
1.0
 10
0.4647900776689686
 20
0.2493093268307509
 30
0.0
 41
0.7071067811860218
 10
0.4636979434777765
 20
0.2493093268307495
 30
0.0
 41
1.0
 10
0.4626058092865875
 20
0.2493093268307481
 30
0.0
 41
0.707106781187015
 10
0.4626058092865875
 20
0.248217192639559
 30
0.0
 41
1.0
 10
0.4626058092865875
 20
0.2439940834520682
 30
0.0
 41
1.0
 10
0.4626058092865875
 20
0.2397709742645774
 30
0.0
 41
1.0
 10
0.4626058092865875
 20
0.2386788400733884
 30
0.0
 41
0.707106781187015
 10
0.4636979434777765
 20
0.238678840073387
 30
0.0
 41
1.0
  0
SPLINE
  5
D1
330
1F
100
AcDbEntity
  8
AG-DIGITAL
100
AcDbSpline
210
0.0
220
0.0
230
1.0
 70
    11
 71
     3
 72
    27
 73
    23
 74
     0
 42
0.000000001
 43
0.0000000001
 40
-5.176729692260451
 40
-5.176729692260451
 40
-5.176729692260451
 40
-5.176729692260451
 40
-5.007566344835248
 40
-4.838402997410046
 40
-4.669239706643167
 40
-4.669239706643167
 40
-4.669239706643167
 40
0.0
 40
0.0
 40
0.0
 40
4.669239706643167
 40
4.669239706643167
 40
4.669239706643167
 40
4.838402997410046
 40
5.007566344835248
 40
5.176729692260451
 40
5.176729692260451
 40
5.176729692260451
 40
9.631177292974659
 40
9.631177292974659
 40
9.631177292974659
 40
14.08562489368887
 40
14.08562489368887
 40
14.08562489368887
 40
14.08562489368887
 10
0.4657500000000002
 20
0.2775929690581411
 30
0.0
 10
0.4657500000000002
 20
0.2825722172053231
 30
0.0
 10
0.4628059449384486
 20
0.2844500000000003
 30
0.0
 10
0.461329352643775
 20
0.2844500000000003
 30
0.0
 10
0.4596500005624709
 20
0.2844500000000003
 30
0.0
 10
0.4596500000000016
 20
0.2830486871406994
 30
0.0
 10
0.4596500000000015
 20
0.243515791427133
 30
0.0
 10
0.4596500000000015
 20
0.2039828957135665
 30
0.0
 10
0.4596500000000015
 20
0.1644500000000001
 30
0.0
 10
0.4596500000000015
 20
0.1249171042864336
 30
0.0
 10
0.4596500000000015
 20
0.0853842085728672
 30
0.0
 10
0.4596500000000016
 20
0.0458513128593007
 30
0.0
 10
0.4596500005624709
 20
0.0444499999999999
 30
0.0
 10
0.461329352643775
 20
0.0444499999999999
 30
0.0
 10
0.4628059449384486
 20
0.0444499999999999
 30
0.0
 10
0.4657500000000002
 20
0.0463277827946771
 30
0.0
 10
0.4657500000000002
 20
0.0513070309418592
 30
0.0
 10
0.4657500000000002
 20
0.0890213539612395
 30
0.0
 10
0.4657500000000002
 20
0.1267356769806198
 30
0.0
 10
0.4657500000000002
 20
0.1644500000000001
 30
0.0
 10
0.4657500000000002
 20
0.2021643230193804
 30
0.0
 10
0.4657500000000002
 20
0.2398786460387607
 30
0.0
 10
0.4657500000000002
 20
0.2775929690581411
 30
0.0
  0
POLYLINE
  5
D2
330
1F
100
AcDbEntity
  8
AG-DIGITAL
100
AcDb2dPolyline
 66
     1
 10
0.0
 20
0.0
 30
0.0
 70
     1
  0
VERTEX
  5
D3
330
D2
100
AcDbEntity
  8
AG-DIGITAL
100
AcDbVertex
100
AcDb2dVertex
 10
0.4657500000000002
 20
0.2691349619983004
 30
0.0
  0
VERTEX
  5
D4
330
D2
100
AcDbEntity
  8
AG-DIGITAL
100
AcDbVertex
100
AcDb2dVertex
 10
0.4657500000000002
 20
0.2763114587766677
 30
0.0
  0
VERTEX
  5
D5
330
D2
100
AcDbEntity
  8
AG-DIGITAL
100
AcDbVertex
100
AcDb2dVertex
 10
0.4670577767318256
 20
0.2763114587766677
 30
0.0
  0
VERTEX
  5
D6
330
D2
100
AcDbEntity
  8
AG-DIGITAL
100
AcDbVertex
100
AcDb2dVertex
 10
0.4670577767318256
 20
0.2691349619983004
 30
0.0
  0
SEQEND
  5
D7
330
D2
100
AcDbEntity
  8
AG-DIGITAL
  0
SPLINE
  5
D8
330
1F
100
AcDbEntity
  8
AG-DIGITAL
100
AcDbSpline
210
0.0
220
0.0
230
1.0
 70
    12
 71
     2
 72
    10
 73
     7
 74
     0
 42
0.000000001
 43
0.0000000001
 40
0.0028945374555253
 40
0.0028945374555253
 40
0.0028945374555253
 40
0.1197170421919474
 40
0.1197170421919474
 40
0.3858116705775352
 40
0.3858116705775352
 40
0.5055287127694825
 40
0.5055287127694825
 40
0.5055287127694825
 10
0.2609900860961446
 20
0.2843764964218095
 30
0.0
 41
1.0
 10
0.2610608497845263
 20
0.2825141584017499
 30
0.0
 41
0.720406076769579
 10
0.2629245317317882
 20
0.2825141584017555
 30
0.0
 41
1.0
 10
0.2663039335122855
 20
0.2825141584017858
 30
0.0
 41
1.0
 10
0.2696833352927825
 20
0.2825141584018162
 30
0.0
 41
1.0
 10
0.2716191768909605
 20
0.2825141584018219
 30
0.0
 41
0.7071067811865476
 10
0.2716191768909548
 20
0.2844500000000004
 30
0.0
 41
1.0
  0
CIRCLE
  5
D9
330
1F
100
AcDbEntity
  8
AG-DIGITAL
100
AcDbCircle
 10
0.2637903179809535
 20
0.264458143873071
 30
0.0
 40
0.0021047348432681
  0
CIRCLE
  5
DA
330
1F
100
AcDbEntity
  8
AG-DIGITAL
100
AcDbCircle
 10
0.2637903179809535
 20
0.2727232103874845
 30
0.0
 40
0.0035882483891837
  0
SPLINE
  5
DB
330
1F
100
AcDbEntity
  8
AG-DIGITAL
100
AcDbSpline
210
0.0
220
0.0
230
1.0
 70
    12
 71
     2
 72
    10
 73
     7
 74
     0
 42
0.000000001
 43
0.0000000001
 40
0.0
 40
0.0
 40
0.0
 40
0.1197170421919474
 40
0.1197170421919474
 40
0.3858116705775423
 40
0.3858116705775423
 40
0.5055287127694896
 40
0.5055287127694896
 40
0.5055287127694896
 10
0.2520500000000004
 20
0.2386788400733869
 30
0.0
 41
1.0
 10
0.2539858415981788
 20
0.2386788400733927
 30
0.0
 41
0.7071067811865476
 10
0.2539858415981734
 20
0.2406146816715711
 30
0.0
 41
1.0
 10
0.2539858415981736
 20
0.2439940834520682
 30
0.0
 41
1.0
 10
0.2539858415981734
 20
0.2473734852325652
 30
0.0
 41
1.0
 10
0.2539858415981788
 20
0.2493093268307437
 30
0.0
 41
0.7071067811865476
 10
0.2520500000000004
 20
0.2493093268307494
 30
0.0
 41
1.0
  0
SPLINE
  5
DC
330
1F
100
AcDbEntity
  8
AG-DIGITAL
100
AcDbSpline
210
0.0
220
0.0
230
1.0
 70
    12
 71
     2
 72
    10
 73
     7
 74
     0
 42
0.000000001
 43
0.0000000001
 40
0.0
 40
0.0
 40
0.0
 40
0.1197170421919474
 40
0.1197170421919474
 40
0.3858116705775352
 40
0.3858116705775352
 40
0.5055287127694825
 40
0.5055287127694825
 40
0.5055287127694825
 10
0.2520500000000004
 20
0.252167509801754
 30
0.0
 41
1.0
 10
0.2539858415981788
 20
0.2521675098017597
 30
0.0
 41
0.7071067811865476
 10
0.2539858415981734
 20
0.2541033513999382
 30
0.0
 41
1.0
 10
0.2539858415981433
 20
0.2574827531804352
 30
0.0
 41
1.0
 10
0.2539858415981128
 20
0.2608621549609322
 30
0.0
 41
1.0
 10
0.2539858415981067
 20
0.2627979965591106
 30
0.0
 41
0.7071067811865476
 10
0.2520499999999282
 20
0.2627979965591049
 30
0.0
 41
1.0
  0
LINE
  5
DD
330
1F
100
AcDbEntity
  8
AG-DIGITAL
100
AcDbLine
 10
0.2539858415981521
 20
0.2473734852325653
 30
0.0
 11
0.2539858415981326
 21
0.2541033513999383
 31
0.0
  0
SPLINE
  5
DE
330
1F
100
AcDbEntity
  8
AG-DIGITAL
100
AcDbSpline
210
0.0
220
0.0
230
1.0
 70
    15
 71
     2
 72
    16
 73
    13
 74
     0
 42
0.000000001
 43
0.0000000001
 40
0.0
 40
0.0
 40
0.0
 40
0.0586137838601436
 40
0.0586137838601436
 40
0.1866768440246402
 40
0.1866768440246402
 40
0.2452906278847839
 40
0.2452906278847839
 40
0.3039044117449275
 40
0.3039044117449275
 40
0.4319674719094453
 40
0.4319674719094453
 40
0.490581255769589
 40
0.490581255769589
 40
0.490581255769589
 10
0.3410005949491419
 20
0.0453977932209616
 30
0.0
 41
1.0
 10
0.3410005949491418
 20
0.04445
 30
0.0
 41
0.7071067811865476
 10
0.3400528017281802
 20
0.0444499999999999
 30
0.0
 41
1.0
 10
0.3368000000000013
 20
0.0444499999999999
 30
0.0
 41
1.0
 10
0.3335471982718225
 20
0.0444499999999999
 30
0.0
 41
1.0
 10
0.3325994050508608
 20
0.04445
 30
0.0
 41
0.7071067811865476
 10
0.33259940505086
 20
0.0453977932209616
 30
0.0
 41
1.0
 10
0.3325994050508608
 20
0.0463455864419232
 30
0.0
 41
0.7071067811871872
 10
0.3335471982718225
 20
0.0463455864419232
 30
0.0
 41
1.0
 10
0.3368000000000003
 20
0.0463455864419233
 30
0.0
 41
1.0
 10
0.3400528017281784
 20
0.0463455864419233
 30
0.0
 41
1.0
 10
0.3410005949491404
 20
0.0463455864419247
 30
0.0
 41
0.7071067811865476
 10
0.3410005949491419
 20
0.045397793220963
 30
0.0
 41
1.0
  0
SPLINE
  5
E0
330
1F
100
AcDbEntity
  8
AG-DETAILS
100
AcDbSpline
210
0.0
220
0.0
230
1.0
 70
    11
 71
     3
 72
    17
 73
    13
 74
     0
 42
0.000000001
 43
0.0000000001
 40
3.0
 40
3.0
 40
3.0
 40
3.0
 40
4.0
 40
4.0
 40
4.0
 40
5.0
 40
5.0
 40
5.0
 40
6.0
 40
6.0
 40
6.0
 40
7.0
 40
7.0
 40
7.0
 40
7.0
 10
0.3369260395325164
 20
0.1780035309925086
 30
0.0
 10
0.3388819872164693
 20
0.1778518937480635
 30
0.0
 10
0.3408795389456734
 20
0.1789991559247461
 30
0.0
 10
0.3420972012902651
 20
0.1804715889414145
 30
0.0
 10
0.3433146631098639
 20
0.1819461895232162
 30
0.0
 10
0.3441365637032732
 20
0.1839965924266322
 30
0.0
 10
0.3439101856584436
 20
0.1860402924750375
 30
0.0
 10
0.342156358608702
 20
0.1859698927346015
 30
0.0
 10
0.3400335888029161
 20
0.1848711383198938
 30
0.0
 10
0.3387743187449389
 20
0.1833965378909319
 30
0.0
 10
0.3376469733463975
 20
0.1820932950862214
 30
0.0
 10
0.3366580549970141
 20
0.1800056226564661
 30
0.0
 10
0.3369260395325164
 20
0.1780035309925086
 30
0.0
  0
SPLINE
  5
E1
330
1F
100
AcDbEntity
  8
AG-DETAILS
100
AcDbSpline
210
0.0
220
0.0
230
1.0
 70
    11
 71
     3
 72
    41
 73
    37
 74
     0
 42
0.000000001
 43
0.0000000001
 40
0.0
 40
0.0
 40
0.0
 40
0.0
 40
1.0
 40
1.0
 40
1.0
 40
2.0
 40
2.0
 40
2.0
 40
3.0
 40
3.0
 40
3.0
 40
4.0
 40
4.0
 40
4.0
 40
5.0
 40
5.0
 40
5.0
 40
6.0
 40
6.0
 40
6.0
 40
7.0
 40
7.0
 40
7.0
 40
8.0
 40
8.0
 40
8.0
 40
9.0
 40
9.0
 40
9.0
 40
10.0
 40
10.0
 40
10.0
 40
11.0
 40
11.0
 40
11.0
 40
12.0
 40
12.0
 40
12.0
 40
12.0
 10
0.3464859124163527
 20
0.1675140338783261
 30
0.0
 10
0.3464463519618443
 20
0.1719268479082003
 30
0.0
 10
0.3500899964088367
 20
0.1740453400075978
 30
0.0
 10
0.3502548190611122
 20
0.1741486213806741
 30
0.0
 10
0.3482044490751566
 20
0.1771483584425523
 30
0.0
 10
0.3450135157246617
 20
0.177559321061947
 30
0.0
 10
0.3438751487659492
 20
0.1776076587565216
 30
0.0
 10
0.3411610953592403
 20
0.1778823603825735
 30
0.0
 10
0.3385767053451715
 20
0.1760099998670653
 30
0.0
 10
0.3372010008090903
 20
0.1760099998670653
 30
0.0
 10
0.3358252962730069
 20
0.1760099998670653
 30
0.0
 10
0.3336980017838589
 20
0.1775681066852411
 30
0.0
 10
0.3314476498859947
 20
0.1775241618023138
 30
0.0
 10
0.3284852684895722
 20
0.1774802169193866
 30
0.0
 10
0.325758028264696
 20
0.1758034371209136
 30
0.0
 10
0.3242328843003269
 20
0.1731531130159995
 30
0.0
 10
0.321158427524307
 20
0.1678195019523636
 30
0.0
 10
0.3234483398766819
 20
0.159914687692832
 30
0.0
 10
0.3264414877210883
 20
0.155585387383622
 30
0.0
 10
0.3279072951953076
 20
0.1534690916900481
 30
0.0
 10
0.3296521971072223
 20
0.1510846835878934
 30
0.0
 10
0.3319465106544747
 20
0.151172573353747
 30
0.0
 10
0.3341573104810565
 20
0.1512604798860586
 30
0.0
 10
0.334992405771557
 20
0.1526010251625077
 30
0.0
 10
0.3376603011230574
 20
0.1526010251625077
 30
0.0
 10
0.3403282048577883
 20
0.1526010251625077
 30
0.0
 10
0.3410797864276268
 20
0.151172573353747
 30
0.0
 10
0.3434158484519799
 20
0.1512143385973069
 30
0.0
 10
0.3457914709308393
 20
0.151260496652515
 30
0.0
 10
0.3472990268821614
 20
0.153376792346089
 30
0.0
 10
0.3487538523272618
 20
0.155499677257134
 30
0.0
 10
0.3504328285315593
 20
0.1579566170508358
 30
0.0
 10
0.3511272784003008
 20
0.1603344191690636
 30
0.0
 10
0.351166830471579
 20
0.1604596813668328
 30
0.0
 10
0.3511140915821292
 20
0.1604816621915243
 30
0.0
 10
0.3465342584941511
 20
0.162237546132559
 30
0.0
 10
0.3464859124163527
 20
0.1675140171118696
 30
0.0
  0
SPLINE
  5
E2
330
1F
100
AcDbEntity
  8
AG-DIGITAL
100
AcDbSpline
210
0.0
220
0.0
230
1.0
 70
    15
 71
     2
 72
    20
 73
    17
 74
     0
 42
0.000000001
 43
0.0000000001
 40
0.0
 40
0.0
 40
0.0
 40
0.6283185307179264
 40
0.6283185307179264
 40
9.27713742835578
 40
9.27713742835578
 40
9.905455959073647
 40
9.905455959073647
 40
15.77868430553041
 40
15.77868430553041
 40
16.40700283624833
 40
16.40700283624833
 40
25.05582173388618
 40
25.05582173388618
 40
25.6841402646041
 40
25.6841402646041
 40
31.55736861106086
 40
31.55736861106086
 40
31.55736861106086
 10
0.2622099999999984
 20
0.0444499999999999
 30
0.0
 41
1.0
 10
0.2520499999999989
 20
0.0444499999999999
 30
0.0
 41
0.7071067811865445
 10
0.2520499999999989
 20
0.0546099999999994
 30
0.0
 41
1.0
 10
0.25205
 20
0.1644500000000001
 30
0.0
 41
1.0
 10
0.2520500000000011
 20
0.2742900000000008
 30
0.0
 41
1.0
 10
0.2520500000000011
 20
0.2844499999999988
 30
0.0
 41
0.7071067811865978
 10
0.2622099999999998
 20
0.2844500000000003
 30
0.0
 41
1.0
 10
0.336800000000001
 20
0.2844500000000003
 30
0.0
 41
1.0
 10
0.4113900000000021
 20
0.2844500000000004
 30
0.0
 41
1.0
 10
0.4215500000000015
 20
0.2844500000000004
 30
0.0
 41
0.7071067811865476
 10
0.4215500000000015
 20
0.274290000000001
 30
0.0
 41
1.0
 10
0.4215500000000015
 20
0.1644500000000002
 30
0.0
 41
1.0
 10
0.4215500000000015
 20
0.0546099999999993
 30
0.0
 41
1.0
 10
0.4215500000000015
 20
0.0444499999999999
 30
0.0
 41
0.7071067811865476
 10
0.4113900000000021
 20
0.0444499999999999
 30
0.0
 41
1.0
 10
0.3368000000000003
 20
0.0444499999999999
 30
0.0
 41
1.0
 10
0.2622099999999984
 20
0.0444499999999999
 30
0.0
 41
1.0
  0
CIRCLE
  5
E3
330
1F
100
AcDbEntity
  8
AG-DIGITAL
100
AcDbCircle
 10
0.1292000000000009
 20
0.2732427299045101
 30
0.0
 40
0.0012492779774665
  0
SPLINE
  5
E4
330
1F
100
AcDbEntity
  8
AG-DETAILS
100
AcDbSpline
210
0.0
220
0.0
230
1.0
 70
    15
 71
     2
 72
    20
 73
    17
 74
     0
 42
0.000000001
 43
0.0000000001
 40
0.0
 40
0.0
 40
0.0
 40
0.6283185307179274
 40
0.6283185307179274
 40
9.277137428355797
 40
9.277137428355797
 40
9.905455959073663
 40
9.905455959073663
 40
15.77868430553043
 40
15.77868430553043
 40
16.40700283624836
 40
16.40700283624836
 40
25.05582173388622
 40
25.05582173388622
 40
25.68414026460415
 40
25.68414026460415
 40
31.55736861106092
 40
31.55736861106092
 40
31.55736861106092
 10
0.0546099999999987
 20
0.04595
 30
0.0
 41
1.0
 10
0.0459499999999964
 20
0.0459499999999971
 30
0.0
 41
0.7071067811863339
 10
0.0459499999999985
 20
0.0546099999999993
 30
0.0
 41
1.0
 10
0.0459499999999994
 20
0.16445
 30
0.0
 41
1.0
 10
0.0459500000000004
 20
0.2742900000000006
 30
0.0
 41
1.0
 10
0.0459500000000029
 20
0.2829499999999964
 30
0.0
 41
0.7071067811867097
 10
0.0546099999999994
 20
0.282949999999999
 30
0.0
 41
1.0
 10
0.1292000000000006
 20
0.2829499999999997
 30
0.0
 41
1.0
 10
0.2037900000000017
 20
0.2829500000000003
 30
0.0
 41
1.0
 10
0.2124500000000011
 20
0.2829500000000004
 30
0.0
 41
0.7071067811866285
 10
0.2124500000000023
 20
0.2742900000000009
 30
0.0
 41
1.0
 10
0.2124500000000019
 20
0.1644500000000002
 30
0.0
 41
1.0
 10
0.2124500000000011
 20
0.0546099999999995
 30
0.0
 41
1.0
 10
0.2124500000000032
 20
0.0459499999999973
 30
0.0
 41
0.7071067811863302
 10
0.2037900000000014
 20
0.0459500000000001
 30
0.0
 41
1.0
 10
0.1291999999999997
 20
0.04595
 30
0.0
 41
1.0
 10
0.054609999999998
 20
0.04595
 30
0.0
 41
1.0
  0
SPLINE
  5
E5
330
1F
100
AcDbEntity
  8
AG-DIGITAL
100
AcDbSpline
210
0.0
220
0.0
230
1.0
 70
    15
 71
     2
 72
    20
 73
    17
 74
     0
 42
0.000000001
 43
0.0000000001
 40
0.0
 40
0.0
 40
0.0
 40
0.6283185307179264
 40
0.6283185307179264
 40
9.27713742835578
 40
9.27713742835578
 40
9.905455959073647
 40
9.905455959073647
 40
15.77868430553041
 40
15.77868430553041
 40
16.40700283624833
 40
16.40700283624833
 40
25.05582173388618
 40
25.05582173388618
 40
25.6841402646041
 40
25.6841402646041
 40
31.55736861106086
 40
31.55736861106086
 40
31.55736861106086
 10
0.054609999999998
 20
0.0444499999999999
 30
0.0
 41
1.0
 10
0.0444499999999985
 20
0.0444499999999999
 30
0.0
 41
0.7071067811865445
 10
0.0444499999999986
 20
0.0546099999999994
 30
0.0
 41
1.0
 10
0.0444499999999996
 20
0.1644500000000001
 30
0.0
 41
1.0
 10
0.0444500000000007
 20
0.2742900000000008
 30
0.0
 41
1.0
 10
0.0444500000000007
 20
0.2844499999999988
 30
0.0
 41
0.7071067811865978
 10
0.0546099999999994
 20
0.2844500000000003
 30
0.0
 41
1.0
 10
0.1292000000000006
 20
0.2844500000000003
 30
0.0
 41
1.0
 10
0.2037900000000017
 20
0.2844500000000004
 30
0.0
 41
1.0
 10
0.2139500000000012
 20
0.2844500000000004
 30
0.0
 41
0.7071067811865476
 10
0.2139500000000011
 20
0.274290000000001
 30
0.0
 41
1.0
 10
0.2139500000000011
 20
0.1644500000000002
 30
0.0
 41
1.0
 10
0.2139500000000011
 20
0.0546099999999993
 30
0.0
 41
1.0
 10
0.2139500000000012
 20
0.0444499999999999
 30
0.0
 41
0.7071067811865476
 10
0.2037900000000017
 20
0.0444499999999999
 30
0.0
 41
1.0
 10
0.1291999999999998
 20
0.0444499999999999
 30
0.0
 41
1.0
 10
0.054609999999998
 20
0.0444499999999999
 30
0.0
 41
1.0
  0
CIRCLE
  5
E6
330
1F
100
AcDbEntity
  8
AG-DIGITAL
100
AcDbCircle
 10
0.1292000000000009
 20
0.054561051952811
 30
0.0
 40
0.00508
  0
POLYLINE
  5
E7
330
1F
100
AcDbEntity
  8
AG-DIGITAL
100
AcDb2dPolyline
 66
     1
 10
0.0
 20
0.0
 30
0.0
 70
     1
  0
VERTEX
  5
E8
330
E7
100
AcDbEntity
  8
AG-DIGITAL
100
AcDbVertex
100
AcDb2dVertex
 10
0.0552800000000035
 20
0.0656353147867847
 30
0.0
  0
VERTEX
  5
E9
330
E7
100
AcDbEntity
  8
AG-DIGITAL
100
AcDbVertex
100
AcDb2dVertex
 10
0.0552800000000035
 20
0.2627553147867867
 30
0.0
  0
VERTEX
  5
EA
330
E7
100
AcDbEntity
  8
AG-DIGITAL
100
AcDbVertex
100
AcDb2dVertex
 10
0.2031199999999984
 20
0.2627553147867867
 30
0.0
  0
VERTEX
  5
EB
330
E7
100
AcDbEntity
  8
AG-DIGITAL
100
AcDbVertex
100
AcDb2dVertex
 10
0.2031199999999984
 20
0.0656353147867847
 30
0.0
  0
SEQEND
  5
EC
330
E7
100
AcDbEntity
  8
AG-DIGITAL
  0
POLYLINE
  5
EE
330
1F
100
AcDbEntity
  8
X-VPRT
100
AcDb2dPolyline
 66
     1
 10
0.0
 20
0.0
 30
0.0
 70
     1
  0
VERTEX
  5
EF
330
EE
100
AcDbEntity
  8
X-VPRT
100
AcDbVertex
100
AcDb2dVertex
 10
0.0
 20
0.3289000000000001
 30
0.0
  0
VERTEX
  5
F0
330
EE
100
AcDbEntity
  8
X-VPRT
100
AcDbVertex
100
AcDb2dVertex
 10
0.5101999999999988
 20
0.3289000000000001
 30
0.0
  0
VERTEX
  5
F1
330
EE
100
AcDbEntity
  8
X-VPRT
100
AcDbVertex
100
AcDb2dVertex
 10
0.5101999999999988
 20
0.0
 30
0.0
  0
VERTEX
  5
F2
330
EE
100
AcDbEntity
  8
X-VPRT
100
AcDbVertex
100
AcDb2dVertex
 10
0.0
 20
0.0
 30
0.0
  0
SEQEND
  5
F3
330
EE
100
AcDbEntity
  8
X-VPRT
  0
CIRCLE
  5
F4
330
1F
100
AcDbEntity
  8
AG-DETAILS
100
AcDbCircle
 10
0.2704991545721642
 20
0.2727232103874845
 30
0.0
 40
0.0006435252740632
  0
SPLINE
  5
F6
330
1F
100
AcDbEntity
  8
AG-DETAIL-DIAGRAM
100
AcDbSpline
210
0.0
220
0.0
230
1.0
 70
    12
 71
     2
 72
    16
 73
    13
 74
     0
 42
0.000000001
 43
0.0000000001
 40
-2.349076639140847
 40
-2.349076639140847
 40
-2.349076639140847
 40
-1.962530965572626
 40
-1.962530965572626
 40
-1.652672744856223
 40
-1.652672744856223
 40
-0.0846655191609971
 40
-0.0846655191609971
 40
1.483341706534229
 40
1.483341706534229
 40
1.793199927250631
 40
1.793199927250631
 40
2.179745600818853
 40
2.179745600818853
 40
2.179745600818853
 10
0.3816378350291023
 20
0.2844500000000003
 30
0.0
 41
1.0
 10
0.3816378350291023
 20
0.2795408699456838
 30
0.0
 41
1.0
 10
0.3816378350291023
 20
0.2746317398913674
 30
0.0
 41
1.0
 10
0.3816378350291023
 20
0.2696212883949244
 30
0.0
 41
0.7071067811865476
 10
0.3766273835326593
 20
0.2696212883949244
 30
0.0
 41
1.0
 10
0.3567136917663293
 20
0.2696212883949244
 30
0.0
 41
1.0
 10
0.3367999999999992
 20
0.2696212883949244
 30
0.0
 41
1.0
 10
0.3168863082336701
 20
0.2696212883949244
 30
0.0
 41
1.0
 10
0.2969726164673412
 20
0.2696212883949244
 30
0.0
 41
1.0
 10
0.2919621649708982
 20
0.2696212883949244
 30
0.0
 41
0.7071067811865476
 10
0.2919621649708982
 20
0.2746317398913674
 30
0.0
 41
1.0
 10
0.2919621649708982
 20
0.2795408699456838
 30
0.0
 41
1.0
 10
0.2919621649708982
 20
0.2844500000000003
 30
0.0
 41
1.0
  0
ENDSEC
  0
SECTION
  2
OBJECTS
  0
DICTIONARY
  5
C
330
0
100
AcDbDictionary
  3
ACAD_GROUP
350
D
  3
ACAD_LAYOUT
350
1A
  3
ACAD_MATERIAL
350
43
  3
ACAD_MLEADERSTYLE
350
6B
  3
ACAD_MLINESTYLE
350
17
  3
ACAD_PLOTSETTINGS
350
19
  3
ACAD_SCALELIST
350
47
  3
ACAD_VISUALSTYLE
350
2A
  3
ACDBVARIABLEDICTIONARY
350
F9
  3
DWGPROPS
350
140
1001
ACAD
1000
TREAT_AS_HARD
1070
     0
  0
DICTIONARY
  5
D
102
{ACAD_REACTORS
330
C
102
}
330
C
100
AcDbDictionary
1001
ACAD
1000
TREAT_AS_HARD
1070
     0
  0
DICTIONARY
  5
1A
102
{ACAD_REACTORS
330
C
102
}
330
C
100
AcDbDictionary
1001
ACAD
1000
TREAT_AS_HARD
1070
     0
  0
DICTIONARY
  5
43
102
{ACAD_REACTORS
330
C
102
}
330
C
100
AcDbDictionary
  3
BYBLOCK
350
45
  3
BYLAYER
350
44
  3
GLOBAL
350
46
1001
ACAD
1000
TREAT_AS_HARD
1070
     0
  0
DICTIONARY
  5
6B
102
{ACAD_REACTORS
330
C
102
}
330
C
100
AcDbDictionary
  3
STANDARD
350
6C
1001
ACAD
1000
TREAT_AS_HARD
1070
     0
  0
DICTIONARY
  5
17
102
{ACAD_REACTORS
330
C
102
}
330
C
100
AcDbDictionary
  3
STANDARD
350
18
1001
ACAD
1000
TREAT_AS_HARD
1070
     0
  0
DICTIONARY
  5
19
102
{ACAD_REACTORS
330
C
102
}
330
C
100
AcDbDictionary
1001
ACAD
1000
TREAT_AS_HARD
1070
     0
  0
DICTIONARY
  5
47
102
{ACAD_REACTORS
330
C
102
}
330
C
100
AcDbDictionary
  3
A0
350
48
  3
A1
350
49
  3
A2
350
4A
  3
A3
350
4B
  3
A4
350
4C
  3
A5
350
4D
  3
A6
350
4E
  3
A7
350
4F
  3
A8
350
50
  3
A9
350
51
  3
B0
350
52
  3
B1
350
53
  3
B2
350
54
  3
B3
350
55
  3
B4
350
56
  3
B5
350
57
  3
B6
350
58
  3
B7
350
59
  3
B8
350
5A
  3
B9
350
5B
  3
C0
350
5C
  3
C1
350
5D
  3
C2
350
5E
  3
C3
350
5F
  3
C4
350
60
  3
C5
350
61
  3
C6
350
62
  3
C7
350
63
  3
C8
350
64
  3
C9
350
65
  3
D0
350
66
  3
D1
350
67
  3
D2
350
68
1001
ACAD
1000
TREAT_AS_HARD
1070
     0
  0
DICTIONARY
  5
2A
102
{ACAD_REACTORS
330
C
102
}
330
C
100
AcDbDictionary
  3
2DWIREFRAME
350
2F
  3
BASIC
350
32
  3
BRIGHTEN
350
36
  3
COLORCHANGE
350
3A
  3
CONCEPTUAL
350
34
  3
DIM
350
35
  3
EDGECOLOROFF
350
3D
  3
FACEPATTERN
350
39
  3
FLAT
350
2B
  3
FLATWITHEDGES
350
2C
  3
GOURAUD
350
2D
  3
GOURAUDWITHEDGES
350
2E
  3
HIDDEN
350
31
  3
JITTEROFF
350
3B
  3
LINEPATTERN
350
38
  3
OVERHANGOFF
350
3C
  3
REALISTIC
350
33
  3
SHADED
350
42
  3
SHADED_WITH_EDGES
350
41
  3
SHADES_OF_GRAY
350
3E
  3
SKETCHY
350
3F
  3
THICKEN
350
37
  3
WIREFRAME
350
30
  3
X-RAY
350
40
1001
ACAD
1000
TREAT_AS_HARD
1070
     0
  0
DICTIONARY
  5
F9
102
{ACAD_REACTORS
330
C
102
}
330
C
100
AcDbDictionary
  3
CANNOSCALE
350
FA
  3
CMLEADERSTYLE
350
13B
  3
CTABLESTYLE
350
13A
  3
DIMASSOC
350
13E
  3
HIDETEXT
350
13F
  3
MSLTSCALE
350
FB
  3
XCLIPFRAME
350
FC
1001
ACAD
1000
TREAT_AS_HARD
1070
     0
  0
XRECORD
  5
140
102
{ACAD_REACTORS
330
C
102
}
330
C
100
AcDbXrecord
  1
DWGPROPS COOKIE
  2

  3

  4

  6

  7

  8
Emanuele
  9

300
=
301
=
302
=
303
=
304
=
305
=
306
=
307
=
308
=
309
=
 40
0.0
 41
2458927.760777153
 42
2459257.477860382
  1

 90
        0
  0
MATERIAL
  5
45
102
{ACAD_REACTORS
330
43
102
}
102
{ACAD_XDICTIONARY
360
143
102
}
330
43
100
AcDbMaterial
  1
BYBLOCK
  0
MATERIAL
  5
44
102
{ACAD_REACTORS
330
43
102
}
102
{ACAD_XDICTIONARY
360
141
102
}
330
43
100
AcDbMaterial
  1
BYLAYER
  0
MATERIAL
  5
46
102
{ACAD_REACTORS
330
43
102
}
102
{ACAD_XDICTIONARY
360
145
102
}
330
43
100
AcDbMaterial
  1
GLOBAL
  0
ACAD_PROXY_OBJECT
  5
6C
102
{ACAD_REACTORS
330
6B
102
}
330
6B
100
AcDbZombieObject
 90
      499
 91
      505
 93
      610
310
40901902A4063FBFFFFFE056BD1B81E855B9FC0AD7A3703D0AD73F4214DD185B99185C9900AD7A3703D0AC73F90141901A02B5E8DC0F42B1CFC02B5E8DC0F42B1CFE5764000000000000300FC0
340
14
340
0
340
11
340
0
 94
        0
1001
ACAD_MLEADERVER
1070
     2
  0
MLINESTYLE
  5
18
102
{ACAD_REACTORS
330
17
102
}
330
17
100
AcDbMlineStyle
  2
Standard
 70
     0
  3

 62
   256
 51
90.0
 52
90.0
 71
     2
 49
0.5
 62
   256
  6
BYLAYER
 49
-0.5
 62
   256
  6
BYLAYER
  0
ACAD_PROXY_OBJECT
  5
48
102
{ACAD_REACTORS
330
47
102
}
330
47
100
AcDbZombieObject
 90
      499
 91
      503
 93
       41
310
903313A31580
  0
ACAD_PROXY_OBJECT
  5
49
102
{ACAD_REACTORS
330
47
102
}
330
47
100
AcDbZombieObject
 90
      499
 91
      503
 93
      105
310
903313A324000000000000004000
  0
ACAD_PROXY_OBJECT
  5
4A
102
{ACAD_REACTORS
330
47
102
}
330
47
100
AcDbZombieObject
 90
      499
 91
      503
 93
      105
310
903313A344000000000000104000
  0
ACAD_PROXY_OBJECT
  5
4B
102
{ACAD_REACTORS
330
47
102
}
330
47
100
AcDbZombieObject
 90
      499
 91
      503
 93
      105
310
903313A354000000000000144000
  0
ACAD_PROXY_OBJECT
  5
4C
102
{ACAD_REACTORS
330
47
102
}
330
47
100
AcDbZombieObject
 90
      499
 91
      503
 93
      105
310
903313A384000000000000204000
  0
ACAD_PROXY_OBJECT
  5
4D
102
{ACAD_REACTORS
330
47
102
}
330
47
100
AcDbZombieObject
 90
      499
 91
      503
 93
      113
310
904313A31304000000000000244000
  0
ACAD_PROXY_OBJECT
  5
4E
102
{ACAD_REACTORS
330
47
102
}
330
47
100
AcDbZombieObject
 90
      499
 91
      503
 93
      113
310
904313A31364000000000000304000
  0
ACAD_PROXY_OBJECT
  5
4F
102
{ACAD_REACTORS
330
47
102
}
330
47
100
AcDbZombieObject
 90
      499
 91
      503
 93
      113
310
904313A32304000000000000344000
  0
ACAD_PROXY_OBJECT
  5
50
102
{ACAD_REACTORS
330
47
102
}
330
47
100
AcDbZombieObject
 90
      499
 91
      503
 93
      113
310
904313A333040000000000003E4000
  0
ACAD_PROXY_OBJECT
  5
51
102
{ACAD_REACTORS
330
47
102
}
330
47
100
AcDbZombieObject
 90
      499
 91
      503
 93
      113
310
904313A34304000000000000444000
  0
ACAD_PROXY_OBJECT
  5
52
102
{ACAD_REACTORS
330
47
102
}
330
47
100
AcDbZombieObject
 90
      499
 91
      503
 93
      113
310
904313A35304000000000000494000
  0
ACAD_PROXY_OBJECT
  5
53
102
{ACAD_REACTORS
330
47
102
}
330
47
100
AcDbZombieObject
 90
      499
 91
      503
 93
      121
310
905313A3130304000000000000594000
  0
ACAD_PROXY_OBJECT
  5
54
102
{ACAD_REACTORS
330
47
102
}
330
47
100
AcDbZombieObject
 90
      499
 91
      503
 93
      105
310
903323A310000000000000010100
  0
ACAD_PROXY_OBJECT
  5
55
102
{ACAD_REACTORS
330
47
102
}
330
47
100
AcDbZombieObject
 90
      499
 91
      503
 93
      105
310
903343A310000000000000410100
  0
ACAD_PROXY_OBJECT
  5
56
102
{ACAD_REACTORS
330
47
102
}
330
47
100
AcDbZombieObject
 90
      499
 91
      503
 93
      105
310
903383A310000000000000810100
  0
ACAD_PROXY_OBJECT
  5
57
102
{ACAD_REACTORS
330
47
102
}
330
47
100
AcDbZombieObject
 90
      499
 91
      503
 93
      113
310
90431303A310000000000000910100
  0
ACAD_PROXY_OBJECT
  5
58
102
{ACAD_REACTORS
330
47
102
}
330
47
100
AcDbZombieObject
 90
      499
 91
      503
 93
      121
310
9053130303A310000000000001650100
  0
ACAD_PROXY_OBJECT
  5
59
102
{ACAD_REACTORS
330
47
102
}
330
47
100
AcDbZombieObject
 90
      499
 91
      503
 93
      257
310
90E312F31323822203D2031272D3022000000000000200FC000000000000284000
  0
ACAD_PROXY_OBJECT
  5
5A
102
{ACAD_REACTORS
330
47
102
}
330
47
100
AcDbZombieObject
 90
      499
 91
      503
 93
      249
310
90D312F363422203D2031272D3022000000000000240FC000000000000284000
  0
ACAD_PROXY_OBJECT
  5
5B
102
{ACAD_REACTORS
330
47
102
}
330
47
100
AcDbZombieObject
 90
      499
 91
      503
 93
      249
310
90D312F333222203D2031272D3022000000000000280FC000000000000284000
  0
ACAD_PROXY_OBJECT
  5
5C
102
{ACAD_REACTORS
330
47
102
}
330
47
100
AcDbZombieObject
 90
      499
 91
      503
 93
      249
310
90D312F313622203D2031272D30220000000000002C0FC000000000000284000
  0
ACAD_PROXY_OBJECT
  5
5D
102
{ACAD_REACTORS
330
47
102
}
330
47
100
AcDbZombieObject
 90
      499
 91
      503
 93
      249
310
90D332F333222203D2031272D30220000000000002E0FC000000000000284000
  0
ACAD_PROXY_OBJECT
  5
5E
102
{ACAD_REACTORS
330
47
102
}
330
47
100
AcDbZombieObject
 90
      499
 91
      503
 93
      241
310
90C312F3822203D2031272D3022000000000000300FC000000000000284000
  0
ACAD_PROXY_OBJECT
  5
5F
102
{ACAD_REACTORS
330
47
102
}
330
47
100
AcDbZombieObject
 90
      499
 91
      503
 93
      249
310
90D332F313622203D2031272D3022000000000000320FC000000000000284000
  0
ACAD_PROXY_OBJECT
  5
60
102
{ACAD_REACTORS
330
47
102
}
330
47
100
AcDbZombieObject
 90
      499
 91
      503
 93
      241
310
90C312F3422203D2031272D3022000000000000340FC000000000000284000
  0
ACAD_PROXY_OBJECT
  5
61
102
{ACAD_REACTORS
330
47
102
}
330
47
100
AcDbZombieObject
 90
      499
 91
      503
 93
      241
310
90C332F3822203D2031272D3022000000000000360FC000000000000284000
  0
ACAD_PROXY_OBJECT
  5
62
102
{ACAD_REACTORS
330
47
102
}
330
47
100
AcDbZombieObject
 90
      499
 91
      503
 93
      241
310
90C312F3222203D2031272D3022000000000000380FC000000000000284000
  0
ACAD_PROXY_OBJECT
  5
63
102
{ACAD_REACTORS
330
47
102
}
330
47
100
AcDbZombieObject
 90
      499
 91
      503
 93
      241
310
90C332F3422203D2031272D30220000000000003A0FC000000000000284000
  0
ACAD_PROXY_OBJECT
  5
64
102
{ACAD_REACTORS
330
47
102
}
330
47
100
AcDbZombieObject
 90
      499
 91
      503
 93
      161
310
90A3122203D2031272D30224000000000000284000
  0
ACAD_PROXY_OBJECT
  5
65
102
{ACAD_REACTORS
330
47
102
}
330
47
100
AcDbZombieObject
 90
      499
 91
      503
 93
      257
310
90E312D312F3222203D2031272D30220000000000003E0FC000000000000284000
  0
ACAD_PROXY_OBJECT
  5
66
102
{ACAD_REACTORS
330
47
102
}
330
47
100
AcDbZombieObject
 90
      499
 91
      503
 93
      225
310
90A3322203D2031272D302200000000000002100000000000000284000
  0
ACAD_PROXY_OBJECT
  5
67
102
{ACAD_REACTORS
330
47
102
}
330
47
100
AcDbZombieObject
 90
      499
 91
      503
 93
      225
310
90A3622203D2031272D302200000000000006100000000000000284000
  0
ACAD_PROXY_OBJECT
  5
68
102
{ACAD_REACTORS
330
47
102
}
330
47
100
AcDbZombieObject
 90
      499
 91
      503
 93
      249
310
90D31272D3022203D2031272D30220000000000000A100000000000000284000
  0
ACAD_PROXY_OBJECT
  5
2F
102
{ACAD_REACTORS
330
2A
102
}
330
2A
100
AcDbZombieObject
 90
      499
 91
      501
 93
      436
310
42CC9915DA5C99599C985B595049028333333333333E33F0000000000000F90107901411070040501600405405064090741402480A0340
1001
ACAD
1000
AcDbSavedByObjectVersion
1070
     0
  0
ACAD_PROXY_OBJECT
  5
32
102
{ACAD_REACTORS
330
2A
102
}
330
2A
100
AcDbZombieObject
 90
      499
 91
      501
 93
      388
310
4150985CDA58D07406404333333333333E33F0000000000000F90107A41107004050150841D405064090741402480A0350
1001
ACAD
1000
AcDbSavedByObjectVersion
1070
     0
  0
ACAD_PROXY_OBJECT
  5
36
102
{ACAD_REACTORS
330
2A
102
}
330
2A
100
AcDbZombieObject
 90
      499
 91
      501
 93
      428
310
42109C9A59DA1D195B90C409028333333333333E33F0000000000000F9010790141107004050150841D405064090741402480A029950
1001
ACAD
1000
AcDbSavedByObjectVersion
1070
     0
  0
ACAD_PROXY_OBJECT
  5
3A
102
{ACAD_REACTORS
330
2A
102
}
330
2A
100
AcDbZombieObject
 90
      499
 91
      501
 93
      452
310
42D0DBDB1BDC90DA185B99D95104090240C333333333333E33F0000000000000F90108901411070040501508421405064090741402480A0350
1001
ACAD
1000
AcDbSavedByObjectVersion
1070
     0
  0
ACAD_PROXY_OBJECT
  5
34
102
{ACAD_REACTORS
330
2A
102
}
330
2A
100
AcDbZombieObject
 90
      499
 91
      501
 93
      500
310
4290DBDB98D95C1D1D585B10940D028333333333333E33F0000000000000F90107902409070040501000000000018199010841D405064090740C02480A0340
1001
ACAD
1000
AcDbSavedByObjectVersion
1070
     0
  0
ACAD_PROXY_OBJECT
  5
35
102
{ACAD_REACTORS
330
2A
102
}
330
2A
100
AcDbZombieObject
 90
      499
 91
      501
 93
      412
310
40D11A5B50B409028333333333333E33F0000000000000F9010790141107004050150841D405064090741402480A02677FFFFFD0
1001
ACAD
1000
AcDbSavedByObjectVersion
1070
     0
  0
ACAD_PROXY_OBJECT
  5
3D
102
{ACAD_REACTORS
330
2A
102
}
330
2A
100
AcDbZombieObject
 90
      499
 91
      501
 93
      452
310
43115919D950DBDB1BDC93D999916409028333333333333E33F0000000000000F9010790141107004050150841D405064090741402480A0350
1001
ACAD
1000
AcDbSavedByObjectVersion
1070
     0
  0
ACAD_PROXY_OBJECT
  5
39
102
{ACAD_REACTORS
330
2A
102
}
330
2A
100
AcDbZombieObject
 90
      499
 91
      501
 93
      444
310
42D19858D95C185D1D195C9B90F409028333333333333E33F0000000000000F9010790141107004050150841D405064090741402480A0350
1001
ACAD
1000
AcDbSavedByObjectVersion
1070
     0
  0
ACAD_PROXY_OBJECT
  5
2B
102
{ACAD_REACTORS
330
2A
102
}
330
2A
100
AcDbZombieObject
 90
      499
 91
      501
 93
      380
310
41119B185D240901404333333333333E33F0000000000000F9010740A907004050150841D405064090741402480A1B50
1001
ACAD
1000
AcDbSavedByObjectVersion
1070
     0
  0
ACAD_PROXY_OBJECT
  5
2C
102
{ACAD_REACTORS
330
2A
102
}
330
2A
100
AcDbZombieObject
 90
      499
 91
      501
 93
      468
310
43519B185D15DA5D1A115919D95CD0140901404333333333333E33F0000000000000F90107409019070040501600405405064090741402480A1B50
1001
ACAD
1000
AcDbSavedByObjectVersion
1070
     0
  0
ACAD_PROXY_OBJECT
  5
2D
102
{ACAD_REACTORS
330
2A
102
}
330
2A
100
AcDbZombieObject
 90
      499
 91
      501
 93
      404
310
41D1DBDD5C985D5910240902404333333333333E33F0000000000000F9010740A9070040501641D405064090741402480A1B50
1001
ACAD
1000
AcDbSavedByObjectVersion
1070
     0
  0
ACAD_PROXY_OBJECT
  5
2E
102
{ACAD_REACTORS
330
2A
102
}
330
2A
100
AcDbZombieObject
 90
      499
 91
      501
 93
      492
310
4411DBDD5C985D5915DA5D1A115919D95CD0340902404333333333333E33F0000000000000F90107409019070040501600405405064090741402480A1B50
1001
ACAD
1000
AcDbSavedByObjectVersion
1070
     0
  0
ACAD_PROXY_OBJECT
  5
31
102
{ACAD_REACTORS
330
2A
102
}
330
2A
100
AcDbZombieObject
 90
      499
 91
      501
 93
      476
310
41921A5919195B90640502408333333333333E33F0000000000000F901079024090700405020000000000001110200405405064090740C02480A0340
1001
ACAD
1000
AcDbSavedByObjectVersion
1070
     0
  0
ACAD_PROXY_OBJECT
  5
3B
102
{ACAD_REACTORS
330
2A
102
}
330
2A
100
AcDbZombieObject
 90
      499
 91
      501
 93
      428
310
42529A5D1D195C93D999914409028333333333333E33F0000000000000F9010790141107004050150A41D405064090741402480A0350
1001
ACAD
1000
AcDbSavedByObjectVersion
1070
     0
  0
ACAD_PROXY_OBJECT
  5
38
102
{ACAD_REACTORS
330
2A
102
}
330
2A
100
AcDbZombieObject
 90
      499
 91
      501
 93
      444
310
42D31A5B995C185D1D195C9B90E409028333333333333E33F0000000000000F9010790141107004050750841D405064090741402483A0350
1001
ACAD
1000
AcDbSavedByObjectVersion
1070
     0
  0
ACAD_PROXY_OBJECT
  5
3C
102
{ACAD_REACTORS
330
2A
102
}
330
2A
100
AcDbZombieObject
 90
      499
 91
      501
 93
      444
310
42D3DD995C9A185B99D3D999915409028333333333333E33F0000000000000F9010790141107004050150941D405064090741402480A0350
1001
ACAD
1000
AcDbSavedByObjectVersion
1070
     0
  0
ACAD_PROXY_OBJECT
  5
33
102
{ACAD_REACTORS
330
2A
102
}
330
2A
100
AcDbZombieObject
 90
      499
 91
      501
 93
      428
310
425499585B1A5CDD1A58D08409038333333333333E33F0000000000000F9010740A907004050150800405405064090740C02480A1B40
1001
ACAD
1000
AcDbSavedByObjectVersion
1070
     0
  0
ACAD_PROXY_OBJECT
  5
42
102
{ACAD_REACTORS
330
2A
102
}
330
2A
100
AcDbZombieObject
 90
      499
 91
      501
 93
      420
310
4194DA1859195911B40902404333333333333E33F0000000000000F9010740A41107004050150800405405064090840C02480A0B40
1001
ACAD
1000
AcDbSavedByObjectVersion
1070
     0
  0
ACAD_PROXY_OBJECT
  5
41
102
{ACAD_REACTORS
330
2A
102
}
330
2A
100
AcDbZombieObject
 90
      499
 91
      501
 93
      516
310
4454DA18591959081DDA5D1A08195919D95CD1A40902404333333333333E33F0000000000000F901074090142907004050250800405405064090740C02480A0B40
1001
ACAD
1000
AcDbSavedByObjectVersion
1070
     0
  0
ACAD_PROXY_OBJECT
  5
3E
102
{ACAD_REACTORS
330
2A
102
}
330
2A
100
AcDbZombieObject
 90
      499
 91
      501
 93
      532
310
4394DA1859195CC81BD98811DC985E5174090240C333333333333E33F0000000000000F901079024090741D01000000000000111010841D405064090740C02480A0340
1001
ACAD
1000
AcDbSavedByObjectVersion
1070
     0
  0
ACAD_PROXY_OBJECT
  5
3F
102
{ACAD_REACTORS
330
2A
102
}
330
2A
100
AcDbZombieObject
 90
      499
 91
      501
 93
      476
310
41D4DAD95D18DA1E51840502408333333333333E33F0000000000000F901079024090741D01000000000000111010B41D405064090741802480A0340
1001
ACAD
1000
AcDbSavedByObjectVersion
1070
     0
  0
ACAD_PROXY_OBJECT
  5
37
102
{ACAD_REACTORS
330
2A
102
}
330
2A
100
AcDbZombieObject
 90
      499
 91
      501
 93
      412
310
41D51A1A58DAD95B90D409028333333333333E33F0000000000000F9010790141107004050150C41D405064090741402480A0350
1001
ACAD
1000
AcDbSavedByObjectVersion
1070
     0
  0
ACAD_PROXY_OBJECT
  5
30
102
{ACAD_REACTORS
330
2A
102
}
330
2A
100
AcDbZombieObject
 90
      499
 91
      501
 93
      420
310
4255DA5C99599C985B595059028333333333333E33F0000000000000F90107901411070040501600405405064090740C02480A0340
1001
ACAD
1000
AcDbSavedByObjectVersion
1070
     0
  0
ACAD_PROXY_OBJECT
  5
40
102
{ACAD_REACTORS
330
2A
102
}
330
2A
100
AcDbZombieObject
 90
      499
 91
      501
 93
      404
310
41560B54985E51940902404000000000000E03F0000000000000F9010740501907004050150841D405064090740C02480A1B40
1001
ACAD
1000
AcDbSavedByObjectVersion
1070
     0
  0
DICTIONARYVAR
  5
FA
102
{ACAD_REACTORS
330
F9
102
}
330
F9
100
DictionaryVariables
280
     0
  1
1:1
  0
DICTIONARYVAR
  5
13B
102
{ACAD_REACTORS
330
F9
102
}
330
F9
100
DictionaryVariables
280
     0
  1
Standard
  0
DICTIONARYVAR
  5
13A
102
{ACAD_REACTORS
330
F9
102
}
330
F9
100
DictionaryVariables
280
     0
  1
Standard
  0
DICTIONARYVAR
  5
13E
102
{ACAD_REACTORS
330
F9
102
}
330
F9
100
DictionaryVariables
280
     0
  1
2
  0
DICTIONARYVAR
  5
13F
102
{ACAD_REACTORS
330
F9
102
}
330
F9
100
DictionaryVariables
280
     0
  1
1
  0
DICTIONARYVAR
  5
FB
102
{ACAD_REACTORS
330
F9
102
}
330
F9
100
DictionaryVariables
280
     0
  1
1
  0
DICTIONARYVAR
  5
FC
102
{ACAD_REACTORS
330
F9
102
}
330
F9
100
DictionaryVariables
280
     0
  1
2
  0
DICTIONARY
  5
143
330
45
100
AcDbDictionary
  3
ACAD_XREC_ROUNDTRIP
360
144
1001
ACAD
1000
TREAT_AS_HARD
1070
     1
  0
DICTIONARY
  5
141
330
44
100
AcDbDictionary
  3
ACAD_XREC_ROUNDTRIP
360
142
1001
ACAD
1000
TREAT_AS_HARD
1070
     1
  0
DICTIONARY
  5
145
330
46
100
AcDbDictionary
  3
ACAD_XREC_ROUNDTRIP
360
146
1001
ACAD
1000
TREAT_AS_HARD
1070
     1
  0
XRECORD
  5
144
102
{ACAD_REACTORS
330
143
102
}
330
143
100
AcDbXrecord
102
MATERIAL
148
0.0
149
0.0
149
0.0
 93
        0
 94
      127
282
     0
 72
     1
 77
     1
171
     1
175
     1
179
     1
273
     0
  0
XRECORD
  5
142
102
{ACAD_REACTORS
330
141
102
}
330
141
100
AcDbXrecord
102
MATERIAL
148
0.0
149
0.0
149
0.0
 93
        0
 94
      127
282
     0
 72
     1
 77
     1
171
     1
175
     1
179
     1
273
     0
  0
XRECORD
  5
146
102
{ACAD_REACTORS
330
145
102
}
330
145
100
AcDbXrecord
102
MATERIAL
148
0.0
149
0.0
149
0.0
 93
        0
 94
      127
282
     0
 72
     1
 77
     1
171
     1
175
     1
179
     1
273
     0
  0
ENDSEC
  0
EOF
