  0
SECTION
  2
HEADER
  9
$ACADVER
  1
AC1012
  9
$DWGCODEPAGE
  3
ansi_1252
  9
$INSBASE
 10
0.0
 20
0.0
 30
0.0
  9
$EXTMIN
 10
1.000000000000000E+20
 20
1.000000000000000E+20
 30
1.000000000000000E+20
  9
$EXTMAX
 10
-1.000000000000000E+20
 20
-1.000000000000000E+20
 30
-1.000000000000000E+20
  9
$LIMMIN
 10
0.0
 20
0.0
  9
$LIMMAX
 10
12.0
 20
9.0
  9
$ORTHOMODE
 70
     0
  9
$REGENMODE
 70
     1
  9
$FILLMODE
 70
     1
  9
$QTEXTMODE
 70
     0
  9
$MIRRTEXT
 70
     1
  9
$DRAGMODE
 70
     2
  9
$LTSCALE
 40
1.0
  9
$OSMODE
 70
    37
  9
$ATTMODE
 70
     1
  9
$TEXTSIZE
 40
0.2
  9
$TRACEWID
 40
0.05
  9
$TEXTSTYLE
  7
STANDARD
  9
$CLAYER
  8
0
  9
$CELTYPE
  6
BYLAYER
  9
$CECOLOR
 62
   256
  9
$CELTSCALE
 40
1.0
  9
$DELOBJ
 70
     1
  9
$DISPSILH
 70
     0
  9
$DIMSCALE
 40
1.0
  9
$DIMASZ
 40
0.18
  9
$DIMEXO
 40
0.0625
  9
$DIMDLI
 40
0.38
  9
$DIMRND
 40
0.0
  9
$DIMDLE
 40
0.0
  9
$DIMEXE
 40
0.18
  9
$DIMTP
 40
0.0
  9
$DIMTM
 40
0.0
  9
$DIMTXT
 40
0.18
  9
$DIMCEN
 40
0.09
  9
$DIMTSZ
 40
0.0
  9
$DIMTOL
 70
     0
  9
$DIMLIM
 70
     0
  9
$DIMTIH
 70
     1
  9
$DIMTOH
 70
     1
  9
$DIMSE1
 70
     0
  9
$DIMSE2
 70
     0
  9
$DIMTAD
 70
     0
  9
$DIMZIN
 70
     0
  9
$DIMBLK
  1

  9
$DIMASO
 70
     1
  9
$DIMSHO
 70
     1
  9
$DIMPOST
  1

  9
$DIMAPOST
  1

  9
$DIMALT
 70
     0
  9
$DIMALTD
 70
     2
  9
$DIMALTF
 40
25.4
  9
$DIMLFAC
 40
1.0
  9
$DIMTOFL
 70
     0
  9
$DIMTVP
 40
0.0
  9
$DIMTIX
 70
     0
  9
$DIMSOXD
 70
     0
  9
$DIMSAH
 70
     0
  9
$DIMBLK1
  1

  9
$DIMBLK2
  1

  9
$DIMSTYLE
  2
STANDARD_ACAD
  9
$DIMCLRD
 70
     0
  9
$DIMCLRE
 70
     0
  9
$DIMCLRT
 70
     0
  9
$DIMTFAC
 40
1.0
  9
$DIMGAP
 40
0.09
  9
$DIMJUST
 70
     0
  9
$DIMSD1
 70
     0
  9
$DIMSD2
 70
     0
  9
$DIMTOLJ
 70
     1
  9
$DIMTZIN
 70
     0
  9
$DIMALTZ
 70
     0
  9
$DIMALTTZ
 70
     0
  9
$DIMFIT
 70
     5
  9
$DIMUPT
 70
     0
  9
$DIMUNIT
 70
     2
  9
$DIMDEC
 70
     4
  9
$DIMTDEC
 70
     4
  9
$DIMALTU
 70
     2
  9
$DIMALTTD
 70
     2
  9
$DIMTXSTY
  7
STANDARD
  9
$DIMAUNIT
 70
     0
  9
$LUNITS
 70
     4
  9
$LUPREC
 70
     3
  9
$SKETCHINC
 40
0.1
  9
$FILLETRAD
 40
0.5
  9
$AUNITS
 70
     0
  9
$AUPREC
 70
     0
  9
$MENU
  1
.
  9
$ELEVATION
 40
0.0
  9
$PELEVATION
 40
0.0
  9
$THICKNESS
 40
0.0
  9
$LIMCHECK
 70
     0
  9
$CHAMFERA
 40
0.0
  9
$CHAMFERB
 40
0.0
  9
$CHAMFERC
 40
0.0
  9
$CHAMFERD
 40
0.0
  9
$SKPOLY
 70
     0
  9
$TDCREATE
 40
2458931.847438172
  9
$TDUPDATE
 40
2459221.466009526
  9
$TDINDWG
 40
0.0000000116
  9
$TDUSRTIMER
 40
0.0000000116
  9
$USRTIMER
 70
     1
  9
$ANGBASE
 50
0.0
  9
$ANGDIR
 70
     0
  9
$PDMODE
 70
     0
  9
$PDSIZE
 40
0.0
  9
$PLINEWID
 40
0.0
  9
$COORDS
 70
     1
  9
$SPLFRAME
 70
     0
  9
$SPLINETYPE
 70
     6
  9
$SPLINESEGS
 70
     8
  9
$ATTDIA
 70
     0
  9
$ATTREQ
 70
     1
  9
$HANDLING
 70
     1
  9
$HANDSEED
  5
151
  9
$SURFTAB1
 70
     6
  9
$SURFTAB2
 70
     6
  9
$SURFTYPE
 70
     6
  9
$SURFU
 70
     6
  9
$SURFV
 70
     6
  9
$UCSNAME
  2

  9
$UCSORG
 10
0.0
 20
0.0
 30
0.0
  9
$UCSXDIR
 10
1.0
 20
0.0
 30
0.0
  9
$UCSYDIR
 10
0.0
 20
1.0
 30
0.0
  9
$PUCSNAME
  2

  9
$PUCSORG
 10
0.0
 20
0.0
 30
0.0
  9
$PUCSXDIR
 10
1.0
 20
0.0
 30
0.0
  9
$PUCSYDIR
 10
0.0
 20
1.0
 30
0.0
  9
$USERI1
 70
     0
  9
$USERI2
 70
     0
  9
$USERI3
 70
     0
  9
$USERI4
 70
     0
  9
$USERI5
 70
     0
  9
$USERR1
 40
0.0
  9
$USERR2
 40
0.0
  9
$USERR3
 40
0.0
  9
$USERR4
 40
0.0
  9
$USERR5
 40
0.0
  9
$WORLDVIEW
 70
     1
  9
$SHADEDGE
 70
     3
  9
$SHADEDIF
 70
    70
  9
$TILEMODE
 70
     1
  9
$MAXACTVP
 70
    64
  9
$PINSBASE
 10
0.0
 20
0.0
 30
0.0
  9
$PLIMCHECK
 70
     0
  9
$PEXTMIN
 10
1.000000000000000E+20
 20
1.000000000000000E+20
 30
1.000000000000000E+20
  9
$PEXTMAX
 10
-1.000000000000000E+20
 20
-1.000000000000000E+20
 30
-1.000000000000000E+20
  9
$PLIMMIN
 10
0.0
 20
0.0
  9
$PLIMMAX
 10
12.0
 20
9.0
  9
$UNITMODE
 70
     0
  9
$VISRETAIN
 70
     1
  9
$PLINEGEN
 70
     0
  9
$PSLTSCALE
 70
     1
  9
$TREEDEPTH
 70
  3020
  9
$PICKSTYLE
 70
     1
  9
$CMLSTYLE
  2
STANDARD
  9
$CMLJUST
 70
     0
  9
$CMLSCALE
 40
1.0
  9
$SAVEIMAGES
 70
     1
  0
ENDSEC
  0
SECTION
  2
CLASSES
  0
CLASS
  1
ACDBDICTIONARYWDFLT
  2
AcDbDictionaryWithDefault
  3
ObjectDBX Classes
 90
    32768
280
     0
281
     0
  0
CLASS
  1
VISUALSTYLE
  2
AcDbVisualStyle
  3
ObjectDBX Classes
 90
     4095
280
     0
281
     0
  0
CLASS
  1
MATERIAL
  2
AcDbMaterial
  3
ObjectDBX Classes
 90
     1153
280
     0
281
     0
  0
CLASS
  1
SCALE
  2
AcDbScale
  3
ObjectDBX Classes
 90
     1153
280
     0
281
     0
  0
CLASS
  1
TABLESTYLE
  2
AcDbTableStyle
  3
ObjectDBX Classes
 90
     4095
280
     0
281
     0
  0
CLASS
  1
MLEADERSTYLE
  2
AcDbMLeaderStyle
  3
ACDB_MLEADERSTYLE_CLASS
 90
     4095
280
     0
281
     0
  0
CLASS
  1
SUN
  2
AcDbSun
  3
SCENEOE
 90
     1153
280
     0
281
     0
  0
CLASS
  1
DICTIONARYVAR
  2
AcDbDictionaryVar
  3
ObjectDBX Classes
 90
        0
280
     0
281
     0
  0
CLASS
  1
CELLSTYLEMAP
  2
AcDbCellStyleMap
  3
ObjectDBX Classes
 90
     1152
280
     0
281
     0
  0
CLASS
  1
XRECORD
  2
AcDbXrecord
  3
ObjectDBX Classes
 90
    32768
280
     0
281
     0
  0
CLASS
  1
LWPOLYLINE
  2
AcDbPolyline
  3
ObjectDBX Classes
 90
    32768
280
     0
281
     1
  0
CLASS
  1
HATCH
  2
AcDbHatch
  3
ObjectDBX Classes
 90
    32768
280
     0
281
     1
  0
CLASS
  1
ACDBPLACEHOLDER
  2
AcDbPlaceHolder
  3
ObjectDBX Classes
 90
        0
280
     0
281
     0
  0
CLASS
  1
LAYOUT
  2
AcDbLayout
  3
ObjectDBX Classes
 90
        0
280
     0
281
     0
  0
ENDSEC
  0
SECTION
  2
TABLES
  0
TABLE
  2
VPORT
  5
8
330
0
100
AcDbSymbolTable
 70
     1
  0
VPORT
  5
29
330
8
100
AcDbSymbolTableRecord
100
AcDbViewportTableRecord
  2
*ACTIVE
 70
     0
 10
0.0
 20
0.0
 11
1.0
 21
1.0
 12
10.42990654205607
 22
4.5
 13
0.0
 23
0.0
 14
0.5
 24
0.5
 15
0.5
 25
0.5
 16
0.0
 26
0.0
 36
1.0
 17
0.0
 27
0.0
 37
0.0
 40
9.0
 41
1.972972972850329
 42
50.0
 43
0.0
 44
0.0
 50
0.0
 51
0.0
 71
     0
 72
   100
 73
     1
 74
     3
 75
     0
 76
     0
 77
     0
 78
     0
  0
ENDTAB
  0
TABLE
  2
LTYPE
  5
5
330
0
100
AcDbSymbolTable
 70
     1
  0
LTYPE
  5
14
330
5
100
AcDbSymbolTableRecord
100
AcDbLinetypeTableRecord
  2
BYBLOCK
 70
     0
  3

 72
    65
 73
     0
 40
0.0
  0
LTYPE
  5
15
330
5
100
AcDbSymbolTableRecord
100
AcDbLinetypeTableRecord
  2
BYLAYER
 70
     0
  3

 72
    65
 73
     0
 40
0.0
  0
LTYPE
  5
16
330
5
100
AcDbSymbolTableRecord
100
AcDbLinetypeTableRecord
  2
CONTINUOUS
 70
     0
  3
Solid line
 72
    65
 73
     0
 40
0.0
  0
ENDTAB
  0
TABLE
  2
LAYER
  5
2
330
0
100
AcDbSymbolTable
 70
     6
  0
LAYER
  5
10
330
2
100
AcDbSymbolTableRecord
100
AcDbLayerTableRecord
  2
0
 70
     0
 62
     7
  6
CONTINUOUS
  0
LAYER
  5
6E
330
2
100
AcDbSymbolTableRecord
100
AcDbLayerTableRecord
  2
X-DIMENSIONS_GUIDE
 70
     0
 62
   216
  6
CONTINUOUS
  0
LAYER
  5
9B
330
2
100
AcDbSymbolTableRecord
100
AcDbLayerTableRecord
  2
N-SYMB
 70
     0
 62
   236
  6
CONTINUOUS
  0
LAYER
  5
B3
330
2
100
AcDbSymbolTableRecord
100
AcDbLayerTableRecord
  2
X-VPRT
 70
     0
 62
     6
  6
CONTINUOUS
  0
LAYER
  5
BA
330
2
100
AcDbSymbolTableRecord
100
AcDbLayerTableRecord
  2
AG-DIGITAL
 70
     0
 62
   151
  6
CONTINUOUS
  0
LAYER
  5
BE
330
2
100
AcDbSymbolTableRecord
100
AcDbLayerTableRecord
  2
AG-DETAILS
 70
     0
 62
   131
  6
CONTINUOUS
  0
ENDTAB
  0
TABLE
  2
STYLE
  5
3
330
0
100
AcDbSymbolTable
 70
     1
  0
STYLE
  5
11
330
3
100
AcDbSymbolTableRecord
100
AcDbTextStyleTableRecord
  2
STANDARD
 70
     0
 40
0.0
 41
1.0
 50
0.0
 71
     0
 42
0.2
  3
txt
  4

  0
ENDTAB
  0
TABLE
  2
VIEW
  5
6
330
0
100
AcDbSymbolTable
 70
     0
  0
ENDTAB
  0
TABLE
  2
UCS
  5
7
330
0
100
AcDbSymbolTable
 70
     0
  0
ENDTAB
  0
TABLE
  2
APPID
  5
9
330
0
100
AcDbSymbolTable
 70
     2
  0
APPID
  5
12
330
9
100
AcDbSymbolTableRecord
100
AcDbRegAppTableRecord
  2
ACAD
 70
     0
  0
APPID
  5
140
330
9
100
AcDbSymbolTableRecord
100
AcDbRegAppTableRecord
  2
ACAD_MLEADERVER
 70
     0
  0
ENDTAB
  0
TABLE
  2
DIMSTYLE
  5
A
330
0
100
AcDbSymbolTable
 70
     1
  0
DIMSTYLE
105
27
330
A
100
AcDbSymbolTableRecord
100
AcDbDimStyleTableRecord
  2
STANDARD_ACAD
 70
     0
  3

  4

  5

  6

  7

 40
1.0
 41
0.18
 42
0.0625
 43
0.38
 44
0.18
 45
0.0
 46
0.0
 47
0.0
 48
0.0
140
0.18
141
0.09
142
0.0
143
25.4
144
1.0
145
0.0
146
1.0
147
0.09
 71
     0
 72
     0
 73
     1
 74
     1
 75
     0
 76
     0
 77
     0
 78
     0
170
     0
171
     2
172
     0
173
     0
174
     0
175
     0
176
     0
177
     0
178
     0
270
     2
271
     4
272
     4
273
     2
274
     2
340
11
275
     0
280
     0
281
     0
282
     0
283
     1
284
     0
285
     0
286
     0
287
     3
288
     0
  0
ENDTAB
  0
TABLE
  2
BLOCK_RECORD
  5
1
330
0
100
AcDbSymbolTable
 70
     0
  0
BLOCK_RECORD
  5
1F
330
1
100
AcDbSymbolTableRecord
100
AcDbBlockTableRecord
  2
*MODEL_SPACE
  0
BLOCK_RECORD
  5
1B
330
1
100
AcDbSymbolTableRecord
100
AcDbBlockTableRecord
  2
*PAPER_SPACE
  0
ENDTAB
  0
ENDSEC
  0
SECTION
  2
BLOCKS
  0
BLOCK
  5
20
330
1F
100
AcDbEntity
  8
0
100
AcDbBlockBegin
  2
*MODEL_SPACE
 70
     0
 10
0.0
 20
0.0
 30
0.0
  3
*MODEL_SPACE
  1

  0
ENDBLK
  5
21
330
1F
100
AcDbEntity
  8
0
100
AcDbBlockEnd
  0
BLOCK
  5
1C
330
1B
100
AcDbEntity
 67
     1
  8
0
100
AcDbBlockBegin
  2
*PAPER_SPACE
 70
     0
 10
0.0
 20
0.0
 30
0.0
  3
*PAPER_SPACE
  1

  0
ENDBLK
  5
1D
330
1B
100
AcDbEntity
 67
     1
  8
0
100
AcDbBlockEnd
  0
ENDSEC
  0
SECTION
  2
ENTITIES
  0
SPLINE
  5
6F
330
1F
100
AcDbEntity
  8
X-DIMENSIONS_GUIDE
100
AcDbSpline
210
0.0
220
0.0
230
1.0
 70
    11
 71
     3
 72
    20
 73
    16
 74
     0
 42
0.000000001
 43
0.0000000001
 40
0.0
 40
0.0
 40
0.0
 40
0.0
 40
1.0
 40
1.0
 40
1.0
 40
2.0
 40
2.0
 40
2.0
 40
3.0
 40
3.0
 40
3.0
 40
4.0
 40
4.0
 40
4.0
 40
5.0
 40
5.0
 40
5.0
 40
5.0
 10
0.4729038951294138
 20
-0.5248512413954872
 30
0.0
 10
0.4729038951294138
 20
-0.5223491043842207
 30
0.0
 10
0.4724489611273649
 20
-0.5205293683760264
 30
0.0
 10
0.4710841591212201
 20
-0.5193920333709057
 30
0.0
 10
0.469719357115074
 20
-0.5182546983657843
 30
0.0
 10
0.4678996211068803
 20
-0.5175722973627114
 30
0.0
 10
0.4660798850986866
 20
-0.5175722973627114
 30
0.0
 10
0.4640326820894681
 20
-0.5175722973627114
 30
0.0
 10
0.4622129460812744
 20
-0.5182546983657843
 30
0.0
 10
0.4608481440751283
 20
-0.5193920333709057
 30
0.0
 10
0.4594833420689836
 20
-0.5205293683760264
 30
0.0
 10
0.4588009410659104
 20
-0.5223491043842207
 30
0.0
 10
0.4585734740648871
 20
-0.5248512413954872
 30
0.0
 10
0.463350281086396
 20
-0.5248512413954872
 30
0.0
 10
0.4681270881079049
 20
-0.5248512413954872
 30
0.0
 10
0.4729038951294138
 20
-0.5248512413954872
 30
0.0
  0
SPLINE
  5
70
330
1F
100
AcDbEntity
  8
X-DIMENSIONS_GUIDE
100
AcDbSpline
210
0.0
220
0.0
230
1.0
 70
    11
 71
     3
 72
    62
 73
    58
 74
     0
 42
0.000000001
 43
0.0000000001
 40
0.0
 40
0.0
 40
0.0
 40
0.0
 40
1.0
 40
1.0
 40
1.0
 40
2.0
 40
2.0
 40
2.0
 40
3.0
 40
3.0
 40
3.0
 40
4.0
 40
4.0
 40
4.0
 40
5.0
 40
5.0
 40
5.0
 40
6.0
 40
6.0
 40
6.0
 40
7.0
 40
7.0
 40
7.0
 40
8.0
 40
8.0
 40
8.0
 40
9.0
 40
9.0
 40
9.0
 40
10.0
 40
10.0
 40
10.0
 40
11.0
 40
11.0
 40
11.0
 40
12.0
 40
12.0
 40
12.0
 40
13.0
 40
13.0
 40
13.0
 40
14.0
 40
14.0
 40
14.0
 40
15.0
 40
15.0
 40
15.0
 40
16.0
 40
16.0
 40
16.0
 40
17.0
 40
17.0
 40
17.0
 40
18.0
 40
18.0
 40
18.0
 40
19.0
 40
19.0
 40
19.0
 40
19.0
 10
0.4804103061632134
 20
-0.5255336423985603
 30
0.0
 10
0.4804103061632134
 20
-0.5262160434016325
 30
0.0
 10
0.4804103061632134
 20
-0.5271259114057294
 30
0.0
 10
0.4801828391621893
 20
-0.5280357794098268
 30
0.0
 10
0.4729797174630885
 20
-0.5280357794098268
 30
0.0
 10
0.4657765957639878
 20
-0.5280357794098268
 30
0.0
 10
0.4585734740648871
 20
-0.5280357794098268
 30
0.0
 10
0.4588009410659104
 20
-0.5307653834221173
 30
0.0
 10
0.4594833420689836
 20
-0.5325851194303116
 30
0.0
 10
0.4608481440751283
 20
-0.5339499214364569
 30
0.0
 10
0.4619854790802503
 20
-0.5350872564415783
 30
0.0
 10
0.4638052150884441
 20
-0.5357696574446507
 30
0.0
 10
0.4656249510966377
 20
-0.5357696574446507
 30
0.0
 10
0.4674446871048313
 20
-0.5357696574446507
 30
0.0
 10
0.4688094891109775
 20
-0.5353147234426022
 30
0.0
 10
0.4699468241160982
 20
-0.5344048554385054
 30
0.0
 10
0.4710841591212201
 20
-0.5337224544354324
 30
0.0
 10
0.4717665601242925
 20
-0.5325851194303116
 30
0.0
 10
0.4722214941263407
 20
-0.5309928504231418
 30
0.0
 10
0.4747994534712824
 20
-0.5309928504231418
 30
0.0
 10
0.4773774128162242
 20
-0.5309928504231418
 30
0.0
 10
0.4799553721611658
 20
-0.5309928504231418
 30
0.0
 10
0.4797279051601404
 20
-0.53304005343236
 30
0.0
 10
0.4788180371560439
 20
-0.5348597894405538
 30
0.0
 10
0.4774532351498991
 20
-0.5364520584477235
 30
0.0
 10
0.4763159001447771
 20
-0.5380443274548933
 30
0.0
 10
0.4747236311376075
 20
-0.5394091294610386
 30
0.0
 10
0.4726764281283897
 20
-0.5403189974651355
 30
0.0
 10
0.4706292251191712
 20
-0.5412288654692328
 30
0.0
 10
0.4683545551089293
 20
-0.5414563324702568
 30
0.0
 10
0.4660798850986866
 20
-0.5414563324702568
 30
0.0
 10
0.4631228140853709
 20
-0.5414563324702568
 30
0.0
 10
0.4606206770741042
 20
-0.5410013984682084
 30
0.0
 10
0.4583460070638615
 20
-0.539864063463087
 30
0.0
 10
0.4562988040546444
 20
-0.5387267284579662
 30
0.0
 10
0.4544790680464508
 20
-0.5369069924497719
 30
0.0
 10
0.4533417330413287
 20
-0.5346323224395299
 30
0.0
 10
0.451976931035184
 20
-0.5323576524292871
 30
0.0
 10
0.4512945300321109
 20
-0.5298555154180206
 30
0.0
 10
0.4512945300321109
 20
-0.526670977403681
 30
0.0
 10
0.4512945300321109
 20
-0.523713906390366
 30
0.0
 10
0.451976931035184
 20
-0.5209843023780748
 30
0.0
 10
0.4533417330413287
 20
-0.5187096323678327
 30
0.0
 10
0.4544790680464508
 20
-0.51643496235759
 30
0.0
 10
0.4562988040546444
 20
-0.5146152263493963
 30
0.0
 10
0.4583460070638615
 20
-0.5134778913442749
 30
0.0
 10
0.4606206770741042
 20
-0.5123405563391537
 30
0.0
 10
0.4631228140853709
 20
-0.5116581553360813
 30
0.0
 10
0.4660798850986866
 20
-0.5116581553360813
 30
0.0
 10
0.4688094891109775
 20
-0.5116581553360813
 30
0.0
 10
0.4715390931232677
 20
-0.5123405563391537
 30
0.0
 10
0.4735862961324863
 20
-0.5134778913442749
 30
0.0
 10
0.4758609661427295
 20
-0.5146152263493963
 30
0.0
 10
0.4774532351498991
 20
-0.51643496235759
 30
0.0
 10
0.4785905701550198
 20
-0.5184821653668082
 30
0.0
 10
0.4797279051601404
 20
-0.5205293683760264
 30
0.0
 10
0.4804103061632134
 20
-0.5228040383862691
 30
0.0
 10
0.4804103061632134
 20
-0.5255336423985603
 30
0.0
  0
SPLINE
  5
71
330
1F
100
AcDbEntity
  8
X-DIMENSIONS_GUIDE
100
AcDbSpline
210
0.0
220
0.0
230
1.0
 70
    11
 71
     3
 72
    29
 73
    25
 74
     0
 42
0.000000001
 43
0.0000000001
 40
0.0
 40
0.0
 40
0.0
 40
0.0
 40
1.0
 40
1.0
 40
1.0
 40
2.0
 40
2.0
 40
2.0
 40
3.0
 40
3.0
 40
3.0
 40
4.0
 40
4.0
 40
4.0
 40
5.0
 40
5.0
 40
5.0
 40
6.0
 40
6.0
 40
6.0
 40
7.0
 40
7.0
 40
7.0
 40
8.0
 40
8.0
 40
8.0
 40
8.0
 10
0.4308224999399286
 20
-0.5182546983657843
 30
0.0
 10
0.4285478299296859
 20
-0.5182546983657843
 30
0.0
 10
0.4267280939214922
 20
-0.5189370993688566
 30
0.0
 10
0.4253632919153468
 20
-0.5205293683760264
 30
0.0
 10
0.4239984899092021
 20
-0.5218941703821722
 30
0.0
 10
0.423316088906129
 20
-0.5241688403924144
 30
0.0
 10
0.423316088906129
 20
-0.526670977403681
 30
0.0
 10
0.423316088906129
 20
-0.5294005814159721
 30
0.0
 10
0.4239984899092021
 20
-0.5314477844251903
 30
0.0
 10
0.4253632919153468
 20
-0.5328125864313356
 30
0.0
 10
0.4267280939214922
 20
-0.5344048554385054
 30
0.0
 10
0.4285478299296859
 20
-0.5350872564415783
 30
0.0
 10
0.4308224999399286
 20
-0.5350872564415783
 30
0.0
 10
0.4330971699501719
 20
-0.5350872564415783
 30
0.0
 10
0.4351443729593891
 20
-0.5344048554385054
 30
0.0
 10
0.4365091749655352
 20
-0.5328125864313356
 30
0.0
 10
0.43787397697168
 20
-0.5312203174241658
 30
0.0
 10
0.4387838449757778
 20
-0.5291731144149476
 30
0.0
 10
0.4387838449757778
 20
-0.526670977403681
 30
0.0
 10
0.4387838449757778
 20
-0.5241688403924144
 30
0.0
 10
0.43787397697168
 20
-0.5221216373831962
 30
0.0
 10
0.4365091749655352
 20
-0.5205293683760264
 30
0.0
 10
0.4351443729593891
 20
-0.5189370993688566
 30
0.0
 10
0.4330971699501719
 20
-0.5182546983657843
 30
0.0
 10
0.4308224999399286
 20
-0.5182546983657843
 30
0.0
  0
SPLINE
  5
72
330
1F
100
AcDbEntity
  8
X-DIMENSIONS_GUIDE
100
AcDbSpline
210
0.0
220
0.0
230
1.0
 70
    11
 71
     3
 72
    50
 73
    46
 74
     0
 42
0.000000001
 43
0.0000000001
 40
0.0
 40
0.0
 40
0.0
 40
0.0
 40
1.0
 40
1.0
 40
1.0
 40
2.0
 40
2.0
 40
2.0
 40
3.0
 40
3.0
 40
3.0
 40
4.0
 40
4.0
 40
4.0
 40
5.0
 40
5.0
 40
5.0
 40
6.0
 40
6.0
 40
6.0
 40
7.0
 40
7.0
 40
7.0
 40
8.0
 40
8.0
 40
8.0
 40
9.0
 40
9.0
 40
9.0
 40
10.0
 40
10.0
 40
10.0
 40
11.0
 40
11.0
 40
11.0
 40
12.0
 40
12.0
 40
12.0
 40
13.0
 40
13.0
 40
13.0
 40
14.0
 40
14.0
 40
14.0
 40
15.0
 40
15.0
 40
15.0
 40
15.0
 10
0.4285478299296859
 20
-0.5116581553360813
 30
0.0
 10
0.4310499669409527
 20
-0.5116581553360813
 30
0.0
 10
0.4330971699501719
 20
-0.5123405563391537
 30
0.0
 10
0.4349169059583656
 20
-0.5134778913442749
 30
0.0
 10
0.4367366419665593
 20
-0.5146152263493963
 30
0.0
 10
0.43787397697168
 20
-0.5162074953565661
 30
0.0
 10
0.4387838449757778
 20
-0.5180272313647598
 30
0.0
 10
0.4387838449757778
 20
-0.5127954903412023
 30
0.0
 10
0.4387838449757778
 20
-0.5075637493176447
 30
0.0
 10
0.4387838449757778
 20
-0.5023320082940871
 30
0.0
 10
0.4412101596533693
 20
-0.5023320082940871
 30
0.0
 10
0.443636474330961
 20
-0.5023320082940871
 30
0.0
 10
0.4460627890085526
 20
-0.5023320082940871
 30
0.0
 10
0.4460627890085526
 20
-0.515297627352469
 30
0.0
 10
0.4460627890085526
 20
-0.5282632464108509
 30
0.0
 10
0.4460627890085526
 20
-0.5412288654692328
 30
0.0
 10
0.443636474330961
 20
-0.5412288654692328
 30
0.0
 10
0.4412101596533693
 20
-0.5412288654692328
 30
0.0
 10
0.4387838449757778
 20
-0.5412288654692328
 30
0.0
 10
0.4387838449757778
 20
-0.5392574847936892
 30
0.0
 10
0.4387838449757778
 20
-0.5372861041181457
 30
0.0
 10
0.4387838449757778
 20
-0.5353147234426022
 30
0.0
 10
0.43787397697168
 20
-0.5371344594507965
 30
0.0
 10
0.4367366419665593
 20
-0.5387267284579662
 30
0.0
 10
0.4349169059583656
 20
-0.539864063463087
 30
0.0
 10
0.4330971699501719
 20
-0.5412288654692328
 30
0.0
 10
0.4310499669409527
 20
-0.5414563324702568
 30
0.0
 10
0.4285478299296859
 20
-0.5414563324702568
 30
0.0
 10
0.4260456929184199
 20
-0.5414563324702568
 30
0.0
 10
0.4239984899092021
 20
-0.5410013984682084
 30
0.0
 10
0.4219512868999829
 20
-0.539864063463087
 30
0.0
 10
0.4199040838907658
 20
-0.5387267284579662
 30
0.0
 10
0.4183118148835955
 20
-0.5369069924497719
 30
0.0
 10
0.4174019468794976
 20
-0.5346323224395299
 30
0.0
 10
0.416264611874377
 20
-0.5323576524292871
 30
0.0
 10
0.415582210871304
 20
-0.5298555154180206
 30
0.0
 10
0.415582210871304
 20
-0.526670977403681
 30
0.0
 10
0.415582210871304
 20
-0.523713906390366
 30
0.0
 10
0.416264611874377
 20
-0.5209843023780748
 30
0.0
 10
0.4174019468794976
 20
-0.5187096323678327
 30
0.0
 10
0.4183118148835955
 20
-0.51643496235759
 30
0.0
 10
0.4199040838907658
 20
-0.5146152263493963
 30
0.0
 10
0.4219512868999829
 20
-0.5134778913442749
 30
0.0
 10
0.4239984899092021
 20
-0.5123405563391537
 30
0.0
 10
0.4260456929184199
 20
-0.5116581553360813
 30
0.0
 10
0.4285478299296859
 20
-0.5116581553360813
 30
0.0
  0
POLYLINE
  5
73
330
1F
100
AcDbEntity
  8
X-DIMENSIONS_GUIDE
100
AcDb2dPolyline
 66
     1
 10
0.0
 20
0.0
 30
0.0
 70
     1
  0
VERTEX
  5
74
330
73
100
AcDbEntity
  8
X-DIMENSIONS_GUIDE
100
AcDbVertex
100
AcDb2dVertex
 10
0.4103504698477469
 20
-0.5121130893381297
 30
0.0
  0
VERTEX
  5
75
330
73
100
AcDbEntity
  8
X-DIMENSIONS_GUIDE
100
AcDbVertex
100
AcDb2dVertex
 10
0.4103504698477469
 20
-0.5412288654692328
 30
0.0
  0
VERTEX
  5
76
330
73
100
AcDbEntity
  8
X-DIMENSIONS_GUIDE
100
AcDbVertex
100
AcDb2dVertex
 10
0.4028440588139474
 20
-0.5412288654692328
 30
0.0
  0
VERTEX
  5
77
330
73
100
AcDbEntity
  8
X-DIMENSIONS_GUIDE
100
AcDbVertex
100
AcDb2dVertex
 10
0.4028440588139474
 20
-0.5121130893381297
 30
0.0
  0
SEQEND
  5
78
330
73
100
AcDbEntity
  8
X-DIMENSIONS_GUIDE
  0
SPLINE
  5
79
330
1F
100
AcDbEntity
  8
X-DIMENSIONS_GUIDE
100
AcDbSpline
210
0.0
220
0.0
230
1.0
 70
    11
 71
     3
 72
    29
 73
    25
 74
     0
 42
0.000000001
 43
0.0000000001
 40
0.0
 40
0.0
 40
0.0
 40
0.0
 40
1.0
 40
1.0
 40
1.0
 40
2.0
 40
2.0
 40
2.0
 40
3.0
 40
3.0
 40
3.0
 40
4.0
 40
4.0
 40
4.0
 40
5.0
 40
5.0
 40
5.0
 40
6.0
 40
6.0
 40
6.0
 40
7.0
 40
7.0
 40
7.0
 40
8.0
 40
8.0
 40
8.0
 40
8.0
 10
0.4021616578108743
 20
-0.5036968103002324
 30
0.0
 10
0.4021616578108743
 20
-0.5025594752951116
 30
0.0
 10
0.4023891248118978
 20
-0.5014221402899902
 30
0.0
 10
0.403298992815995
 20
-0.5007397392869174
 30
0.0
 10
0.4042088608200914
 20
-0.5000573382838445
 30
0.0
 10
0.4053461958252135
 20
-0.499602404281796
 30
0.0
 10
0.4067109978313582
 20
-0.499602404281796
 30
0.0
 10
0.4080757998375044
 20
-0.499602404281796
 30
0.0
 10
0.4092131348426263
 20
-0.5000573382838445
 30
0.0
 10
0.409895535845698
 20
-0.5007397392869174
 30
0.0
 10
0.4108054038497945
 20
-0.5014221402899902
 30
0.0
 10
0.4112603378518435
 20
-0.5025594752951116
 30
0.0
 10
0.4112603378518435
 20
-0.5036968103002324
 30
0.0
 10
0.4112603378518435
 20
-0.5048341453053538
 30
0.0
 10
0.4108054038497945
 20
-0.5057440133094505
 30
0.0
 10
0.409895535845698
 20
-0.5064264143125236
 30
0.0
 10
0.4092131348426263
 20
-0.5073362823166203
 30
0.0
 10
0.4080757998375044
 20
-0.5075637493176449
 30
0.0
 10
0.4067109978313582
 20
-0.5075637493176449
 30
0.0
 10
0.4053461958252135
 20
-0.5075637493176449
 30
0.0
 10
0.4042088608200914
 20
-0.5073362823166203
 30
0.0
 10
0.403298992815995
 20
-0.5064264143125236
 30
0.0
 10
0.4023891248118978
 20
-0.5057440133094505
 30
0.0
 10
0.4021616578108743
 20
-0.5048341453053538
 30
0.0
 10
0.4021616578108743
 20
-0.5036968103002324
 30
0.0
  0
SPLINE
  5
7A
330
1F
100
AcDbEntity
  8
X-DIMENSIONS_GUIDE
100
AcDbSpline
210
0.0
220
0.0
230
1.0
 70
    11
 71
     3
 72
    53
 73
    49
 74
     0
 42
0.000000001
 43
0.0000000001
 40
0.0
 40
0.0
 40
0.0
 40
0.0
 40
1.0
 40
1.0
 40
1.0
 40
2.0
 40
2.0
 40
2.0
 40
3.0
 40
3.0
 40
3.0
 40
4.0
 40
4.0
 40
4.0
 40
5.0
 40
5.0
 40
5.0
 40
6.0
 40
6.0
 40
6.0
 40
7.0
 40
7.0
 40
7.0
 40
8.0
 40
8.0
 40
8.0
 40
9.0
 40
9.0
 40
9.0
 40
10.0
 40
10.0
 40
10.0
 40
11.0
 40
11.0
 40
11.0
 40
12.0
 40
12.0
 40
12.0
 40
13.0
 40
13.0
 40
13.0
 40
14.0
 40
14.0
 40
14.0
 40
15.0
 40
15.0
 40
15.0
 40
16.0
 40
16.0
 40
16.0
 40
16.0
 10
0.3962475157842444
 20
-0.5121130893381297
 30
0.0
 10
0.3962475157842444
 20
-0.5218183480484974
 30
0.0
 10
0.3962475157842444
 20
-0.5315236067588651
 30
0.0
 10
0.3962475157842444
 20
-0.5412288654692328
 30
0.0
 10
0.3937453787729776
 20
-0.5412288654692328
 30
0.0
 10
0.3912432417617108
 20
-0.5412288654692328
 30
0.0
 10
0.388741104750444
 20
-0.5412288654692328
 30
0.0
 10
0.388741104750444
 20
-0.5392574847936892
 30
0.0
 10
0.388741104750444
 20
-0.5372861041181457
 30
0.0
 10
0.388741104750444
 20
-0.5353147234426022
 30
0.0
 10
0.3878312367463462
 20
-0.5373619264518203
 30
0.0
 10
0.3866939017412256
 20
-0.5389541954589901
 30
0.0
 10
0.3848741657330318
 20
-0.5400915304641115
 30
0.0
 10
0.3830544297248382
 20
-0.5412288654692328
 30
0.0
 10
0.3810072267156189
 20
-0.5414563324702568
 30
0.0
 10
0.3787325567053763
 20
-0.5414563324702568
 30
0.0
 10
0.375320551690013
 20
-0.5414563324702568
 30
0.0
 10
0.3725909476777229
 20
-0.54054646446616
 30
0.0
 10
0.3705437446685036
 20
-0.5382717944559178
 30
0.0
 10
0.3684965416592859
 20
-0.5362245914466996
 30
0.0
 10
0.3675866736551894
 20
-0.53304005343236
 30
0.0
 10
0.3675866736551894
 20
-0.5291731144149476
 30
0.0
 10
0.3675866736551894
 20
-0.5234864393893417
 30
0.0
 10
0.3675866736551894
 20
-0.5177997643637358
 30
0.0
 10
0.3675866736551894
 20
-0.5121130893381297
 30
0.0
 10
0.3700888106664559
 20
-0.5121130893381297
 30
0.0
 10
0.3725909476777224
 20
-0.5121130893381297
 30
0.0
 10
0.375093084688989
 20
-0.5121130893381297
 30
0.0
 10
0.375093084688989
 20
-0.5174964750290366
 30
0.0
 10
0.375093084688989
 20
-0.5228798607199437
 30
0.0
 10
0.3750930846889889
 20
-0.5282632464108508
 30
0.0
 10
0.3750930846889889
 20
-0.5305379164210934
 30
0.0
 10
0.3755480186910372
 20
-0.5323576524292871
 30
0.0
 10
0.3766853536961592
 20
-0.5337224544354324
 30
0.0
 10
0.3780501557023047
 20
-0.5348597894405538
 30
0.0
 10
0.3796424247094735
 20
-0.5355421904436267
 30
0.0
 10
0.381689627718692
 20
-0.5355421904436267
 30
0.0
 10
0.3837368307279098
 20
-0.5355421904436267
 30
0.0
 10
0.3855565667361048
 20
-0.5348597894405538
 30
0.0
 10
0.3866939017412256
 20
-0.5334949874344085
 30
0.0
 10
0.3880587037473709
 20
-0.5321301854282632
 30
0.0
 10
0.388741104750444
 20
-0.5300829824190451
 30
0.0
 10
0.388741104750444
 20
-0.5275808454077784
 30
0.0
 10
0.388741104750444
 20
-0.5224249267178954
 30
0.0
 10
0.388741104750444
 20
-0.5172690080280126
 30
0.0
 10
0.388741104750444
 20
-0.5121130893381297
 30
0.0
 10
0.3912432417617108
 20
-0.5121130893381297
 30
0.0
 10
0.3937453787729776
 20
-0.5121130893381297
 30
0.0
 10
0.3962475157842444
 20
-0.5121130893381297
 30
0.0
  0
SPLINE
  5
7B
330
1F
100
AcDbEntity
  8
X-DIMENSIONS_GUIDE
100
AcDbSpline
210
0.0
220
0.0
230
1.0
 70
    11
 71
     3
 72
    80
 73
    76
 74
     0
 42
0.000000001
 43
0.0000000001
 40
0.0
 40
0.0
 40
0.0
 40
0.0
 40
1.0
 40
1.0
 40
1.0
 40
2.0
 40
2.0
 40
2.0
 40
3.0
 40
3.0
 40
3.0
 40
4.0
 40
4.0
 40
4.0
 40
5.0
 40
5.0
 40
5.0
 40
6.0
 40
6.0
 40
6.0
 40
7.0
 40
7.0
 40
7.0
 40
8.0
 40
8.0
 40
8.0
 40
9.0
 40
9.0
 40
9.0
 40
10.0
 40
10.0
 40
10.0
 40
11.0
 40
11.0
 40
11.0
 40
12.0
 40
12.0
 40
12.0
 40
13.0
 40
13.0
 40
13.0
 40
14.0
 40
14.0
 40
14.0
 40
15.0
 40
15.0
 40
15.0
 40
16.0
 40
16.0
 40
16.0
 40
17.0
 40
17.0
 40
17.0
 40
18.0
 40
18.0
 40
18.0
 40
19.0
 40
19.0
 40
19.0
 40
20.0
 40
20.0
 40
20.0
 40
21.0
 40
21.0
 40
21.0
 40
22.0
 40
22.0
 40
22.0
 40
23.0
 40
23.0
 40
23.0
 40
24.0
 40
24.0
 40
24.0
 40
25.0
 40
25.0
 40
25.0
 40
25.0
 10
0.3448399735527644
 20
-0.5036968103002324
 30
0.0
 10
0.3493893135732504
 20
-0.5036968103002324
 30
0.0
 10
0.3530287855896377
 20
-0.5048341453053538
 30
0.0
 10
0.3562133236039768
 20
-0.5071088153155965
 30
0.0
 10
0.3591703946172926
 20
-0.5091560183248146
 30
0.0
 10
0.3609901306254862
 20
-0.5123405563391537
 30
0.0
 10
0.3618999986295835
 20
-0.5159800283555416
 30
0.0
 10
0.3593220392846417
 20
-0.5159800283555416
 30
0.0
 10
0.3567440799397001
 20
-0.5159800283555416
 30
0.0
 10
0.3541661205947584
 20
-0.5159800283555416
 30
0.0
 10
0.3532562525906612
 20
-0.5143877593483718
 30
0.0
 10
0.3521189175855406
 20
-0.5130229573422266
 30
0.0
 10
0.350526648578371
 20
-0.5121130893381297
 30
0.0
 10
0.3489343795712008
 20
-0.5109757543330082
 30
0.0
 10
0.347114643563007
 20
-0.5105208203309599
 30
0.0
 10
0.3448399735527644
 20
-0.5105208203309599
 30
0.0
 10
0.3427927705435473
 20
-0.5105208203309599
 30
0.0
 10
0.3407455675343281
 20
-0.5109757543330082
 30
0.0
 10
0.3391532985271585
 20
-0.5121130893381297
 30
0.0
 10
0.3375610295199889
 20
-0.5130229573422266
 30
0.0
 10
0.3361962275138442
 20
-0.5143877593483718
 30
0.0
 10
0.3352863595097471
 20
-0.5162074953565661
 30
0.0
 10
0.3343764915056491
 20
-0.5180272313647598
 30
0.0
 10
0.3339215575036016
 20
-0.5203019013750024
 30
0.0
 10
0.3339215575036016
 20
-0.5225765713852446
 30
0.0
 10
0.3339215575036016
 20
-0.526670977403681
 30
0.0
 10
0.3350588925087222
 20
-0.5296280484169961
 30
0.0
 10
0.3371060955179407
 20
-0.5319027184272387
 30
0.0
 10
0.3391532985271585
 20
-0.5339499214364569
 30
0.0
 10
0.3421103695404742
 20
-0.5350872564415783
 30
0.0
 10
0.3457498415568617
 20
-0.5350872564415783
 30
0.0
 10
0.3482519785681283
 20
-0.5350872564415783
 30
0.0
 10
0.350526648578371
 20
-0.5344048554385054
 30
0.0
 10
0.3525738515875895
 20
-0.5328125864313356
 30
0.0
 10
0.3543935875957832
 20
-0.5312203174241658
 30
0.0
 10
0.355758389601928
 20
-0.5289456474139237
 30
0.0
 10
0.3562133236039768
 20
-0.5262160434016325
 30
0.0
 10
0.3520430952518658
 20
-0.5262160434016325
 30
0.0
 10
0.3478728668997548
 20
-0.5262160434016325
 30
0.0
 10
0.3437026385476438
 20
-0.5262160434016325
 30
0.0
 10
0.3437026385476438
 20
-0.5243963073934387
 30
0.0
 10
0.3437026385476438
 20
-0.5225765713852447
 30
0.0
 10
0.3437026385476438
 20
-0.5207568353770509
 30
0.0
 10
0.3499958922426478
 20
-0.5207568353770509
 30
0.0
 10
0.3562891459376518
 20
-0.5207568353770509
 30
0.0
 10
0.3625823996326558
 20
-0.5207568353770509
 30
0.0
 10
0.3625823996326558
 20
-0.5231831500546428
 30
0.0
 10
0.3625823996326558
 20
-0.5256094647322348
 30
0.0
 10
0.3625823996326558
 20
-0.5280357794098268
 30
0.0
 10
0.3618999986295835
 20
-0.5305379164210934
 30
0.0
 10
0.3609901306254862
 20
-0.5328125864313356
 30
0.0
 10
0.3593978616183167
 20
-0.5348597894405538
 30
0.0
 10
0.3578055926111465
 20
-0.5369069924497719
 30
0.0
 10
0.3559858566029528
 20
-0.5384992614569417
 30
0.0
 10
0.3534837195916867
 20
-0.539864063463087
 30
0.0
 10
0.3509815825804199
 20
-0.5410013984682084
 30
0.0
 10
0.3480245115671043
 20
-0.5414563324702568
 30
0.0
 10
0.3448399735527644
 20
-0.5414563324702568
 30
0.0
 10
0.341200501536377
 20
-0.5414563324702568
 30
0.0
 10
0.3380159635220379
 20
-0.5407739314671843
 30
0.0
 10
0.3350588925087222
 20
-0.5391816624600146
 30
0.0
 10
0.3323292884964313
 20
-0.5375893934528448
 30
0.0
 10
0.3302820854872128
 20
-0.5353147234426022
 30
0.0
 10
0.3286898164800433
 20
-0.5325851194303116
 30
0.0
 10
0.3270975474728744
 20
-0.5296280484169961
 30
0.0
 10
0.3264151464698013
 20
-0.526443510402657
 30
0.0
 10
0.3264151464698013
 20
-0.5225765713852446
 30
0.0
 10
0.3264151464698013
 20
-0.5189370993688566
 30
0.0
 10
0.3270975474728744
 20
-0.5157525613545176
 30
0.0
 10
0.3286898164800433
 20
-0.5127954903412026
 30
0.0
 10
0.3302820854872128
 20
-0.509838419327887
 30
0.0
 10
0.3323292884964313
 20
-0.5077912163186687
 30
0.0
 10
0.3350588925087222
 20
-0.5059714803104751
 30
0.0
 10
0.3380159635220379
 20
-0.5043792113033053
 30
0.0
 10
0.341200501536377
 20
-0.5036968103002324
 30
0.0
 10
0.3448399735527644
 20
-0.5036968103002324
 30
0.0
  0
POLYLINE
  5
7C
330
1F
100
AcDbEntity
  8
X-DIMENSIONS_GUIDE
100
AcDb2dPolyline
 66
     1
 10
0.0
 20
0.0
 30
0.0
 70
     1
  0
VERTEX
  5
7D
330
7C
100
AcDbEntity
  8
X-DIMENSIONS_GUIDE
100
AcDbVertex
100
AcDb2dVertex
 10
0.3225482074523892
 20
-0.5334949874344085
 30
0.0
  0
VERTEX
  5
7E
330
7C
100
AcDbEntity
  8
X-DIMENSIONS_GUIDE
100
AcDbVertex
100
AcDb2dVertex
 10
0.3225482074523892
 20
-0.5412288654692328
 30
0.0
  0
VERTEX
  5
7F
330
7C
100
AcDbEntity
  8
X-DIMENSIONS_GUIDE
100
AcDbVertex
100
AcDb2dVertex
 10
0.3145868624165399
 20
-0.5412288654692328
 30
0.0
  0
VERTEX
  5
80
330
7C
100
AcDbEntity
  8
X-DIMENSIONS_GUIDE
100
AcDbVertex
100
AcDb2dVertex
 10
0.3145868624165399
 20
-0.5334949874344085
 30
0.0
  0
SEQEND
  5
81
330
7C
100
AcDbEntity
  8
X-DIMENSIONS_GUIDE
  0
SPLINE
  5
82
330
1F
100
AcDbEntity
  8
X-DIMENSIONS_GUIDE
100
AcDbSpline
210
0.0
220
0.0
230
1.0
 70
    11
 71
     3
 72
    95
 73
    91
 74
     0
 42
0.000000001
 43
0.0000000001
 40
0.0
 40
0.0
 40
0.0
 40
0.0
 40
1.0
 40
1.0
 40
1.0
 40
2.0
 40
2.0
 40
2.0
 40
3.0
 40
3.0
 40
3.0
 40
4.0
 40
4.0
 40
4.0
 40
5.0
 40
5.0
 40
5.0
 40
6.0
 40
6.0
 40
6.0
 40
7.0
 40
7.0
 40
7.0
 40
8.0
 40
8.0
 40
8.0
 40
9.0
 40
9.0
 40
9.0
 40
10.0
 40
10.0
 40
10.0
 40
11.0
 40
11.0
 40
11.0
 40
12.0
 40
12.0
 40
12.0
 40
13.0
 40
13.0
 40
13.0
 40
14.0
 40
14.0
 40
14.0
 40
15.0
 40
15.0
 40
15.0
 40
16.0
 40
16.0
 40
16.0
 40
17.0
 40
17.0
 40
17.0
 40
18.0
 40
18.0
 40
18.0
 40
19.0
 40
19.0
 40
19.0
 40
20.0
 40
20.0
 40
20.0
 40
21.0
 40
21.0
 40
21.0
 40
22.0
 40
22.0
 40
22.0
 40
23.0
 40
23.0
 40
23.0
 40
24.0
 40
24.0
 40
24.0
 40
25.0
 40
25.0
 40
25.0
 40
26.0
 40
26.0
 40
26.0
 40
27.0
 40
27.0
 40
27.0
 40
28.0
 40
28.0
 40
28.0
 40
29.0
 40
29.0
 40
29.0
 40
30.0
 40
30.0
 40
30.0
 40
30.0
 10
0.2977543043407471
 20
-0.5116581553360813
 30
0.0
 10
0.3013937763571344
 20
-0.5116581553360813
 30
0.0
 10
0.3043508473704494
 20
-0.5125680233401781
 30
0.0
 10
0.3063980503796673
 20
-0.5143877593483718
 30
0.0
 10
0.3086727203899098
 20
-0.5162074953565661
 30
0.0
 10
0.3098100553950305
 20
-0.5184821653668082
 30
0.0
 10
0.3104924563981035
 20
-0.5216667033811477
 30
0.0
 10
0.3081419640541866
 20
-0.5216667033811477
 30
0.0
 10
0.3057914717102698
 20
-0.5216667033811477
 30
0.0
 10
0.3034409793663529
 20
-0.5216667033811477
 30
0.0
 10
0.3032135123653281
 20
-0.5200744343739779
 30
0.0
 10
0.3025311113622557
 20
-0.5189370993688566
 30
0.0
 10
0.3016212433581579
 20
-0.5182546983657843
 30
0.0
 10
0.3004839083530372
 20
-0.5173448303616874
 30
0.0
 10
0.2993465733479166
 20
-0.5168898963596383
 30
0.0
 10
0.2977543043407471
 20
-0.5168898963596383
 30
0.0
 10
0.2963895023346009
 20
-0.5168898963596383
 30
0.0
 10
0.2954796343305037
 20
-0.5171173633606628
 30
0.0
 10
0.2947972333274314
 20
-0.5177997643637359
 30
0.0
 10
0.2941148323243583
 20
-0.5184821653668082
 30
0.0
 10
0.29365989832231
 20
-0.5191645663698811
 30
0.0
 10
0.29365989832231
 20
-0.5203019013750024
 30
0.0
 10
0.29365989832231
 20
-0.5209843023780748
 30
0.0
 10
0.2938873653233341
 20
-0.5216667033811477
 30
0.0
 10
0.2945697663264072
 20
-0.5221216373831962
 30
0.0
 10
0.2950247003284548
 20
-0.5228040383862691
 30
0.0
 10
0.2957071013315278
 20
-0.5230315053872929
 30
0.0
 10
0.296616969335625
 20
-0.5232589723883175
 30
0.0
 10
0.297526837339723
 20
-0.523713906390366
 30
0.0
 10
0.2986641723448435
 20
-0.5239413733913904
 30
0.0
 10
0.3002564413520131
 20
-0.5243963073934389
 30
0.0
 10
0.3025311113622557
 20
-0.5248512413954872
 30
0.0
 10
0.3043508473704494
 20
-0.5253061753975357
 30
0.0
 10
0.3057156493765941
 20
-0.5259885764006086
 30
0.0
 10
0.3070804513827403
 20
-0.526443510402657
 30
0.0
 10
0.3082177863878623
 20
-0.5273533784067539
 30
0.0
 10
0.309355121392983
 20
-0.5284907134118753
 30
0.0
 10
0.3102649893970801
 20
-0.5296280484169961
 30
0.0
 10
0.3107199233991291
 20
-0.5312203174241658
 30
0.0
 10
0.3107199233991291
 20
-0.533267520433384
 30
0.0
 10
0.3107199233991291
 20
-0.5357696574446507
 30
0.0
 10
0.3098100553950305
 20
-0.5378168604538688
 30
0.0
 10
0.3079903193868369
 20
-0.5394091294610386
 30
0.0
 10
0.3059431163776197
 20
-0.5410013984682084
 30
0.0
 10
0.3032135123653281
 20
-0.5414563324702568
 30
0.0
 10
0.3000289743509897
 20
-0.5414563324702568
 30
0.0
 10
0.2961620353335768
 20
-0.5414563324702568
 30
0.0
 10
0.2932049643202611
 20
-0.5407739314671843
 30
0.0
 10
0.2909302943100198
 20
-0.5391816624600146
 30
0.0
 10
0.2886556242997772
 20
-0.5373619264518203
 30
0.0
 10
0.2870633552926076
 20
-0.5350872564415783
 30
0.0
 10
0.286608421290558
 20
-0.5319027184272387
 30
0.0
 10
0.28903473596815
 20
-0.5319027184272387
 30
0.0
 10
0.2914610506457421
 20
-0.5319027184272387
 30
0.0
 10
0.2938873653233341
 20
-0.5319027184272387
 30
0.0
 10
0.2938873653233341
 20
-0.533267520433384
 30
0.0
 10
0.2945697663264072
 20
-0.5344048554385054
 30
0.0
 10
0.2957071013315278
 20
-0.5353147234426022
 30
0.0
 10
0.2968444363366498
 20
-0.5359971244456752
 30
0.0
 10
0.2982092383427946
 20
-0.5364520584477235
 30
0.0
 10
0.3000289743509897
 20
-0.5364520584477235
 30
0.0
 10
0.3011663093561103
 20
-0.5364520584477235
 30
0.0
 10
0.3023036443612309
 20
-0.5362245914466996
 30
0.0
 10
0.302986045364304
 20
-0.5355421904436267
 30
0.0
 10
0.3036684463673771
 20
-0.5348597894405538
 30
0.0
 10
0.3038959133684005
 20
-0.5341773884374809
 30
0.0
 10
0.3038959133684005
 20
-0.53304005343236
 30
0.0
 10
0.3038959133684005
 20
-0.5323576524292871
 30
0.0
 10
0.3036684463673771
 20
-0.5316752514262142
 30
0.0
 10
0.302986045364304
 20
-0.5309928504231418
 30
0.0
 10
0.3025311113622557
 20
-0.5305379164210934
 30
0.0
 10
0.3016212433581579
 20
-0.5300829824190451
 30
0.0
 10
0.3009388423550862
 20
-0.5298555154180206
 30
0.0
 10
0.3000289743509897
 20
-0.5296280484169961
 30
0.0
 10
0.2986641723448435
 20
-0.5291731144149476
 30
0.0
 10
0.297071903337674
 20
-0.5289456474139237
 30
0.0
 10
0.2950247003284548
 20
-0.5282632464108508
 30
0.0
 10
0.2932049643202611
 20
-0.5278083124088023
 30
0.0
 10
0.2918401623141164
 20
-0.5273533784067539
 30
0.0
 10
0.2904753603079709
 20
-0.5268984444047055
 30
0.0
 10
0.2893380253028502
 20
-0.5259885764006086
 30
0.0
 10
0.2884281572987517
 20
-0.5248512413954872
 30
0.0
 10
0.2875182892946552
 20
-0.523713906390366
 30
0.0
 10
0.2868358882915835
 20
-0.5221216373831962
 30
0.0
 10
0.2868358882915835
 20
-0.5203019013750024
 30
0.0
 10
0.2868358882915835
 20
-0.5177997643637359
 30
0.0
 10
0.2879732232967042
 20
-0.5157525613545176
 30
0.0
 10
0.2897929593048978
 20
-0.5141602923473478
 30
0.0
 10
0.2918401623141164
 20
-0.5125680233401781
 30
0.0
 10
0.2943422993253831
 20
-0.5116581553360813
 30
0.0
 10
0.2977543043407471
 20
-0.5116581553360813
 30
0.0
  0
SPLINE
  5
83
330
1F
100
AcDbEntity
  8
X-DIMENSIONS_GUIDE
100
AcDbSpline
210
0.0
220
0.0
230
1.0
 70
    11
 71
     3
 72
    53
 73
    49
 74
     0
 42
0.000000001
 43
0.0000000001
 40
0.0
 40
0.0
 40
0.0
 40
0.0
 40
1.0
 40
1.0
 40
1.0
 40
2.0
 40
2.0
 40
2.0
 40
3.0
 40
3.0
 40
3.0
 40
4.0
 40
4.0
 40
4.0
 40
5.0
 40
5.0
 40
5.0
 40
6.0
 40
6.0
 40
6.0
 40
7.0
 40
7.0
 40
7.0
 40
8.0
 40
8.0
 40
8.0
 40
9.0
 40
9.0
 40
9.0
 40
10.0
 40
10.0
 40
10.0
 40
11.0
 40
11.0
 40
11.0
 40
12.0
 40
12.0
 40
12.0
 40
13.0
 40
13.0
 40
13.0
 40
14.0
 40
14.0
 40
14.0
 40
15.0
 40
15.0
 40
15.0
 40
16.0
 40
16.0
 40
16.0
 40
16.0
 10
0.2700033302157886
 20
-0.5116581553360813
 30
0.0
 10
0.2734153352311526
 20
-0.5116581553360813
 30
0.0
 10
0.2761449392434427
 20
-0.5127954903412026
 30
0.0
 10
0.2781921422526619
 20
-0.5150701603514447
 30
0.0
 10
0.280239345261879
 20
-0.5171173633606628
 30
0.0
 10
0.2811492132659769
 20
-0.5203019013750024
 30
0.0
 10
0.2811492132659769
 20
-0.5243963073934389
 30
0.0
 10
0.2811492132659769
 20
-0.5300071600853702
 30
0.0
 10
0.2811492132659769
 20
-0.5356180127773015
 30
0.0
 10
0.2811492132659769
 20
-0.5412288654692328
 30
0.0
 10
0.2787228985883851
 20
-0.5412288654692328
 30
0.0
 10
0.2762965839107933
 20
-0.5412288654692328
 30
0.0
 10
0.2738702692332015
 20
-0.5412288654692328
 30
0.0
 10
0.2738702692332015
 20
-0.5358454797783255
 30
0.0
 10
0.2738702692332015
 20
-0.5304620940874184
 30
0.0
 10
0.2738702692332015
 20
-0.5250787083965112
 30
0.0
 10
0.2738702692332015
 20
-0.5228040383862691
 30
0.0
 10
0.2731878682301284
 20
-0.5209843023780748
 30
0.0
 10
0.2720505332250078
 20
-0.519846967372954
 30
0.0
 10
0.2709131982198858
 20
-0.5184821653668082
 30
0.0
 10
0.2690934622116921
 20
-0.5177997643637359
 30
0.0
 10
0.2670462592024729
 20
-0.5177997643637359
 30
0.0
 10
0.2649990561932558
 20
-0.5177997643637359
 30
0.0
 10
0.2631793201850621
 20
-0.5184821653668082
 30
0.0
 10
0.2620419851799401
 20
-0.519846967372954
 30
0.0
 10
0.2606771831737946
 20
-0.5212117693790993
 30
0.0
 10
0.2602222491717464
 20
-0.5232589723883175
 30
0.0
 10
0.2602222491717464
 20
-0.5257611093995841
 30
0.0
 10
0.2602222491717464
 20
-0.530917028089467
 30
0.0
 10
0.2602222491717464
 20
-0.5360729467793498
 30
0.0
 10
0.2602222491717464
 20
-0.5412288654692328
 30
0.0
 10
0.2577201121604796
 20
-0.5412288654692328
 30
0.0
 10
0.2552179751492129
 20
-0.5412288654692328
 30
0.0
 10
0.2527158381379461
 20
-0.5412288654692328
 30
0.0
 10
0.2527158381379461
 20
-0.5315236067588651
 30
0.0
 10
0.2527158381379461
 20
-0.5218183480484974
 30
0.0
 10
0.2527158381379461
 20
-0.5121130893381297
 30
0.0
 10
0.2552179751492129
 20
-0.5121130893381297
 30
0.0
 10
0.2577201121604796
 20
-0.5121130893381297
 30
0.0
 10
0.2602222491717464
 20
-0.5121130893381297
 30
0.0
 10
0.2602222491717464
 20
-0.514084470013673
 30
0.0
 10
0.2602222491717464
 20
-0.5160558506892164
 30
0.0
 10
0.2602222491717464
 20
-0.5180272313647598
 30
0.0
 10
0.2609046501748187
 20
-0.5159800283555416
 30
0.0
 10
0.2622694521809649
 20
-0.5143877593483718
 30
0.0
 10
0.2638617211881351
 20
-0.513250424343251
 30
0.0
 10
0.2656814571963289
 20
-0.5121130893381297
 30
0.0
 10
0.267728660205546
 20
-0.5116581553360813
 30
0.0
 10
0.2700033302157886
 20
-0.5116581553360813
 30
0.0
  0
SPLINE
  5
84
330
1F
100
AcDbEntity
  8
X-DIMENSIONS_GUIDE
100
AcDbSpline
210
0.0
220
0.0
230
1.0
 70
    11
 71
     3
 72
    29
 73
    25
 74
     0
 42
0.000000001
 43
0.0000000001
 40
0.0
 40
0.0
 40
0.0
 40
0.0
 40
1.0
 40
1.0
 40
1.0
 40
2.0
 40
2.0
 40
2.0
 40
3.0
 40
3.0
 40
3.0
 40
4.0
 40
4.0
 40
4.0
 40
5.0
 40
5.0
 40
5.0
 40
6.0
 40
6.0
 40
6.0
 40
7.0
 40
7.0
 40
7.0
 40
8.0
 40
8.0
 40
8.0
 40
8.0
 10
0.2324712750467886
 20
-0.5180272313647598
 30
0.0
 10
0.230196605036546
 20
-0.5180272313647598
 30
0.0
 10
0.2286043360293764
 20
-0.5189370993688566
 30
0.0
 10
0.2270120670222069
 20
-0.5203019013750024
 30
0.0
 10
0.2256472650160614
 20
-0.5218941703821722
 30
0.0
 10
0.2249648640129883
 20
-0.5239413733913904
 30
0.0
 10
0.2249648640129883
 20
-0.526670977403681
 30
0.0
 10
0.2249648640129883
 20
-0.5294005814159721
 30
0.0
 10
0.2256472650160614
 20
-0.5316752514262142
 30
0.0
 10
0.2270120670222069
 20
-0.53304005343236
 30
0.0
 10
0.2286043360293764
 20
-0.5346323224395299
 30
0.0
 10
0.230196605036546
 20
-0.5353147234426022
 30
0.0
 10
0.2324712750467886
 20
-0.5353147234426022
 30
0.0
 10
0.2345184780560064
 20
-0.5353147234426022
 30
0.0
 10
0.236110747063176
 20
-0.5346323224395299
 30
0.0
 10
0.2377030160703462
 20
-0.53304005343236
 30
0.0
 10
0.2390678180764917
 20
-0.5316752514262142
 30
0.0
 10
0.2397502190795641
 20
-0.5294005814159721
 30
0.0
 10
0.2397502190795641
 20
-0.526670977403681
 30
0.0
 10
0.2397502190795641
 20
-0.5239413733913904
 30
0.0
 10
0.2390678180764917
 20
-0.5218941703821722
 30
0.0
 10
0.2377030160703462
 20
-0.5203019013750024
 30
0.0
 10
0.236110747063176
 20
-0.5189370993688566
 30
0.0
 10
0.2345184780560064
 20
-0.5180272313647598
 30
0.0
 10
0.2324712750467886
 20
-0.5180272313647598
 30
0.0
  0
SPLINE
  5
85
330
1F
100
AcDbEntity
  8
X-DIMENSIONS_GUIDE
100
AcDbSpline
210
0.0
220
0.0
230
1.0
 70
    11
 71
     3
 72
    41
 73
    37
 74
     0
 42
0.000000001
 43
0.0000000001
 40
0.0
 40
0.0
 40
0.0
 40
0.0
 40
1.0
 40
1.0
 40
1.0
 40
2.0
 40
2.0
 40
2.0
 40
3.0
 40
3.0
 40
3.0
 40
4.0
 40
4.0
 40
4.0
 40
5.0
 40
5.0
 40
5.0
 40
6.0
 40
6.0
 40
6.0
 40
7.0
 40
7.0
 40
7.0
 40
8.0
 40
8.0
 40
8.0
 40
9.0
 40
9.0
 40
9.0
 40
10.0
 40
10.0
 40
10.0
 40
11.0
 40
11.0
 40
11.0
 40
12.0
 40
12.0
 40
12.0
 40
12.0
 10
0.2324712750467886
 20
-0.5116581553360813
 30
0.0
 10
0.2352008790590795
 20
-0.5116581553360813
 30
0.0
 10
0.2377030160703462
 20
-0.5123405563391537
 30
0.0
 10
0.2399776860805882
 20
-0.5134778913442749
 30
0.0
 10
0.2422523560908308
 20
-0.5146152263493963
 30
0.0
 10
0.2440720920990245
 20
-0.51643496235759
 30
0.0
 10
0.2454368941051706
 20
-0.5187096323678327
 30
0.0
 10
0.2468016961113154
 20
-0.5209843023780748
 30
0.0
 10
0.2474840971143885
 20
-0.523713906390366
 30
0.0
 10
0.2474840971143885
 20
-0.526670977403681
 30
0.0
 10
0.2474840971143885
 20
-0.5298555154180206
 30
0.0
 10
0.2468016961113154
 20
-0.5323576524292871
 30
0.0
 10
0.2454368941051706
 20
-0.5346323224395299
 30
0.0
 10
0.2440720920990245
 20
-0.5369069924497719
 30
0.0
 10
0.2422523560908308
 20
-0.5387267284579662
 30
0.0
 10
0.2399776860805882
 20
-0.539864063463087
 30
0.0
 10
0.2377030160703462
 20
-0.5410013984682084
 30
0.0
 10
0.2352008790590795
 20
-0.5414563324702568
 30
0.0
 10
0.2324712750467886
 20
-0.5414563324702568
 30
0.0
 10
0.2295142040334736
 20
-0.5414563324702568
 30
0.0
 10
0.2270120670222069
 20
-0.5410013984682084
 30
0.0
 10
0.2247373970119642
 20
-0.539864063463087
 30
0.0
 10
0.2224627270017216
 20
-0.5387267284579662
 30
0.0
 10
0.2206429909935279
 20
-0.5369069924497719
 30
0.0
 10
0.2192781889873825
 20
-0.5346323224395299
 30
0.0
 10
0.217913386981237
 20
-0.5323576524292871
 30
0.0
 10
0.2174584529791888
 20
-0.5298555154180206
 30
0.0
 10
0.2174584529791888
 20
-0.526670977403681
 30
0.0
 10
0.2174584529791888
 20
-0.523713906390366
 30
0.0
 10
0.217913386981237
 20
-0.5209843023780748
 30
0.0
 10
0.2192781889873825
 20
-0.5187096323678327
 30
0.0
 10
0.2206429909935279
 20
-0.51643496235759
 30
0.0
 10
0.2224627270017216
 20
-0.5146152263493963
 30
0.0
 10
0.2247373970119642
 20
-0.5134778913442749
 30
0.0
 10
0.2270120670222069
 20
-0.5123405563391537
 30
0.0
 10
0.2295142040334736
 20
-0.5116581553360813
 30
0.0
 10
0.2324712750467886
 20
-0.5116581553360813
 30
0.0
  0
POLYLINE
  5
86
330
1F
100
AcDbEntity
  8
X-DIMENSIONS_GUIDE
100
AcDb2dPolyline
 66
     1
 10
0.0
 20
0.0
 30
0.0
 70
     1
  0
VERTEX
  5
87
330
86
100
AcDbEntity
  8
X-DIMENSIONS_GUIDE
100
AcDbVertex
100
AcDb2dVertex
 10
0.2119992449546063
 20
-0.5121130893381297
 30
0.0
  0
VERTEX
  5
88
330
86
100
AcDbEntity
  8
X-DIMENSIONS_GUIDE
100
AcDbVertex
100
AcDb2dVertex
 10
0.2119992449546063
 20
-0.5412288654692328
 30
0.0
  0
VERTEX
  5
89
330
86
100
AcDbEntity
  8
X-DIMENSIONS_GUIDE
100
AcDbVertex
100
AcDb2dVertex
 10
0.2047203009218308
 20
-0.5412288654692328
 30
0.0
  0
VERTEX
  5
8A
330
86
100
AcDbEntity
  8
X-DIMENSIONS_GUIDE
100
AcDbVertex
100
AcDb2dVertex
 10
0.2047203009218308
 20
-0.5121130893381297
 30
0.0
  0
SEQEND
  5
8B
330
86
100
AcDbEntity
  8
X-DIMENSIONS_GUIDE
  0
SPLINE
  5
8C
330
1F
100
AcDbEntity
  8
X-DIMENSIONS_GUIDE
100
AcDbSpline
210
0.0
220
0.0
230
1.0
 70
    11
 71
     3
 72
    29
 73
    25
 74
     0
 42
0.000000001
 43
0.0000000001
 40
0.0
 40
0.0
 40
0.0
 40
0.0
 40
1.0
 40
1.0
 40
1.0
 40
2.0
 40
2.0
 40
2.0
 40
3.0
 40
3.0
 40
3.0
 40
4.0
 40
4.0
 40
4.0
 40
5.0
 40
5.0
 40
5.0
 40
6.0
 40
6.0
 40
6.0
 40
7.0
 40
7.0
 40
7.0
 40
8.0
 40
8.0
 40
8.0
 40
8.0
 10
0.2038104329177337
 20
-0.5036968103002324
 30
0.0
 10
0.2038104329177337
 20
-0.5025594752951116
 30
0.0
 10
0.2042653669197826
 20
-0.5014221402899902
 30
0.0
 10
0.204947767922855
 20
-0.5007397392869174
 30
0.0
 10
0.2058576359269514
 20
-0.5000573382838445
 30
0.0
 10
0.2069949709320735
 20
-0.499602404281796
 30
0.0
 10
0.2083597729382183
 20
-0.499602404281796
 30
0.0
 10
0.2097245749443644
 20
-0.499602404281796
 30
0.0
 10
0.2108619099494857
 20
-0.5000573382838445
 30
0.0
 10
0.2117717779535822
 20
-0.5007397392869174
 30
0.0
 10
0.2124541789566546
 20
-0.5014221402899902
 30
0.0
 10
0.2129091129587035
 20
-0.5025594752951116
 30
0.0
 10
0.2129091129587035
 20
-0.5036968103002324
 30
0.0
 10
0.2129091129587035
 20
-0.5048341453053538
 30
0.0
 10
0.2124541789566546
 20
-0.5057440133094505
 30
0.0
 10
0.2117717779535822
 20
-0.5064264143125236
 30
0.0
 10
0.2108619099494857
 20
-0.5073362823166203
 30
0.0
 10
0.2097245749443644
 20
-0.5075637493176449
 30
0.0
 10
0.2083597729382183
 20
-0.5075637493176449
 30
0.0
 10
0.2069949709320735
 20
-0.5075637493176449
 30
0.0
 10
0.2058576359269514
 20
-0.5073362823166203
 30
0.0
 10
0.204947767922855
 20
-0.5064264143125236
 30
0.0
 10
0.2042653669197826
 20
-0.5057440133094505
 30
0.0
 10
0.2038104329177337
 20
-0.5048341453053538
 30
0.0
 10
0.2038104329177337
 20
-0.5036968103002324
 30
0.0
  0
SPLINE
  5
8D
330
1F
100
AcDbEntity
  8
X-DIMENSIONS_GUIDE
100
AcDbSpline
210
0.0
220
0.0
230
1.0
 70
    11
 71
     3
 72
    95
 73
    91
 74
     0
 42
0.000000001
 43
0.0000000001
 40
0.0
 40
0.0
 40
0.0
 40
0.0
 40
1.0
 40
1.0
 40
1.0
 40
2.0
 40
2.0
 40
2.0
 40
3.0
 40
3.0
 40
3.0
 40
4.0
 40
4.0
 40
4.0
 40
5.0
 40
5.0
 40
5.0
 40
6.0
 40
6.0
 40
6.0
 40
7.0
 40
7.0
 40
7.0
 40
8.0
 40
8.0
 40
8.0
 40
9.0
 40
9.0
 40
9.0
 40
10.0
 40
10.0
 40
10.0
 40
11.0
 40
11.0
 40
11.0
 40
12.0
 40
12.0
 40
12.0
 40
13.0
 40
13.0
 40
13.0
 40
14.0
 40
14.0
 40
14.0
 40
15.0
 40
15.0
 40
15.0
 40
16.0
 40
16.0
 40
16.0
 40
17.0
 40
17.0
 40
17.0
 40
18.0
 40
18.0
 40
18.0
 40
19.0
 40
19.0
 40
19.0
 40
20.0
 40
20.0
 40
20.0
 40
21.0
 40
21.0
 40
21.0
 40
22.0
 40
22.0
 40
22.0
 40
23.0
 40
23.0
 40
23.0
 40
24.0
 40
24.0
 40
24.0
 40
25.0
 40
25.0
 40
25.0
 40
26.0
 40
26.0
 40
26.0
 40
27.0
 40
27.0
 40
27.0
 40
28.0
 40
28.0
 40
28.0
 40
29.0
 40
29.0
 40
29.0
 40
30.0
 40
30.0
 40
30.0
 40
30.0
 10
0.1860680068378429
 20
-0.5116581553360813
 30
0.0
 10
0.189707478854231
 20
-0.5116581553360813
 30
0.0
 10
0.1924370828665219
 20
-0.5125680233401781
 30
0.0
 10
0.1947117528767638
 20
-0.5143877593483718
 30
0.0
 10
0.1967589558859823
 20
-0.5162074953565661
 30
0.0
 10
0.1981237578921278
 20
-0.5184821653668082
 30
0.0
 10
0.1988061588952002
 20
-0.5216667033811477
 30
0.0
 10
0.1964556665512831
 20
-0.5216667033811477
 30
0.0
 10
0.1941051742073659
 20
-0.5216667033811477
 30
0.0
 10
0.1917546818634488
 20
-0.5216667033811477
 30
0.0
 10
0.1915272148624247
 20
-0.5200744343739779
 30
0.0
 10
0.1908448138593523
 20
-0.5189370993688566
 30
0.0
 10
0.189707478854231
 20
-0.5182546983657843
 30
0.0
 10
0.1887976108501338
 20
-0.5173448303616874
 30
0.0
 10
0.1874328088439884
 20
-0.5168898963596383
 30
0.0
 10
0.1858405398368188
 20
-0.5168898963596383
 30
0.0
 10
0.1847032048316975
 20
-0.5168898963596383
 30
0.0
 10
0.183793336827601
 20
-0.5171173633606628
 30
0.0
 10
0.1828834688235031
 20
-0.5177997643637359
 30
0.0
 10
0.1822010678204307
 20
-0.5184821653668082
 30
0.0
 10
0.1819736008194066
 20
-0.5191645663698811
 30
0.0
 10
0.1819736008194066
 20
-0.5203019013750024
 30
0.0
 10
0.1819736008194066
 20
-0.5209843023780748
 30
0.0
 10
0.1822010678204307
 20
-0.5216667033811477
 30
0.0
 10
0.1828834688235031
 20
-0.5221216373831962
 30
0.0
 10
0.1833384028255514
 20
-0.5228040383862691
 30
0.0
 10
0.1840208038286244
 20
-0.5230315053872929
 30
0.0
 10
0.1849306718327216
 20
-0.5232589723883175
 30
0.0
 10
0.1858405398368188
 20
-0.523713906390366
 30
0.0
 10
0.1869778748419394
 20
-0.5239413733913904
 30
0.0
 10
0.1885701438491097
 20
-0.5243963073934389
 30
0.0
 10
0.1908448138593523
 20
-0.5248512413954872
 30
0.0
 10
0.192664549867546
 20
-0.5253061753975357
 30
0.0
 10
0.1940293518736914
 20
-0.5259885764006086
 30
0.0
 10
0.1953941538798369
 20
-0.526443510402657
 30
0.0
 10
0.1965314888849582
 20
-0.5273533784067539
 30
0.0
 10
0.1976688238900788
 20
-0.5284907134118753
 30
0.0
 10
0.1985786918941767
 20
-0.5296280484169961
 30
0.0
 10
0.1990336258962249
 20
-0.5312203174241658
 30
0.0
 10
0.1990336258962249
 20
-0.533267520433384
 30
0.0
 10
0.1990336258962249
 20
-0.5357696574446507
 30
0.0
 10
0.1981237578921278
 20
-0.5378168604538688
 30
0.0
 10
0.19607655488291
 20
-0.5394091294610386
 30
0.0
 10
0.1942568188747155
 20
-0.5410013984682084
 30
0.0
 10
0.1915272148624247
 20
-0.5414563324702568
 30
0.0
 10
0.1881152098470607
 20
-0.5414563324702568
 30
0.0
 10
0.1844757378306727
 20
-0.5414563324702568
 30
0.0
 10
0.1812911998163342
 20
-0.5407739314671843
 30
0.0
 10
0.1790165298060916
 20
-0.5391816624600146
 30
0.0
 10
0.1767418597958489
 20
-0.5373619264518203
 30
0.0
 10
0.1753770577897035
 20
-0.5350872564415783
 30
0.0
 10
0.1749221237876553
 20
-0.5319027184272387
 30
0.0
 10
0.1772726161315724
 20
-0.5319027184272387
 30
0.0
 10
0.1796231084754895
 20
-0.5319027184272387
 30
0.0
 10
0.1819736008194066
 20
-0.5319027184272387
 30
0.0
 10
0.1822010678204307
 20
-0.533267520433384
 30
0.0
 10
0.1828834688235031
 20
-0.5344048554385054
 30
0.0
 10
0.1840208038286244
 20
-0.5353147234426022
 30
0.0
 10
0.1849306718327216
 20
-0.5359971244456752
 30
0.0
 10
0.1865229408398912
 20
-0.5364520584477235
 30
0.0
 10
0.1881152098470607
 20
-0.5364520584477235
 30
0.0
 10
0.1894800118532062
 20
-0.5364520584477235
 30
0.0
 10
0.1903898798573034
 20
-0.5362245914466996
 30
0.0
 10
0.1910722808603758
 20
-0.5355421904436267
 30
0.0
 10
0.1917546818634488
 20
-0.5348597894405538
 30
0.0
 10
0.1922096158654971
 20
-0.5341773884374809
 30
0.0
 10
0.1922096158654971
 20
-0.53304005343236
 30
0.0
 10
0.1922096158654971
 20
-0.5323576524292871
 30
0.0
 10
0.1917546818634488
 20
-0.5316752514262142
 30
0.0
 10
0.1912997478614006
 20
-0.5309928504231418
 30
0.0
 10
0.1906173468583275
 20
-0.5305379164210934
 30
0.0
 10
0.1899349458552551
 20
-0.5300829824190451
 30
0.0
 10
0.1890250778511579
 20
-0.5298555154180206
 30
0.0
 10
0.1883426768480856
 20
-0.5296280484169961
 30
0.0
 10
0.1869778748419394
 20
-0.5291731144149476
 30
0.0
 10
0.1853856058347705
 20
-0.5289456474139237
 30
0.0
 10
0.1833384028255514
 20
-0.5282632464108508
 30
0.0
 10
0.1815186668173576
 20
-0.5278083124088023
 30
0.0
 10
0.1801538648112129
 20
-0.5273533784067539
 30
0.0
 10
0.1787890628050668
 20
-0.5268984444047055
 30
0.0
 10
0.1776517277999461
 20
-0.5259885764006086
 30
0.0
 10
0.1765143927948248
 20
-0.5248512413954872
 30
0.0
 10
0.1756045247907276
 20
-0.523713906390366
 30
0.0
 10
0.1751495907886794
 20
-0.5221216373831962
 30
0.0
 10
0.1751495907886794
 20
-0.5203019013750024
 30
0.0
 10
0.1751495907886794
 20
-0.5177997643637359
 30
0.0
 10
0.1760594587927766
 20
-0.5157525613545176
 30
0.0
 10
0.1781066618019944
 20
-0.5141602923473478
 30
0.0
 10
0.1799263978101881
 20
-0.5125680233401781
 30
0.0
 10
0.182656001822479
 20
-0.5116581553360813
 30
0.0
 10
0.1860680068378429
 20
-0.5116581553360813
 30
0.0
  0
SPLINE
  5
8E
330
1F
100
AcDbEntity
  8
X-DIMENSIONS_GUIDE
100
AcDbSpline
210
0.0
220
0.0
230
1.0
 70
    11
 71
     3
 72
    53
 73
    49
 74
     0
 42
0.000000001
 43
0.0000000001
 40
0.0
 40
0.0
 40
0.0
 40
0.0
 40
1.0
 40
1.0
 40
1.0
 40
2.0
 40
2.0
 40
2.0
 40
3.0
 40
3.0
 40
3.0
 40
4.0
 40
4.0
 40
4.0
 40
5.0
 40
5.0
 40
5.0
 40
6.0
 40
6.0
 40
6.0
 40
7.0
 40
7.0
 40
7.0
 40
8.0
 40
8.0
 40
8.0
 40
9.0
 40
9.0
 40
9.0
 40
10.0
 40
10.0
 40
10.0
 40
11.0
 40
11.0
 40
11.0
 40
12.0
 40
12.0
 40
12.0
 40
13.0
 40
13.0
 40
13.0
 40
14.0
 40
14.0
 40
14.0
 40
15.0
 40
15.0
 40
15.0
 40
16.0
 40
16.0
 40
16.0
 40
16.0
 10
0.1583170327128852
 20
-0.5116581553360813
 30
0.0
 10
0.1617290377282491
 20
-0.5116581553360813
 30
0.0
 10
0.1644586417405393
 20
-0.5127954903412026
 30
0.0
 10
0.1665058447497585
 20
-0.5150701603514447
 30
0.0
 10
0.1685530477589756
 20
-0.5171173633606628
 30
0.0
 10
0.1694629157630735
 20
-0.5203019013750024
 30
0.0
 10
0.1694629157630735
 20
-0.5243963073934389
 30
0.0
 10
0.1694629157630735
 20
-0.5300071600853702
 30
0.0
 10
0.1694629157630735
 20
-0.5356180127773015
 30
0.0
 10
0.1694629157630735
 20
-0.5412288654692328
 30
0.0
 10
0.1669607787518065
 20
-0.5412288654692328
 30
0.0
 10
0.1644586417405395
 20
-0.5412288654692328
 30
0.0
 10
0.1619565047292725
 20
-0.5412288654692328
 30
0.0
 10
0.1619565047292725
 20
-0.5358454797783255
 30
0.0
 10
0.1619565047292725
 20
-0.5304620940874184
 30
0.0
 10
0.1619565047292725
 20
-0.5250787083965112
 30
0.0
 10
0.1619565047292725
 20
-0.5228040383862691
 30
0.0
 10
0.1615015707272243
 20
-0.5209843023780748
 30
0.0
 10
0.1603642357221037
 20
-0.519846967372954
 30
0.0
 10
0.1589994337159575
 20
-0.5184821653668082
 30
0.0
 10
0.157407164708788
 20
-0.5177997643637359
 30
0.0
 10
0.1553599616995701
 20
-0.5177997643637359
 30
0.0
 10
0.1533127586903516
 20
-0.5177997643637359
 30
0.0
 10
0.1514930226821579
 20
-0.5184821653668082
 30
0.0
 10
0.1503556876770366
 20
-0.519846967372954
 30
0.0
 10
0.1489908856708912
 20
-0.5212117693790993
 30
0.0
 10
0.1483084846678181
 20
-0.5232589723883175
 30
0.0
 10
0.1483084846678181
 20
-0.5257611093995841
 30
0.0
 10
0.1483084846678181
 20
-0.530917028089467
 30
0.0
 10
0.1483084846678181
 20
-0.5360729467793498
 30
0.0
 10
0.1483084846678181
 20
-0.5412288654692328
 30
0.0
 10
0.1458063476565516
 20
-0.5412288654692328
 30
0.0
 10
0.1433042106452851
 20
-0.5412288654692328
 30
0.0
 10
0.1408020736340186
 20
-0.5412288654692328
 30
0.0
 10
0.1408020736340186
 20
-0.5315236067588651
 30
0.0
 10
0.1408020736340186
 20
-0.5218183480484974
 30
0.0
 10
0.1408020736340186
 20
-0.5121130893381297
 30
0.0
 10
0.1433042106452851
 20
-0.5121130893381297
 30
0.0
 10
0.1458063476565516
 20
-0.5121130893381297
 30
0.0
 10
0.1483084846678181
 20
-0.5121130893381297
 30
0.0
 10
0.1483084846678181
 20
-0.514084470013673
 30
0.0
 10
0.1483084846678181
 20
-0.5160558506892164
 30
0.0
 10
0.1483084846678181
 20
-0.5180272313647598
 30
0.0
 10
0.1492183526719153
 20
-0.5159800283555416
 30
0.0
 10
0.1503556876770366
 20
-0.5143877593483718
 30
0.0
 10
0.152175423685231
 20
-0.513250424343251
 30
0.0
 10
0.1539951596934247
 20
-0.5121130893381297
 30
0.0
 10
0.1560423627026425
 20
-0.5116581553360813
 30
0.0
 10
0.1583170327128852
 20
-0.5116581553360813
 30
0.0
  0
SPLINE
  5
8F
330
1F
100
AcDbEntity
  8
X-DIMENSIONS_GUIDE
100
AcDbSpline
210
0.0
220
0.0
230
1.0
 70
    11
 71
     3
 72
    20
 73
    16
 74
     0
 42
0.000000001
 43
0.0000000001
 40
0.0
 40
0.0
 40
0.0
 40
0.0
 40
1.0
 40
1.0
 40
1.0
 40
2.0
 40
2.0
 40
2.0
 40
3.0
 40
3.0
 40
3.0
 40
4.0
 40
4.0
 40
4.0
 40
5.0
 40
5.0
 40
5.0
 40
5.0
 10
0.1280639215766606
 20
-0.5248512413954872
 30
0.0
 10
0.1282913885776848
 20
-0.5223491043842207
 30
0.0
 10
0.1276089875746124
 20
-0.5205293683760264
 30
0.0
 10
0.1262441855684669
 20
-0.5193920333709057
 30
0.0
 10
0.1248793835623215
 20
-0.5182546983657843
 30
0.0
 10
0.1232871145551519
 20
-0.5175722973627114
 30
0.0
 10
0.1212399115459334
 20
-0.5175722973627114
 30
0.0
 10
0.1191927085367149
 20
-0.5175722973627114
 30
0.0
 10
0.1176004395295454
 20
-0.5182546983657843
 30
0.0
 10
0.1162356375233999
 20
-0.5193920333709057
 30
0.0
 10
0.1148708355172552
 20
-0.5205293683760264
 30
0.0
 10
0.113960967513158
 20
-0.5223491043842207
 30
0.0
 10
0.113960967513158
 20
-0.5248512413954872
 30
0.0
 10
0.1186619522009922
 20
-0.5248512413954872
 30
0.0
 10
0.1233629368888264
 20
-0.5248512413954872
 30
0.0
 10
0.1280639215766606
 20
-0.5248512413954872
 30
0.0
  0
SPLINE
  5
90
330
1F
100
AcDbEntity
  8
X-DIMENSIONS_GUIDE
100
AcDbSpline
210
0.0
220
0.0
230
1.0
 70
    11
 71
     3
 72
    62
 73
    58
 74
     0
 42
0.000000001
 43
0.0000000001
 40
0.0
 40
0.0
 40
0.0
 40
0.0
 40
1.0
 40
1.0
 40
1.0
 40
2.0
 40
2.0
 40
2.0
 40
3.0
 40
3.0
 40
3.0
 40
4.0
 40
4.0
 40
4.0
 40
5.0
 40
5.0
 40
5.0
 40
6.0
 40
6.0
 40
6.0
 40
7.0
 40
7.0
 40
7.0
 40
8.0
 40
8.0
 40
8.0
 40
9.0
 40
9.0
 40
9.0
 40
10.0
 40
10.0
 40
10.0
 40
11.0
 40
11.0
 40
11.0
 40
12.0
 40
12.0
 40
12.0
 40
13.0
 40
13.0
 40
13.0
 40
14.0
 40
14.0
 40
14.0
 40
15.0
 40
15.0
 40
15.0
 40
16.0
 40
16.0
 40
16.0
 40
17.0
 40
17.0
 40
17.0
 40
18.0
 40
18.0
 40
18.0
 40
19.0
 40
19.0
 40
19.0
 40
19.0
 10
0.1355703326104609
 20
-0.5255336423985603
 30
0.0
 10
0.1355703326104609
 20
-0.5262160434016325
 30
0.0
 10
0.1355703326104609
 20
-0.5271259114057294
 30
0.0
 10
0.1353428656094368
 20
-0.5280357794098268
 30
0.0
 10
0.1282155662440105
 20
-0.5280357794098268
 30
0.0
 10
0.1210882668785842
 20
-0.5280357794098268
 30
0.0
 10
0.113960967513158
 20
-0.5280357794098268
 30
0.0
 10
0.113960967513158
 20
-0.5307653834221173
 30
0.0
 10
0.1146433685162303
 20
-0.5325851194303116
 30
0.0
 10
0.1160081705223758
 20
-0.5339499214364569
 30
0.0
 10
0.1173729725285212
 20
-0.5350872564415783
 30
0.0
 10
0.1189652415356915
 20
-0.5357696574446507
 30
0.0
 10
0.1207849775438852
 20
-0.5357696574446507
 30
0.0
 10
0.1226047135520796
 20
-0.5357696574446507
 30
0.0
 10
0.1239695155582243
 20
-0.5353147234426022
 30
0.0
 10
0.1251068505633456
 20
-0.5344048554385054
 30
0.0
 10
0.1262441855684669
 20
-0.5337224544354324
 30
0.0
 10
0.1271540535725642
 20
-0.5325851194303116
 30
0.0
 10
0.1273815205735883
 20
-0.5309928504231418
 30
0.0
 10
0.1300353022522044
 20
-0.5309928504231418
 30
0.0
 10
0.1326890839308206
 20
-0.5309928504231418
 30
0.0
 10
0.1353428656094368
 20
-0.5309928504231418
 30
0.0
 10
0.1348879316073879
 20
-0.53304005343236
 30
0.0
 10
0.1339780636032913
 20
-0.5348597894405538
 30
0.0
 10
0.1328407285981693
 20
-0.5364520584477235
 30
0.0
 10
0.1314759265920246
 20
-0.5380443274548933
 30
0.0
 10
0.1298836575848543
 20
-0.5394091294610386
 30
0.0
 10
0.1278364545756365
 20
-0.5403189974651355
 30
0.0
 10
0.125789251566418
 20
-0.5412288654692328
 30
0.0
 10
0.1237420485572002
 20
-0.5414563324702568
 30
0.0
 10
0.1212399115459334
 20
-0.5414563324702568
 30
0.0
 10
0.1182828405326184
 20
-0.5414563324702568
 30
0.0
 10
0.1157807035213517
 20
-0.5410013984682084
 30
0.0
 10
0.1137335005121339
 20
-0.539864063463087
 30
0.0
 10
0.1114588305018905
 20
-0.5387267284579662
 30
0.0
 10
0.1096390944936968
 20
-0.5369069924497719
 30
0.0
 10
0.1085017594885755
 20
-0.5346323224395299
 30
0.0
 10
0.1071369574824308
 20
-0.5323576524292871
 30
0.0
 10
0.1066820234803818
 20
-0.5298555154180206
 30
0.0
 10
0.1066820234803818
 20
-0.526670977403681
 30
0.0
 10
0.1066820234803818
 20
-0.523713906390366
 30
0.0
 10
0.1071369574824308
 20
-0.5209843023780748
 30
0.0
 10
0.1085017594885755
 20
-0.5187096323678327
 30
0.0
 10
0.1096390944936968
 20
-0.51643496235759
 30
0.0
 10
0.1114588305018905
 20
-0.5146152263493963
 30
0.0
 10
0.1137335005121339
 20
-0.5134778913442749
 30
0.0
 10
0.1157807035213517
 20
-0.5123405563391537
 30
0.0
 10
0.1182828405326184
 20
-0.5116581553360813
 30
0.0
 10
0.1212399115459334
 20
-0.5116581553360813
 30
0.0
 10
0.1241969825592485
 20
-0.5116581553360813
 30
0.0
 10
0.1266991195705152
 20
-0.5123405563391537
 30
0.0
 10
0.1287463225797337
 20
-0.5134778913442749
 30
0.0
 10
0.1310209925899757
 20
-0.5146152263493963
 30
0.0
 10
0.1326132615971459
 20
-0.51643496235759
 30
0.0
 10
0.1337505966022672
 20
-0.5184821653668082
 30
0.0
 10
0.1351153986084127
 20
-0.5205293683760264
 30
0.0
 10
0.1355703326104609
 20
-0.5228040383862691
 30
0.0
 10
0.1355703326104609
 20
-0.5255336423985603
 30
0.0
  0
SPLINE
  5
91
330
1F
100
AcDbEntity
  8
X-DIMENSIONS_GUIDE
100
AcDbSpline
210
0.0
220
0.0
230
1.0
 70
    11
 71
     3
 72
    86
 73
    82
 74
     0
 42
0.000000001
 43
0.0000000001
 40
0.0
 40
0.0
 40
0.0
 40
0.0
 40
1.0
 40
1.0
 40
1.0
 40
2.0
 40
2.0
 40
2.0
 40
3.0
 40
3.0
 40
3.0
 40
4.0
 40
4.0
 40
4.0
 40
5.0
 40
5.0
 40
5.0
 40
6.0
 40
6.0
 40
6.0
 40
7.0
 40
7.0
 40
7.0
 40
8.0
 40
8.0
 40
8.0
 40
9.0
 40
9.0
 40
9.0
 40
10.0
 40
10.0
 40
10.0
 40
11.0
 40
11.0
 40
11.0
 40
12.0
 40
12.0
 40
12.0
 40
13.0
 40
13.0
 40
13.0
 40
14.0
 40
14.0
 40
14.0
 40
15.0
 40
15.0
 40
15.0
 40
16.0
 40
16.0
 40
16.0
 40
17.0
 40
17.0
 40
17.0
 40
18.0
 40
18.0
 40
18.0
 40
19.0
 40
19.0
 40
19.0
 40
20.0
 40
20.0
 40
20.0
 40
21.0
 40
21.0
 40
21.0
 40
22.0
 40
22.0
 40
22.0
 40
23.0
 40
23.0
 40
23.0
 40
24.0
 40
24.0
 40
24.0
 40
25.0
 40
25.0
 40
25.0
 40
26.0
 40
26.0
 40
26.0
 40
27.0
 40
27.0
 40
27.0
 40
27.0
 10
0.0900769324056117
 20
-0.5116581553360813
 30
0.0
 10
0.0934889374209764
 20
-0.5116581553360813
 30
0.0
 10
0.0964460084342914
 20
-0.5127954903412026
 30
0.0
 10
0.0984932114435092
 20
-0.5148426933504202
 30
0.0
 10
0.1005404144527277
 20
-0.5171173633606628
 30
0.0
 10
0.1014502824568242
 20
-0.5203019013750024
 30
0.0
 10
0.1014502824568242
 20
-0.5243963073934389
 30
0.0
 10
0.1014502824568242
 20
-0.5300071600853702
 30
0.0
 10
0.1014502824568242
 20
-0.5356180127773015
 30
0.0
 10
0.1014502824568242
 20
-0.5412288654692328
 30
0.0
 10
0.0990239677792324
 20
-0.5412288654692328
 30
0.0
 10
0.0965976531016405
 20
-0.5412288654692328
 30
0.0
 10
0.0941713384240487
 20
-0.5412288654692328
 30
0.0
 10
0.0941713384240487
 20
-0.5358454797783255
 30
0.0
 10
0.0941713384240487
 20
-0.5304620940874184
 30
0.0
 10
0.0941713384240487
 20
-0.5250787083965112
 30
0.0
 10
0.0941713384240487
 20
-0.5228040383862691
 30
0.0
 10
0.0934889374209764
 20
-0.5212117693790993
 30
0.0
 10
0.092351602415855
 20
-0.519846967372954
 30
0.0
 10
0.0912142674107337
 20
-0.5187096323678327
 30
0.0
 10
0.0896219984035635
 20
-0.5180272313647598
 30
0.0
 10
0.0875747953943456
 20
-0.5180272313647598
 30
0.0
 10
0.0855275923851272
 20
-0.5180272313647598
 30
0.0
 10
0.0839353233779576
 20
-0.5187096323678327
 30
0.0
 10
0.0827979883728369
 20
-0.5200744343739779
 30
0.0
 10
0.0814331863666908
 20
-0.5214392363801238
 30
0.0
 10
0.0807507853636184
 20
-0.5232589723883175
 30
0.0
 10
0.0807507853636184
 20
-0.5257611093995841
 30
0.0
 10
0.0807507853636184
 20
-0.530917028089467
 30
0.0
 10
0.0807507853636184
 20
-0.5360729467793498
 30
0.0
 10
0.0807507853636184
 20
-0.5412288654692328
 30
0.0
 10
0.0783244706860264
 20
-0.5412288654692328
 30
0.0
 10
0.0758981560084343
 20
-0.5412288654692328
 30
0.0
 10
0.0734718413308423
 20
-0.5412288654692328
 30
0.0
 10
0.0734718413308423
 20
-0.5358454797783255
 30
0.0
 10
0.0734718413308423
 20
-0.5304620940874184
 30
0.0
 10
0.0734718413308423
 20
-0.5250787083965112
 30
0.0
 10
0.0734718413308423
 20
-0.5228040383862691
 30
0.0
 10
0.0727894403277699
 20
-0.5212117693790993
 30
0.0
 10
0.0716521053226486
 20
-0.519846967372954
 30
0.0
 10
0.0705147703175273
 20
-0.5187096323678327
 30
0.0
 10
0.0689225013103577
 20
-0.5180272313647598
 30
0.0
 10
0.0671027653021634
 20
-0.5180272313647598
 30
0.0
 10
0.0648280952919214
 20
-0.5180272313647598
 30
0.0
 10
0.0632358262847518
 20
-0.5187096323678327
 30
0.0
 10
0.0620984912796305
 20
-0.5200744343739779
 30
0.0
 10
0.0607336892734851
 20
-0.5214392363801238
 30
0.0
 10
0.0602787552714368
 20
-0.5232589723883175
 30
0.0
 10
0.0602787552714368
 20
-0.5257611093995841
 30
0.0
 10
0.0602787552714368
 20
-0.530917028089467
 30
0.0
 10
0.0602787552714368
 20
-0.5360729467793498
 30
0.0
 10
0.0602787552714368
 20
-0.5412288654692328
 30
0.0
 10
0.0577766182601701
 20
-0.5412288654692328
 30
0.0
 10
0.0552744812489033
 20
-0.5412288654692328
 30
0.0
 10
0.0527723442376366
 20
-0.5412288654692328
 30
0.0
 10
0.0527723442376366
 20
-0.5315236067588651
 30
0.0
 10
0.0527723442376366
 20
-0.5218183480484974
 30
0.0
 10
0.0527723442376366
 20
-0.5121130893381297
 30
0.0
 10
0.0552744812489033
 20
-0.5121130893381297
 30
0.0
 10
0.0577766182601701
 20
-0.5121130893381297
 30
0.0
 10
0.0602787552714368
 20
-0.5121130893381297
 30
0.0
 10
0.0602787552714368
 20
-0.5139328253463237
 30
0.0
 10
0.0602787552714368
 20
-0.5157525613545175
 30
0.0
 10
0.0602787552714368
 20
-0.5175722973627114
 30
0.0
 10
0.0609611562745092
 20
-0.5157525613545176
 30
0.0
 10
0.0620984912796305
 20
-0.5141602923473478
 30
0.0
 10
0.0639182272878242
 20
-0.513250424343251
 30
0.0
 10
0.0655104962949945
 20
-0.5121130893381297
 30
0.0
 10
0.0675576993042123
 20
-0.5116581553360813
 30
0.0
 10
0.0696049023134308
 20
-0.5116581553360813
 30
0.0
 10
0.0721070393246976
 20
-0.5116581553360813
 30
0.0
 10
0.0741542423339154
 20
-0.5121130893381297
 30
0.0
 10
0.0759739783421091
 20
-0.513250424343251
 30
0.0
 10
0.0775662473492786
 20
-0.5143877593483718
 30
0.0
 10
0.0789310493554241
 20
-0.5159800283555416
 30
0.0
 10
0.0798409173595213
 20
-0.5182546983657843
 30
0.0
 10
0.0807507853636184
 20
-0.5162074953565661
 30
0.0
 10
0.0821155873697639
 20
-0.5146152263493963
 30
0.0
 10
0.0839353233779576
 20
-0.5134778913442749
 30
0.0
 10
0.085755059386152
 20
-0.5121130893381297
 30
0.0
 10
0.0878022623953698
 20
-0.5116581553360813
 30
0.0
 10
0.0900769324056117
 20
-0.5116581553360813
 30
0.0
  0
POLYLINE
  5
92
330
1F
100
AcDbEntity
  8
X-DIMENSIONS_GUIDE
100
AcDb2dPolyline
 66
     1
 10
0.0
 20
0.0
 30
0.0
 70
     1
  0
VERTEX
  5
93
330
92
100
AcDbEntity
  8
X-DIMENSIONS_GUIDE
100
AcDbVertex
100
AcDb2dVertex
 10
0.0459483342069094
 20
-0.5121130893381297
 30
0.0
  0
VERTEX
  5
94
330
92
100
AcDbEntity
  8
X-DIMENSIONS_GUIDE
100
AcDbVertex
100
AcDb2dVertex
 10
0.0459483342069094
 20
-0.5412288654692328
 30
0.0
  0
VERTEX
  5
95
330
92
100
AcDbEntity
  8
X-DIMENSIONS_GUIDE
100
AcDbVertex
100
AcDb2dVertex
 10
0.0384419231731091
 20
-0.5412288654692328
 30
0.0
  0
VERTEX
  5
96
330
92
100
AcDbEntity
  8
X-DIMENSIONS_GUIDE
100
AcDbVertex
100
AcDb2dVertex
 10
0.0384419231731091
 20
-0.5121130893381297
 30
0.0
  0
SEQEND
  5
97
330
92
100
AcDbEntity
  8
X-DIMENSIONS_GUIDE
  0
SPLINE
  5
98
330
1F
100
AcDbEntity
  8
X-DIMENSIONS_GUIDE
100
AcDbSpline
210
0.0
220
0.0
230
1.0
 70
    11
 71
     3
 72
    29
 73
    25
 74
     0
 42
0.000000001
 43
0.0000000001
 40
0.0
 40
0.0
 40
0.0
 40
0.0
 40
1.0
 40
1.0
 40
1.0
 40
2.0
 40
2.0
 40
2.0
 40
3.0
 40
3.0
 40
3.0
 40
4.0
 40
4.0
 40
4.0
 40
5.0
 40
5.0
 40
5.0
 40
6.0
 40
6.0
 40
6.0
 40
7.0
 40
7.0
 40
7.0
 40
8.0
 40
8.0
 40
8.0
 40
8.0
 10
0.0377595221700367
 20
-0.5036968103002324
 30
0.0
 10
0.0377595221700367
 20
-0.5025594752951116
 30
0.0
 10
0.0379869891710608
 20
-0.5014221402899902
 30
0.0
 10
0.038896857175158
 20
-0.5007397392869174
 30
0.0
 10
0.0398067251792545
 20
-0.5000573382838445
 30
0.0
 10
0.0409440601843758
 20
-0.499602404281796
 30
0.0
 10
0.0423088621905213
 20
-0.499602404281796
 30
0.0
 10
0.0436736641966667
 20
-0.499602404281796
 30
0.0
 10
0.044810999201788
 20
-0.5000573382838445
 30
0.0
 10
0.0454934002048604
 20
-0.5007397392869174
 30
0.0
 10
0.0464032682089576
 20
-0.5014221402899902
 30
0.0
 10
0.0468582022110059
 20
-0.5025594752951116
 30
0.0
 10
0.0468582022110059
 20
-0.5036968103002324
 30
0.0
 10
0.0468582022110059
 20
-0.5048341453053538
 30
0.0
 10
0.0464032682089576
 20
-0.5057440133094505
 30
0.0
 10
0.0454934002048604
 20
-0.5064264143125236
 30
0.0
 10
0.044810999201788
 20
-0.5073362823166203
 30
0.0
 10
0.0436736641966667
 20
-0.5075637493176449
 30
0.0
 10
0.0423088621905213
 20
-0.5075637493176449
 30
0.0
 10
0.0409440601843758
 20
-0.5075637493176449
 30
0.0
 10
0.0398067251792545
 20
-0.5073362823166203
 30
0.0
 10
0.038896857175158
 20
-0.5064264143125236
 30
0.0
 10
0.0379869891710608
 20
-0.5057440133094505
 30
0.0
 10
0.0377595221700367
 20
-0.5048341453053538
 30
0.0
 10
0.0377595221700367
 20
-0.5036968103002324
 30
0.0
  0
SPLINE
  5
99
330
1F
100
AcDbEntity
  8
X-DIMENSIONS_GUIDE
100
AcDbSpline
210
0.0
220
0.0
230
1.0
 70
    11
 71
     3
 72
    26
 73
    22
 74
     0
 42
0.000000001
 43
0.0000000001
 40
0.0
 40
0.0
 40
0.0
 40
0.0
 40
1.0
 40
1.0
 40
1.0
 40
2.0
 40
2.0
 40
2.0
 40
3.0
 40
3.0
 40
3.0
 40
4.0
 40
4.0
 40
4.0
 40
5.0
 40
5.0
 40
5.0
 40
6.0
 40
6.0
 40
6.0
 40
7.0
 40
7.0
 40
7.0
 40
7.0
 10
0.0127381520573698
 20
-0.5346323224395299
 30
0.0
 10
0.0168325580758061
 20
-0.5346323224395299
 30
0.0
 10
0.0197896290891211
 20
-0.5337224544354324
 30
0.0
 10
0.0220642990993638
 20
-0.5314477844251903
 30
0.0
 10
0.0243389691096057
 20
-0.5294005814159721
 30
0.0
 10
0.0252488371137029
 20
-0.526443510402657
 30
0.0
 10
0.0252488371137029
 20
-0.5225765713852446
 30
0.0
 10
0.0252488371137029
 20
-0.5187096323678327
 30
0.0
 10
0.0243389691096057
 20
-0.5157525613545176
 30
0.0
 10
0.0220642990993638
 20
-0.5137053583452995
 30
0.0
 10
0.0197896290891211
 20
-0.5116581553360813
 30
0.0
 10
0.0168325580758061
 20
-0.5105208203309599
 30
0.0
 10
0.0127381520573698
 20
-0.5105208203309599
 30
0.0
 10
0.0109942383828506
 20
-0.5105208203309599
 30
0.0
 10
0.0092503247083314
 20
-0.5105208203309599
 30
0.0
 10
0.0075064110338122
 20
-0.5105208203309599
 30
0.0
 10
0.0075064110338122
 20
-0.5185579877004832
 30
0.0
 10
0.0075064110338122
 20
-0.5265951550700065
 30
0.0
 10
0.0075064110338122
 20
-0.5346323224395299
 30
0.0
 10
0.0092503247083314
 20
-0.5346323224395299
 30
0.0
 10
0.0109942383828506
 20
-0.5346323224395299
 30
0.0
 10
0.0127381520573698
 20
-0.5346323224395299
 30
0.0
  0
SPLINE
  5
9A
330
1F
100
AcDbEntity
  8
X-DIMENSIONS_GUIDE
100
AcDbSpline
210
0.0
220
0.0
230
1.0
 70
    11
 71
     3
 72
    32
 73
    28
 74
     0
 42
0.000000001
 43
0.0000000001
 40
0.0
 40
0.0
 40
0.0
 40
0.0
 40
1.0
 40
1.0
 40
1.0
 40
2.0
 40
2.0
 40
2.0
 40
3.0
 40
3.0
 40
3.0
 40
4.0
 40
4.0
 40
4.0
 40
5.0
 40
5.0
 40
5.0
 40
6.0
 40
6.0
 40
6.0
 40
7.0
 40
7.0
 40
7.0
 40
8.0
 40
8.0
 40
8.0
 40
9.0
 40
9.0
 40
9.0
 40
9.0
 10
0.0329827151485273
 20
-0.5225765713852446
 30
0.0
 10
0.0329827151485273
 20
-0.5262160434016325
 30
0.0
 10
0.0320728471444301
 20
-0.5296280484169961
 30
0.0
 10
0.0304805781372606
 20
-0.5323576524292871
 30
0.0
 10
0.0291157761311151
 20
-0.5353147234426022
 30
0.0
 10
0.0268411061208725
 20
-0.5373619264518203
 30
0.0
 10
0.0238840351075575
 20
-0.5389541954589901
 30
0.0
 10
0.0209269640942425
 20
-0.54054646446616
 30
0.0
 10
0.0175149590788792
 20
-0.5412288654692328
 30
0.0
 10
0.0134205530604422
 20
-0.5412288654692328
 30
0.0
 10
0.0089470353736321
 20
-0.5412288654692328
 30
0.0
 10
0.004473517686822
 20
-0.5412288654692328
 30
0.0
 10
0.0000000000000119
 20
-0.5412288654692328
 30
0.0
 10
0.0000000000000119
 20
-0.5287940027465742
 30
0.0
 10
0.0000000000000119
 20
-0.5163591400239155
 30
0.0
 10
0.0000000000000119
 20
-0.5039242773012569
 30
0.0
 10
0.004473517686822
 20
-0.5039242773012569
 30
0.0
 10
0.0089470353736321
 20
-0.5039242773012569
 30
0.0
 10
0.0134205530604422
 20
-0.5039242773012569
 30
0.0
 10
0.0175149590788792
 20
-0.5039242773012569
 30
0.0
 10
0.0209269640942425
 20
-0.5048341453053538
 30
0.0
 10
0.0238840351075575
 20
-0.5064264143125236
 30
0.0
 10
0.0268411061208725
 20
-0.5077912163186687
 30
0.0
 10
0.0291157761311151
 20
-0.5100658863289115
 30
0.0
 10
0.0304805781372606
 20
-0.5127954903412026
 30
0.0
 10
0.0320728471444301
 20
-0.5155250943534931
 30
0.0
 10
0.0329827151485273
 20
-0.5189370993688566
 30
0.0
 10
0.0329827151485273
 20
-0.5225765713852446
 30
0.0
  0
SPLINE
  5
9C
330
1F
100
AcDbEntity
  8
N-SYMB
100
AcDbSpline
210
0.0
220
0.0
230
1.0
 70
    11
 71
     3
 72
    71
 73
    67
 74
     0
 42
0.000000001
 43
0.0000000001
 40
0.0
 40
0.0
 40
0.0
 40
0.0
 40
1.0
 40
1.0
 40
1.0
 40
2.0
 40
2.0
 40
2.0
 40
3.0
 40
3.0
 40
3.0
 40
4.0
 40
4.0
 40
4.0
 40
5.0
 40
5.0
 40
5.0
 40
6.0
 40
6.0
 40
6.0
 40
7.0
 40
7.0
 40
7.0
 40
8.0
 40
8.0
 40
8.0
 40
9.0
 40
9.0
 40
9.0
 40
10.0
 40
10.0
 40
10.0
 40
11.0
 40
11.0
 40
11.0
 40
12.0
 40
12.0
 40
12.0
 40
13.0
 40
13.0
 40
13.0
 40
14.0
 40
14.0
 40
14.0
 40
15.0
 40
15.0
 40
15.0
 40
16.0
 40
16.0
 40
16.0
 40
17.0
 40
17.0
 40
17.0
 40
18.0
 40
18.0
 40
18.0
 40
19.0
 40
19.0
 40
19.0
 40
20.0
 40
20.0
 40
20.0
 40
21.0
 40
21.0
 40
21.0
 40
22.0
 40
22.0
 40
22.0
 40
22.0
 10
0.2566580016837759
 20
-0.3765590457167727
 30
0.0
 10
0.2566580016837759
 20
-0.378466676238861
 30
0.0
 10
0.2566580016837759
 20
-0.3803743067609494
 30
0.0
 10
0.2566580016837759
 20
-0.3822819372830377
 30
0.0
 10
0.2457142265833743
 20
-0.3822819372830377
 30
0.0
 10
0.2347704514829726
 20
-0.3822819372830377
 30
0.0
 10
0.223826676382571
 20
-0.3822819372830377
 30
0.0
 10
0.2235254715632939
 20
-0.3810771180059293
 30
0.0
 10
0.223826676382571
 20
-0.3795710939095437
 30
0.0
 10
0.2244290860211252
 20
-0.3780650698131582
 30
0.0
 10
0.2253327004789565
 20
-0.3759566360782184
 30
0.0
 10
0.226537519756065
 20
-0.3735469975240016
 30
0.0
 10
0.2283447486717276
 20
-0.3714385637890618
 30
0.0
 10
0.2304531824066674
 20
-0.3693301300541221
 30
0.0
 10
0.2328628209608843
 20
-0.3669204914999052
 30
0.0
 10
0.2364772787922096
 20
-0.3639084433071341
 30
0.0
 10
0.2418989655391975
 20
-0.3593903710179774
 30
0.0
 10
0.2455134233705228
 20
-0.3557759131866522
 30
0.0
 10
0.2476218571054626
 20
-0.3533662746324353
 30
0.0
 10
0.2494290860211252
 20
-0.3506554312589414
 30
0.0
 10
0.2503327004789565
 20
-0.3482457927047244
 30
0.0
 10
0.2503327004789565
 20
-0.3458361541505076
 30
0.0
 10
0.2503327004789565
 20
-0.3434265155962907
 30
0.0
 10
0.2494290860211252
 20
-0.3413180818613509
 30
0.0
 10
0.2479230619247397
 20
-0.3398120577649654
 30
0.0
 10
0.246115833009077
 20
-0.3380048288493028
 30
0.0
 10
0.2437061944548602
 20
-0.3371012143914715
 30
0.0
 10
0.2409953510813662
 20
-0.3371012143914715
 30
0.0
 10
0.2379833028885951
 20
-0.3371012143914715
 30
0.0
 10
0.2355736643343782
 20
-0.3380048288493028
 30
0.0
 10
0.2337664354187156
 20
-0.3398120577649654
 30
0.0
 10
0.231959206503053
 20
-0.3416192866806281
 30
0.0
 10
0.2310555920452216
 20
-0.344028925234845
 30
0.0
 10
0.2310555920452216
 20
-0.3473421782468931
 30
0.0
 10
0.2289471583102819
 20
-0.3471413750340417
 30
0.0
 10
0.2268387245753421
 20
-0.3469405718211904
 30
0.0
 10
0.2247302908404024
 20
-0.3467397686083389
 30
0.0
 10
0.2253327004789565
 20
-0.3419204914999052
 30
0.0
 10
0.2268387245753421
 20
-0.3383060336685798
 30
0.0
 10
0.2298507727681132
 20
-0.335896395114363
 30
0.0
 10
0.2325616161416071
 20
-0.3334867565601461
 30
0.0
 10
0.2364772787922096
 20
-0.3319807324637606
 30
0.0
 10
0.2409953510813662
 20
-0.3319807324637606
 30
0.0
 10
0.2458146281897999
 20
-0.3319807324637606
 30
0.0
 10
0.2497302908404023
 20
-0.3334867565601461
 30
0.0
 10
0.2524411342138963
 20
-0.3361975999336402
 30
0.0
 10
0.2554531824066674
 20
-0.3389084433071341
 30
0.0
 10
0.2566580016837759
 20
-0.3422216963191823
 30
0.0
 10
0.2566580016837759
 20
-0.3461373589697848
 30
0.0
 10
0.2566580016837759
 20
-0.3479445878854474
 30
0.0
 10
0.2563567968644987
 20
-0.3500530216203872
 30
0.0
 10
0.2554531824066674
 20
-0.3518602505360497
 30
0.0
 10
0.2545495679488361
 20
-0.3539686842709895
 30
0.0
 10
0.2533447486717276
 20
-0.3557759131866522
 30
0.0
 10
0.251537519756065
 20
-0.3581855517408691
 30
0.0
 10
0.2494290860211252
 20
-0.3602939854758088
 30
0.0
 10
0.2464170378283541
 20
-0.3630048288493028
 30
0.0
 10
0.2418989655391975
 20
-0.3669204914999052
 30
0.0
 10
0.2382845077078722
 20
-0.3699325396926763
 30
0.0
 10
0.2358748691536553
 20
-0.3720409734276161
 30
0.0
 10
0.234971254695824
 20
-0.3732457927047245
 30
0.0
 10
0.2337664354187156
 20
-0.3741494071625558
 30
0.0
 10
0.2328628209608843
 20
-0.3753542264396642
 30
0.0
 10
0.2322604113223301
 20
-0.3765590457167727
 30
0.0
 10
0.240392941442812
 20
-0.3765590457167727
 30
0.0
 10
0.248525471563294
 20
-0.3765590457167727
 30
0.0
 10
0.2566580016837759
 20
-0.3765590457167727
 30
0.0
  0
SPLINE
  5
9D
330
1F
100
AcDbEntity
  8
N-SYMB
100
AcDbSpline
210
0.0
220
0.0
230
1.0
 70
    11
 71
     3
 72
    71
 73
    67
 74
     0
 42
0.000000001
 43
0.0000000001
 40
0.0
 40
0.0
 40
0.0
 40
0.0
 40
1.0
 40
1.0
 40
1.0
 40
2.0
 40
2.0
 40
2.0
 40
3.0
 40
3.0
 40
3.0
 40
4.0
 40
4.0
 40
4.0
 40
5.0
 40
5.0
 40
5.0
 40
6.0
 40
6.0
 40
6.0
 40
7.0
 40
7.0
 40
7.0
 40
8.0
 40
8.0
 40
8.0
 40
9.0
 40
9.0
 40
9.0
 40
10.0
 40
10.0
 40
10.0
 40
11.0
 40
11.0
 40
11.0
 40
12.0
 40
12.0
 40
12.0
 40
13.0
 40
13.0
 40
13.0
 40
14.0
 40
14.0
 40
14.0
 40
15.0
 40
15.0
 40
15.0
 40
16.0
 40
16.0
 40
16.0
 40
17.0
 40
17.0
 40
17.0
 40
18.0
 40
18.0
 40
18.0
 40
19.0
 40
19.0
 40
19.0
 40
20.0
 40
20.0
 40
20.0
 40
21.0
 40
21.0
 40
21.0
 40
22.0
 40
22.0
 40
22.0
 40
22.0
 10
0.2661684868086084
 20
-0.369330130054122
 30
0.0
 10
0.2682769205435482
 20
-0.3691293268412706
 30
0.0
 10
0.2703853542784879
 20
-0.3689285236284192
 30
0.0
 10
0.2724937880134277
 20
-0.3687277204155678
 30
0.0
 10
0.273096197651982
 20
-0.372040973427616
 30
0.0
 10
0.2739998121098132
 20
-0.3741494071625557
 30
0.0
 10
0.2758070410254759
 20
-0.3759566360782184
 30
0.0
 10
0.2776142699411386
 20
-0.3774626601746039
 30
0.0
 10
0.2797227036760783
 20
-0.3783662746324353
 30
0.0
 10
0.2821323422302952
 20
-0.3783662746324353
 30
0.0
 10
0.2851443904230663
 20
-0.3783662746324353
 30
0.0
 10
0.2875540289772831
 20
-0.3771614553553268
 30
0.0
 10
0.2896624627122229
 20
-0.3747518168011099
 30
0.0
 10
0.2917708964471626
 20
-0.3726433830661702
 30
0.0
 10
0.292674510904994
 20
-0.3696313348733991
 30
0.0
 10
0.292674510904994
 20
-0.3660168770420738
 30
0.0
 10
0.292674510904994
 20
-0.3624024192107486
 30
0.0
 10
0.2917708964471626
 20
-0.3596915758372545
 30
0.0
 10
0.2899636675315
 20
-0.3575831421023148
 30
0.0
 10
0.2878552337965603
 20
-0.3557759131866521
 30
0.0
 10
0.2851443904230663
 20
-0.3545710939095437
 30
0.0
 10
0.2821323422302952
 20
-0.3545710939095437
 30
0.0
 10
0.2800239084953554
 20
-0.3545710939095437
 30
0.0
 10
0.2782166795796928
 20
-0.3551735035480978
 30
0.0
 10
0.2767106554833073
 20
-0.3560771180059292
 30
0.0
 10
0.2752046313869217
 20
-0.3569807324637606
 30
0.0
 10
0.2739998121098132
 20
-0.358185551740869
 30
0.0
 10
0.273096197651982
 20
-0.3593903710179774
 30
0.0
 10
0.2710881655234679
 20
-0.3591895678051261
 30
0.0
 10
0.2690801333949538
 20
-0.3589887645922746
 30
0.0
 10
0.2670721012664398
 20
-0.3587879613794232
 30
0.0
 10
0.268678526969251
 20
-0.3501534232268128
 30
0.0
 10
0.2702849526720623
 20
-0.3415188850742024
 30
0.0
 10
0.2718913783748735
 20
-0.3328843469215919
 30
0.0
 10
0.2802247117082068
 20
-0.3328843469215919
 30
0.0
 10
0.2885580450415401
 20
-0.3328843469215919
 30
0.0
 10
0.2968913783748735
 20
-0.3328843469215919
 30
0.0
 10
0.2968913783748735
 20
-0.3348923790501059
 30
0.0
 10
0.2968913783748735
 20
-0.33690041117862
 30
0.0
 10
0.2968913783748735
 20
-0.338908443307134
 30
0.0
 10
0.2902648723507771
 20
-0.3389084433071339
 30
0.0
 10
0.2836383663266808
 20
-0.3389084433071339
 30
0.0
 10
0.2770118603025843
 20
-0.338908443307134
 30
0.0
 10
0.276108245844753
 20
-0.3434265155962906
 30
0.0
 10
0.2752046313869217
 20
-0.3479445878854473
 30
0.0
 10
0.2743010169290904
 20
-0.3524626601746039
 30
0.0
 10
0.2773130651218614
 20
-0.3503542264396642
 30
0.0
 10
0.2803251133146326
 20
-0.3491494071625557
 30
0.0
 10
0.2836383663266807
 20
-0.3491494071625557
 30
0.0
 10
0.2881564386158374
 20
-0.3491494071625557
 30
0.0
 10
0.2917708964471626
 20
-0.3506554312589412
 30
0.0
 10
0.2947829446399337
 20
-0.3536674794517123
 30
0.0
 10
0.2977949928327048
 20
-0.3566795276444834
 30
0.0
 10
0.2993010169290903
 20
-0.3605951902950859
 30
0.0
 10
0.2993010169290903
 20
-0.3654144674035196
 30
0.0
 10
0.2993010169290903
 20
-0.3699325396926762
 30
0.0
 10
0.2980961976519819
 20
-0.3738482023432786
 30
0.0
 10
0.2953853542784879
 20
-0.3771614553553268
 30
0.0
 10
0.2920721012664397
 20
-0.3813783228252063
 30
0.0
 10
0.2878552337965603
 20
-0.3828843469215919
 30
0.0
 10
0.2821323422302952
 20
-0.3828843469215919
 30
0.0
 10
0.2776142699411386
 20
-0.3828843469215919
 30
0.0
 10
0.2739998121098132
 20
-0.3819807324637605
 30
0.0
 10
0.2709877639170422
 20
-0.3795710939095437
 30
0.0
 10
0.2682769205435482
 20
-0.3768602505360497
 30
0.0
 10
0.2664696916278855
 20
-0.3735469975240015
 30
0.0
 10
0.2661684868086084
 20
-0.369330130054122
 30
0.0
  0
SPLINE
  5
9E
330
1F
100
AcDbEntity
  8
N-SYMB
100
AcDbSpline
210
0.0
220
0.0
230
1.0
 70
    11
 71
     2
 72
    12
 73
     9
 74
     0
 42
0.000000001
 43
0.0000000001
 40
0.0
 40
0.0
 40
0.0
 40
1.0
 40
1.0
 40
2.0
 40
2.0
 40
3.0
 40
3.0
 40
4.0
 40
4.0
 40
4.0
 10
0.2084623838436918
 20
-0.3822819372830377
 30
0.0
 10
0.2084623838436918
 20
-0.3788180818613509
 30
0.0
 10
0.2084623838436918
 20
-0.3753542264396642
 30
0.0
 10
0.2119262392653785
 20
-0.3753542264396642
 30
0.0
 10
0.2153900946870652
 20
-0.3753542264396642
 30
0.0
 10
0.2153900946870652
 20
-0.3788180818613509
 30
0.0
 10
0.2153900946870652
 20
-0.3822819372830377
 30
0.0
 10
0.2119262392653785
 20
-0.3822819372830377
 30
0.0
 10
0.2084623838436918
 20
-0.3822819372830377
 30
0.0
  0
POLYLINE
  5
9F
330
1F
100
AcDbEntity
  8
N-SYMB
100
AcDb2dPolyline
 66
     1
 10
0.0
 20
0.0
 30
0.0
 70
     1
  0
VERTEX
  5
A0
330
9F
100
AcDbEntity
  8
N-SYMB
100
AcDbVertex
100
AcDb2dVertex
 10
0.0000000000000119
 20
-0.4436174959477411
 30
0.0
  0
VERTEX
  5
A1
330
9F
100
AcDbEntity
  8
N-SYMB
100
AcDbVertex
100
AcDb2dVertex
 10
0.0000000000000119
 20
-0.4055174959477412
 30
0.0
  0
VERTEX
  5
A2
330
9F
100
AcDbEntity
  8
N-SYMB
100
AcDbVertex
100
AcDb2dVertex
 10
0.2500000000000124
 20
-0.4055174959477412
 30
0.0
  0
VERTEX
  5
A3
330
9F
100
AcDbEntity
  8
N-SYMB
100
AcDbVertex
100
AcDb2dVertex
 10
0.2500000000000124
 20
-0.4436174959477411
 30
0.0
  0
SEQEND
  5
A4
330
9F
100
AcDbEntity
  8
N-SYMB
  0
POLYLINE
  5
A5
330
1F
100
AcDbEntity
  8
N-SYMB
100
AcDb2dPolyline
 66
     1
 10
0.0
 20
0.0
 30
0.0
 70
     1
  0
VERTEX
  5
A6
330
A5
100
AcDbEntity
  8
N-SYMB
100
AcDbVertex
100
AcDb2dVertex
 10
0.0000000000000119
 20
-0.2666999999999983
 30
0.0
  0
VERTEX
  5
A7
330
A5
100
AcDbEntity
  8
N-SYMB
100
AcDbVertex
100
AcDb2dVertex
 10
0.0000000000000119
 20
-0.2285999999999983
 30
0.0
  0
VERTEX
  5
A8
330
A5
100
AcDbEntity
  8
N-SYMB
100
AcDbVertex
100
AcDb2dVertex
 10
0.3048000000000119
 20
-0.2285999999999983
 30
0.0
  0
VERTEX
  5
A9
330
A5
100
AcDbEntity
  8
N-SYMB
100
AcDbVertex
100
AcDb2dVertex
 10
0.3048000000000119
 20
-0.2666999999999983
 30
0.0
  0
SEQEND
  5
AA
330
A5
100
AcDbEntity
  8
N-SYMB
  0
SPLINE
  5
AB
330
1F
100
AcDbEntity
  8
N-SYMB
100
AcDbSpline
210
0.0
220
0.0
230
1.0
 70
    11
 71
     3
 72
    41
 73
    37
 74
     0
 42
0.000000001
 43
0.0000000001
 40
0.0
 40
0.0
 40
0.0
 40
0.0
 40
1.0
 40
1.0
 40
1.0
 40
2.0
 40
2.0
 40
2.0
 40
3.0
 40
3.0
 40
3.0
 40
4.0
 40
4.0
 40
4.0
 40
5.0
 40
5.0
 40
5.0
 40
6.0
 40
6.0
 40
6.0
 40
7.0
 40
7.0
 40
7.0
 40
8.0
 40
8.0
 40
8.0
 40
9.0
 40
9.0
 40
9.0
 40
10.0
 40
10.0
 40
10.0
 40
11.0
 40
11.0
 40
11.0
 40
12.0
 40
12.0
 40
12.0
 40
12.0
 10
0.0038296041308254
 20
-0.1806656461545719
 30
0.0
 10
0.0038296041308254
 20
-0.1749427545883068
 30
0.0
 10
0.0044320137693796
 20
-0.1701234774798731
 30
0.0
 10
0.005636833046488
 20
-0.1665090196485478
 30
0.0
 10
0.0068416523235965
 20
-0.1628945618172225
 30
0.0
 10
0.0086488812392591
 20
-0.1601837184437285
 30
0.0
 10
0.011058519793476
 20
-0.1580752847087888
 30
0.0
 10
0.0134681583476928
 20
-0.1562680557931261
 30
0.0
 10
0.0164802065404639
 20
-0.1550632365160177
 30
0.0
 10
0.0200946643717892
 20
-0.1550632365160177
 30
0.0
 10
0.0228055077452832
 20
-0.1550632365160177
 30
0.0
 10
0.0252151462995001
 20
-0.1556656461545719
 30
0.0
 10
0.0273235800344398
 20
-0.1568704654316803
 30
0.0
 10
0.0294320137693796
 20
-0.1577740798895117
 30
0.0
 10
0.0309380378657651
 20
-0.1595813088051743
 30
0.0
 10
0.0324440619621507
 20
-0.1613885377208369
 30
0.0
 10
0.0336488812392591
 20
-0.1634969714557767
 30
0.0
 10
0.0345524956970904
 20
-0.1659066100099936
 30
0.0
 10
0.0354561101549218
 20
-0.1689186582027647
 30
0.0
 10
0.036058519793476
 20
-0.1719307063955358
 30
0.0
 10
0.0366609294320302
 20
-0.1758463690461382
 30
0.0
 10
0.0366609294320302
 20
-0.1806656461545719
 30
0.0
 10
0.0366609294320302
 20
-0.1866897425401141
 30
0.0
 10
0.036058519793476
 20
-0.1915090196485478
 30
0.0
 10
0.0348537005163675
 20
-0.1951234774798731
 30
0.0
 10
0.0336488812392591
 20
-0.1987379353111984
 30
0.0
 10
0.0318416523235965
 20
-0.2014487786846924
 30
0.0
 10
0.0294320137693796
 20
-0.2035572124196321
 30
0.0
 10
0.0270223752151627
 20
-0.2053644413352948
 30
0.0
 10
0.0240103270223916
 20
-0.205966850973849
 30
0.0
 10
0.0200946643717892
 20
-0.205966850973849
 30
0.0
 10
0.0152753872633555
 20
-0.205966850973849
 30
0.0
 10
0.0116609294320302
 20
-0.2047620316967406
 30
0.0
 10
0.0089500860585362
 20
-0.2011475738654153
 30
0.0
 10
0.005636833046488
 20
-0.1969307063955358
 30
0.0
 10
0.0038296041308254
 20
-0.1903042003714394
 30
0.0
 10
0.0038296041308254
 20
-0.1806656461545719
 30
0.0
  0
SPLINE
  5
AC
330
1F
100
AcDbEntity
  8
N-SYMB
100
AcDbSpline
210
0.0
220
0.0
230
1.0
 70
    11
 71
     3
 72
    29
 73
    25
 74
     0
 42
0.000000001
 43
0.0000000001
 40
0.0
 40
0.0
 40
0.0
 40
0.0
 40
1.0
 40
1.0
 40
1.0
 40
2.0
 40
2.0
 40
2.0
 40
3.0
 40
3.0
 40
3.0
 40
4.0
 40
4.0
 40
4.0
 40
5.0
 40
5.0
 40
5.0
 40
6.0
 40
6.0
 40
6.0
 40
7.0
 40
7.0
 40
7.0
 40
8.0
 40
8.0
 40
8.0
 40
8.0
 10
0.0101549053356446
 20
-0.1806656461545719
 30
0.0
 10
0.0101549053356446
 20
-0.1890993810943309
 30
0.0
 10
0.011058519793476
 20
-0.1945210678413189
 30
0.0
 10
0.0131669535284157
 20
-0.1972319112148129
 30
0.0
 10
0.0149741824440784
 20
-0.1999427545883068
 30
0.0
 10
0.0173838209982953
 20
-0.2014487786846924
 30
0.0
 10
0.0200946643717892
 20
-0.2014487786846924
 30
0.0
 10
0.0231067125645603
 20
-0.2014487786846924
 30
0.0
 10
0.0255163511187772
 20
-0.1999427545883068
 30
0.0
 10
0.0273235800344398
 20
-0.1972319112148129
 30
0.0
 10
0.0291308089501025
 20
-0.1945210678413189
 30
0.0
 10
0.0303356282272109
 20
-0.1890993810943309
 30
0.0
 10
0.0303356282272109
 20
-0.1806656461545719
 30
0.0
 10
0.0303356282272109
 20
-0.17253311603409
 30
0.0
 10
0.0291308089501025
 20
-0.167111429287102
 30
0.0
 10
0.0273235800344398
 20
-0.164400585913608
 30
0.0
 10
0.0255163511187772
 20
-0.1616897425401141
 30
0.0
 10
0.0231067125645603
 20
-0.1601837184437285
 30
0.0
 10
0.0200946643717892
 20
-0.1601837184437285
 30
0.0
 10
0.0173838209982953
 20
-0.1601837184437285
 30
0.0
 10
0.0149741824440784
 20
-0.1613885377208369
 30
0.0
 10
0.0134681583476928
 20
-0.1637981762750538
 30
0.0
 10
0.0113597246127531
 20
-0.1668102244678249
 30
0.0
 10
0.0101549053356446
 20
-0.17253311603409
 30
0.0
 10
0.0101549053356446
 20
-0.1806656461545719
 30
0.0
  0
SPLINE
  5
AD
330
1F
100
AcDbEntity
  8
N-SYMB
100
AcDbSpline
210
0.0
220
0.0
230
1.0
 70
    11
 71
     3
 72
    32
 73
    28
 74
     0
 42
0.000000001
 43
0.0000000001
 40
0.0
 40
0.0
 40
0.0
 40
0.0
 40
1.0
 40
1.0
 40
1.0
 40
2.0
 40
2.0
 40
2.0
 40
3.0
 40
3.0
 40
3.0
 40
4.0
 40
4.0
 40
4.0
 40
5.0
 40
5.0
 40
5.0
 40
6.0
 40
6.0
 40
6.0
 40
7.0
 40
7.0
 40
7.0
 40
8.0
 40
8.0
 40
8.0
 40
9.0
 40
9.0
 40
9.0
 40
9.0
 10
0.0441910499139579
 20
-0.1619909473593912
 30
0.0
 10
0.0441910499139579
 20
-0.1595813088051743
 30
0.0
 10
0.0441910499139579
 20
-0.1571716702509574
 30
0.0
 10
0.0441910499139579
 20
-0.1547620316967406
 30
0.0
 10
0.0463998852553234
 20
-0.1547620316967406
 30
0.0
 10
0.0486087205966888
 20
-0.1547620316967406
 30
0.0
 10
0.0508175559380543
 20
-0.1547620316967406
 30
0.0
 10
0.0508175559380543
 20
-0.1566696622188289
 30
0.0
 10
0.0508175559380543
 20
-0.1585772927409173
 30
0.0
 10
0.0508175559380543
 20
-0.1604849232630056
 30
0.0
 10
0.0508175559380543
 20
-0.1634969714557767
 30
0.0
 10
0.0505163511187772
 20
-0.1659066100099936
 30
0.0
 10
0.0496127366609459
 20
-0.167111429287102
 30
0.0
 10
0.0487091222031145
 20
-0.1689186582027647
 30
0.0
 10
0.047203098106729
 20
-0.1704246822991502
 30
0.0
 10
0.0450946643717892
 20
-0.1713282967569816
 30
0.0
 10
0.0445926563396607
 20
-0.1705250839055759
 30
0.0
 10
0.0440906483075322
 20
-0.1697218710541703
 30
0.0
 10
0.0435886402754037
 20
-0.1689186582027647
 30
0.0
 10
0.0447934595525121
 20
-0.1683162485642105
 30
0.0
 10
0.0456970740103434
 20
-0.1677138389256563
 30
0.0
 10
0.0462994836488977
 20
-0.1665090196485478
 30
0.0
 10
0.0469018932874519
 20
-0.1653042003714394
 30
0.0
 10
0.047203098106729
 20
-0.1637981762750538
 30
0.0
 10
0.047203098106729
 20
-0.1619909473593912
 30
0.0
 10
0.046199082042472
 20
-0.1619909473593912
 30
0.0
 10
0.0451950659782149
 20
-0.1619909473593912
 30
0.0
 10
0.0441910499139579
 20
-0.1619909473593912
 30
0.0
  0
SPLINE
  5
AE
330
1F
100
AcDbEntity
  8
N-SYMB
100
AcDbSpline
210
0.0
220
0.0
230
1.0
 70
    11
 71
     3
 72
    32
 73
    28
 74
     0
 42
0.000000001
 43
0.0000000001
 40
0.0
 40
0.0
 40
0.0
 40
0.0
 40
1.0
 40
1.0
 40
1.0
 40
2.0
 40
2.0
 40
2.0
 40
3.0
 40
3.0
 40
3.0
 40
4.0
 40
4.0
 40
4.0
 40
5.0
 40
5.0
 40
5.0
 40
6.0
 40
6.0
 40
6.0
 40
7.0
 40
7.0
 40
7.0
 40
8.0
 40
8.0
 40
8.0
 40
9.0
 40
9.0
 40
9.0
 40
9.0
 10
0.3060048192771203
 20
-0.2053644413352948
 30
0.0
 10
0.3039967871486063
 20
-0.2053644413352948
 30
0.0
 10
0.3019887550200922
 20
-0.2053644413352948
 30
0.0
 10
0.2999807228915782
 20
-0.2053644413352948
 30
0.0
 10
0.2999807228915782
 20
-0.1923122324999534
 30
0.0
 10
0.2999807228915782
 20
-0.179260023664612
 30
0.0
 10
0.2999807228915782
 20
-0.1662078148292707
 30
0.0
 10
0.2984746987951926
 20
-0.1677138389256563
 30
0.0
 10
0.2963662650602528
 20
-0.1692198630220418
 30
0.0
 10
0.293956626506036
 20
-0.1704246822991502
 30
0.0
 10
0.2915469879518191
 20
-0.1719307063955358
 30
0.0
 10
0.2894385542168794
 20
-0.1731355256726442
 30
0.0
 10
0.2876313253012167
 20
-0.1737379353111984
 30
0.0
 10
0.2876313253012167
 20
-0.1717299031826844
 30
0.0
 10
0.2876313253012167
 20
-0.1697218710541703
 30
0.0
 10
0.2876313253012167
 20
-0.1677138389256563
 30
0.0
 10
0.2909445783132649
 20
-0.1662078148292707
 30
0.0
 10
0.293956626506036
 20
-0.1640993810943309
 30
0.0
 10
0.29666746987953
 20
-0.1619909473593912
 30
0.0
 10
0.2990771084337468
 20
-0.1595813088051743
 30
0.0
 10
0.3008843373494094
 20
-0.1574728750702346
 30
0.0
 10
0.3020891566265179
 20
-0.1550632365160177
 30
0.0
 10
0.303394377510052
 20
-0.1550632365160177
 30
0.0
 10
0.3046995983935861
 20
-0.1550632365160177
 30
0.0
 10
0.3060048192771203
 20
-0.1550632365160177
 30
0.0
 10
0.3060048192771203
 20
-0.1718303047891101
 30
0.0
 10
0.3060048192771203
 20
-0.1885973730622025
 30
0.0
 10
0.3060048192771203
 20
-0.2053644413352948
 30
0.0
  0
SPLINE
  5
AF
330
1F
100
AcDbEntity
  8
N-SYMB
100
AcDbSpline
210
0.0
220
0.0
230
1.0
 70
    11
 71
     3
 72
    32
 73
    28
 74
     0
 42
0.000000001
 43
0.0000000001
 40
0.0
 40
0.0
 40
0.0
 40
0.0
 40
1.0
 40
1.0
 40
1.0
 40
2.0
 40
2.0
 40
2.0
 40
3.0
 40
3.0
 40
3.0
 40
4.0
 40
4.0
 40
4.0
 40
5.0
 40
5.0
 40
5.0
 40
6.0
 40
6.0
 40
6.0
 40
7.0
 40
7.0
 40
7.0
 40
8.0
 40
8.0
 40
8.0
 40
9.0
 40
9.0
 40
9.0
 40
9.0
 10
0.3231734939759155
 20
-0.1619909473593912
 30
0.0
 10
0.3231734939759155
 20
-0.1595813088051743
 30
0.0
 10
0.3231734939759155
 20
-0.1571716702509574
 30
0.0
 10
0.3231734939759155
 20
-0.1547620316967406
 30
0.0
 10
0.3253823293172809
 20
-0.1547620316967406
 30
0.0
 10
0.3275911646586464
 20
-0.1547620316967406
 30
0.0
 10
0.3298000000000119
 20
-0.1547620316967406
 30
0.0
 10
0.3298000000000119
 20
-0.1566696622188289
 30
0.0
 10
0.3298000000000119
 20
-0.1585772927409173
 30
0.0
 10
0.3298000000000119
 20
-0.1604849232630056
 30
0.0
 10
0.3298000000000119
 20
-0.1634969714557767
 30
0.0
 10
0.3294987951807348
 20
-0.1659066100099936
 30
0.0
 10
0.3285951807229034
 20
-0.167111429287102
 30
0.0
 10
0.3276915662650721
 20
-0.1689186582027647
 30
0.0
 10
0.3261855421686866
 20
-0.1704246822991502
 30
0.0
 10
0.3240771084337468
 20
-0.1713282967569816
 30
0.0
 10
0.3235751004016183
 20
-0.1705250839055759
 30
0.0
 10
0.3230730923694898
 20
-0.1697218710541703
 30
0.0
 10
0.3225710843373613
 20
-0.1689186582027647
 30
0.0
 10
0.3237759036144697
 20
-0.1683162485642105
 30
0.0
 10
0.324679518072301
 20
-0.1677138389256563
 30
0.0
 10
0.3252819277108552
 20
-0.1665090196485478
 30
0.0
 10
0.3258843373494095
 20
-0.1653042003714394
 30
0.0
 10
0.3261855421686866
 20
-0.1637981762750538
 30
0.0
 10
0.3261855421686866
 20
-0.1619909473593912
 30
0.0
 10
0.3251815261044295
 20
-0.1619909473593912
 30
0.0
 10
0.3241775100401725
 20
-0.1619909473593912
 30
0.0
 10
0.3231734939759155
 20
-0.1619909473593912
 30
0.0
  0
SPLINE
  5
B0
330
1F
100
AcDbEntity
  8
N-SYMB
100
AcDbSpline
210
0.0
220
0.0
230
1.0
 70
    11
 71
     3
 72
    41
 73
    37
 74
     0
 42
0.000000001
 43
0.0000000001
 40
0.0
 40
0.0
 40
0.0
 40
0.0
 40
1.0
 40
1.0
 40
1.0
 40
2.0
 40
2.0
 40
2.0
 40
3.0
 40
3.0
 40
3.0
 40
4.0
 40
4.0
 40
4.0
 40
5.0
 40
5.0
 40
5.0
 40
6.0
 40
6.0
 40
6.0
 40
7.0
 40
7.0
 40
7.0
 40
8.0
 40
8.0
 40
8.0
 40
9.0
 40
9.0
 40
9.0
 40
10.0
 40
10.0
 40
10.0
 40
11.0
 40
11.0
 40
11.0
 40
12.0
 40
12.0
 40
12.0
 40
12.0
 10
0.0000000000000117
 20
-0.3564891638060574
 30
0.0
 10
0.0000000000000117
 20
-0.3507662722397923
 30
0.0
 10
0.0006024096385659
 20
-0.3459469951313586
 30
0.0
 10
0.0018072289156744
 20
-0.3423325373000333
 30
0.0
 10
0.0030120481927828
 20
-0.338718079468708
 30
0.0
 10
0.0048192771084455
 20
-0.336007236095214
 30
0.0
 10
0.0072289156626623
 20
-0.3338988023602742
 30
0.0
 10
0.0096385542168792
 20
-0.3320915734446116
 30
0.0
 10
0.0126506024096503
 20
-0.3308867541675032
 30
0.0
 10
0.0162650602409756
 20
-0.3308867541675032
 30
0.0
 10
0.0189759036144695
 20
-0.3308867541675032
 30
0.0
 10
0.0213855421686864
 20
-0.3314891638060574
 30
0.0
 10
0.0234939759036262
 20
-0.3326939830831658
 30
0.0
 10
0.0256024096385659
 20
-0.3335975975409971
 30
0.0
 10
0.0271084337349515
 20
-0.3354048264566598
 30
0.0
 10
0.028614457831337
 20
-0.3372120553723225
 30
0.0
 10
0.0298192771084455
 20
-0.3393204891072622
 30
0.0
 10
0.0307228915662768
 20
-0.3417301276614791
 30
0.0
 10
0.0316265060241081
 20
-0.3447421758542502
 30
0.0
 10
0.0322289156626623
 20
-0.3477542240470213
 30
0.0
 10
0.0328313253012165
 20
-0.3516698866976237
 30
0.0
 10
0.0328313253012165
 20
-0.3564891638060574
 30
0.0
 10
0.0328313253012165
 20
-0.3625132601915996
 30
0.0
 10
0.0322289156626623
 20
-0.3673325373000332
 30
0.0
 10
0.0310240963855539
 20
-0.3709469951313586
 30
0.0
 10
0.0298192771084455
 20
-0.3745614529626838
 30
0.0
 10
0.0280120481927828
 20
-0.3772722963361779
 30
0.0
 10
0.0256024096385659
 20
-0.3793807300711176
 30
0.0
 10
0.0231927710843491
 20
-0.3811879589867803
 30
0.0
 10
0.020180722891578
 20
-0.3817903686253345
 30
0.0
 10
0.0162650602409756
 20
-0.3817903686253345
 30
0.0
 10
0.0114457831325418
 20
-0.3817903686253345
 30
0.0
 10
0.0078313253012165
 20
-0.380585549348226
 30
0.0
 10
0.0051204819277226
 20
-0.3769710915169008
 30
0.0
 10
0.0018072289156744
 20
-0.3727542240470212
 30
0.0
 10
0.0000000000000117
 20
-0.3661277180229248
 30
0.0
 10
0.0000000000000117
 20
-0.3564891638060574
 30
0.0
  0
SPLINE
  5
B1
330
1F
100
AcDbEntity
  8
N-SYMB
100
AcDbSpline
210
0.0
220
0.0
230
1.0
 70
    11
 71
     3
 72
    29
 73
    25
 74
     0
 42
0.000000001
 43
0.0000000001
 40
0.0
 40
0.0
 40
0.0
 40
0.0
 40
1.0
 40
1.0
 40
1.0
 40
2.0
 40
2.0
 40
2.0
 40
3.0
 40
3.0
 40
3.0
 40
4.0
 40
4.0
 40
4.0
 40
5.0
 40
5.0
 40
5.0
 40
6.0
 40
6.0
 40
6.0
 40
7.0
 40
7.0
 40
7.0
 40
8.0
 40
8.0
 40
8.0
 40
8.0
 10
0.006325301204831
 20
-0.3564891638060574
 30
0.0
 10
0.006325301204831
 20
-0.3649228987458164
 30
0.0
 10
0.0072289156626623
 20
-0.3703445854928044
 30
0.0
 10
0.0093373493976021
 20
-0.3730554288662984
 30
0.0
 10
0.0111445783132647
 20
-0.3757662722397924
 30
0.0
 10
0.0135542168674816
 20
-0.3772722963361779
 30
0.0
 10
0.0162650602409756
 20
-0.3772722963361779
 30
0.0
 10
0.0192771084337467
 20
-0.3772722963361779
 30
0.0
 10
0.0216867469879635
 20
-0.3757662722397924
 30
0.0
 10
0.0234939759036262
 20
-0.3730554288662984
 30
0.0
 10
0.0253012048192888
 20
-0.3703445854928044
 30
0.0
 10
0.0265060240963973
 20
-0.3649228987458164
 30
0.0
 10
0.0265060240963973
 20
-0.3564891638060574
 30
0.0
 10
0.0265060240963973
 20
-0.3483566336855755
 30
0.0
 10
0.0253012048192888
 20
-0.3429349469385875
 30
0.0
 10
0.0234939759036262
 20
-0.3402241035650935
 30
0.0
 10
0.0216867469879635
 20
-0.3375132601915996
 30
0.0
 10
0.0192771084337467
 20
-0.336007236095214
 30
0.0
 10
0.0162650602409756
 20
-0.336007236095214
 30
0.0
 10
0.0135542168674816
 20
-0.336007236095214
 30
0.0
 10
0.0111445783132647
 20
-0.3372120553723225
 30
0.0
 10
0.0096385542168792
 20
-0.3396216939265393
 30
0.0
 10
0.0075301204819394
 20
-0.3426337421193104
 30
0.0
 10
0.006325301204831
 20
-0.3483566336855755
 30
0.0
 10
0.006325301204831
 20
-0.3564891638060574
 30
0.0
  0
SPLINE
  5
B2
330
1F
100
AcDbEntity
  8
N-SYMB
100
AcDbSpline
210
0.0
220
0.0
230
1.0
 70
    11
 71
     3
 72
    89
 73
    85
 74
     0
 42
0.000000001
 43
0.0000000001
 40
0.0
 40
0.0
 40
0.0
 40
0.0
 40
1.0
 40
1.0
 40
1.0
 40
2.0
 40
2.0
 40
2.0
 40
3.0
 40
3.0
 40
3.0
 40
4.0
 40
4.0
 40
4.0
 40
5.0
 40
5.0
 40
5.0
 40
6.0
 40
6.0
 40
6.0
 40
7.0
 40
7.0
 40
7.0
 40
8.0
 40
8.0
 40
8.0
 40
9.0
 40
9.0
 40
9.0
 40
10.0
 40
10.0
 40
10.0
 40
11.0
 40
11.0
 40
11.0
 40
12.0
 40
12.0
 40
12.0
 40
13.0
 40
13.0
 40
13.0
 40
14.0
 40
14.0
 40
14.0
 40
15.0
 40
15.0
 40
15.0
 40
16.0
 40
16.0
 40
16.0
 40
17.0
 40
17.0
 40
17.0
 40
18.0
 40
18.0
 40
18.0
 40
19.0
 40
19.0
 40
19.0
 40
20.0
 40
20.0
 40
20.0
 40
21.0
 40
21.0
 40
21.0
 40
22.0
 40
22.0
 40
22.0
 40
23.0
 40
23.0
 40
23.0
 40
24.0
 40
24.0
 40
24.0
 40
25.0
 40
25.0
 40
25.0
 40
26.0
 40
26.0
 40
26.0
 40
27.0
 40
27.0
 40
27.0
 40
28.0
 40
28.0
 40
28.0
 40
28.0
 10
0.0602409638554334
 20
-0.3811879589867803
 30
0.0
 10
0.0602409638554334
 20
-0.3691397662156959
 30
0.0
 10
0.0602409638554334
 20
-0.3570915734446116
 30
0.0
 10
0.0602409638554334
 20
-0.3450433806735272
 30
0.0
 10
0.0620481927710961
 20
-0.3450433806735272
 30
0.0
 10
0.0638554216867587
 20
-0.3450433806735272
 30
0.0
 10
0.0656626506024214
 20
-0.3450433806735272
 30
0.0
 10
0.0656626506024214
 20
-0.3467502079827642
 30
0.0
 10
0.0656626506024214
 20
-0.3484570352920011
 30
0.0
 10
0.0656626506024214
 20
-0.3501638626012381
 30
0.0
 10
0.0668674698795298
 20
-0.3483566336855755
 30
0.0
 10
0.0683734939759153
 20
-0.3468506095891899
 30
0.0
 10
0.070180722891578
 20
-0.3459469951313586
 30
0.0
 10
0.0719879518072406
 20
-0.3447421758542502
 30
0.0
 10
0.0740963855421804
 20
-0.3441397662156959
 30
0.0
 10
0.0765060240963973
 20
-0.3441397662156959
 30
0.0
 10
0.0792168674698912
 20
-0.3441397662156959
 30
0.0
 10
0.0816265060241081
 20
-0.3447421758542502
 30
0.0
 10
0.0831325301204937
 20
-0.3459469951313586
 30
0.0
 10
0.0849397590361563
 20
-0.347151814408467
 30
0.0
 10
0.0861445783132647
 20
-0.3486578385048525
 30
0.0
 10
0.086746987951819
 20
-0.3504650674205153
 30
0.0
 10
0.08975903614459
 20
-0.3462481999506357
 30
0.0
 10
0.0933734939759154
 20
-0.3441397662156959
 30
0.0
 10
0.0981927710843491
 20
-0.3441397662156959
 30
0.0
 10
0.1018072289156744
 20
-0.3441397662156959
 30
0.0
 10
0.1045180722891683
 20
-0.3453445854928043
 30
0.0
 10
0.106325301204831
 20
-0.347151814408467
 30
0.0
 10
0.1084337349397708
 20
-0.3492602481434068
 30
0.0
 10
0.1093373493976021
 20
-0.3522722963361779
 30
0.0
 10
0.1093373493976021
 20
-0.3564891638060574
 30
0.0
 10
0.1093373493976021
 20
-0.364722095532965
 30
0.0
 10
0.1093373493976021
 20
-0.3729550272598726
 30
0.0
 10
0.1093373493976021
 20
-0.3811879589867802
 30
0.0
 10
0.107329317269088
 20
-0.3811879589867802
 30
0.0
 10
0.105321285140574
 20
-0.3811879589867802
 30
0.0
 10
0.1033132530120599
 20
-0.3811879589867802
 30
0.0
 10
0.1033132530120599
 20
-0.3736578385048525
 30
0.0
 10
0.1033132530120599
 20
-0.3661277180229248
 30
0.0
 10
0.1033132530120599
 20
-0.3585975975409971
 30
0.0
 10
0.1033132530120599
 20
-0.3558867541675031
 30
0.0
 10
0.1030120481927828
 20
-0.3543807300711176
 30
0.0
 10
0.1027108433735057
 20
-0.3531759107940092
 30
0.0
 10
0.1021084337349515
 20
-0.3519710915169008
 30
0.0
 10
0.1015060240963973
 20
-0.3510674770590694
 30
0.0
 10
0.1003012048192888
 20
-0.3504650674205153
 30
0.0
 10
0.0993975903614575
 20
-0.349862657781961
 30
0.0
 10
0.0981927710843491
 20
-0.3495614529626839
 30
0.0
 10
0.0966867469879635
 20
-0.3495614529626839
 30
0.0
 10
0.0942771084337467
 20
-0.3495614529626839
 30
0.0
 10
0.0921686746988069
 20
-0.3504650674205153
 30
0.0
 10
0.0903614457831443
 20
-0.3519710915169008
 30
0.0
 10
0.0885542168674816
 20
-0.3537783204325634
 30
0.0
 10
0.0879518072289274
 20
-0.3564891638060574
 30
0.0
 10
0.0879518072289274
 20
-0.3601036216373827
 30
0.0
 10
0.0879518072289274
 20
-0.3671317340871819
 30
0.0
 10
0.0879518072289274
 20
-0.3741598465369811
 30
0.0
 10
0.0879518072289274
 20
-0.3811879589867802
 30
0.0
 10
0.0858433734939876
 20
-0.3811879589867802
 30
0.0
 10
0.0837349397590479
 20
-0.3811879589867802
 30
0.0
 10
0.0816265060241081
 20
-0.3811879589867802
 30
0.0
 10
0.0816265060241081
 20
-0.3733566336855754
 30
0.0
 10
0.0816265060241081
 20
-0.3655253083843706
 30
0.0
 10
0.0816265060241081
 20
-0.3576939830831658
 30
0.0
 10
0.0816265060241081
 20
-0.3549831397096719
 30
0.0
 10
0.081325301204831
 20
-0.3528747059747321
 30
0.0
 10
0.0801204819277226
 20
-0.3516698866976237
 30
0.0
 10
0.0792168674698912
 20
-0.3501638626012381
 30
0.0
 10
0.0774096385542286
 20
-0.3495614529626839
 30
0.0
 10
0.0753012048192888
 20
-0.3495614529626839
 30
0.0
 10
0.0734939759036262
 20
-0.3495614529626839
 30
0.0
 10
0.0719879518072406
 20
-0.349862657781961
 30
0.0
 10
0.0704819277108551
 20
-0.3510674770590694
 30
0.0
 10
0.0689759036144695
 20
-0.3519710915169008
 30
0.0
 10
0.0680722891566382
 20
-0.3531759107940092
 30
0.0
 10
0.0671686746988069
 20
-0.3549831397096719
 30
0.0
 10
0.0665662650602527
 20
-0.3567903686253345
 30
0.0
 10
0.0662650602409756
 20
-0.3592000071795514
 30
0.0
 10
0.0662650602409756
 20
-0.3625132601915996
 30
0.0
 10
0.0662650602409756
 20
-0.3687381597899931
 30
0.0
 10
0.0662650602409756
 20
-0.3749630593883866
 30
0.0
 10
0.0662650602409756
 20
-0.3811879589867802
 30
0.0
 10
0.0642570281124615
 20
-0.3811879589867802
 30
0.0
 10
0.0622489959839475
 20
-0.3811879589867802
 30
0.0
 10
0.0602409638554334
 20
-0.3811879589867803
 30
0.0
  0
POLYLINE
  5
B4
330
1F
100
AcDbEntity
  8
X-VPRT
100
AcDb2dPolyline
 66
     1
 10
0.0
 20
0.0
 30
0.0
 70
     1
  0
VERTEX
  5
B5
330
B4
100
AcDbEntity
  8
X-VPRT
100
AcDbVertex
100
AcDb2dVertex
 10
0.0
 20
0.3334000000000021
 30
0.0
  0
VERTEX
  5
B6
330
B4
100
AcDbEntity
  8
X-VPRT
100
AcDbVertex
100
AcDb2dVertex
 10
0.4644000000000005
 20
0.3334000000000021
 30
0.0
  0
VERTEX
  5
B7
330
B4
100
AcDbEntity
  8
X-VPRT
100
AcDbVertex
100
AcDb2dVertex
 10
0.4643999999999999
 20
0.0
 30
0.0
  0
VERTEX
  5
B8
330
B4
100
AcDbEntity
  8
X-VPRT
100
AcDbVertex
100
AcDb2dVertex
 10
0.0
 20
0.0
 30
0.0
  0
SEQEND
  5
B9
330
B4
100
AcDbEntity
  8
X-VPRT
  0
SPLINE
  5
BB
330
1F
100
AcDbEntity
  8
AG-DIGITAL
100
AcDbSpline
210
0.0
220
0.0
230
1.0
 70
    15
 71
     2
 72
    20
 73
    17
 74
     0
 42
0.000000001
 43
0.0000000001
 40
0.7991302621696068
 40
0.7991302621696068
 40
0.7991302621696068
 40
0.8050308364615519
 40
0.8050308364615519
 40
1.795665130894
 40
1.795665130894
 40
1.801565705185945
 40
1.801565705185945
 40
2.239441165996289
 40
2.239441165996289
 40
2.250053072084121
 40
2.250053072084121
 40
3.038706927938796
 40
3.038706927938796
 40
3.049318834026616
 40
3.049318834026616
 40
3.487194294836959
 40
3.487194294836959
 40
3.487194294836959
 10
0.4153949575056337
 20
0.0444500000000007
 30
0.0
 41
1.0
 10
0.4142500000000004
 20
0.0444500000000014
 30
0.0
 41
0.7071067811865476
 10
0.4142500000000005
 20
0.0455949575056339
 30
0.0
 41
1.0
 10
0.4142500000000005
 20
0.1667000000000011
 30
0.0
 41
1.0
 10
0.4142500000000005
 20
0.2878050424943682
 30
0.0
 41
1.0
 10
0.4142500000000004
 20
0.2889500000000003
 30
0.0
 41
0.7071067811865476
 10
0.4153949575056337
 20
0.2889500000000014
 30
0.0
 41
1.0
 10
0.4166429025689432
 20
0.2889500000000014
 30
0.0
 41
1.0
 10
0.4178908476322526
 20
0.2889500000000014
 30
0.0
 41
1.0
 10
0.4199500000000025
 20
0.2889500000000014
 30
0.0
 41
0.7071067811861758
 10
0.4199500000000003
 20
0.2868908476322515
 30
0.0
 41
1.0
 10
0.4199500000000003
 20
0.1667000000000011
 30
0.0
 41
1.0
 10
0.4199500000000008
 20
0.0465091523677463
 30
0.0
 41
1.0
 10
0.4199499999999985
 20
0.0444500000000002
 30
0.0
 41
0.7071067811868265
 10
0.4178908476322526
 20
0.0444500000000007
 30
0.0
 41
1.0
 10
0.4166429025689432
 20
0.0444500000000007
 30
0.0
 41
1.0
 10
0.4153949575056337
 20
0.0444500000000007
 30
0.0
 41
1.0
  0
SPLINE
  5
BC
330
1F
100
AcDbEntity
  8
AG-DIGITAL
100
AcDbSpline
210
0.0
220
0.0
230
1.0
 70
    15
 71
     2
 72
    16
 73
    13
 74
     0
 42
0.000000001
 43
0.0000000001
 40
0.0
 40
0.0
 40
0.0
 40
0.0054218987183452
 40
0.0054218987183452
 40
0.0108437974366903
 40
0.0108437974366903
 40
0.0377288989554624
 40
0.0377288989554624
 40
0.0431507976738076
 40
0.0431507976738076
 40
0.0485726963921528
 40
0.0485726963921528
 40
0.0754577979109249
 40
0.0754577979109249
 40
0.0754577979109249
 10
0.4160479255195847
 20
0.2448911708177415
 30
0.0
 41
1.0
 10
0.4160479255195847
 20
0.2438390963373258
 30
0.0
 41
0.7071067811865476
 10
0.4171000000000004
 20
0.2438390963373258
 30
0.0
 41
1.0
 10
0.4181520744804161
 20
0.2438390963373258
 30
0.0
 41
0.7071067811865476
 10
0.4181520744804161
 20
0.2448911708177415
 30
0.0
 41
1.0
 10
0.4181520744804161
 20
0.2489884602892024
 30
0.0
 41
1.0
 10
0.4181520744804161
 20
0.2530857497606632
 30
0.0
 41
1.0
 10
0.4181520744804161
 20
0.2541378242410789
 30
0.0
 41
0.7071067811865476
 10
0.4171000000000004
 20
0.2541378242410789
 30
0.0
 41
1.0
 10
0.4160479255195847
 20
0.2541378242410789
 30
0.0
 41
0.7071067811865476
 10
0.4160479255195847
 20
0.2530857497606632
 30
0.0
 41
1.0
 10
0.4160479255195847
 20
0.2489884602892024
 30
0.0
 41
1.0
 10
0.4160479255195847
 20
0.2448911708177415
 30
0.0
 41
1.0
  0
SPLINE
  5
BD
330
1F
100
AcDbEntity
  8
AG-DIGITAL
100
AcDbSpline
210
0.0
220
0.0
230
1.0
 70
    15
 71
     2
 72
    16
 73
    13
 74
     0
 42
0.000000001
 43
0.0000000001
 40
0.0
 40
0.0
 40
0.0
 40
0.0054218987183452
 40
0.0054218987183452
 40
0.0108437974366903
 40
0.0108437974366903
 40
0.0377288989554624
 40
0.0377288989554624
 40
0.0431507976738076
 40
0.0431507976738076
 40
0.0485726963921528
 40
0.0485726963921528
 40
0.0754577979109249
 40
0.0754577979109249
 40
0.0754577979109249
 10
0.4160479255195847
 20
0.2122892946455891
 30
0.0
 41
1.0
 10
0.416047925519584
 20
0.2112372201651735
 30
0.0
 41
0.7071067811865476
 10
0.4171000000000004
 20
0.2112372201651739
 30
0.0
 41
1.0
 10
0.4181520744804161
 20
0.2112372201651735
 30
0.0
 41
0.7071067811865476
 10
0.4181520744804161
 20
0.2122892946455891
 30
0.0
 41
1.0
 10
0.4181520744804161
 20
0.2280891757587642
 30
0.0
 41
1.0
 10
0.4181520744804161
 20
0.232186465230225
 30
0.0
 41
1.0
 10
0.4181520744804161
 20
0.2332385397106395
 30
0.0
 41
0.7071067811865476
 10
0.4171000000000004
 20
0.2332385397106402
 30
0.0
 41
1.0
 10
0.416047925519584
 20
0.2332385397106395
 30
0.0
 41
0.7071067811865476
 10
0.4160479255195847
 20
0.232186465230225
 30
0.0
 41
1.0
 10
0.4160479255195847
 20
0.2280891757587642
 30
0.0
 41
1.0
 10
0.4160479255195847
 20
0.2122892946455891
 30
0.0
 41
1.0
  0
SPLINE
  5
BF
330
1F
100
AcDbEntity
  8
AG-DETAILS
100
AcDbSpline
210
0.0
220
0.0
230
1.0
 70
    15
 71
     2
 72
    16
 73
    13
 74
     0
 42
0.000000001
 43
0.0000000001
 40
0.0
 40
0.0
 40
0.0
 40
0.0054218987183452
 40
0.0054218987183452
 40
0.0108437974366903
 40
0.0108437974366903
 40
0.0377288989554624
 40
0.0377288989554624
 40
0.0431507976738076
 40
0.0431507976738076
 40
0.0485726963921528
 40
0.0485726963921528
 40
0.0754577979109249
 40
0.0754577979109249
 40
0.0754577979109249
 10
0.415863978868429
 20
0.087214182203233
 30
0.0
 41
1.0
 10
0.4158639788684283
 20
0.0859781610716634
 30
0.0
 41
0.7071067811865476
 10
0.4171000000000004
 20
0.0859781610716633
 30
0.0
 41
1.0
 10
0.4183360211315719
 20
0.0859781610716634
 30
0.0
 41
0.7071067811865476
 10
0.4183360211315718
 20
0.087214182203233
 30
0.0
 41
1.0
 10
0.4183360211315718
 20
0.0982288842479244
 30
0.0
 41
1.0
 10
0.4183360211315718
 20
0.1030425514009285
 30
0.0
 41
1.0
 10
0.4183360211315719
 20
0.1042785725325009
 30
0.0
 41
0.7071067811865476
 10
0.4171000000000004
 20
0.1042785725324983
 30
0.0
 41
1.0
 10
0.4158639788684283
 20
0.1042785725325009
 30
0.0
 41
0.7071067811865476
 10
0.415863978868429
 20
0.1030425514009285
 30
0.0
 41
1.0
 10
0.415863978868429
 20
0.0982288842479244
 30
0.0
 41
1.0
 10
0.415863978868429
 20
0.087214182203233
 30
0.0
 41
1.0
  0
POLYLINE
  5
C0
330
1F
100
AcDbEntity
  8
AG-DIGITAL
100
AcDb2dPolyline
 66
     1
 10
0.0
 20
0.0
 30
0.0
 70
     1
  0
VERTEX
  5
C1
330
C0
100
AcDbEntity
  8
AG-DIGITAL
100
AcDbVertex
100
AcDb2dVertex
 10
0.4199500000000003
 20
0.2563056511370261
 30
0.0
  0
VERTEX
  5
C2
330
C0
100
AcDbEntity
  8
AG-DIGITAL
100
AcDbVertex
100
AcDb2dVertex
 10
0.4199500000000003
 20
0.2793576516705993
 30
0.0
  0
VERTEX
  5
C3
330
C0
100
AcDbEntity
  8
AG-DIGITAL
100
AcDbVertex
100
AcDb2dVertex
 10
0.4209500000000006
 20
0.2793576516705993
 30
0.0
  0
VERTEX
  5
C4
330
C0
100
AcDbEntity
  8
AG-DIGITAL
100
AcDbVertex
100
AcDb2dVertex
 10
0.4209500000000006
 20
0.2563056511370261
 30
0.0
  0
SEQEND
  5
C5
330
C0
100
AcDbEntity
  8
AG-DIGITAL
  0
SPLINE
  5
C6
330
1F
100
AcDbEntity
  8
AG-DIGITAL
100
AcDbSpline
210
0.0
220
0.0
230
1.0
 70
    15
 71
     2
 72
    20
 73
    17
 74
     0
 42
0.000000001
 43
0.0000000001
 40
0.0
 40
0.0
 40
0.0
 40
0.0433857745940941
 40
0.0433857745940941
 40
0.7903106450326421
 40
0.7903106450326421
 40
0.8336964196267362
 40
0.8336964196267362
 40
1.301749898989163
 40
1.301749898989163
 40
1.345135673583255
 40
1.345135673583255
 40
2.092060544021803
 40
2.092060544021803
 40
2.135446318615895
 40
2.135446318615895
 40
2.603499797978321
 40
2.603499797978321
 40
2.603499797978321
 10
0.0528686497451664
 20
0.0444500000000002
 30
0.0
 41
1.0
 10
0.0444500000000002
 20
0.0444500000000002
 30
0.0
 41
0.7071067811865476
 10
0.0444500000000002
 20
0.0528686497451664
 30
0.0
 41
1.0
 10
0.0444500000000002
 20
0.166700000000001
 30
0.0
 41
1.0
 10
0.0444500000000002
 20
0.2805313502548357
 30
0.0
 41
1.0
 10
0.0444500000000002
 20
0.2889500000000019
 30
0.0
 41
0.7071067811865476
 10
0.0528686497451664
 20
0.2889500000000016
 30
0.0
 41
1.0
 10
0.1242000000000004
 20
0.2889500000000026
 30
0.0
 41
1.0
 10
0.1955313502548345
 20
0.2889500000000038
 30
0.0
 41
1.0
 10
0.2039500000000002
 20
0.2889500000000035
 30
0.0
 41
0.7071067811865703
 10
0.2039500000000002
 20
0.2805313502548379
 30
0.0
 41
1.0
 10
0.2039500000000002
 20
0.166700000000001
 30
0.0
 41
1.0
 10
0.2039500000000002
 20
0.0528686497451642
 30
0.0
 41
1.0
 10
0.2039500000000002
 20
0.0444499999999986
 30
0.0
 41
0.7071067811865703
 10
0.1955313502548345
 20
0.0444499999999983
 30
0.0
 41
1.0
 10
0.1242000000000004
 20
0.0444499999999995
 30
0.0
 41
1.0
 10
0.0528686497451664
 20
0.0444500000000007
 30
0.0
 41
1.0
  0
SPLINE
  5
C7
330
1F
100
AcDbEntity
  8
AG-DETAILS
100
AcDbSpline
210
0.0
220
0.0
230
1.0
 70
    15
 71
     2
 72
    20
 73
    17
 74
     0
 42
0.000000001
 43
0.0000000001
 40
0.0
 40
0.0
 40
0.0
 40
0.0433857745940944
 40
0.0433857745940944
 40
0.7903106450326476
 40
0.7903106450326476
 40
0.8336964196267419
 40
0.8336964196267419
 40
1.301749898989172
 40
1.301749898989172
 40
1.345135673583264
 40
1.345135673583264
 40
2.092060544021817
 40
2.092060544021817
 40
2.13544631861591
 40
2.13544631861591
 40
2.603499797978339
 40
2.603499797978339
 40
2.603499797978339
 10
0.0528686497451664
 20
0.0458866681660387
 30
0.0
 41
1.0
 10
0.045886668166036
 20
0.045886668166036
 30
0.0
 41
0.7071067811863009
 10
0.0458866681660381
 20
0.0528686497451664
 30
0.0
 41
1.0
 10
0.0458866681660381
 20
0.166700000000001
 30
0.0
 41
1.0
 10
0.0458866681660381
 20
0.2805313502548357
 30
0.0
 41
1.0
 10
0.0458866681660338
 20
0.2875133318339683
 30
0.0
 41
0.7071067811861363
 10
0.0528686497451664
 20
0.287513331833964
 30
0.0
 41
1.0
 10
0.1242000000000004
 20
0.2875133318339648
 30
0.0
 41
1.0
 10
0.1955313502548345
 20
0.2875133318339656
 30
0.0
 41
1.0
 10
0.2025133318339622
 20
0.2875133318339655
 30
0.0
 41
0.7071067811865476
 10
0.2025133318339622
 20
0.2805313502548379
 30
0.0
 41
1.0
 10
0.2025133318339622
 20
0.166700000000001
 30
0.0
 41
1.0
 10
0.2025133318339622
 20
0.0528686497451642
 30
0.0
 41
1.0
 10
0.2025133318339557
 20
0.045886668166043
 30
0.0
 41
0.7071067811871232
 10
0.1955313502548345
 20
0.0458866681660373
 30
0.0
 41
1.0
 10
0.1242000000000004
 20
0.045886668166038
 30
0.0
 41
1.0
 10
0.0528686497451664
 20
0.0458866681660387
 30
0.0
 41
1.0
  0
POLYLINE
  5
C8
330
1F
100
AcDbEntity
  8
AG-DIGITAL
100
AcDb2dPolyline
 66
     1
 10
0.0
 20
0.0
 30
0.0
 70
     1
  0
VERTEX
  5
C9
330
C8
100
AcDbEntity
  8
AG-DIGITAL
100
AcDbVertex
100
AcDb2dVertex
 10
0.1955687102489747
 20
0.053438553048113
 30
0.0
  0
VERTEX
  5
CA
330
C8
100
AcDbEntity
  8
AG-DIGITAL
100
AcDbVertex
100
AcDb2dVertex
 10
0.1955687102489747
 20
0.2807972607225859
 30
0.0
  0
VERTEX
  5
CB
330
C8
100
AcDbEntity
  8
AG-DIGITAL
100
AcDbVertex
100
AcDb2dVertex
 10
0.0528312897510251
 20
0.2807972607225859
 30
0.0
  0
VERTEX
  5
CC
330
C8
100
AcDbEntity
  8
AG-DIGITAL
100
AcDbVertex
100
AcDb2dVertex
 10
0.0528312897510251
 20
0.053438553048113
 30
0.0
  0
SEQEND
  5
CD
330
C8
100
AcDbEntity
  8
AG-DIGITAL
  0
CIRCLE
  5
CE
330
1F
100
AcDbEntity
  8
AG-DIGITAL
100
AcDbCircle
 10
0.1241999999999999
 20
0.2845961533169177
 30
0.0
 40
0.0013669333012648
  0
CIRCLE
  5
CF
330
1F
100
AcDbEntity
  8
AG-DETAILS
100
AcDbCircle
 10
0.1332009797505325
 20
0.2848083074184844
 30
0.0
 40
0.0011547791996992
  0
POLYLINE
  5
D0
330
1F
100
AcDbEntity
  8
AG-DIGITAL
100
AcDb2dPolyline
 66
     1
 10
0.0
 20
0.0
 30
0.0
 70
     1
  0
VERTEX
  5
D1
330
D0
100
AcDbEntity
  8
AG-DIGITAL
100
AcDbVertex
100
AcDb2dVertex
 10
0.2039500000000007
 20
0.2438390963373264
 30
0.0
  0
VERTEX
  5
D2
330
D0
100
AcDbEntity
  8
AG-DIGITAL
100
AcDbVertex
100
AcDb2dVertex
 10
0.2039500000000007
 20
0.2541378242410784
 30
0.0
  0
VERTEX
  5
D3
330
D0
100
AcDbEntity
  8
AG-DIGITAL
100
AcDbVertex
100
AcDb2dVertex
 10
0.2047000000000005
 20
0.2541378242410784
 30
0.0
  0
VERTEX
  5
D4
330
D0
100
AcDbEntity
  8
AG-DIGITAL
100
AcDbVertex
100
AcDb2dVertex
 10
0.2047000000000005
 20
0.2438390963373264
 30
0.0
  0
SEQEND
  5
D5
330
D0
100
AcDbEntity
  8
AG-DIGITAL
  0
POLYLINE
  5
D6
330
1F
100
AcDbEntity
  8
AG-DIGITAL
100
AcDb2dPolyline
 66
     1
 10
0.0
 20
0.0
 30
0.0
 70
     1
  0
VERTEX
  5
D7
330
D6
100
AcDbEntity
  8
AG-DIGITAL
100
AcDbVertex
100
AcDb2dVertex
 10
0.2039500000000007
 20
0.2112372201651739
 30
0.0
  0
VERTEX
  5
D8
330
D6
100
AcDbEntity
  8
AG-DIGITAL
100
AcDbVertex
100
AcDb2dVertex
 10
0.2039500000000007
 20
0.2332385397106402
 30
0.0
  0
VERTEX
  5
D9
330
D6
100
AcDbEntity
  8
AG-DIGITAL
100
AcDbVertex
100
AcDb2dVertex
 10
0.2047000000000005
 20
0.2332385397106402
 30
0.0
  0
VERTEX
  5
DA
330
D6
100
AcDbEntity
  8
AG-DIGITAL
100
AcDbVertex
100
AcDb2dVertex
 10
0.2047000000000005
 20
0.2112372201651739
 30
0.0
  0
SEQEND
  5
DB
330
D6
100
AcDbEntity
  8
AG-DIGITAL
  0
SPLINE
  5
DC
330
1F
100
AcDbEntity
  8
AG-DIGITAL
100
AcDbSpline
210
0.0
220
0.0
230
1.0
 70
    15
 71
     2
 72
    20
 73
    17
 74
     0
 42
0.000000001
 43
0.0000000001
 40
0.0
 40
0.0
 40
0.0
 40
0.0433857745940941
 40
0.0433857745940941
 40
0.7903106450326421
 40
0.7903106450326421
 40
0.8336964196267362
 40
0.8336964196267362
 40
1.301749898989163
 40
1.301749898989163
 40
1.345135673583255
 40
1.345135673583255
 40
2.092060544021803
 40
2.092060544021803
 40
2.135446318615895
 40
2.135446318615895
 40
2.603499797978321
 40
2.603499797978321
 40
2.603499797978321
 10
0.380431350254833
 20
0.0444500000000002
 30
0.0
 41
1.0
 10
0.3888499999999993
 20
0.0444500000000002
 30
0.0
 41
0.7071067811865476
 10
0.3888499999999993
 20
0.0528686497451664
 30
0.0
 41
1.0
 10
0.3888499999999993
 20
0.166700000000001
 30
0.0
 41
1.0
 10
0.3888499999999993
 20
0.2805313502548357
 30
0.0
 41
1.0
 10
0.3888499999999993
 20
0.2889500000000019
 30
0.0
 41
0.7071067811865476
 10
0.380431350254833
 20
0.2889500000000016
 30
0.0
 41
1.0
 10
0.309099999999999
 20
0.2889500000000026
 30
0.0
 41
1.0
 10
0.2377686497451649
 20
0.2889500000000038
 30
0.0
 41
1.0
 10
0.2293499999999992
 20
0.2889500000000035
 30
0.0
 41
0.7071067811865703
 10
0.2293499999999992
 20
0.2805313502548379
 30
0.0
 41
1.0
 10
0.2293499999999992
 20
0.166700000000001
 30
0.0
 41
1.0
 10
0.2293499999999992
 20
0.0528686497451642
 30
0.0
 41
1.0
 10
0.2293499999999992
 20
0.0444499999999986
 30
0.0
 41
0.7071067811865703
 10
0.2377686497451649
 20
0.0444499999999983
 30
0.0
 41
1.0
 10
0.309099999999999
 20
0.0444499999999995
 30
0.0
 41
1.0
 10
0.380431350254833
 20
0.0444500000000007
 30
0.0
 41
1.0
  0
POLYLINE
  5
DD
330
1F
100
AcDbEntity
  8
AG-DIGITAL
100
AcDb2dPolyline
 66
     1
 10
0.0
 20
0.0
 30
0.0
 70
     1
  0
VERTEX
  5
DE
330
DD
100
AcDbEntity
  8
AG-DIGITAL
100
AcDbVertex
100
AcDb2dVertex
 10
0.2293499999999987
 20
0.2438390963373264
 30
0.0
  0
VERTEX
  5
DF
330
DD
100
AcDbEntity
  8
AG-DIGITAL
100
AcDbVertex
100
AcDb2dVertex
 10
0.2293499999999987
 20
0.2541378242410784
 30
0.0
  0
VERTEX
  5
E0
330
DD
100
AcDbEntity
  8
AG-DIGITAL
100
AcDbVertex
100
AcDb2dVertex
 10
0.2285999999999989
 20
0.2541378242410784
 30
0.0
  0
VERTEX
  5
E1
330
DD
100
AcDbEntity
  8
AG-DIGITAL
100
AcDbVertex
100
AcDb2dVertex
 10
0.2285999999999989
 20
0.2438390963373264
 30
0.0
  0
SEQEND
  5
E2
330
DD
100
AcDbEntity
  8
AG-DIGITAL
  0
POLYLINE
  5
E3
330
1F
100
AcDbEntity
  8
AG-DIGITAL
100
AcDb2dPolyline
 66
     1
 10
0.0
 20
0.0
 30
0.0
 70
     1
  0
VERTEX
  5
E4
330
E3
100
AcDbEntity
  8
AG-DIGITAL
100
AcDbVertex
100
AcDb2dVertex
 10
0.2293499999999987
 20
0.2112372201651739
 30
0.0
  0
VERTEX
  5
E5
330
E3
100
AcDbEntity
  8
AG-DIGITAL
100
AcDbVertex
100
AcDb2dVertex
 10
0.2293499999999987
 20
0.2332385397106402
 30
0.0
  0
VERTEX
  5
E6
330
E3
100
AcDbEntity
  8
AG-DIGITAL
100
AcDbVertex
100
AcDb2dVertex
 10
0.2285999999999989
 20
0.2332385397106402
 30
0.0
  0
VERTEX
  5
E7
330
E3
100
AcDbEntity
  8
AG-DIGITAL
100
AcDbVertex
100
AcDb2dVertex
 10
0.2285999999999989
 20
0.2112372201651739
 30
0.0
  0
SEQEND
  5
E8
330
E3
100
AcDbEntity
  8
AG-DIGITAL
  0
SPLINE
  5
E9
330
1F
100
AcDbEntity
  8
AG-DIGITAL
100
AcDbSpline
210
0.0
220
0.0
230
1.0
 70
    15
 71
     2
 72
    16
 73
    13
 74
     0
 42
0.000000001
 43
0.0000000001
 40
0.0
 40
0.0
 40
0.0
 40
0.0288043255541254
 40
0.0288043255541254
 40
0.0677594422096001
 40
0.0677594422096001
 40
0.0965637677637255
 40
0.0965637677637255
 40
0.1253680933178509
 40
0.1253680933178509
 40
0.1643232099733283
 40
0.1643232099733283
 40
0.1931275355274501
 40
0.1931275355274501
 40
0.1931275355274501
 10
0.243999396378724
 20
0.256305651137024
 30
0.0
 41
1.0
 10
0.2384101558902315
 20
0.256305651137024
 30
0.0
 41
0.7071067811865476
 10
0.2384101558902315
 20
0.2618948916255165
 30
0.0
 41
1.0
 10
0.2384101558902315
 20
0.2678316514038116
 30
0.0
 41
1.0
 10
0.2384101558902315
 20
0.2737684111821067
 30
0.0
 41
1.0
 10
0.2384101558902315
 20
0.2793576516705993
 30
0.0
 41
0.7071067811865476
 10
0.243999396378724
 20
0.2793576516705987
 30
0.0
 41
1.0
 10
0.2495886368672165
 20
0.2793576516705971
 30
0.0
 41
0.7071067811866161
 10
0.2495886368672166
 20
0.2737684111821045
 30
0.0
 41
1.0
 10
0.249588636867216
 20
0.2678316514038105
 30
0.0
 41
1.0
 10
0.2495886368672155
 20
0.2618948916255165
 30
0.0
 41
1.0
 10
0.2495886368672155
 20
0.256305651137025
 30
0.0
 41
0.7071067811866161
 10
0.243999396378724
 20
0.256305651137024
 30
0.0
 41
1.0
  0
CIRCLE
  5
EA
330
1F
100
AcDbEntity
  8
AG-DIGITAL
100
AcDbCircle
 10
0.2439993963787229
 20
0.2724336651354483
 30
0.0
 40
0.002574881417636
  0
CIRCLE
  5
EB
330
1F
100
AcDbEntity
  8
AG-DIGITAL
100
AcDbCircle
 10
-0.2439993963787229
 20
0.2632296376721729
 30
0.0
 40
0.002574881417636
210
0.0
220
0.0
230
-1.0
  0
SPLINE
  5
EC
330
1F
100
AcDbEntity
  8
AG-DETAILS
100
AcDbSpline
210
0.0
220
0.0
230
1.0
 70
    15
 71
     2
 72
    16
 73
    13
 74
     0
 42
0.000000001
 43
0.0000000001
 40
0.0
 40
0.0
 40
0.0
 40
0.0170434069175615
 40
0.0170434069175615
 40
0.4773041974384955
 40
0.4773041974384955
 40
0.494347604356057
 40
0.494347604356057
 40
0.5113910112736185
 40
0.5113910112736185
 40
0.9716518017945526
 40
0.9716518017945526
 40
0.9886952087121141
 40
0.9886952087121141
 40
0.9886952087121141
 10
0.243999396378724
 20
0.2510053236770718
 30
0.0
 41
1.0
 10
0.240692264613861
 20
0.2510053236770719
 30
0.0
 41
0.7071067811865476
 10
0.2406922646138615
 20
0.2476981919122099
 30
0.0
 41
1.0
 10
0.2406922646138615
 20
0.1828547748967717
 30
0.0
 41
1.0
 10
0.2406922646138615
 20
0.1127110304213814
 30
0.0
 41
1.0
 10
0.240692264613861
 20
0.1094038986565197
 30
0.0
 41
0.7071067811865476
 10
0.243999396378724
 20
0.1094038986565194
 30
0.0
 41
1.0
 10
0.2473065281435867
 20
0.1094038986565197
 30
0.0
 41
0.7071067811865476
 10
0.2473065281435865
 20
0.1127110304213814
 30
0.0
 41
1.0
 10
0.2473065281435865
 20
0.1828547748967717
 30
0.0
 41
1.0
 10
0.2473065281435865
 20
0.2476981919122099
 30
0.0
 41
1.0
 10
0.2473065281435867
 20
0.2510053236770719
 30
0.0
 41
0.7071067811865476
 10
0.243999396378724
 20
0.2510053236770718
 30
0.0
 41
1.0
  0
SPLINE
  5
ED
330
1F
100
AcDbEntity
  8
AG-DETAILS
100
AcDbSpline
210
0.0
220
0.0
230
1.0
 70
    12
 71
     2
 72
    20
 73
    17
 74
     0
 42
0.000000001
 43
0.0000000001
 40
-0.2721416811582884
 40
-0.2721416811582884
 40
-0.2721416811582884
 40
-0.2036531942742417
 40
-0.2036531942742417
 40
-0.145808341190429
 40
-0.145808341190429
 40
-0.1439631898018321
 40
-0.1439631898018321
 40
0.0
 40
0.0
 40
0.1439631898018321
 40
0.1439631898018321
 40
0.145808341190429
 40
0.145808341190429
 40
0.2036531942742417
 40
0.2036531942742417
 40
0.2721416811583047
 40
0.2721416811583047
 40
0.2721416811583047
 10
0.2293499999999992
 20
0.2779214132657705
 30
0.0
 41
1.0
 10
0.230483990337386
 20
0.2779214132657705
 30
0.0
 41
1.0
 10
0.2316179806747727
 20
0.2779214132657705
 30
0.0
 41
1.0
 10
0.2316179806747727
 20
0.2794534986650886
 30
0.0
 41
1.0
 10
0.2316179806747727
 20
0.2809855840644068
 30
0.0
 41
1.0
 10
0.2316179806747705
 20
0.2858000922347264
 30
0.0
 41
0.7071067811861897
 10
0.2364324888450901
 20
0.2858000922347237
 30
0.0
 41
1.0
 10
0.2727662444225445
 20
0.2858000922347237
 30
0.0
 41
1.0
 10
0.309099999999999
 20
0.2858000922347237
 30
0.0
 41
1.0
 10
0.3454337555774534
 20
0.2858000922347237
 30
0.0
 41
1.0
 10
0.3817675111549079
 20
0.2858000922347237
 30
0.0
 41
1.0
 10
0.3865820193252275
 20
0.2858000922347264
 30
0.0
 41
0.7071067811861897
 10
0.3865820193252253
 20
0.2809855840644068
 30
0.0
 41
1.0
 10
0.3865820193252253
 20
0.2794534986650886
 30
0.0
 41
1.0
 10
0.3865820193252252
 20
0.2779214132657705
 30
0.0
 41
1.0
 10
0.3877160096626122
 20
0.2779214132657705
 30
0.0
 41
1.0
 10
0.3888499999999993
 20
0.2779214132657705
 30
0.0
 41
1.0
  0
SPLINE
  5
EE
330
1F
100
AcDbEntity
  8
AG-DETAILS
100
AcDbSpline
210
0.0
220
0.0
230
1.0
 70
    12
 71
     2
 72
    24
 73
    21
 74
     0
 42
0.000000001
 43
0.0000000001
 40
-2.949240998209218
 40
-2.949240998209218
 40
-2.949240998209218
 40
-2.488759257678867
 40
-2.488759257678867
 40
-2.476353398510137
 40
-2.476353398510137
 40
-2.087434036430396
 40
-2.087434036430396
 40
-2.075028177261666
 40
-2.075028177261666
 40
-1.107092934007301
 40
-1.107092934007301
 40
-0.1391576907529357
 40
-0.1391576907529357
 40
-0.1267518315842058
 40
-0.1267518315842058
 40
0.2621675304955357
 40
0.2621675304955357
 40
0.2745733896642656
 40
0.2745733896642656
 40
0.735055130194507
 40
0.735055130194507
 40
0.735055130194507
 10
0.3888499999999993
 20
0.2755141591806121
 30
0.0
 41
1.0
 10
0.3877160096626122
 20
0.2755141591806121
 30
0.0
 41
1.0
 10
0.3865820193252252
 20
0.2755141591806121
 30
0.0
 41
1.0
 10
0.3841747652400668
 20
0.275514159180612
 30
0.0
 41
0.7071067811865476
 10
0.3841747652400668
 20
0.2779214132657705
 30
0.0
 41
1.0
 10
0.3841747652400668
 20
0.2794534986650886
 30
0.0
 41
1.0
 10
0.3841747652400668
 20
0.2809855840644068
 30
0.0
 41
1.0
 10
0.3841747652400668
 20
0.2833928381495653
 30
0.0
 41
0.7071067811865476
 10
0.3817675111549084
 20
0.2833928381495653
 30
0.0
 41
1.0
 10
0.3454337555774537
 20
0.2833928381495653
 30
0.0
 41
1.0
 10
0.309099999999999
 20
0.2833928381495653
 30
0.0
 41
1.0
 10
0.2727662444225443
 20
0.2833928381495653
 30
0.0
 41
1.0
 10
0.2364324888450896
 20
0.2833928381495653
 30
0.0
 41
1.0
 10
0.2340252347599312
 20
0.2833928381495653
 30
0.0
 41
0.7071067811865476
 10
0.2340252347599311
 20
0.2809855840644068
 30
0.0
 41
1.0
 10
0.2340252347599311
 20
0.2794534986650886
 30
0.0
 41
1.0
 10
0.2340252347599311
 20
0.2779214132657705
 30
0.0
 41
1.0
 10
0.2340252347599311
 20
0.275514159180612
 30
0.0
 41
0.7071067811865476
 10
0.2316179806747727
 20
0.2755141591806121
 30
0.0
 41
1.0
 10
0.230483990337386
 20
0.2755141591806121
 30
0.0
 41
1.0
 10
0.2293499999999992
 20
0.2755141591806121
 30
0.0
 41
1.0
  0
POLYLINE
  5
EF
330
1F
100
AcDbEntity
  8
AG-DETAILS
100
AcDb2dPolyline
 66
     1
 10
0.0
 20
0.0
 30
0.0
  0
VERTEX
  5
F0
330
EF
100
AcDbEntity
  8
AG-DETAILS
100
AcDbVertex
100
AcDb2dVertex
 10
0.4142500000000011
 20
0.2755141591806121
 30
0.0
  0
VERTEX
  5
F1
330
EF
100
AcDbEntity
  8
AG-DETAILS
100
AcDbVertex
100
AcDb2dVertex
 10
0.4199500000000014
 20
0.2755141591806121
 30
0.0
  0
SEQEND
  5
F2
330
EF
100
AcDbEntity
  8
AG-DETAILS
  0
POLYLINE
  5
F3
330
1F
100
AcDbEntity
  8
AG-DETAILS
100
AcDb2dPolyline
 66
     1
 10
0.0
 20
0.0
 30
0.0
  0
VERTEX
  5
F4
330
F3
100
AcDbEntity
  8
AG-DETAILS
100
AcDbVertex
100
AcDb2dVertex
 10
0.4142500000000005
 20
0.2779214132657705
 30
0.0
  0
VERTEX
  5
F5
330
F3
100
AcDbEntity
  8
AG-DETAILS
100
AcDbVertex
100
AcDb2dVertex
 10
0.4199500000000008
 20
0.2779214132657705
 30
0.0
  0
SEQEND
  5
F6
330
F3
100
AcDbEntity
  8
AG-DETAILS
  0
POLYLINE
  5
F7
330
1F
100
AcDbEntity
  8
AG-DETAILS
100
AcDb2dPolyline
 66
     1
 10
0.0
 20
0.0
 30
0.0
  0
VERTEX
  5
F8
330
F7
100
AcDbEntity
  8
AG-DETAILS
100
AcDbVertex
100
AcDb2dVertex
 10
0.4142500000000011
 20
0.0578858408193857
 30
0.0
  0
VERTEX
  5
F9
330
F7
100
AcDbEntity
  8
AG-DETAILS
100
AcDbVertex
100
AcDb2dVertex
 10
0.4199500000000014
 20
0.0578858408193857
 30
0.0
  0
SEQEND
  5
FA
330
F7
100
AcDbEntity
  8
AG-DETAILS
  0
POLYLINE
  5
FB
330
1F
100
AcDbEntity
  8
AG-DETAILS
100
AcDb2dPolyline
 66
     1
 10
0.0
 20
0.0
 30
0.0
  0
VERTEX
  5
FC
330
FB
100
AcDbEntity
  8
AG-DETAILS
100
AcDbVertex
100
AcDb2dVertex
 10
0.4142500000000005
 20
0.0554785867342273
 30
0.0
  0
VERTEX
  5
FD
330
FB
100
AcDbEntity
  8
AG-DETAILS
100
AcDbVertex
100
AcDb2dVertex
 10
0.4199500000000008
 20
0.0554785867342273
 30
0.0
  0
SEQEND
  5
FE
330
FB
100
AcDbEntity
  8
AG-DETAILS
  0
SPLINE
  5
FF
330
1F
100
AcDbEntity
  8
AG-DETAILS
100
AcDbSpline
210
0.0
220
0.0
230
1.0
 70
    12
 71
     2
 72
    20
 73
    17
 74
     0
 42
0.000000001
 43
0.0000000001
 40
-0.2721416811582884
 40
-0.2721416811582884
 40
-0.2721416811582884
 40
-0.2036531942742417
 40
-0.2036531942742417
 40
-0.145808341190429
 40
-0.145808341190429
 40
-0.1439631898018321
 40
-0.1439631898018321
 40
0.0
 40
0.0
 40
0.1439631898018321
 40
0.1439631898018321
 40
0.145808341190429
 40
0.145808341190429
 40
0.2036531942742417
 40
0.2036531942742417
 40
0.2721416811583047
 40
0.2721416811583047
 40
0.2721416811583047
 10
0.2293499999999992
 20
0.0554785867342316
 30
0.0
 41
1.0
 10
0.230483990337386
 20
0.0554785867342316
 30
0.0
 41
1.0
 10
0.2316179806747727
 20
0.0554785867342316
 30
0.0
 41
1.0
 10
0.2316179806747727
 20
0.0539465013349135
 30
0.0
 41
1.0
 10
0.2316179806747727
 20
0.0524144159355953
 30
0.0
 41
1.0
 10
0.2316179806747705
 20
0.0475999077652757
 30
0.0
 41
0.7071067811861897
 10
0.2364324888450901
 20
0.0475999077652784
 30
0.0
 41
1.0
 10
0.2727662444225445
 20
0.0475999077652784
 30
0.0
 41
1.0
 10
0.309099999999999
 20
0.0475999077652784
 30
0.0
 41
1.0
 10
0.3454337555774534
 20
0.0475999077652784
 30
0.0
 41
1.0
 10
0.3817675111549079
 20
0.0475999077652784
 30
0.0
 41
1.0
 10
0.3865820193252275
 20
0.0475999077652757
 30
0.0
 41
0.7071067811861897
 10
0.3865820193252253
 20
0.0524144159355953
 30
0.0
 41
1.0
 10
0.3865820193252253
 20
0.0539465013349135
 30
0.0
 41
1.0
 10
0.3865820193252252
 20
0.0554785867342316
 30
0.0
 41
1.0
 10
0.3877160096626122
 20
0.0554785867342316
 30
0.0
 41
1.0
 10
0.3888499999999993
 20
0.0554785867342316
 30
0.0
 41
1.0
  0
SPLINE
  5
100
330
1F
100
AcDbEntity
  8
AG-DETAILS
100
AcDbSpline
210
0.0
220
0.0
230
1.0
 70
    12
 71
     2
 72
    24
 73
    21
 74
     0
 42
0.000000001
 43
0.0000000001
 40
-2.949240998209218
 40
-2.949240998209218
 40
-2.949240998209218
 40
-2.488759257678867
 40
-2.488759257678867
 40
-2.476353398510137
 40
-2.476353398510137
 40
-2.087434036430396
 40
-2.087434036430396
 40
-2.075028177261666
 40
-2.075028177261666
 40
-1.107092934007301
 40
-1.107092934007301
 40
-0.1391576907529357
 40
-0.1391576907529357
 40
-0.1267518315842058
 40
-0.1267518315842058
 40
0.2621675304955357
 40
0.2621675304955357
 40
0.2745733896642656
 40
0.2745733896642656
 40
0.735055130194507
 40
0.735055130194507
 40
0.735055130194507
 10
0.3888499999999993
 20
0.0578858408193901
 30
0.0
 41
1.0
 10
0.3877160096626122
 20
0.0578858408193901
 30
0.0
 41
1.0
 10
0.3865820193252252
 20
0.0578858408193901
 30
0.0
 41
1.0
 10
0.3841747652400668
 20
0.05788584081939
 30
0.0
 41
0.7071067811865476
 10
0.3841747652400668
 20
0.0554785867342316
 30
0.0
 41
1.0
 10
0.3841747652400668
 20
0.0539465013349135
 30
0.0
 41
1.0
 10
0.3841747652400668
 20
0.0524144159355953
 30
0.0
 41
1.0
 10
0.3841747652400668
 20
0.0500071618504368
 30
0.0
 41
0.7071067811865476
 10
0.3817675111549084
 20
0.0500071618504368
 30
0.0
 41
1.0
 10
0.3454337555774537
 20
0.0500071618504368
 30
0.0
 41
1.0
 10
0.309099999999999
 20
0.0500071618504368
 30
0.0
 41
1.0
 10
0.2727662444225443
 20
0.0500071618504368
 30
0.0
 41
1.0
 10
0.2364324888450896
 20
0.0500071618504368
 30
0.0
 41
1.0
 10
0.2340252347599312
 20
0.0500071618504368
 30
0.0
 41
0.7071067811865476
 10
0.2340252347599311
 20
0.0524144159355953
 30
0.0
 41
1.0
 10
0.2340252347599311
 20
0.0539465013349135
 30
0.0
 41
1.0
 10
0.2340252347599311
 20
0.0554785867342316
 30
0.0
 41
1.0
 10
0.2340252347599311
 20
0.05788584081939
 30
0.0
 41
0.7071067811865476
 10
0.2316179806747727
 20
0.0578858408193901
 30
0.0
 41
1.0
 10
0.230483990337386
 20
0.0578858408193901
 30
0.0
 41
1.0
 10
0.2293499999999992
 20
0.0578858408193901
 30
0.0
 41
1.0
  0
ENDSEC
  0
SECTION
  2
OBJECTS
  0
DICTIONARY
  5
C
330
0
100
AcDbDictionary
  3
ACAD_GROUP
350
D
  3
ACAD_LAYOUT
350
1A
  3
ACAD_MATERIAL
350
43
  3
ACAD_MLEADERSTYLE
350
6B
  3
ACAD_MLINESTYLE
350
17
  3
ACAD_PLOTSETTINGS
350
19
  3
ACAD_SCALELIST
350
47
  3
ACAD_VISUALSTYLE
350
2A
  3
ACDBVARIABLEDICTIONARY
350
103
  3
DWGPROPS
350
14A
1001
ACAD
1000
TREAT_AS_HARD
1070
     0
  0
DICTIONARY
  5
D
102
{ACAD_REACTORS
330
C
102
}
330
C
100
AcDbDictionary
1001
ACAD
1000
TREAT_AS_HARD
1070
     0
  0
DICTIONARY
  5
1A
102
{ACAD_REACTORS
330
C
102
}
330
C
100
AcDbDictionary
1001
ACAD
1000
TREAT_AS_HARD
1070
     0
  0
DICTIONARY
  5
43
102
{ACAD_REACTORS
330
C
102
}
330
C
100
AcDbDictionary
  3
BYBLOCK
350
45
  3
BYLAYER
350
44
  3
GLOBAL
350
46
1001
ACAD
1000
TREAT_AS_HARD
1070
     0
  0
DICTIONARY
  5
6B
102
{ACAD_REACTORS
330
C
102
}
330
C
100
AcDbDictionary
  3
STANDARD
350
6C
1001
ACAD
1000
TREAT_AS_HARD
1070
     0
  0
DICTIONARY
  5
17
102
{ACAD_REACTORS
330
C
102
}
330
C
100
AcDbDictionary
  3
STANDARD
350
18
1001
ACAD
1000
TREAT_AS_HARD
1070
     0
  0
DICTIONARY
  5
19
102
{ACAD_REACTORS
330
C
102
}
330
C
100
AcDbDictionary
1001
ACAD
1000
TREAT_AS_HARD
1070
     0
  0
DICTIONARY
  5
47
102
{ACAD_REACTORS
330
C
102
}
330
C
100
AcDbDictionary
  3
A0
350
48
  3
A1
350
49
  3
A2
350
4A
  3
A3
350
4B
  3
A4
350
4C
  3
A5
350
4D
  3
A6
350
4E
  3
A7
350
4F
  3
A8
350
50
  3
A9
350
51
  3
B0
350
52
  3
B1
350
53
  3
B2
350
54
  3
B3
350
55
  3
B4
350
56
  3
B5
350
57
  3
B6
350
58
  3
B7
350
59
  3
B8
350
5A
  3
B9
350
5B
  3
C0
350
5C
  3
C1
350
5D
  3
C2
350
5E
  3
C3
350
5F
  3
C4
350
60
  3
C5
350
61
  3
C6
350
62
  3
C7
350
63
  3
C8
350
64
  3
C9
350
65
  3
D0
350
66
  3
D1
350
67
  3
D2
350
68
1001
ACAD
1000
TREAT_AS_HARD
1070
     0
  0
DICTIONARY
  5
2A
102
{ACAD_REACTORS
330
C
102
}
330
C
100
AcDbDictionary
  3
2DWIREFRAME
350
2F
  3
BASIC
350
32
  3
BRIGHTEN
350
36
  3
COLORCHANGE
350
3A
  3
CONCEPTUAL
350
34
  3
DIM
350
35
  3
EDGECOLOROFF
350
3D
  3
FACEPATTERN
350
39
  3
FLAT
350
2B
  3
FLATWITHEDGES
350
2C
  3
GOURAUD
350
2D
  3
GOURAUDWITHEDGES
350
2E
  3
HIDDEN
350
31
  3
JITTEROFF
350
3B
  3
LINEPATTERN
350
38
  3
OVERHANGOFF
350
3C
  3
REALISTIC
350
33
  3
SHADED
350
42
  3
SHADED_WITH_EDGES
350
41
  3
SHADES_OF_GRAY
350
3E
  3
SKETCHY
350
3F
  3
THICKEN
350
37
  3
WIREFRAME
350
30
  3
X-RAY
350
40
1001
ACAD
1000
TREAT_AS_HARD
1070
     0
  0
DICTIONARY
  5
103
102
{ACAD_REACTORS
330
C
102
}
330
C
100
AcDbDictionary
  3
CANNOSCALE
350
104
  3
CMLEADERSTYLE
350
145
  3
CTABLESTYLE
350
144
  3
DIMASSOC
350
148
  3
HIDETEXT
350
149
  3
MSLTSCALE
350
105
  3
XCLIPFRAME
350
106
1001
ACAD
1000
TREAT_AS_HARD
1070
     0
  0
XRECORD
  5
14A
102
{ACAD_REACTORS
330
C
102
}
330
C
100
AcDbXrecord
  1
DWGPROPS COOKIE
  2

  3

  4

  6

  7

  8
Emanuele
  9

300
=
301
=
302
=
303
=
304
=
305
=
306
=
307
=
308
=
309
=
 40
0.0
 41
2458931.805771505
 42
2459221.424342859
  1

 90
        0
  0
MATERIAL
  5
45
102
{ACAD_REACTORS
330
43
102
}
102
{ACAD_XDICTIONARY
360
14D
102
}
330
43
100
AcDbMaterial
  1
BYBLOCK
  0
MATERIAL
  5
44
102
{ACAD_REACTORS
330
43
102
}
102
{ACAD_XDICTIONARY
360
14B
102
}
330
43
100
AcDbMaterial
  1
BYLAYER
  0
MATERIAL
  5
46
102
{ACAD_REACTORS
330
43
102
}
102
{ACAD_XDICTIONARY
360
14F
102
}
330
43
100
AcDbMaterial
  1
GLOBAL
  0
ACAD_PROXY_OBJECT
  5
6C
102
{ACAD_REACTORS
330
6B
102
}
330
6B
100
AcDbZombieObject
 90
      499
 91
      505
 93
      610
310
40901902A4063FBFFFFFE056BD1B81E855B9FC0AD7A3703D0AD73F4214DD185B99185C9900AD7A3703D0AC73F90141901A02B5E8DC0F42B1CFC02B5E8DC0F42B1CFE5764000000000000300FC0
340
14
340
0
340
11
340
0
 94
        0
1001
ACAD_MLEADERVER
1070
     2
  0
MLINESTYLE
  5
18
102
{ACAD_REACTORS
330
17
102
}
330
17
100
AcDbMlineStyle
  2
Standard
 70
     0
  3

 62
   256
 51
90.0
 52
90.0
 71
     2
 49
0.5
 62
   256
  6
BYLAYER
 49
-0.5
 62
   256
  6
BYLAYER
  0
ACAD_PROXY_OBJECT
  5
48
102
{ACAD_REACTORS
330
47
102
}
330
47
100
AcDbZombieObject
 90
      499
 91
      503
 93
       41
310
903313A31580
  0
ACAD_PROXY_OBJECT
  5
49
102
{ACAD_REACTORS
330
47
102
}
330
47
100
AcDbZombieObject
 90
      499
 91
      503
 93
      105
310
903313A324000000000000004000
  0
ACAD_PROXY_OBJECT
  5
4A
102
{ACAD_REACTORS
330
47
102
}
330
47
100
AcDbZombieObject
 90
      499
 91
      503
 93
      105
310
903313A344000000000000104000
  0
ACAD_PROXY_OBJECT
  5
4B
102
{ACAD_REACTORS
330
47
102
}
330
47
100
AcDbZombieObject
 90
      499
 91
      503
 93
      105
310
903313A354000000000000144000
  0
ACAD_PROXY_OBJECT
  5
4C
102
{ACAD_REACTORS
330
47
102
}
330
47
100
AcDbZombieObject
 90
      499
 91
      503
 93
      105
310
903313A384000000000000204000
  0
ACAD_PROXY_OBJECT
  5
4D
102
{ACAD_REACTORS
330
47
102
}
330
47
100
AcDbZombieObject
 90
      499
 91
      503
 93
      113
310
904313A31304000000000000244000
  0
ACAD_PROXY_OBJECT
  5
4E
102
{ACAD_REACTORS
330
47
102
}
330
47
100
AcDbZombieObject
 90
      499
 91
      503
 93
      113
310
904313A31364000000000000304000
  0
ACAD_PROXY_OBJECT
  5
4F
102
{ACAD_REACTORS
330
47
102
}
330
47
100
AcDbZombieObject
 90
      499
 91
      503
 93
      113
310
904313A32304000000000000344000
  0
ACAD_PROXY_OBJECT
  5
50
102
{ACAD_REACTORS
330
47
102
}
330
47
100
AcDbZombieObject
 90
      499
 91
      503
 93
      113
310
904313A333040000000000003E4000
  0
ACAD_PROXY_OBJECT
  5
51
102
{ACAD_REACTORS
330
47
102
}
330
47
100
AcDbZombieObject
 90
      499
 91
      503
 93
      113
310
904313A34304000000000000444000
  0
ACAD_PROXY_OBJECT
  5
52
102
{ACAD_REACTORS
330
47
102
}
330
47
100
AcDbZombieObject
 90
      499
 91
      503
 93
      113
310
904313A35304000000000000494000
  0
ACAD_PROXY_OBJECT
  5
53
102
{ACAD_REACTORS
330
47
102
}
330
47
100
AcDbZombieObject
 90
      499
 91
      503
 93
      121
310
905313A3130304000000000000594000
  0
ACAD_PROXY_OBJECT
  5
54
102
{ACAD_REACTORS
330
47
102
}
330
47
100
AcDbZombieObject
 90
      499
 91
      503
 93
      105
310
903323A310000000000000010100
  0
ACAD_PROXY_OBJECT
  5
55
102
{ACAD_REACTORS
330
47
102
}
330
47
100
AcDbZombieObject
 90
      499
 91
      503
 93
      105
310
903343A310000000000000410100
  0
ACAD_PROXY_OBJECT
  5
56
102
{ACAD_REACTORS
330
47
102
}
330
47
100
AcDbZombieObject
 90
      499
 91
      503
 93
      105
310
903383A310000000000000810100
  0
ACAD_PROXY_OBJECT
  5
57
102
{ACAD_REACTORS
330
47
102
}
330
47
100
AcDbZombieObject
 90
      499
 91
      503
 93
      113
310
90431303A310000000000000910100
  0
ACAD_PROXY_OBJECT
  5
58
102
{ACAD_REACTORS
330
47
102
}
330
47
100
AcDbZombieObject
 90
      499
 91
      503
 93
      121
310
9053130303A310000000000001650100
  0
ACAD_PROXY_OBJECT
  5
59
102
{ACAD_REACTORS
330
47
102
}
330
47
100
AcDbZombieObject
 90
      499
 91
      503
 93
      257
310
90E312F31323822203D2031272D3022000000000000200FC000000000000284000
  0
ACAD_PROXY_OBJECT
  5
5A
102
{ACAD_REACTORS
330
47
102
}
330
47
100
AcDbZombieObject
 90
      499
 91
      503
 93
      249
310
90D312F363422203D2031272D3022000000000000240FC000000000000284000
  0
ACAD_PROXY_OBJECT
  5
5B
102
{ACAD_REACTORS
330
47
102
}
330
47
100
AcDbZombieObject
 90
      499
 91
      503
 93
      249
310
90D312F333222203D2031272D3022000000000000280FC000000000000284000
  0
ACAD_PROXY_OBJECT
  5
5C
102
{ACAD_REACTORS
330
47
102
}
330
47
100
AcDbZombieObject
 90
      499
 91
      503
 93
      249
310
90D312F313622203D2031272D30220000000000002C0FC000000000000284000
  0
ACAD_PROXY_OBJECT
  5
5D
102
{ACAD_REACTORS
330
47
102
}
330
47
100
AcDbZombieObject
 90
      499
 91
      503
 93
      249
310
90D332F333222203D2031272D30220000000000002E0FC000000000000284000
  0
ACAD_PROXY_OBJECT
  5
5E
102
{ACAD_REACTORS
330
47
102
}
330
47
100
AcDbZombieObject
 90
      499
 91
      503
 93
      241
310
90C312F3822203D2031272D3022000000000000300FC000000000000284000
  0
ACAD_PROXY_OBJECT
  5
5F
102
{ACAD_REACTORS
330
47
102
}
330
47
100
AcDbZombieObject
 90
      499
 91
      503
 93
      249
310
90D332F313622203D2031272D3022000000000000320FC000000000000284000
  0
ACAD_PROXY_OBJECT
  5
60
102
{ACAD_REACTORS
330
47
102
}
330
47
100
AcDbZombieObject
 90
      499
 91
      503
 93
      241
310
90C312F3422203D2031272D3022000000000000340FC000000000000284000
  0
ACAD_PROXY_OBJECT
  5
61
102
{ACAD_REACTORS
330
47
102
}
330
47
100
AcDbZombieObject
 90
      499
 91
      503
 93
      241
310
90C332F3822203D2031272D3022000000000000360FC000000000000284000
  0
ACAD_PROXY_OBJECT
  5
62
102
{ACAD_REACTORS
330
47
102
}
330
47
100
AcDbZombieObject
 90
      499
 91
      503
 93
      241
310
90C312F3222203D2031272D3022000000000000380FC000000000000284000
  0
ACAD_PROXY_OBJECT
  5
63
102
{ACAD_REACTORS
330
47
102
}
330
47
100
AcDbZombieObject
 90
      499
 91
      503
 93
      241
310
90C332F3422203D2031272D30220000000000003A0FC000000000000284000
  0
ACAD_PROXY_OBJECT
  5
64
102
{ACAD_REACTORS
330
47
102
}
330
47
100
AcDbZombieObject
 90
      499
 91
      503
 93
      161
310
90A3122203D2031272D30224000000000000284000
  0
ACAD_PROXY_OBJECT
  5
65
102
{ACAD_REACTORS
330
47
102
}
330
47
100
AcDbZombieObject
 90
      499
 91
      503
 93
      257
310
90E312D312F3222203D2031272D30220000000000003E0FC000000000000284000
  0
ACAD_PROXY_OBJECT
  5
66
102
{ACAD_REACTORS
330
47
102
}
330
47
100
AcDbZombieObject
 90
      499
 91
      503
 93
      225
310
90A3322203D2031272D302200000000000002100000000000000284000
  0
ACAD_PROXY_OBJECT
  5
67
102
{ACAD_REACTORS
330
47
102
}
330
47
100
AcDbZombieObject
 90
      499
 91
      503
 93
      225
310
90A3622203D2031272D302200000000000006100000000000000284000
  0
ACAD_PROXY_OBJECT
  5
68
102
{ACAD_REACTORS
330
47
102
}
330
47
100
AcDbZombieObject
 90
      499
 91
      503
 93
      249
310
90D31272D3022203D2031272D30220000000000000A100000000000000284000
  0
ACAD_PROXY_OBJECT
  5
2F
102
{ACAD_REACTORS
330
2A
102
}
330
2A
100
AcDbZombieObject
 90
      499
 91
      501
 93
      436
310
42CC9915DA5C99599C985B595049028333333333333E33F0000000000000F90107901411070040501600405405064090741402480A0340
1001
ACAD
1000
AcDbSavedByObjectVersion
1070
     0
  0
ACAD_PROXY_OBJECT
  5
32
102
{ACAD_REACTORS
330
2A
102
}
330
2A
100
AcDbZombieObject
 90
      499
 91
      501
 93
      388
310
4150985CDA58D07406404333333333333E33F0000000000000F90107A41107004050150841D405064090741402480A0350
1001
ACAD
1000
AcDbSavedByObjectVersion
1070
     0
  0
ACAD_PROXY_OBJECT
  5
36
102
{ACAD_REACTORS
330
2A
102
}
330
2A
100
AcDbZombieObject
 90
      499
 91
      501
 93
      428
310
42109C9A59DA1D195B90C409028333333333333E33F0000000000000F9010790141107004050150841D405064090741402480A029950
1001
ACAD
1000
AcDbSavedByObjectVersion
1070
     0
  0
ACAD_PROXY_OBJECT
  5
3A
102
{ACAD_REACTORS
330
2A
102
}
330
2A
100
AcDbZombieObject
 90
      499
 91
      501
 93
      452
310
42D0DBDB1BDC90DA185B99D95104090240C333333333333E33F0000000000000F90108901411070040501508421405064090741402480A0350
1001
ACAD
1000
AcDbSavedByObjectVersion
1070
     0
  0
ACAD_PROXY_OBJECT
  5
34
102
{ACAD_REACTORS
330
2A
102
}
330
2A
100
AcDbZombieObject
 90
      499
 91
      501
 93
      500
310
4290DBDB98D95C1D1D585B10940D028333333333333E33F0000000000000F90107902409070040501000000000018199010841D405064090740C02480A0340
1001
ACAD
1000
AcDbSavedByObjectVersion
1070
     0
  0
ACAD_PROXY_OBJECT
  5
35
102
{ACAD_REACTORS
330
2A
102
}
330
2A
100
AcDbZombieObject
 90
      499
 91
      501
 93
      412
310
40D11A5B50B409028333333333333E33F0000000000000F9010790141107004050150841D405064090741402480A02677FFFFFD0
1001
ACAD
1000
AcDbSavedByObjectVersion
1070
     0
  0
ACAD_PROXY_OBJECT
  5
3D
102
{ACAD_REACTORS
330
2A
102
}
330
2A
100
AcDbZombieObject
 90
      499
 91
      501
 93
      452
310
43115919D950DBDB1BDC93D999916409028333333333333E33F0000000000000F9010790141107004050150841D405064090741402480A0350
1001
ACAD
1000
AcDbSavedByObjectVersion
1070
     0
  0
ACAD_PROXY_OBJECT
  5
39
102
{ACAD_REACTORS
330
2A
102
}
330
2A
100
AcDbZombieObject
 90
      499
 91
      501
 93
      444
310
42D19858D95C185D1D195C9B90F409028333333333333E33F0000000000000F9010790141107004050150841D405064090741402480A0350
1001
ACAD
1000
AcDbSavedByObjectVersion
1070
     0
  0
ACAD_PROXY_OBJECT
  5
2B
102
{ACAD_REACTORS
330
2A
102
}
330
2A
100
AcDbZombieObject
 90
      499
 91
      501
 93
      380
310
41119B185D240901404333333333333E33F0000000000000F9010740A907004050150841D405064090741402480A1B50
1001
ACAD
1000
AcDbSavedByObjectVersion
1070
     0
  0
ACAD_PROXY_OBJECT
  5
2C
102
{ACAD_REACTORS
330
2A
102
}
330
2A
100
AcDbZombieObject
 90
      499
 91
      501
 93
      468
310
43519B185D15DA5D1A115919D95CD0140901404333333333333E33F0000000000000F90107409019070040501600405405064090741402480A1B50
1001
ACAD
1000
AcDbSavedByObjectVersion
1070
     0
  0
ACAD_PROXY_OBJECT
  5
2D
102
{ACAD_REACTORS
330
2A
102
}
330
2A
100
AcDbZombieObject
 90
      499
 91
      501
 93
      404
310
41D1DBDD5C985D5910240902404333333333333E33F0000000000000F9010740A9070040501641D405064090741402480A1B50
1001
ACAD
1000
AcDbSavedByObjectVersion
1070
     0
  0
ACAD_PROXY_OBJECT
  5
2E
102
{ACAD_REACTORS
330
2A
102
}
330
2A
100
AcDbZombieObject
 90
      499
 91
      501
 93
      492
310
4411DBDD5C985D5915DA5D1A115919D95CD0340902404333333333333E33F0000000000000F90107409019070040501600405405064090741402480A1B50
1001
ACAD
1000
AcDbSavedByObjectVersion
1070
     0
  0
ACAD_PROXY_OBJECT
  5
31
102
{ACAD_REACTORS
330
2A
102
}
330
2A
100
AcDbZombieObject
 90
      499
 91
      501
 93
      476
310
41921A5919195B90640502408333333333333E33F0000000000000F901079024090700405020000000000001110200405405064090740C02480A0340
1001
ACAD
1000
AcDbSavedByObjectVersion
1070
     0
  0
ACAD_PROXY_OBJECT
  5
3B
102
{ACAD_REACTORS
330
2A
102
}
330
2A
100
AcDbZombieObject
 90
      499
 91
      501
 93
      428
310
42529A5D1D195C93D999914409028333333333333E33F0000000000000F9010790141107004050150A41D405064090741402480A0350
1001
ACAD
1000
AcDbSavedByObjectVersion
1070
     0
  0
ACAD_PROXY_OBJECT
  5
38
102
{ACAD_REACTORS
330
2A
102
}
330
2A
100
AcDbZombieObject
 90
      499
 91
      501
 93
      444
310
42D31A5B995C185D1D195C9B90E409028333333333333E33F0000000000000F9010790141107004050750841D405064090741402483A0350
1001
ACAD
1000
AcDbSavedByObjectVersion
1070
     0
  0
ACAD_PROXY_OBJECT
  5
3C
102
{ACAD_REACTORS
330
2A
102
}
330
2A
100
AcDbZombieObject
 90
      499
 91
      501
 93
      444
310
42D3DD995C9A185B99D3D999915409028333333333333E33F0000000000000F9010790141107004050150941D405064090741402480A0350
1001
ACAD
1000
AcDbSavedByObjectVersion
1070
     0
  0
ACAD_PROXY_OBJECT
  5
33
102
{ACAD_REACTORS
330
2A
102
}
330
2A
100
AcDbZombieObject
 90
      499
 91
      501
 93
      428
310
425499585B1A5CDD1A58D08409038333333333333E33F0000000000000F9010740A907004050150800405405064090740C02480A1B40
1001
ACAD
1000
AcDbSavedByObjectVersion
1070
     0
  0
ACAD_PROXY_OBJECT
  5
42
102
{ACAD_REACTORS
330
2A
102
}
330
2A
100
AcDbZombieObject
 90
      499
 91
      501
 93
      420
310
4194DA1859195911B40902404333333333333E33F0000000000000F9010740A41107004050150800405405064090840C02480A0B40
1001
ACAD
1000
AcDbSavedByObjectVersion
1070
     0
  0
ACAD_PROXY_OBJECT
  5
41
102
{ACAD_REACTORS
330
2A
102
}
330
2A
100
AcDbZombieObject
 90
      499
 91
      501
 93
      516
310
4454DA18591959081DDA5D1A08195919D95CD1A40902404333333333333E33F0000000000000F901074090142907004050250800405405064090740C02480A0B40
1001
ACAD
1000
AcDbSavedByObjectVersion
1070
     0
  0
ACAD_PROXY_OBJECT
  5
3E
102
{ACAD_REACTORS
330
2A
102
}
330
2A
100
AcDbZombieObject
 90
      499
 91
      501
 93
      532
310
4394DA1859195CC81BD98811DC985E5174090240C333333333333E33F0000000000000F901079024090741D01000000000000111010841D405064090740C02480A0340
1001
ACAD
1000
AcDbSavedByObjectVersion
1070
     0
  0
ACAD_PROXY_OBJECT
  5
3F
102
{ACAD_REACTORS
330
2A
102
}
330
2A
100
AcDbZombieObject
 90
      499
 91
      501
 93
      476
310
41D4DAD95D18DA1E51840502408333333333333E33F0000000000000F901079024090741D01000000000000111010B41D405064090741802480A0340
1001
ACAD
1000
AcDbSavedByObjectVersion
1070
     0
  0
ACAD_PROXY_OBJECT
  5
37
102
{ACAD_REACTORS
330
2A
102
}
330
2A
100
AcDbZombieObject
 90
      499
 91
      501
 93
      412
310
41D51A1A58DAD95B90D409028333333333333E33F0000000000000F9010790141107004050150C41D405064090741402480A0350
1001
ACAD
1000
AcDbSavedByObjectVersion
1070
     0
  0
ACAD_PROXY_OBJECT
  5
30
102
{ACAD_REACTORS
330
2A
102
}
330
2A
100
AcDbZombieObject
 90
      499
 91
      501
 93
      420
310
4255DA5C99599C985B595059028333333333333E33F0000000000000F90107901411070040501600405405064090740C02480A0340
1001
ACAD
1000
AcDbSavedByObjectVersion
1070
     0
  0
ACAD_PROXY_OBJECT
  5
40
102
{ACAD_REACTORS
330
2A
102
}
330
2A
100
AcDbZombieObject
 90
      499
 91
      501
 93
      404
310
41560B54985E51940902404000000000000E03F0000000000000F9010740501907004050150841D405064090740C02480A1B40
1001
ACAD
1000
AcDbSavedByObjectVersion
1070
     0
  0
DICTIONARYVAR
  5
104
102
{ACAD_REACTORS
330
103
102
}
330
103
100
DictionaryVariables
280
     0
  1
1:1
  0
DICTIONARYVAR
  5
145
102
{ACAD_REACTORS
330
103
102
}
330
103
100
DictionaryVariables
280
     0
  1
Standard
  0
DICTIONARYVAR
  5
144
102
{ACAD_REACTORS
330
103
102
}
330
103
100
DictionaryVariables
280
     0
  1
Standard
  0
DICTIONARYVAR
  5
148
102
{ACAD_REACTORS
330
103
102
}
330
103
100
DictionaryVariables
280
     0
  1
2
  0
DICTIONARYVAR
  5
149
102
{ACAD_REACTORS
330
103
102
}
330
103
100
DictionaryVariables
280
     0
  1
1
  0
DICTIONARYVAR
  5
105
102
{ACAD_REACTORS
330
103
102
}
330
103
100
DictionaryVariables
280
     0
  1
1
  0
DICTIONARYVAR
  5
106
102
{ACAD_REACTORS
330
103
102
}
330
103
100
DictionaryVariables
280
     0
  1
2
  0
DICTIONARY
  5
14D
330
45
100
AcDbDictionary
  3
ACAD_XREC_ROUNDTRIP
360
14E
1001
ACAD
1000
TREAT_AS_HARD
1070
     1
  0
DICTIONARY
  5
14B
330
44
100
AcDbDictionary
  3
ACAD_XREC_ROUNDTRIP
360
14C
1001
ACAD
1000
TREAT_AS_HARD
1070
     1
  0
DICTIONARY
  5
14F
330
46
100
AcDbDictionary
  3
ACAD_XREC_ROUNDTRIP
360
150
1001
ACAD
1000
TREAT_AS_HARD
1070
     1
  0
XRECORD
  5
14E
102
{ACAD_REACTORS
330
14D
102
}
330
14D
100
AcDbXrecord
102
MATERIAL
148
0.0
149
0.0
149
0.0
 93
        0
 94
      127
282
     0
 72
     1
 77
     1
171
     1
175
     1
179
     1
273
     0
  0
XRECORD
  5
14C
102
{ACAD_REACTORS
330
14B
102
}
330
14B
100
AcDbXrecord
102
MATERIAL
148
0.0
149
0.0
149
0.0
 93
        0
 94
      127
282
     0
 72
     1
 77
     1
171
     1
175
     1
179
     1
273
     0
  0
XRECORD
  5
150
102
{ACAD_REACTORS
330
14F
102
}
330
14F
100
AcDbXrecord
102
MATERIAL
148
0.0
149
0.0
149
0.0
 93
        0
 94
      127
282
     0
 72
     1
 77
     1
171
     1
175
     1
179
     1
273
     0
  0
ENDSEC
  0
EOF
